<?xml version="1.0" encoding="UTF-8" standalone="no"?>
<!-- Created with Inkscape (http://www.inkscape.org/) -->

<svg
   xmlns:dc="http://purl.org/dc/elements/1.1/"
   xmlns:cc="http://creativecommons.org/ns#"
   xmlns:rdf="http://www.w3.org/1999/02/22-rdf-syntax-ns#"
   xmlns:svg="http://www.w3.org/2000/svg"
   xmlns="http://www.w3.org/2000/svg"
   xmlns:sodipodi="http://sodipodi.sourceforge.net/DTD/sodipodi-0.dtd"
   xmlns:inkscape="http://www.inkscape.org/namespaces/inkscape"
   width="162"
   height="162"
   viewBox="0 0 42.862496 42.862496"
   version="1.1"
   id="svg8"
   inkscape:version="0.92.3 (2405546, 2018-03-11)"
   sodipodi:docname="avaliação-back.svg">
  <defs
     id="defs2">
    <clipPath
       id="clipPath255"
       clipPathUnits="userSpaceOnUse">
      <path
         inkscape:connector-curvature="0"
         id="path253"
         d="m 317.076,323.887 c 0,-8.358 6.776,-15.133 15.133,-15.133 v 0 c 8.357,0 15.132,6.775 15.132,15.133 v 0 c 0,8.357 -6.775,15.131 -15.132,15.131 v 0 c -8.357,0 -15.133,-6.774 -15.133,-15.131" />
    </clipPath>
  </defs>
  <sodipodi:namedview
     id="base"
     pagecolor="#ffffff"
     bordercolor="#666666"
     borderopacity="1.0"
     inkscape:pageopacity="0.0"
     inkscape:pageshadow="2"
     inkscape:zoom="2.8"
     inkscape:cx="52.084792"
     inkscape:cy="127.00862"
     inkscape:document-units="mm"
     inkscape:current-layer="layer1"
     showgrid="false"
     inkscape:pagecheckerboard="true"
     inkscape:window-width="2560"
     inkscape:window-height="1012"
     inkscape:window-x="0"
     inkscape:window-y="0"
     inkscape:window-maximized="1"
     units="px" />
  <metadata
     id="metadata5">
    <rdf:RDF>
      <cc:Work
         rdf:about="">
        <dc:format>image/svg+xml</dc:format>
        <dc:type
           rdf:resource="http://purl.org/dc/dcmitype/StillImage" />
        <dc:title></dc:title>
      </cc:Work>
    </rdf:RDF>
  </metadata>
  <g
     inkscape:label="Camada 1"
     inkscape:groupmode="layer"
     id="layer1"
     transform="translate(0,-254.13751)">
    <g
       id="g307"
       transform="matrix(0.25599141,0,0,-0.25599141,2.4897556,294.69426)">
          path
             d=&quot;m 0,0 c -1.141,0 -2.07,0.929 -2.07,2.07 0,1.141 0.929,2.07 2.07,2.07 0.603,0 1.175,-0.262 1.568,-0.719 L 1.395,3.272 C 1.044,3.678 0.536,3.911 0,3.911 c -1.015,0 -1.841,-0.826 -1.841,-1.841 0,-1.015 0.826,-1.841 1.841,-1.841 1.015,0 1.841,0.826 1.841,1.841 0,0.228 -0.041,0.45 -0.122,0.66 L 1.933,2.813 C 2.024,2.576 2.07,2.326 2.07,2.07 2.07,0.929 1.141,0 0,0&quot;
             style=&quot;fill:#231f20;fill-opacity:1;fill-rule:nonzero;stroke:none&quot;
             id=&quot;path309&quot;
             inkscape:connector-curvature=&quot;0&quot; /&gt;
        </g>
    <g
       id="g1032"
       transform="matrix(2.7215435,0,0,2.7215435,-0.31009148,-511.05317)">
      <g
         transform="matrix(0.51513583,0,0,-0.51513583,15.77071,289.0625)"
         id="g257">
        <path
           inkscape:connector-curvature="0"
           id="path259"
           style="fill:#3b7eca;fill-opacity:1;fill-rule:nonzero;stroke:none"
           d="m 0,0 c 0,-8.357 -6.775,-15.132 -15.133,-15.132 -8.357,0 -15.132,6.775 -15.132,15.132 0,8.357 6.775,15.132 15.132,15.132 C -6.775,15.132 0,8.357 0,0" />
      </g>
      <g
         transform="matrix(0.51513583,0,0,-0.51513583,13.847517,295.85789)"
         id="g261">
        <path
           inkscape:connector-curvature="0"
           id="path263"
           style="fill:#ffffff;fill-opacity:1;fill-rule:nonzero;stroke:none"
           d="m 0,0 h -21.813 v 23.208 3.257 H 0 Z" />
      </g>
      <path
         inkscape:connector-curvature="0"
         id="path265"
         style="fill:#ef287c;fill-opacity:1;fill-rule:nonzero;stroke:none;stroke-width:0.51513582"
         d="M 13.953635,284.26735 H 2.8612156 v -2.20118 H 13.953635 Z" />
      <g
         transform="matrix(0.51513583,0,0,-0.51513583,10.340164,286.25912)"
         id="g267">
        <path
           inkscape:connector-curvature="0"
           id="path269"
           style="fill:#b5b4b2;fill-opacity:1;fill-rule:nonzero;stroke:none"
           d="m 0,0 h -6.287 c -0.171,0 -0.308,0.138 -0.308,0.308 0,0.17 0.137,0.308 0.308,0.308 H 0 C 0.17,0.616 0.308,0.478 0.308,0.308 0.308,0.138 0.17,0 0,0" />
      </g>
      <g
         transform="matrix(0.51513583,0,0,-0.51513583,10.340164,290.14339)"
         id="g271">
        <path
           inkscape:connector-curvature="0"
           id="path273"
           style="fill:#b5b4b2;fill-opacity:1;fill-rule:nonzero;stroke:none"
           d="m 0,0 h -6.287 c -0.171,0 -0.308,0.138 -0.308,0.308 0,0.17 0.137,0.308 0.308,0.308 H 0 C 0.17,0.616 0.308,0.478 0.308,0.308 0.308,0.138 0.17,0 0,0" />
      </g>
      <g
         transform="matrix(0.51513583,0,0,-0.51513583,10.164348,292.54841)"
         id="g275">
        <path
           inkscape:connector-curvature="0"
           id="path277"
           style="fill:#b5b4b2;fill-opacity:1;fill-rule:nonzero;stroke:none"
           d="m 0,0 h -6.287 c -0.17,0 -0.308,0.138 -0.308,0.308 0,0.17 0.138,0.308 0.308,0.308 H 0 C 0.17,0.616 0.308,0.478 0.308,0.308 0.308,0.138 0.17,0 0,0" />
      </g>
      <g
         transform="matrix(0.51513583,0,0,-0.51513583,10.164348,293.30555)"
         id="g279">
        <path
           inkscape:connector-curvature="0"
           id="path281"
           style="fill:#b5b4b2;fill-opacity:1;fill-rule:nonzero;stroke:none"
           d="m 0,0 h -6.287 c -0.17,0 -0.308,0.138 -0.308,0.308 0,0.17 0.138,0.308 0.308,0.308 H 0 C 0.17,0.616 0.308,0.478 0.308,0.308 0.308,0.138 0.17,0 0,0" />
      </g>
      <g
         transform="matrix(0.51513583,0,0,-0.51513583,11.561087,289.29667)"
         id="g283">
        <path
           inkscape:connector-curvature="0"
           id="path285"
           style="fill:#b5b4b2;fill-opacity:1;fill-rule:nonzero;stroke:none"
           d="m 0,0 h -8.615 c -0.17,0 -0.308,0.138 -0.308,0.308 0,0.17 0.138,0.308 0.308,0.308 H 0 C 0.17,0.616 0.308,0.478 0.308,0.308 0.308,0.138 0.17,0 0,0" />
      </g>
      <g
         transform="matrix(0.51513583,0,0,-0.51513583,11.472793,287.11641)"
         id="g287">
        <path
           inkscape:connector-curvature="0"
           id="path289"
           style="fill:#b5b4b2;fill-opacity:1;fill-rule:nonzero;stroke:none"
           d="m 0,0 h -8.615 c -0.17,0 -0.308,0.138 -0.308,0.308 0,0.17 0.138,0.308 0.308,0.308 H 0 C 0.17,0.616 0.308,0.478 0.308,0.308 0.308,0.138 0.17,0 0,0" />
      </g>
      <g
         transform="matrix(0.51513583,0,0,-0.51513583,4.6321494,286.28471)"
         id="g291">
        <path
           inkscape:connector-curvature="0"
           id="path293"
           style="fill:#4db396;fill-opacity:1;fill-rule:nonzero;stroke:none"
           d="m 0,0 v 0 c 0.166,0.128 0.404,0.092 0.525,-0.078 l 0.343,-0.481 2.76,2.661 C 3.777,2.245 4.015,2.238 4.155,2.086 v 0 C 4.292,1.938 4.285,1.709 4.139,1.57 L 1.036,-1.4 C 0.896,-1.534 0.669,-1.515 0.554,-1.358 L -0.071,-0.51 C -0.19,-0.349 -0.159,-0.122 0,0" />
      </g>
      <g
         transform="matrix(0.51513583,0,0,-0.51513583,4.533295,289.37748)"
         id="g295">
        <path
           inkscape:connector-curvature="0"
           id="path297"
           style="fill:#4db396;fill-opacity:1;fill-rule:nonzero;stroke:none"
           d="m 0,0 v 0 c 0.166,0.128 0.404,0.092 0.525,-0.078 l 0.343,-0.481 2.76,2.661 C 3.777,2.245 4.015,2.238 4.155,2.086 v 0 C 4.292,1.938 4.285,1.709 4.14,1.57 L 1.037,-1.4 C 0.896,-1.534 0.669,-1.515 0.554,-1.358 L -0.071,-0.51 C -0.19,-0.349 -0.158,-0.122 0,0" />
      </g>
      <g
         transform="matrix(0.51513583,0,0,-0.51513583,5.3742027,292.79758)"
         id="g299">
        <path
           inkscape:connector-curvature="0"
           id="path301"
           style="fill:#ef287c;fill-opacity:1;fill-rule:nonzero;stroke:none"
           d="M 0,0 V 0.002 L 0.018,-0.016 0.594,0.56 c 0.064,0.064 0.064,0.169 0,0.233 L 0.348,1.039 C 0.285,1.102 0.182,1.103 0.118,1.041 L -0.461,0.483 -1.009,1.05 c -0.064,0.066 -0.17,0.067 -0.235,0.002 L -1.521,0.776 c -0.063,-0.065 -0.063,-0.169 0,-0.233 l 0.55,-0.549 -0.563,-0.543 C -1.6,-0.613 -1.601,-0.719 -1.536,-0.784 l 0.277,-0.277 c 0.064,-0.064 0.168,-0.064 0.233,0 l 0.554,0.555 0.572,-0.572 c 0.065,-0.064 0.169,-0.064 0.233,0 l 0.246,0.246 c 0.064,0.064 0.064,0.166 0.002,0.231 z" />
      </g>
      <path
         inkscape:connector-curvature="0"
         id="path303"
         style="fill:#231f20;fill-opacity:1;fill-rule:nonzero;stroke:none;stroke-width:0.51513582"
         d="M 2.4516825,295.99133 H 13.427682 V 282.52669 H 2.4516825 Z m 11.1444485,0.16843 H 2.2832331 V 282.35772 H 13.596131 Z" />
      <path
         inkscape:connector-curvature="0"
         id="path305"
         style="fill:#231f20;fill-opacity:1;fill-rule:nonzero;stroke:none;stroke-width:0.51513582"
         d="M 13.512164,284.7696 H 2.2749911 v -0.16843 H 13.512164 Z" />
      <g
         transform="matrix(0.51513583,0,0,-0.51513583,5.0179862,287.66724)"
         id="g311">
        <path
           inkscape:connector-curvature="0"
           id="path313"
           style="fill:#231f20;fill-opacity:1;fill-rule:nonzero;stroke:none"
           d="m 0,0 c -1.141,0 -2.07,0.929 -2.07,2.07 0,1.141 0.929,2.07 2.07,2.07 0.614,0 1.192,-0.27 1.587,-0.74 L 1.411,3.252 C 1.06,3.671 0.546,3.911 0,3.911 c -1.015,0 -1.841,-0.826 -1.841,-1.841 0,-1.015 0.826,-1.841 1.841,-1.841 1.015,0 1.841,0.826 1.841,1.841 0,0.225 -0.04,0.445 -0.119,0.652 L 1.936,2.804 C 2.025,2.57 2.07,2.323 2.07,2.07 2.07,0.929 1.141,0 0,0" />
      </g>
      <g
         transform="matrix(0.51513583,0,0,-0.51513583,5.0179862,291.92303)"
         id="g315">
        <path
           inkscape:connector-curvature="0"
           id="path317"
           style="fill:#231f20;fill-opacity:1;fill-rule:nonzero;stroke:none"
           d="m 0,0 c -1.015,0 -1.841,-0.826 -1.841,-1.841 0,-1.015 0.826,-1.841 1.841,-1.841 1.015,0 1.841,0.826 1.841,1.841 C 1.841,-0.826 1.015,0 0,0 m 0,-3.911 c -1.141,0 -2.07,0.929 -2.07,2.07 0,1.142 0.929,2.07 2.07,2.07 1.141,0 2.07,-0.928 2.07,-2.07 0,-1.141 -0.929,-2.07 -2.07,-2.07" />
      </g>
      <g
         transform="matrix(0.51513583,0,0,-0.51513583,6.9391854,286.15939)"
         id="g319">
        <path
           inkscape:connector-curvature="0"
           id="path321"
           style="fill:#231f20;fill-opacity:1;fill-rule:nonzero;stroke:none"
           d="m 0,0 c -0.095,0 -0.172,-0.077 -0.172,-0.173 v -0.042 c 0,-0.095 0.077,-0.172 0.172,-0.172 h 6.329 c 0.096,0 0.173,0.077 0.173,0.172 v 0.042 C 6.502,-0.077 6.425,0 6.329,0 Z M 6.329,-0.616 H 0 c -0.222,0 -0.401,0.18 -0.401,0.401 v 0.042 c 0,0.222 0.179,0.402 0.401,0.402 h 6.329 c 0.222,0 0.402,-0.18 0.402,-0.402 v -0.042 c 0,-0.221 -0.18,-0.401 -0.402,-0.401" />
      </g>
      <g
         transform="matrix(0.51513583,0,0,-0.51513583,6.9391854,290.04366)"
         id="g323">
        <path
           inkscape:connector-curvature="0"
           id="path325"
           style="fill:#231f20;fill-opacity:1;fill-rule:nonzero;stroke:none"
           d="m 0,0 c -0.095,0 -0.172,-0.077 -0.172,-0.172 v -0.043 c 0,-0.095 0.077,-0.172 0.172,-0.172 h 6.329 c 0.096,0 0.173,0.077 0.173,0.172 v 0.043 C 6.502,-0.077 6.425,0 6.329,0 Z M 6.329,-0.616 H 0 c -0.222,0 -0.401,0.18 -0.401,0.401 v 0.043 c 0,0.221 0.179,0.401 0.401,0.401 h 6.329 c 0.222,0 0.402,-0.18 0.402,-0.401 v -0.043 c 0,-0.221 -0.18,-0.401 -0.402,-0.401" />
      </g>
      <g
         transform="matrix(0.51513583,0,0,-0.51513583,6.9391854,293.20825)"
         id="g327">
        <path
           inkscape:connector-curvature="0"
           id="path329"
           style="fill:#231f20;fill-opacity:1;fill-rule:nonzero;stroke:none"
           d="m 0,0 c -0.095,0 -0.172,-0.077 -0.172,-0.172 v -0.043 c 0,-0.095 0.077,-0.172 0.172,-0.172 h 6.329 c 0.096,0 0.173,0.077 0.173,0.172 v 0.043 C 6.502,-0.077 6.425,0 6.329,0 Z M 6.329,-0.616 H 0 c -0.222,0 -0.401,0.18 -0.401,0.401 v 0.043 c 0,0.221 0.179,0.401 0.401,0.401 h 6.329 c 0.222,0 0.402,-0.18 0.402,-0.401 v -0.043 c 0,-0.221 -0.18,-0.401 -0.402,-0.401" />
      </g>
      <g
         transform="matrix(0.51513583,0,0,-0.51513583,6.9391854,292.42498)"
         id="g331">
        <path
           inkscape:connector-curvature="0"
           id="path333"
           style="fill:#231f20;fill-opacity:1;fill-rule:nonzero;stroke:none"
           d="m 0,0 c -0.095,0 -0.172,-0.077 -0.172,-0.172 v -0.043 c 0,-0.095 0.077,-0.172 0.172,-0.172 h 6.329 c 0.096,0 0.173,0.077 0.173,0.172 v 0.043 C 6.502,-0.077 6.425,0 6.329,0 Z M 6.329,-0.616 H 0 c -0.222,0 -0.401,0.18 -0.401,0.401 v 0.043 c 0,0.221 0.179,0.401 0.401,0.401 h 6.329 c 0.222,0 0.402,-0.18 0.402,-0.401 v -0.043 c 0,-0.221 -0.18,-0.401 -0.402,-0.401" />
      </g>
      <g
         transform="matrix(0.51513583,0,0,-0.51513583,6.9500032,287.01674)"
         id="g335">
        <path
           inkscape:connector-curvature="0"
           id="path337"
           style="fill:#231f20;fill-opacity:1;fill-rule:nonzero;stroke:none"
           d="m 0,0 c -0.106,0 -0.193,-0.087 -0.193,-0.193 0,-0.107 0.087,-0.194 0.193,-0.194 h 8.567 c 0.107,0 0.194,0.087 0.194,0.194 C 8.761,-0.087 8.674,0 8.567,0 Z M 8.567,-0.616 H 0 c -0.233,0 -0.422,0.189 -0.422,0.423 0,0.233 0.189,0.422 0.422,0.422 h 8.567 c 0.234,0 0.423,-0.189 0.423,-0.422 0,-0.234 -0.189,-0.423 -0.423,-0.423" />
      </g>
      <g
         transform="matrix(0.51513583,0,0,-0.51513583,6.9500032,289.19694)"
         id="g339">
        <path
           inkscape:connector-curvature="0"
           id="path341"
           style="fill:#231f20;fill-opacity:1;fill-rule:nonzero;stroke:none"
           d="m 0,0 c -0.106,0 -0.193,-0.087 -0.193,-0.194 0,-0.106 0.087,-0.193 0.193,-0.193 h 8.567 c 0.107,0 0.194,0.087 0.194,0.193 C 8.761,-0.087 8.674,0 8.567,0 Z M 8.567,-0.616 H 0 c -0.233,0 -0.422,0.189 -0.422,0.422 0,0.233 0.189,0.423 0.422,0.423 h 8.567 c 0.234,0 0.423,-0.19 0.423,-0.423 0,-0.233 -0.189,-0.422 -0.423,-0.422" />
      </g>
      <g
         transform="matrix(0.51513583,0,0,-0.51513583,4.6286466,286.46146)"
         id="g343">
        <path
           inkscape:connector-curvature="0"
           id="path345"
           style="fill:#231f20;fill-opacity:1;fill-rule:nonzero;stroke:none"
           d="m 0,0 c -0.056,0 -0.109,-0.018 -0.154,-0.053 v 0 c -0.108,-0.083 -0.13,-0.241 -0.049,-0.351 l 0.608,-0.825 c 0.041,-0.055 0.1,-0.088 0.168,-0.094 0.067,-0.006 0.133,0.017 0.181,0.064 l 3.082,2.95 C 3.936,1.786 3.94,1.945 3.847,2.046 3.8,2.097 3.736,2.126 3.667,2.128 3.603,2.132 3.534,2.105 3.484,2.057 L 0.627,-0.696 0.208,-0.106 C 0.167,-0.05 0.107,-0.013 0.038,-0.003 0.026,-0.001 0.013,0 0,0 m 0.593,-1.553 c -0.013,0 -0.027,10e-4 -0.04,0.002 C 0.42,-1.54 0.3,-1.472 0.221,-1.365 l -0.608,0.825 c -0.155,0.209 -0.113,0.509 0.093,0.669 0.105,0.081 0.235,0.114 0.366,0.095 0.131,-0.02 0.246,-0.09 0.323,-0.198 L 0.66,-0.347 3.325,2.222 C 3.419,2.313 3.542,2.363 3.674,2.357 3.805,2.353 3.926,2.298 4.015,2.202 4.193,2.009 4.184,1.706 3.995,1.525 L 0.913,-1.425 C 0.826,-1.507 0.711,-1.553 0.593,-1.553" />
      </g>
      <g
         transform="matrix(0.51513583,0,0,-0.51513583,4.6286466,289.57727)"
         id="g347">
        <path
           inkscape:connector-curvature="0"
           id="path349"
           style="fill:#231f20;fill-opacity:1;fill-rule:nonzero;stroke:none"
           d="m 0,0 c -0.056,0 -0.109,-0.018 -0.154,-0.053 v 0 c -0.108,-0.083 -0.13,-0.241 -0.049,-0.351 l 0.625,-0.848 c 0.036,-0.049 0.089,-0.079 0.15,-0.084 0.057,-0.005 0.117,0.015 0.161,0.057 l 3.103,2.97 C 3.936,1.786 3.94,1.945 3.847,2.046 3.8,2.097 3.736,2.126 3.667,2.128 3.603,2.129 3.534,2.105 3.484,2.057 L 0.627,-0.696 0.208,-0.107 C 0.167,-0.05 0.107,-0.013 0.038,-0.003 0.025,-0.001 0.013,0 0,0 m 0.589,-1.566 c -0.012,0 -0.025,0.001 -0.037,0.002 -0.125,0.011 -0.24,0.075 -0.314,0.176 L -0.387,-0.54 C -0.542,-0.331 -0.5,-0.031 -0.294,0.129 -0.189,0.21 -0.06,0.243 0.072,0.224 0.203,0.204 0.318,0.134 0.395,0.026 L 0.66,-0.347 3.325,2.222 C 3.419,2.313 3.542,2.363 3.674,2.357 3.805,2.353 3.926,2.298 4.015,2.202 4.193,2.009 4.184,1.706 3.995,1.525 L 0.892,-1.445 C 0.81,-1.523 0.702,-1.566 0.589,-1.566" />
      </g>
      <g
         transform="matrix(0.51513583,0,0,-0.51513583,5.3118197,292.92019)"
         id="g351">
        <path
           inkscape:connector-curvature="0"
           id="path353"
           style="fill:#231f20;fill-opacity:1;fill-rule:nonzero;stroke:none"
           d="m 0,0 -0.162,0.162 0.577,0.576 c 0.019,0.02 0.019,0.051 0,0.071 L 0.168,1.055 C 0.149,1.074 0.118,1.075 0.099,1.056 l -0.58,-0.559 -0.16,0.165 0.58,0.559 C 0.048,1.326 0.224,1.324 0.331,1.217 L 0.577,0.971 C 0.629,0.918 0.658,0.848 0.658,0.774 0.658,0.699 0.629,0.629 0.577,0.576 Z" />
      </g>
      <g
         transform="matrix(0.51513583,0,0,-0.51513583,4.6723817,293.50018)"
         id="g355">
        <path
           inkscape:connector-curvature="0"
           id="path357"
           style="fill:#231f20;fill-opacity:1;fill-rule:nonzero;stroke:none"
           d="m 0,0 c -0.075,0 -0.145,0.029 -0.197,0.082 l -0.277,0.276 c -0.053,0.053 -0.082,0.125 -0.082,0.2 0.001,0.075 0.031,0.146 0.085,0.198 L 0.152,1.358 0.312,1.193 -0.312,0.591 C -0.324,0.579 -0.327,0.564 -0.327,0.556 c 0,-0.008 0.002,-0.023 0.015,-0.036 l 0.276,-0.276 c 0.017,-0.017 0.055,-0.017 0.072,0 L 0.655,0.863 0.816,0.701 0.197,0.082 C 0.145,0.029 0.075,0 0,0" />
      </g>
      <g
         transform="matrix(0.51513583,0,0,-0.51513583,5.3726573,293.50903)"
         id="g359">
        <path
           inkscape:connector-curvature="0"
           id="path361"
           style="fill:#231f20;fill-opacity:1;fill-rule:nonzero;stroke:none"
           d="m 0,0 c -0.075,0 -0.145,0.029 -0.197,0.082 l -0.632,0.632 0.162,0.162 0.631,-0.632 c 0.02,-0.02 0.052,-0.02 0.071,0 L 0.281,0.49 c 0.02,0.019 0.02,0.05 10e-4,0.07 l -0.631,0.652 0.165,0.159 0.63,-0.652 C 0.552,0.61 0.55,0.435 0.443,0.328 L 0.197,0.082 C 0.145,0.029 0.074,0 0,0" />
      </g>
      <g
         transform="matrix(0.51513583,0,0,-0.51513583,4.7501157,292.94599)"
         id="g363">
        <path
           inkscape:connector-curvature="0"
           id="path365"
           style="fill:#231f20;fill-opacity:1;fill-rule:nonzero;stroke:none"
           d="m 0,0 -0.609,0.609 c -0.053,0.053 -0.082,0.123 -0.082,0.198 0,0.074 0.029,0.144 0.082,0.197 l 0.276,0.277 c 0.053,0.052 0.123,0.081 0.197,0.081 h 0.003 c 0.075,0 0.146,-0.031 0.198,-0.085 L 0.677,0.644 0.512,0.484 -0.1,1.118 c -0.012,0.013 -0.027,0.015 -0.036,0.015 -0.008,0 -0.023,-0.002 -0.035,-0.015 L -0.448,0.842 c -0.016,-0.017 -0.016,-0.054 0,-0.071 l 0.61,-0.609 z" />
      </g>
    </g>
  </g>
</svg>
