<?xml version="1.0" encoding="UTF-8" standalone="no"?>
<!-- Created with Inkscape (http://www.inkscape.org/) -->

<svg
   xmlns:dc="http://purl.org/dc/elements/1.1/"
   xmlns:cc="http://creativecommons.org/ns#"
   xmlns:rdf="http://www.w3.org/1999/02/22-rdf-syntax-ns#"
   xmlns:svg="http://www.w3.org/2000/svg"
   xmlns="http://www.w3.org/2000/svg"
   xmlns:sodipodi="http://sodipodi.sourceforge.net/DTD/sodipodi-0.dtd"
   xmlns:inkscape="http://www.inkscape.org/namespaces/inkscape"
   width="210mm"
   height="210mm"
   viewBox="0 0 210 210"
   version="1.1"
   id="svg8"
   inkscape:version="0.92.3 (2405546, 2018-03-11)"
   sodipodi:docname="avaliação-front.svg">
  <defs
     id="defs2">
    <clipPath
       id="clipPath487"
       clipPathUnits="userSpaceOnUse">
      <path
         inkscape:connector-curvature="0"
         id="path485"
         d="M 0,375.106 H 566.929 V 0 H 0 Z" />
    </clipPath>
    <clipPath
       id="clipPath373"
       clipPathUnits="userSpaceOnUse">
      <path
         inkscape:connector-curvature="0"
         id="path371"
         d="m 62.178,212.811 c 0,-43.779 35.49,-79.269 79.27,-79.269 v 0 c 43.779,0 79.269,35.49 79.269,79.269 v 0 c 0,43.78 -35.49,79.27 -79.269,79.27 v 0 c -43.78,0 -79.27,-35.49 -79.27,-79.27" />
    </clipPath>
  </defs>
  <sodipodi:namedview
     id="base"
     pagecolor="#ffffff"
     bordercolor="#666666"
     borderopacity="1.0"
     inkscape:pageopacity="0.0"
     inkscape:pageshadow="2"
     inkscape:zoom="0.35"
     inkscape:cx="-20.146318"
     inkscape:cy="548.57143"
     inkscape:document-units="mm"
     inkscape:current-layer="layer1"
     showgrid="false"
     inkscape:pagecheckerboard="true"
     inkscape:window-width="1366"
     inkscape:window-height="700"
     inkscape:window-x="0"
     inkscape:window-y="0"
     inkscape:window-maximized="1" />
  <metadata
     id="metadata5">
    <rdf:RDF>
      <cc:Work
         rdf:about="">
        <dc:format>image/svg+xml</dc:format>
        <dc:type
           rdf:resource="http://purl.org/dc/dcmitype/StillImage" />
        <dc:title></dc:title>
      </cc:Work>
    </rdf:RDF>
  </metadata>
  <g
     inkscape:label="Camada 1"
     inkscape:groupmode="layer"
     id="layer1"
     transform="translate(0,-87)">
    <g
       id="g367"
       transform="matrix(1.0919611,0,0,-1.0919611,-51.645645,426.57279)"
       inkscape:export-xdpi="96"
       inkscape:export-ydpi="96">
      <g
         id="g369"
         clip-path="url(#clipPath373)">
        <g
           id="g375"
           transform="translate(199.7654,125.5)">
          <path
             d="m 0,0 h -114.269 v 121.573 17.062 H 0 Z"
             style="fill:#ffffff;fill-opacity:1;fill-rule:nonzero;stroke:none"
             id="path377"
             inkscape:connector-curvature="0" />
        </g>
        <path
           d="M 200.844,243.362 H 88.047 v 22.382 h 112.797 z"
           style="fill:#ef287c;fill-opacity:1;fill-rule:nonzero;stroke:none"
           id="path379"
           inkscape:connector-curvature="0" />
        <g
           id="g381"
           transform="translate(164.8347,223.1093)">
          <path
             d="m 0,0 h -34.408 c -0.485,0 -0.877,0.393 -0.877,0.877 v 1.475 c 0,0.484 0.392,0.877 0.877,0.877 H 0 c 0.484,0 0.877,-0.393 0.877,-0.877 V 0.877 C 0.877,0.393 0.484,0 0,0"
             style="fill:#b5b4b2;fill-opacity:1;fill-rule:nonzero;stroke:none"
             id="path383"
             inkscape:connector-curvature="0" />
        </g>
        <g
           id="g385"
           transform="translate(164.8347,183.6107)">
          <path
             d="m 0,0 h -34.408 c -0.485,0 -0.877,0.393 -0.877,0.877 v 1.475 c 0,0.484 0.392,0.877 0.877,0.877 H 0 c 0.484,0 0.877,-0.393 0.877,-0.877 V 0.877 C 0.877,0.393 0.484,0 0,0"
             style="fill:#b5b4b2;fill-opacity:1;fill-rule:nonzero;stroke:none"
             id="path387"
             inkscape:connector-curvature="0" />
        </g>
        <g
           id="g389"
           transform="translate(163.0481,159.1544)">
          <path
             d="m 0,0 h -34.409 c -0.484,0 -0.877,0.393 -0.877,0.877 v 1.475 c 0,0.484 0.393,0.877 0.877,0.877 H 0 c 0.484,0 0.877,-0.393 0.877,-0.877 V 0.877 C 0.877,0.393 0.484,0 0,0"
             style="fill:#b5b4b2;fill-opacity:1;fill-rule:nonzero;stroke:none"
             id="path391"
             inkscape:connector-curvature="0" />
        </g>
        <g
           id="g393"
           transform="translate(163.0481,151.4544)">
          path
             d=&quot;m 0,0 h -34.409 c -0.484,0 -0.877,0.393 -0.877,0.877 v 1.475 c 0,0.484 0.393,0.877 0.877,0.877 H 0 c 0.484,0 0.877,-0.393 0.877,-0.877 V 0.877 C 0.877,0.393 0.484,0 0,0&quot;
             style=&quot;fill:#b5b4b2;fill-opacity:1;fill-rule:nonzero;stroke:none&quot;
             id=&quot;path395&quot;
             inkscape:connector-curvature=&quot;0&quot; /&gt;
        </g>
        <g
           id="g397"
           transform="translate(177.2517,192.2207)">
          <path
             d="m 0,0 h -46.603 c -0.484,0 -0.877,0.393 -0.877,0.877 v 1.475 c 0,0.484 0.393,0.877 0.877,0.877 H 0 c 0.484,0 0.877,-0.393 0.877,-0.877 V 0.877 C 0.877,0.393 0.484,0 0,0"
             style="fill:#b5b4b2;fill-opacity:1;fill-rule:nonzero;stroke:none"
             id="path399"
             inkscape:connector-curvature="0" />
        </g>
        <g
           id="g401"
           transform="translate(176.3537,214.3917)">
          <path
             d="m 0,0 h -46.603 c -0.484,0 -0.877,0.393 -0.877,0.877 v 1.475 c 0,0.484 0.393,0.877 0.877,0.877 H 0 c 0.484,0 0.877,-0.393 0.877,-0.877 V 0.877 C 0.877,0.393 0.484,0 0,0"
             style="fill:#b5b4b2;fill-opacity:1;fill-rule:nonzero;stroke:none"
             id="path403"
             inkscape:connector-curvature="0" />
        </g>
        <g
           id="g405"
           transform="translate(106.0544,222.849)">
          <path
             d="M 0,0 V 0 C 0.867,0.668 2.115,0.483 2.75,-0.408 L 4.545,-2.931 19.007,11.01 c 0.779,0.75 2.023,0.714 2.756,-0.081 l 0.004,-0.004 C 22.48,10.152 22.443,8.951 21.684,8.223 L 5.429,-7.332 C 4.693,-8.036 3.507,-7.933 2.902,-7.114 l -3.276,4.442 C -0.997,-1.828 -0.831,-0.641 0,0"
             style="fill:#4db396;fill-opacity:1;fill-rule:nonzero;stroke:none"
             id="path407"
             inkscape:connector-curvature="0" />
        </g>
        <g
           id="g409"
           transform="translate(105.05,191.3988)">
          <path
             d="M 0,0 V 0 C 0.866,0.668 2.115,0.483 2.749,-0.408 L 4.545,-2.931 19.007,11.01 c 0.779,0.75 2.023,0.714 2.756,-0.08 l 0.004,-0.005 C 22.48,10.152 22.443,8.951 21.684,8.224 L 5.429,-7.332 C 4.693,-8.036 3.507,-7.933 2.902,-7.114 l -3.276,4.442 C -0.997,-1.828 -0.831,-0.641 0,0"
             style="fill:#4db396;fill-opacity:1;fill-rule:nonzero;stroke:none"
             id="path411"
             inkscape:connector-curvature="0" />
        </g>
        <g
           id="g413"
           transform="translate(113.5988,156.6198)">
          <path
             d="m 0,0 0.003,0.009 0.091,-0.094 3.019,3.019 c 0.337,0.337 0.337,0.882 0,1.219 L 1.824,5.442 C 1.492,5.774 0.955,5.779 0.616,5.453 L -2.416,2.532 -5.286,5.5 C -5.621,5.847 -6.174,5.851 -6.515,5.511 L -7.963,4.063 C -8.3,3.726 -8.3,3.18 -7.963,2.844 l 2.876,-2.876 -2.945,-2.846 c -0.346,-0.335 -0.351,-0.889 -0.01,-1.229 l 1.447,-1.448 c 0.337,-0.337 0.883,-0.337 1.22,0 l 2.905,2.906 2.996,-2.996 c 0.337,-0.337 0.883,-0.337 1.219,0 l 1.288,1.288 c 0.333,0.333 0.338,0.87 0.011,1.209 z"
             style="fill:#ef287c;fill-opacity:1;fill-rule:nonzero;stroke:none"
             id="path415"
             inkscape:connector-curvature="0" />
        </g>
        <path
           d="m 83.884,124.144 h 111.61 v 136.92 H 83.884 Z M 197.21,122.428 H 82.169 v 140.35 H 197.21 Z"
           style="fill:#231f20;fill-opacity:1;fill-rule:nonzero;stroke:none"
           id="path417"
           inkscape:connector-curvature="0" />
        <path
           d="M 196.352,238.258 H 82.084 v 1.715 h 114.268 z"
           style="fill:#231f20;fill-opacity:1;fill-rule:nonzero;stroke:none"
           id="path419"
           inkscape:connector-curvature="0" />
        <g
           id="g421"
           transform="translate(109.9773,176.9085)">
          <path
             d="m 0,0 c -5.978,0 -10.841,4.865 -10.841,10.844 0,5.979 4.863,10.843 10.841,10.843 3.159,0 6.154,-1.372 8.215,-3.766 L 7.308,17.138 C 5.472,19.266 2.809,20.487 0,20.487 c -5.316,0 -9.642,-4.326 -9.642,-9.643 0,-5.317 4.326,-9.643 9.642,-9.643 5.318,0 9.644,4.326 9.644,9.643 0,1.193 -0.216,2.357 -0.638,3.458 l 1.12,0.43 c 0.476,-1.238 0.717,-2.546 0.717,-3.888 C 10.843,4.865 5.979,0 0,0"
             style="fill:#231f20;fill-opacity:1;fill-rule:nonzero;stroke:none"
             id="path423"
             inkscape:connector-curvature="0" />
        </g>
        <g
           id="g425"
           transform="translate(109.9773,208.7902)">
          <path
             d="m 0,0 c -5.978,0 -10.841,4.865 -10.841,10.844 0,5.979 4.863,10.843 10.841,10.843 3.216,0 6.246,-1.414 8.314,-3.88 L 7.393,17.035 C 5.554,19.229 2.859,20.486 0,20.486 c -5.316,0 -9.642,-4.325 -9.642,-9.642 0,-5.317 4.326,-9.643 9.642,-9.643 5.318,0 9.644,4.326 9.644,9.643 0,1.18 -0.209,2.329 -0.623,3.415 l 1.123,0.427 C 10.609,13.463 10.843,12.17 10.843,10.844 10.843,4.865 5.979,0 0,0"
             style="fill:#231f20;fill-opacity:1;fill-rule:nonzero;stroke:none"
             id="path427"
             inkscape:connector-curvature="0" />
        </g>
        <g
           id="g429"
           transform="translate(109.9773,165.5134)">
          <path
             d="m 0,0 c -5.316,0 -9.642,-4.326 -9.642,-9.643 0,-5.317 4.326,-9.643 9.642,-9.643 5.318,0 9.644,4.326 9.644,9.643 C 9.644,-4.326 5.318,0 0,0 m 0,-20.487 c -5.978,0 -10.841,4.865 -10.841,10.844 0,5.979 4.863,10.844 10.841,10.844 5.979,0 10.843,-4.865 10.843,-10.844 0,-5.979 -4.864,-10.844 -10.843,-10.844"
             style="fill:#231f20;fill-opacity:1;fill-rule:nonzero;stroke:none"
             id="path431"
             inkscape:connector-curvature="0" />
        </g>
        <g
           id="g433"
           transform="translate(129.5154,224.1231)">
          <path
             d="m 0,0 c -0.5,0 -0.905,-0.405 -0.905,-0.904 v -0.22 c 0,-0.498 0.405,-0.903 0.905,-0.903 h 33.154 c 0.499,0 0.905,0.405 0.905,0.903 v 0.22 C 34.059,-0.405 33.653,0 33.154,0 Z M 33.154,-3.228 H 0 c -1.161,0 -2.104,0.943 -2.104,2.104 v 0.22 c 0,1.161 0.943,2.105 2.104,2.105 h 33.154 c 1.161,0 2.104,-0.944 2.104,-2.105 v -0.22 c 0,-1.161 -0.943,-2.104 -2.104,-2.104"
             style="fill:#231f20;fill-opacity:1;fill-rule:nonzero;stroke:none"
             id="path435"
             inkscape:connector-curvature="0" />
        </g>
        <g
           id="g437"
           transform="translate(129.5154,184.6248)">
          <path
             d="m 0,0 c -0.5,0 -0.905,-0.405 -0.905,-0.904 v -0.221 c 0,-0.498 0.405,-0.903 0.905,-0.903 h 33.154 c 0.499,0 0.905,0.405 0.905,0.903 v 0.221 C 34.059,-0.405 33.653,0 33.154,0 Z M 33.154,-3.229 H 0 c -1.161,0 -2.104,0.944 -2.104,2.104 v 0.221 c 0,1.161 0.943,2.105 2.104,2.105 h 33.154 c 1.161,0 2.104,-0.944 2.104,-2.105 v -0.221 c 0,-1.16 -0.943,-2.104 -2.104,-2.104"
             style="fill:#231f20;fill-opacity:1;fill-rule:nonzero;stroke:none"
             id="path439"
             inkscape:connector-curvature="0" />
        </g>
        <g
           id="g441"
           transform="translate(129.5154,152.4442)">
          <path
             d="m 0,0 c -0.5,0 -0.905,-0.405 -0.905,-0.904 v -0.22 c 0,-0.498 0.405,-0.903 0.905,-0.903 h 33.154 c 0.499,0 0.905,0.405 0.905,0.903 v 0.22 C 34.059,-0.405 33.653,0 33.154,0 Z M 33.154,-3.228 H 0 c -1.161,0 -2.104,0.943 -2.104,2.104 v 0.22 c 0,1.161 0.943,2.105 2.104,2.105 h 33.154 c 1.161,0 2.104,-0.944 2.104,-2.105 v -0.22 c 0,-1.161 -0.943,-2.104 -2.104,-2.104"
             style="fill:#231f20;fill-opacity:1;fill-rule:nonzero;stroke:none"
             id="path443"
             inkscape:connector-curvature="0" />
        </g>
        <g
           id="g445"
           transform="translate(129.5154,160.4091)">
          <path
             d="m 0,0 c -0.5,0 -0.905,-0.405 -0.905,-0.904 v -0.221 c 0,-0.498 0.405,-0.903 0.905,-0.903 h 33.154 c 0.499,0 0.905,0.405 0.905,0.903 v 0.221 C 34.059,-0.405 33.653,0 33.154,0 Z M 33.154,-3.229 H 0 c -1.161,0 -2.104,0.944 -2.104,2.104 v 0.221 c 0,1.161 0.943,2.105 2.104,2.105 h 33.154 c 1.161,0 2.104,-0.944 2.104,-2.105 v -0.221 c 0,-1.16 -0.943,-2.104 -2.104,-2.104"
             style="fill:#231f20;fill-opacity:1;fill-rule:nonzero;stroke:none"
             id="path447"
             inkscape:connector-curvature="0" />
        </g>
        <g
           id="g449"
           transform="translate(129.6257,215.4052)">
          <path
             d="m 0,0 c -0.56,0 -1.015,-0.455 -1.015,-1.013 0,-0.56 0.455,-1.014 1.015,-1.014 h 44.879 c 0.559,0 1.015,0.454 1.015,1.014 C 45.894,-0.455 45.438,0 44.879,0 Z M 44.879,-3.228 H 0 c -1.221,0 -2.214,0.994 -2.214,2.215 0,1.221 0.993,2.214 2.214,2.214 h 44.879 c 1.221,0 2.214,-0.993 2.214,-2.214 0,-1.221 -0.993,-2.215 -2.214,-2.215"
             style="fill:#231f20;fill-opacity:1;fill-rule:nonzero;stroke:none"
             id="path451"
             inkscape:connector-curvature="0" />
        </g>
        <g
           id="g453"
           transform="translate(129.6257,193.2346)">
          <path
             d="m 0,0 c -0.56,0 -1.015,-0.455 -1.015,-1.014 0,-0.559 0.455,-1.013 1.015,-1.013 h 44.879 c 0.559,0 1.015,0.454 1.015,1.013 C 45.894,-0.455 45.438,0 44.879,0 Z M 44.879,-3.228 H 0 c -1.221,0 -2.214,0.993 -2.214,2.214 0,1.221 0.993,2.215 2.214,2.215 h 44.879 c 1.221,0 2.214,-0.994 2.214,-2.215 0,-1.221 -0.993,-2.214 -2.214,-2.214"
             style="fill:#231f20;fill-opacity:1;fill-rule:nonzero;stroke:none"
             id="path455"
             inkscape:connector-curvature="0" />
        </g>
        <g
           id="g457"
           transform="translate(106.0197,221.0513)">
          <path
             d="M 0,0 C -0.292,0 -0.573,-0.095 -0.808,-0.276 V -0.277 C -1.375,-0.714 -1.491,-1.54 -1.065,-2.117 L 2.122,-6.44 c 0.211,-0.286 0.523,-0.46 0.876,-0.49 0.354,-0.033 0.697,0.091 0.951,0.333 L 20.094,8.856 c 0.521,0.497 0.546,1.332 0.058,1.861 -0.248,0.269 -0.581,0.42 -0.941,0.43 -0.338,0.022 -0.7,-0.121 -0.96,-0.371 L 3.286,-3.647 1.087,-0.558 C 0.876,-0.261 0.561,-0.068 0.199,-0.014 0.134,-0.005 0.067,0 0,0 m 3.104,-8.135 c -0.069,0 -0.14,0.002 -0.208,0.008 -0.694,0.061 -1.327,0.416 -1.739,0.974 L -2.03,-2.83 c -0.811,1.098 -0.591,2.67 0.489,3.504 0.551,0.424 1.233,0.599 1.916,0.499 0.687,-0.102 1.288,-0.469 1.69,-1.034 l 1.392,-1.956 13.96,13.458 c 0.494,0.475 1.137,0.739 1.829,0.706 0.685,-0.02 1.32,-0.308 1.784,-0.812 0.933,-1.011 0.884,-2.6 -0.106,-3.547 L 4.778,-7.464 C 4.325,-7.896 3.725,-8.135 3.104,-8.135"
             style="fill:#231f20;fill-opacity:1;fill-rule:nonzero;stroke:none"
             id="path459"
             inkscape:connector-curvature="0" />
        </g>
        <g
           id="g461"
           transform="translate(106.0197,189.3673)">
          <path
             d="M 0,0 C -0.292,0 -0.573,-0.095 -0.808,-0.276 V -0.277 C -1.375,-0.714 -1.491,-1.54 -1.065,-2.117 L 2.211,-6.56 C 2.4,-6.814 2.678,-6.97 2.995,-6.998 3.296,-7.025 3.611,-6.921 3.839,-6.7 L 20.094,8.856 c 0.521,0.498 0.546,1.332 0.058,1.861 -0.248,0.269 -0.581,0.42 -0.941,0.43 -0.338,0.007 -0.7,-0.121 -0.96,-0.371 L 3.286,-3.647 1.087,-0.559 C 0.876,-0.261 0.561,-0.068 0.199,-0.014 0.132,-0.005 0.067,0 0,0 m 3.087,-8.202 c -0.066,0 -0.131,0.003 -0.196,0.008 -0.655,0.057 -1.255,0.392 -1.645,0.922 L -2.03,-2.83 c -0.811,1.098 -0.591,2.67 0.489,3.504 0.551,0.424 1.228,0.599 1.918,0.499 0.686,-0.102 1.286,-0.47 1.688,-1.035 l 1.392,-1.954 13.96,13.457 c 0.494,0.475 1.137,0.738 1.829,0.706 0.685,-0.02 1.32,-0.308 1.784,-0.812 0.933,-1.011 0.884,-2.6 -0.106,-3.547 L 4.669,-7.567 C 4.242,-7.976 3.675,-8.202 3.087,-8.202"
             style="fill:#231f20;fill-opacity:1;fill-rule:nonzero;stroke:none"
             id="path463"
             inkscape:connector-curvature="0" />
        </g>
        <g
           id="g465"
           transform="translate(112.9655,155.3735)">
          <path
             d="m 0,0 -0.848,0.849 3.02,3.019 c 0.101,0.102 0.101,0.267 0,0.37 L 0.883,5.527 C 0.78,5.628 0.618,5.629 0.516,5.531 L -2.522,2.604 -3.356,3.468 -0.318,6.395 C 0.25,6.946 1.17,6.937 1.732,6.376 L 3.02,5.087 C 3.296,4.81 3.449,4.444 3.449,4.053 3.449,3.662 3.296,3.295 3.02,3.019 Z"
             style="fill:#231f20;fill-opacity:1;fill-rule:nonzero;stroke:none"
             id="path467"
             inkscape:connector-curvature="0" />
        </g>
        <g
           id="g469"
           transform="translate(106.4636,149.4754)">
          <path
             d="m 0,0 c -0.39,0 -0.759,0.152 -1.034,0.428 l -1.448,1.448 c -0.28,0.28 -0.433,0.651 -0.429,1.046 0.003,0.394 0.161,0.764 0.444,1.038 L 0.799,7.115 1.633,6.251 -1.631,3.098 C -1.698,3.032 -1.71,2.954 -1.71,2.912 c 0,-0.041 0.008,-0.12 0.077,-0.188 l 1.447,-1.447 c 0.087,-0.087 0.285,-0.087 0.372,0 L 3.43,4.522 4.278,3.673 1.033,0.428 C 0.759,0.152 0.39,0 0,0"
             style="fill:#231f20;fill-opacity:1;fill-rule:nonzero;stroke:none"
             id="path471"
             inkscape:connector-curvature="0" />
        </g>
        <g
           id="g473"
           transform="translate(113.5837,149.385)">
          <path
             d="m 0,0 c -0.391,0 -0.759,0.152 -1.034,0.428 l -3.309,3.31 0.847,0.85 3.31,-3.311 c 0.103,-0.102 0.268,-0.102 0.372,0 L 1.472,2.566 C 1.576,2.668 1.578,2.829 1.477,2.932 L -1.828,6.35 -0.963,7.184 2.34,3.767 C 2.891,3.197 2.884,2.277 2.321,1.717 L 1.035,0.428 C 0.758,0.152 0.39,0 0,0"
             style="fill:#231f20;fill-opacity:1;fill-rule:nonzero;stroke:none"
             id="path475"
             inkscape:connector-curvature="0" />
        </g>
        <g
           id="g477"
           transform="translate(107.2541,155.1105)">
          <path
             d="m 0,0 -3.192,3.192 c -0.277,0.276 -0.429,0.644 -0.429,1.034 0,0.39 0.152,0.758 0.429,1.034 l 1.445,1.448 c 0.278,0.276 0.645,0.428 1.035,0.428 h 0.013 C -0.303,7.133 0.065,6.974 0.34,6.69 L 3.547,3.372 2.683,2.538 -0.524,5.855 C -0.59,5.924 -0.668,5.935 -0.71,5.936 h -0.002 c -0.042,0 -0.119,-0.011 -0.186,-0.077 L -2.345,4.411 c -0.087,-0.087 -0.087,-0.283 0,-0.37 L 0.848,0.849 Z"
             style="fill:#231f20;fill-opacity:1;fill-rule:nonzero;stroke:none"
             id="path479"
             inkscape:connector-curvature="0" />
        </g>
      </g>
    </g>
    <g
       id="g481"
       transform="matrix(1.0919611,0,0,-1.0919611,-51.645645,426.57279)"
       inkscape:export-xdpi="96"
       inkscape:export-ydpi="96">
      <g
         id="g483"
         clip-path="url(#clipPath487)">
        <g
           id="g489"
           transform="translate(220.717,212.8114)">
          <path
             d="m 0,0 c 0,-43.779 -35.49,-79.269 -79.27,-79.269 -43.779,0 -79.269,35.49 -79.269,79.269 0,43.779 35.49,79.27 79.269,79.27 C -35.49,79.27 0,43.779 0,0 Z"
             style="fill:none;stroke:#ffffff;stroke-width:1;stroke-linecap:butt;stroke-linejoin:miter;stroke-miterlimit:10;stroke-dasharray:none;stroke-opacity:1"
             id="path491"
             inkscape:connector-curvature="0" />
        </g>
      </g>
    </g>
  </g>
</svg>
