<?xml version="1.0" encoding="UTF-8" standalone="no"?>
<!-- Created with Inkscape (http://www.inkscape.org/) -->

<svg
   xmlns:dc="http://purl.org/dc/elements/1.1/"
   xmlns:cc="http://creativecommons.org/ns#"
   xmlns:rdf="http://www.w3.org/1999/02/22-rdf-syntax-ns#"
   xmlns:svg="http://www.w3.org/2000/svg"
   xmlns="http://www.w3.org/2000/svg"
   xmlns:sodipodi="http://sodipodi.sourceforge.net/DTD/sodipodi-0.dtd"
   xmlns:inkscape="http://www.inkscape.org/namespaces/inkscape"
   width="162"
   height="162"
   viewBox="0 0 42.862499 42.862499"
   version="1.1"
   id="svg8"
   inkscape:version="0.92.3 (2405546, 2018-03-11)"
   sodipodi:docname="capital-back.svg">
  <defs
     id="defs2">
    <clipPath
       id="clipPath1226"
       clipPathUnits="userSpaceOnUse">
      <path
         inkscape:connector-curvature="0"
         id="path1224"
         d="m 320.431,323.891 c 0,-8.522 6.907,-15.43 15.429,-15.43 v 0 c 8.521,0 15.43,6.908 15.43,15.43 v 0 c 0,8.521 -6.909,15.43 -15.43,15.43 v 0 c -8.522,0 -15.429,-6.909 -15.429,-15.43" />
    </clipPath>
  </defs>
  <sodipodi:namedview
     id="base"
     pagecolor="#ffffff"
     bordercolor="#666666"
     borderopacity="1.0"
     inkscape:pageopacity="0.0"
     inkscape:pageshadow="2"
     inkscape:zoom="3.959798"
     inkscape:cx="103.36241"
     inkscape:cy="66.876517"
     inkscape:document-units="mm"
     inkscape:current-layer="layer1"
     showgrid="false"
     inkscape:pagecheckerboard="true"
     inkscape:window-width="2560"
     inkscape:window-height="1012"
     inkscape:window-x="0"
     inkscape:window-y="0"
     inkscape:window-maximized="1"
     units="px" />
  <metadata
     id="metadata5">
    <rdf:RDF>
      <cc:Work
         rdf:about="">
        <dc:format>image/svg+xml</dc:format>
        <dc:type
           rdf:resource="http://purl.org/dc/dcmitype/StillImage" />
        <dc:title></dc:title>
      </cc:Work>
    </rdf:RDF>
  </metadata>
  <g
     inkscape:label="Camada 1"
     inkscape:groupmode="layer"
     id="layer1"
     transform="translate(0,-254.13751)">
    <g
       id="g1216"
       transform="matrix(1.3839441,0,0,-1.3839441,42.379759,275.53572)">
      <path
         d="m 0,0 c 0,-8.423 -6.828,-15.251 -15.251,-15.251 -8.424,0 -15.252,6.828 -15.252,15.251 0,8.423 6.828,15.252 15.252,15.252 C -6.828,15.252 0,8.423 0,0"
         style="fill:#2e3737;fill-opacity:1;fill-rule:nonzero;stroke:none"
         id="path1218"
         inkscape:connector-curvature="0" />
    </g>
    <g
       id="g1220"
       transform="matrix(1.3839441,0,0,-1.3839441,-443.53895,723.78247)">
      <g
         id="g1222"
         clip-path="url(#clipPath1226)">
        <g
           id="g1228"
           transform="translate(327.1183,317.4554)">
          <path
             d="M 0,0 1.351,0.921 V -1.217 Z M 0.57,3.888 -3.159,1.347 c -0.44,-0.3 -0.652,-0.81 -0.594,-1.305 0.016,-0.356 0.17,-0.707 0.456,-0.964 l 3.774,-3.399 c 0.251,-0.226 0.562,-0.343 0.874,-0.354 v -2.897 -0.607 -10.059 c 0,-0.832 0.674,-1.506 1.506,-1.506 0.832,0 1.506,0.674 1.506,1.506 0,-0.832 0.675,-1.506 1.507,-1.506 0.832,0 1.506,0.674 1.506,1.506 v 10.059 0.607 1.323 L 3.823,-3.05 c -0.287,0.258 -0.44,0.608 -0.457,0.965 -0.057,0.495 0.155,1.004 0.595,1.304 L 7.69,1.761 c 0,0 0.148,0.123 0.418,0.285 L 8.158,2.08 C 8.247,2.14 8.34,2.188 8.436,2.225 8.808,2.412 9.309,2.607 9.913,2.717 L 8.195,3.888 c 0,0 -0.149,0.124 -0.418,0.285 L 7.727,4.208 C 7.638,4.268 7.544,4.315 7.449,4.353 6.873,4.642 5.988,4.956 4.882,4.932 V 4.929 C 4.846,4.931 4.811,4.935 4.774,4.935 H 3.953 C 3.929,4.935 3.906,4.932 3.882,4.931 V 4.932 C 2.776,4.956 1.892,4.642 1.316,4.353 1.22,4.315 1.127,4.268 1.039,4.208"
             style="fill:#f6e156;fill-opacity:1;fill-rule:nonzero;stroke:none"
             id="path1230"
             inkscape:connector-curvature="0" />
        </g>
        <g
           id="g1232"
           transform="translate(343.0558,315.8215)">
          <path
             d="M 0,0 V 2.138 L 1.352,1.217 Z m -7.414,1.217 1.39,0.946 V -0.034 Z M 4.51,2.563 0.781,5.105 c 0,0 -0.148,0.124 -0.418,0.285 L 0.313,5.424 C 0.225,5.485 0.131,5.532 0.035,5.569 c -0.576,0.29 -1.46,0.604 -2.566,0.58 V 6.148 c -0.024,0.001 -0.047,0.004 -0.071,0.004 h -0.821 c -0.036,0 -0.072,-0.004 -0.108,-0.006 V 6.149 C -4.637,6.173 -5.521,5.859 -6.098,5.569 -6.193,5.532 -6.287,5.485 -6.375,5.424 L -6.426,5.39 C -6.695,5.229 -6.843,5.105 -6.843,5.105 l -3.729,-2.542 c -0.441,-0.3 -0.653,-0.809 -0.595,-1.304 0.017,-0.357 0.17,-0.707 0.456,-0.965 l 3.775,-3.398 c 0.261,-0.235 0.586,-0.351 0.912,-0.354 v -2.898 -0.607 -10.058 c 0,-0.832 0.674,-1.506 1.505,-1.506 0.832,0 1.507,0.674 1.507,1.506 0,-0.832 0.674,-1.506 1.506,-1.506 0.832,0 1.506,0.674 1.506,1.506 v 10.058 0.607 2.897 c 0.313,0.012 0.624,0.129 0.874,0.355 L 4.649,0.294 C 4.935,0.552 5.088,0.902 5.105,1.259 5.162,1.754 4.951,2.263 4.51,2.563"
             style="fill:#f6e156;fill-opacity:1;fill-rule:nonzero;stroke:none"
             id="path1234"
             inkscape:connector-curvature="0" />
        </g>
        <g
           id="g1236"
           transform="translate(335.7462,317.0383)">
          <path
             d="M 0,0 1.389,0.947 V -1.251 Z M 4.812,4.935 H 3.99 C 3.954,4.935 3.918,4.931 3.882,4.929 V 4.932 C 2.776,4.956 1.892,4.642 1.316,4.353 1.22,4.315 1.127,4.268 1.039,4.207 L 0.988,4.173 C 0.718,4.012 0.57,3.888 0.57,3.888 L -3.159,1.347 c -0.44,-0.3 -0.652,-0.81 -0.594,-1.305 0.016,-0.356 0.17,-0.707 0.456,-0.964 l 3.774,-3.399 c 0.261,-0.235 0.586,-0.351 0.912,-0.354 v -2.897 -0.607 -10.059 c 0,-0.832 0.674,-1.506 1.506,-1.506 0.832,0 1.506,0.674 1.506,1.506"
             style="fill:#f1a644;fill-opacity:1;fill-rule:nonzero;stroke:none"
             id="path1238"
             inkscape:connector-curvature="0" />
        </g>
        <g
           id="g1240"
           transform="translate(340.3883,323.1007)">
          <path
             d="M 0,0 C 1.7,0 3.079,1.378 3.079,3.078 3.079,4.778 1.7,6.157 0,6.157 -1.7,6.157 -3.078,4.778 -3.078,3.078 -3.078,1.378 -1.7,0 0,0"
             style="fill:#f6e156;fill-opacity:1;fill-rule:nonzero;stroke:none"
             id="path1242"
             inkscape:connector-curvature="0" />
        </g>
        <g
           id="g1244"
           transform="translate(340.3795,329.2573)">
          <path
             d="m 0,0 c -1.7,0 -3.078,-1.378 -3.078,-3.078 0,-1.7 1.378,-3.079 3.078,-3.079"
             style="fill:#f1a644;fill-opacity:1;fill-rule:nonzero;stroke:none"
             id="path1246"
             inkscape:connector-curvature="0" />
        </g>
        <g
           id="g1248"
           transform="translate(332.2243,323.1237)">
          <path
             d="M 0,0 C 1.7,0 3.079,1.378 3.079,3.078 3.079,4.778 1.7,6.157 0,6.157 -1.7,6.157 -3.078,4.778 -3.078,3.078 -3.078,1.378 -1.7,0 0,0"
             style="fill:#f6e156;fill-opacity:1;fill-rule:nonzero;stroke:none"
             id="path1250"
             inkscape:connector-curvature="0" />
        </g>
        <g
           id="g1252"
           transform="translate(327.7941,312.8148)">
          <path
             d="m 0,0 0.448,-0.476 0.227,-0.303 c 0,0 0.509,0.41 0.479,0.532 -0.03,0.122 -0.479,0.958 -0.479,0.958 z"
             style="fill:#ffffff;fill-opacity:1;fill-rule:nonzero;stroke:none"
             id="path1254"
             inkscape:connector-curvature="0" />
        </g>
        <g
           id="g1256"
           transform="translate(332.2243,323.1237)">
          <path
             d="M 0,0 -0.229,0.01 -0.457,0.034 -0.758,0.094 -1.037,0.18 -1.279,0.278 -1.425,0.349 -1.607,0.452 -1.762,0.554 -1.889,0.648 -2.031,0.765 -2.144,0.87 -2.26,0.988 -2.345,1.084 -2.429,1.188 -2.49,1.268 -2.583,1.403 -2.681,1.565 -2.743,1.681 -2.812,1.825 -2.881,1.993 -2.935,2.149 -3,2.388 l -0.044,0.235 -0.028,0.268 -0.006,0.154 0.002,0.16 0.01,0.143 0.015,0.138 0.02,0.131 0.014,0.077 0.251,0.761 0.52,0.52 0.613,0.376 c 0,0 -0.276,-3.866 1.735,-5.351 z"
             style="fill:#f1a644;fill-opacity:1;fill-rule:nonzero;stroke:none"
             id="path1258"
             inkscape:connector-curvature="0" />
        </g>
        <g
           id="g1260"
           transform="translate(330.8776,308.6355)">
          <path
             d="M 0,0 V 0.607 L 0.862,0.39 C 0.549,0.401 -0.624,3.632 -0.874,3.858 l -3.775,3.399 c -0.286,0.258 -0.439,0.608 -0.456,0.964 -0.058,0.496 0.154,1.005 0.595,1.305 l 3.729,2.542 c 0,0 0.148,0.123 0.418,0.284 l 0.05,0.035 c 0.088,0.06 0.182,0.108 0.277,0.145 0.577,0.29 1.461,0.603 2.567,0.58 v -10e-4 c 0.024,0 0.047,0.003 0.071,0.003 h 0.821 c 0.036,0 0.072,-0.004 0.108,-0.005 v 0.003 C 3.597,13.113 3.659,13.11 3.723,13.109 3.148,13.374 2.328,13.632 1.32,13.611 V 13.608 C 1.284,13.609 1.249,13.613 1.212,13.613 H 0.391 C 0.367,13.613 0.344,13.61 0.32,13.61 l 0.001,0.001 c -1.107,0.023 -1.99,-0.29 -2.567,-0.58 -0.096,-0.037 -0.189,-0.085 -0.277,-0.145 l -0.051,-0.035 c -0.27,-0.161 -0.418,-0.284 -0.418,-0.284 l -3.729,-2.542 c -0.44,-0.3 -0.652,-0.809 -0.594,-1.304 0.016,-0.357 0.169,-0.707 0.456,-0.965 l 3.775,-3.399 c 0.25,-0.226 0.561,-0.342 0.873,-0.354 V 1.106 0.499 -9.559 c 0,-0.832 0.675,-1.507 1.506,-1.507 0.332,0 0.638,0.109 0.886,0.29 C 0.065,-10.563 0,-10.318 0,-10.059 Z"
             style="fill:#f1a644;fill-opacity:1;fill-rule:nonzero;stroke:none"
             id="path1262"
             inkscape:connector-curvature="0" />
        </g>
        <g
           id="g1264"
           transform="translate(328.1798,312.369)">
          <path
             d="m 0,0 0.92,-1.49 0.334,1.346 -3.879,3.026 1.529,-1.947 z"
             style="fill:#f1a644;fill-opacity:1;fill-rule:nonzero;stroke:none"
             id="path1266"
             inkscape:connector-curvature="0" />
        </g>
        <g
           id="g1268"
           transform="translate(331.8795,328.5549)">
          <path
             d="m 0,0 c -1.586,0 -2.877,-1.291 -2.877,-2.877 0,-1.586 1.291,-2.877 2.877,-2.877 1.586,0 2.877,1.291 2.877,2.877 C 2.877,-1.291 1.586,0 0,0 m 0,-6.157 c -1.809,0 -3.28,1.472 -3.28,3.28 0,1.809 1.471,3.28 3.28,3.28 1.809,0 3.28,-1.471 3.28,-3.28 0,-1.808 -1.471,-3.28 -3.28,-3.28"
             style="fill:#231f20;fill-opacity:1;fill-rule:nonzero;stroke:none"
             id="path1270"
             inkscape:connector-curvature="0" />
        </g>
        <g
           id="g1272"
           transform="translate(331.6779,298.7185)">
          <path
             d="m 0,0 h 0.403 c 0,-0.719 0.585,-1.305 1.305,-1.305 0.719,0 1.305,0.586 1.305,1.305 v 11.917 l -3.601,4.478 c -0.295,0.262 -0.481,0.655 -0.5,1.081 -0.068,0.575 0.193,1.148 0.682,1.481 l 3.729,2.541 c 0.014,0.011 0.341,0.247 0.616,0.429 -0.169,0.132 -0.333,0.254 -0.427,0.311 L 3.451,22.279 C 3.38,22.328 3.3,22.369 3.214,22.403 2.7,22.66 1.915,22.951 0.933,22.969 L 0.934,22.96 0.666,22.969 C 0.648,22.97 0.63,22.971 0.612,22.971 l -1.125,-0.01 0.001,0.008 C -1.484,22.947 -2.261,22.659 -2.755,22.41 -2.859,22.369 -2.939,22.327 -3.01,22.279 l -0.051,-0.034 c -0.26,-0.157 -0.4,-0.273 -0.402,-0.274 l -3.744,-2.553 c -0.364,-0.248 -0.559,-0.675 -0.508,-1.115 0.016,-0.332 0.154,-0.625 0.39,-0.838 l 4.277,-4.171 c 0.162,-0.146 0.18,-0.487 0.183,-1.287 0.002,-0.326 0.003,-0.802 0.052,-0.971 l 0.043,-10e-4 0.161,-0.322 V 0 c 0,-0.719 0.585,-1.305 1.304,-1.305 C -0.585,-1.305 0,-0.719 0,0 m 1.708,-1.708 c -0.651,0 -1.218,0.367 -1.506,0.904 -0.288,-0.537 -0.855,-0.904 -1.507,-0.904 -0.941,0 -1.707,0.766 -1.707,1.708 v 10.618 l -0.028,0.056 c -0.223,0.133 -0.225,0.61 -0.228,1.331 -0.001,0.359 -0.003,0.901 -0.068,1.009 L -7.6,17.171 c -0.311,0.281 -0.497,0.673 -0.516,1.1 -0.068,0.574 0.193,1.147 0.682,1.48 l 3.729,2.542 -10e-4,-10e-4 c -10e-4,0 0.155,0.128 0.429,0.292 l 0.04,0.028 c 0.096,0.065 0.203,0.121 0.318,0.166 0.556,0.28 1.488,0.617 2.644,0.594 h 0.006 c 0.029,0.001 0.044,0.002 0.06,0.002 h 0.821 c 0.027,0 0.054,-10e-4 0.08,-0.003 l 0.024,0.001 c 1.161,0.024 2.089,-0.314 2.661,-0.602 0.098,-0.037 0.205,-0.093 0.301,-0.158 l 0.051,-0.035 c 0.27,-0.161 0.964,-0.741 0.993,-0.765 L 4.464,21.503 C 4.417,21.542 4.349,21.598 4.27,21.662 3.992,21.484 3.559,21.172 3.554,21.169 l -3.733,-2.545 c -0.364,-0.248 -0.559,-0.676 -0.508,-1.115 0.016,-0.332 0.154,-0.625 0.391,-0.838 L 3.416,12.059 V 0 c 0,-0.942 -0.767,-1.708 -1.708,-1.708"
             style="fill:#231f20;fill-opacity:1;fill-rule:nonzero;stroke:none"
             id="path1274"
             inkscape:connector-curvature="0" />
        </g>
        <g
           id="g1276"
           transform="translate(340.0763,320.1634)">
          <path
             d="m 0,0 -0.818,-5.68 1.27,-1.145 V 0 Z"
             style="fill:#c51d28;fill-opacity:1;fill-rule:nonzero;stroke:none"
             id="path1278"
             inkscape:connector-curvature="0" />
        </g>
        <g
           id="g1280"
           transform="translate(339.5929,321.4477)">
          <path
             d="M 0,0 0.468,-0.994 H 0.936 V 0 Z"
             style="fill:#c51d28;fill-opacity:1;fill-rule:nonzero;stroke:none"
             id="path1282"
             inkscape:connector-curvature="0" />
        </g>
        <g
           id="g1284"
           transform="translate(340.9801,320.1634)">
          <path
             d="m 0,0 0.818,-5.68 -1.27,-1.145 V 0 Z"
             style="fill:#eb3647;fill-opacity:1;fill-rule:nonzero;stroke:none"
             id="path1286"
             inkscape:connector-curvature="0" />
        </g>
        <g
           id="g1288"
           transform="translate(341.4635,321.4477)">
          <path
             d="M 0,0 -0.469,-0.994 H -0.936 V 0 Z"
             style="fill:#eb3647;fill-opacity:1;fill-rule:nonzero;stroke:none"
             id="path1290"
             inkscape:connector-curvature="0" />
        </g>
        <g
           id="g1292"
           transform="translate(340.3883,328.1842)">
          <path
             d="m 0,0 c -1.586,0 -2.876,-1.291 -2.876,-2.877 0,-1.586 1.29,-2.877 2.876,-2.877 1.586,0 2.877,1.291 2.877,2.877 C 2.877,-1.291 1.586,0 0,0 m 0,-6.157 c -1.808,0 -3.28,1.472 -3.28,3.28 0,1.809 1.472,3.28 3.28,3.28 1.809,0 3.28,-1.471 3.28,-3.28 0,-1.808 -1.471,-3.28 -3.28,-3.28"
             style="fill:#231f20;fill-opacity:1;fill-rule:nonzero;stroke:none"
             id="path1294"
             inkscape:connector-curvature="0" />
        </g>
        <g
           id="g1296"
           transform="translate(340.1872,298.3477)">
          <path
             d="m 0,0 h 0.403 c 0,-0.719 0.585,-1.305 1.305,-1.305 0.719,0 1.304,0.586 1.304,1.305 v 13.756 l 0.194,0.008 c 0.276,0.01 0.542,0.117 0.747,0.302 l 3.775,3.399 c 0.236,0.213 0.375,0.506 0.389,0.825 0.052,0.453 -0.142,0.88 -0.507,1.128 L 3.881,21.96 c -0.016,0.012 -0.157,0.128 -0.407,0.278 l -0.061,0.041 c -0.071,0.049 -0.151,0.09 -0.237,0.124 -0.51,0.255 -1.289,0.544 -2.261,0.566 l 0.001,-0.007 -0.279,0.008 -0.846,0.001 c -0.019,0 -0.036,-0.001 -0.053,-0.002 l -0.269,-0.012 0.001,0.012 C -1.512,22.951 -2.296,22.661 -2.793,22.411 -2.897,22.369 -2.977,22.328 -3.048,22.279 L -3.099,22.245 C -3.359,22.088 -3.5,21.972 -3.501,21.971 l -3.744,-2.553 c -0.364,-0.248 -0.559,-0.675 -0.508,-1.115 0.016,-0.332 0.154,-0.625 0.391,-0.838 l 3.774,-3.399 c 0.213,-0.192 0.49,-0.299 0.779,-0.302 l 0.2,-0.002 V 0 c 0,-0.719 0.585,-1.305 1.304,-1.305 C -0.585,-1.305 0,-0.719 0,0 m 1.708,-1.708 c -0.651,0 -1.219,0.367 -1.507,0.904 -0.288,-0.537 -0.855,-0.904 -1.506,-0.904 -0.941,0 -1.707,0.766 -1.707,1.708 v 13.376 c -0.314,0.042 -0.609,0.178 -0.845,0.391 l -3.775,3.399 c -0.317,0.285 -0.503,0.678 -0.523,1.105 -0.067,0.575 0.194,1.147 0.683,1.48 l 3.728,2.541 v 0 c -10e-4,0 0.155,0.128 0.429,0.292 l 0.04,0.028 c 0.096,0.066 0.203,0.122 0.318,0.166 0.555,0.281 1.48,0.62 2.644,0.594 l 0.028,-0.001 c 0.025,0.002 0.05,0.003 0.076,0.003 h 0.821 c 0.018,0 0.036,-10e-4 0.054,-0.002 v -0.001 l 0.012,0.001 c 1.158,0.027 2.089,-0.314 2.661,-0.601 0.098,-0.037 0.205,-0.093 0.301,-0.159 l 0.05,-0.035 c 0.27,-0.161 0.427,-0.291 0.434,-0.296 l 3.713,-2.53 C 8.326,19.418 8.587,18.846 8.519,18.257 8.5,17.844 8.314,17.452 7.997,17.166 L 4.222,13.767 C 3.996,13.563 3.714,13.429 3.415,13.38 V 0 c 0,-0.942 -0.766,-1.708 -1.707,-1.708"
             style="fill:#231f20;fill-opacity:1;fill-rule:nonzero;stroke:none"
             id="path1298"
             inkscape:connector-curvature="0" />
        </g>
        <g
           id="g1300"
           transform="translate(334.1496,330.7425)">
          <path
             d="m 0,0 c -0.095,-0.006 -0.251,-0.019 -0.441,-0.042 0.002,0.056 0.004,0.116 0.005,0.178 0.093,0.068 0.155,0.176 0.155,0.299 0,0.094 -0.038,0.178 -0.096,0.244 L -0.394,0.924 0,1.288 V 0.296 0.164 Z M -2.004,-0.444 C -2.63,-0.115 -3.679,-0.022 -4.009,0 v 0.296 0 1.066 0 0.018 L -3.646,1.247 C -3.576,0.913 -3.577,0.564 -3.66,0.232 -3.541,0.256 -3.416,0.25 -3.3,0.216 -3.245,0.2 -3.19,0.177 -3.133,0.174 c 0.077,-0.003 0.152,0.03 0.229,0.03 0.163,0 0.292,-0.147 0.453,-0.173 0.145,-0.022 0.315,0.051 0.427,-0.043 -0.027,0.146 -0.159,0.248 -0.289,0.321 -0.129,0.073 -0.273,0.136 -0.359,0.258 0.165,-0.029 0.332,-0.046 0.499,-0.052 0.021,-0.001 0.043,0.001 0.065,0.001 L -1.501,0.223 -1.562,0.213 C -1.638,0.169 -1.71,0.121 -1.781,0.069 c 0.116,0.035 0.229,0.08 0.342,0.125 l 0.577,-0.278 -0.008,-0.02 c -0.482,-0.083 -0.862,-0.197 -1.134,-0.34 m 0,3.844 1.245,-0.557 V 2.477 l -0.1,-10e-4 C -1.21,2.649 -1.582,2.78 -1.964,2.864 -2.021,2.92 -2.078,2.976 -2.134,3.032 -2.208,2.839 -2.386,2.705 -2.57,2.613 -2.6,2.598 -2.632,2.586 -2.663,2.572 c 0.068,0.072 0.13,0.149 0.18,0.235 C -2.726,2.68 -2.972,2.561 -3.219,2.442 l -0.96,-0.014 0.813,0.364 c 10e-4,0 10e-4,0 0.002,0 z M 0.034,2.489 -0.548,2.48 V 2.749 Z M -0.411,0.893 c 0.002,-0.062 0.005,-0.125 0.006,-0.187 -0.004,0.004 -0.008,0.008 -0.012,0.012 0.003,0.084 0.005,0.148 0.006,0.175 m -1.318,1.602 c 0.031,0.071 0.058,0.152 0.032,0.225 -0.003,0.008 -0.01,0.014 -0.014,0.021 l 0.642,-0.268 -0.675,-0.01 c 0.005,0.011 0.011,0.021 0.015,0.032 M -1.933,2.833 -1.849,2.798 C -1.86,2.794 -1.872,2.791 -1.881,2.782 -1.898,2.799 -1.916,2.816 -1.933,2.833 m 3.432,-0.768 -3.46,1.547 c -0.028,0.012 -0.059,0.012 -0.086,0 L -3.328,3.039 c 0,0 -0.001,0 -0.002,0 L -5.508,2.065 C -5.546,2.048 -5.57,2.01 -5.57,1.968 c 0,-0.041 0.024,-0.079 0.062,-0.096 L -4.22,1.296 V 0.256 0.255 -0.1 c 0,-0.056 0.045,-0.103 0.101,-0.105 0.014,-0.001 1.385,-0.065 2.062,-0.451 l 1.099,0.322 -0.062,-0.164 c -0.012,-0.033 -0.008,-0.069 0.012,-0.098 0.02,-0.028 0.052,-0.045 0.087,-0.045 h 0.534 c 0.035,0 0.068,0.017 0.087,0.045 0.02,0.029 0.024,0.065 0.012,0.098 l -0.095,0.251 c 0.287,0.033 0.491,0.042 0.493,0.042 0.057,0.002 0.101,0.049 0.101,0.105 v 0.264 0.132 1 l 1.288,0.576 c 0.038,0.017 0.063,0.055 0.063,0.096 0,0.042 -0.025,0.08 -0.063,0.097"
             style="fill:#c51d28;fill-opacity:1;fill-rule:nonzero;stroke:none"
             id="path1302"
             inkscape:connector-curvature="0" />
        </g>
        <g
           id="g1304"
           transform="translate(330.5485,331.9435)">
          <path
             d="m 0,0 c -0.056,-0.19 -0.048,-0.399 0.024,-0.584 0.02,-0.054 0.046,-0.114 0.019,-0.165 -0.019,-0.036 -0.061,-0.055 -0.089,-0.085 -0.028,-0.03 -0.037,-0.089 0.001,-0.105 0.265,0.198 0.665,0.188 0.92,-0.022 -0.139,0.073 -0.3,0.101 -0.455,0.08 0.527,-0.007 1.065,0.108 1.575,-0.025 -0.017,-0.046 -0.074,-0.059 -0.123,-0.065 -0.267,-0.035 -0.534,-0.07 -0.8,-0.106 0.25,-0.169 0.606,-0.164 0.85,0.013 0.061,0.044 0.116,0.097 0.182,0.133 0.163,0.089 0.363,0.056 0.546,0.02 -0.203,-0.023 -0.4,-0.09 -0.576,-0.193 0.462,0.009 0.893,0.371 0.982,0.825 C 3.095,-0.44 3.103,-0.609 3.08,-0.773 3.073,-0.824 3.063,-0.88 3.084,-0.927 3.106,-0.974 3.177,-1.002 3.212,-0.964 3.08,-0.646 3.081,-0.277 3.213,0.04 3.165,-0.127 3.189,-0.305 3.183,-0.478 3.176,-0.652 3.125,-0.843 2.977,-0.933 2.612,-0.276 2.183,0.345 1.696,0.917 1.678,0.939 1.659,0.963 1.658,0.991 1.656,1.023 1.679,1.05 1.694,1.078 1.737,1.153 1.734,1.245 1.725,1.331 1.707,1.504 1.667,1.675 1.607,1.839 1.444,1.711 1.264,1.604 1.073,1.523 0.736,1.38 0.366,1.315 0.048,1.134 -0.204,0.991 -0.42,0.778 -0.698,0.695 -0.126,0.797 0.445,0.898 1.017,0.999 1.101,1.014 1.186,1.029 1.261,1.069 1.323,1.103 1.376,1.152 1.425,1.203 1.549,1.333 1.657,1.479 1.743,1.637 2.031,1.512 2.318,1.386 2.605,1.26 2.468,1.424 2.285,1.549 2.082,1.616 2.535,1.295 3.051,1.063 3.592,0.938 3.489,0.933 3.385,0.947 3.286,0.977"
             style="fill:#c51d28;fill-opacity:1;fill-rule:nonzero;stroke:none"
             id="path1306"
             inkscape:connector-curvature="0" />
        </g>
        <g
           id="g1308"
           transform="translate(332.0646,334.1225)">
          <path
             d="m 0,0 -0.063,-0.645 v -3.224 l 0.137,-0.053 0.814,0.264 1.311,0.159 v 1.659 l 0.444,0.857 -2.632,1.12 z"
             style="fill:#c51d28;fill-opacity:1;fill-rule:nonzero;stroke:none"
             id="path1310"
             inkscape:connector-curvature="0" />
        </g>
        <g
           id="g1312"
           transform="translate(332.1022,334.3543)">
          <path
             d="m 0,0 -3.46,-1.547 -0.063,-0.097 0.063,-0.096 1.288,-0.576 v -1.395 l 0.04,-0.081 0.171,-0.032 0.258,-0.022 0.371,-0.045 0.518,-0.094 0.274,-0.07 0.332,-0.116 0.199,-0.096 0.052,4.276"
             style="fill:#eb3647;fill-opacity:1;fill-rule:nonzero;stroke:none"
             id="path1314"
             inkscape:connector-curvature="0" />
        </g>
        <g
           id="g1316"
           transform="translate(334.1032,331.9417)">
          <path
             d="M 0,0 C -0.007,0.02 -0.02,0.037 -0.037,0.05 -0.25,0.208 -0.491,0.345 -0.754,0.458 v 0.766 l 1.746,-0.78 z m -0.697,-1.09 c 0,-0.089 -0.073,-0.161 -0.162,-0.161 -0.089,0 -0.162,0.072 -0.162,0.161 0,0.09 0.073,0.162 0.162,0.162 0.089,0 0.162,-0.072 0.162,-0.162 m -0.277,-0.865 0.115,0.301 0.114,-0.301 z m -0.189,0.097 -0.062,-0.165 c -0.012,-0.032 -0.008,-0.068 0.012,-0.097 0.02,-0.029 0.052,-0.046 0.087,-0.046 h 0.534 c 0.035,0 0.067,0.017 0.087,0.046 0.02,0.029 0.024,0.065 0.012,0.097 l -0.096,0.251 c 0.287,0.033 0.492,0.043 0.494,0.043 0.056,0.002 0.101,0.048 0.101,0.105 v 0.396 c 0,0.058 -0.048,0.105 -0.106,0.105 -0.058,0 -0.105,-0.047 -0.105,-0.105 v -0.297 c -0.099,-0.006 -0.262,-0.019 -0.461,-0.043 l -0.051,0.134 c 0.135,0.056 0.231,0.189 0.231,0.344 0,0.169 -0.113,0.312 -0.268,0.358 v 0.959 c 0.198,-0.091 0.382,-0.196 0.549,-0.315 v -0.074 0 -1.198 c 0,-0.058 0.047,-0.106 0.105,-0.106 0.058,0 0.106,0.048 0.106,0.106 v 1.131 l 1.288,0.576 c 0.038,0.018 0.062,0.055 0.062,0.097 0,0.041 -0.024,0.079 -0.062,0.096 L -2.167,2.087 C -2.194,2.1 -2.225,2.1 -2.252,2.087 L -3.656,1.46 C -3.709,1.436 -3.732,1.374 -3.709,1.321 -3.685,1.267 -3.623,1.244 -3.569,1.267 l 1.36,0.608 1.244,-0.556 V 0.542 c -0.66,0.241 -1.217,0.26 -1.242,0.26 -0.001,0 -0.003,0 -0.005,0 C -2.239,0.802 -2.877,0.781 -3.6,0.486 -3.888,0.368 -4.151,0.221 -4.382,0.05 -4.4,0.037 -4.413,0.02 -4.419,0 l -0.993,0.444 1.963,0.878 c 0.053,0.024 0.077,0.086 0.053,0.139 -0.023,0.054 -0.085,0.077 -0.139,0.054 L -5.713,0.54 C -5.751,0.523 -5.775,0.485 -5.775,0.444 c 0,-0.042 0.024,-0.079 0.062,-0.097 l 1.288,-0.576 v -1.04 c 0,-0.058 0.047,-0.105 0.105,-0.105 0.059,0 0.106,0.047 0.106,0.105 v 1.107 0 0.074 c 0.206,0.147 0.44,0.275 0.694,0.378 0.661,0.27 1.263,0.299 1.311,0.301 0.045,-0.001 0.608,-0.028 1.244,-0.275 v -1.048 c -0.154,-0.046 -0.267,-0.189 -0.267,-0.358 0,-0.155 0.095,-0.288 0.231,-0.344 l -0.074,-0.194 c -0.482,-0.083 -0.863,-0.197 -1.134,-0.34 -0.626,0.329 -1.675,0.422 -2.005,0.444 v 0.295 c 0,0.059 -0.047,0.106 -0.106,0.106 -0.058,0 -0.105,-0.047 -0.105,-0.106 v -0.395 c 0,-0.057 0.044,-0.103 0.101,-0.105 0.013,-10e-4 1.385,-0.065 2.062,-0.451"
             style="fill:#110f0d;fill-opacity:1;fill-rule:nonzero;stroke:none"
             id="path1318"
             inkscape:connector-curvature="0" />
        </g>
        <g
           id="g1320"
           transform="translate(333.4059,330.8523)">
          <path
             d="m 0,0 c 0,-0.09 -0.073,-0.162 -0.163,-0.162 -0.089,0 -0.162,0.072 -0.162,0.162 0,0.09 0.073,0.162 0.162,0.162 C -0.073,0.162 0,0.09 0,0"
             style="fill:#f6e156;fill-opacity:1;fill-rule:nonzero;stroke:none"
             id="path1322"
             inkscape:connector-curvature="0" />
        </g>
        <g
           id="g1324"
           transform="translate(333.2438,330.2879)">
          <path
             d="M 0,0 -0.112,-0.301 H 0.113 Z"
             style="fill:#f6e156;fill-opacity:1;fill-rule:nonzero;stroke:none"
             id="path1326"
             inkscape:connector-curvature="0" />
        </g>
        <g
           id="g1328"
           transform="translate(339.5241,319.7013)">
          <path
             d="M 0,0 H 0.269 0.273 0.465 0.488 0.739 L 1.537,-5.547 0.475,-6.504 v 0 L 0.369,-6.599 0.273,-6.514 v 0.001 l -1.071,0.966 z M 1.741,-5.622 0.904,0.192 H 0.488 0.465 0.273 0.269 -0.166 l -0.836,-5.814 1.144,-1.032 0.025,-0.023 0.106,-0.095 v 0 l 0.085,-0.076 v 0 l 0.01,-0.01 0.097,0.087 v -0.001 z"
             style="fill:#100f0d;fill-opacity:1;fill-rule:nonzero;stroke:none"
             id="path1330"
             inkscape:connector-curvature="0" />
        </g>
        <g
           id="g1332"
           transform="translate(339.8693,313.2201)">
          <path
             d="M 0,0 0.023,-0.021 1.115,0.962 0.331,6.409 H -0.283 L -1.067,0.962 Z m 0.023,-0.214 -1.244,1.12 0.813,5.647 H 0.456 L 1.269,0.906 Z m -0.098,0.022 0.098,-0.087 0.169,0.151 V -0.129 L 1.319,0.887 0.497,6.601 H -0.448 L -1.271,0.887 Z m 0.092,-0.287 -0.071,0.074 -1.371,1.237 0.852,5.914 H 0.622 L 1.473,0.832 0.048,-0.453 v 0.002 z"
             style="fill:#100f0d;fill-opacity:1;fill-rule:nonzero;stroke:none"
             id="path1334"
             inkscape:connector-curvature="0" />
        </g>
        <g
           id="g1336"
           transform="translate(339.7873,321.3191)">
          <path
             d="m 0,0 v 0 h 0.219 v 0 h 0.67 L 0.512,-0.802 H 0.219 0.202 0.01 0 -0.3 L -0.677,0 Z m 0,-0.995 h 0.01 0.192 0.017 0.414 l 0.56,1.187 H 0.202 v 0 H 0.01 v 0 h -0.991 l 0.56,-1.187 z"
             style="fill:#100f0d;fill-opacity:1;fill-rule:nonzero;stroke:none"
             id="path1338"
             inkscape:connector-curvature="0" />
        </g>
        <g
           id="g1340"
           transform="translate(339.5334,320.5888)">
          <path
             d="M 0,0 H 0.72 L 1.029,0.658 H -0.31 Z M 0.812,-0.144 H -0.092 L -0.537,0.802 H 1.257 Z M -0.122,-0.192 H 0.841 L 1.333,0.85 h -1.946 z m 1.055,-0.145 h -1.146 l -0.628,1.332 h 2.402 z"
             style="fill:#100f0d;fill-opacity:1;fill-rule:nonzero;stroke:none"
             id="path1342"
             inkscape:connector-curvature="0" />
        </g>
      </g>
    </g>
  </g>
</svg>
