<?xml version="1.0" encoding="UTF-8" standalone="no"?>
<!-- Created with Inkscape (http://www.inkscape.org/) -->

<svg
   xmlns:dc="http://purl.org/dc/elements/1.1/"
   xmlns:cc="http://creativecommons.org/ns#"
   xmlns:rdf="http://www.w3.org/1999/02/22-rdf-syntax-ns#"
   xmlns:svg="http://www.w3.org/2000/svg"
   xmlns="http://www.w3.org/2000/svg"
   xmlns:sodipodi="http://sodipodi.sourceforge.net/DTD/sodipodi-0.dtd"
   xmlns:inkscape="http://www.inkscape.org/namespaces/inkscape"
   width="210mm"
   height="210mm"
   viewBox="0 0 210 210"
   version="1.1"
   id="svg8"
   inkscape:version="0.92.3 (2405546, 2018-03-11)"
   sodipodi:docname="capital-front.svg">
  <defs
     id="defs2">
    <clipPath
       id="clipPath1064-3"
       clipPathUnits="userSpaceOnUse">
      <path
         inkscape:connector-curvature="0"
         id="path1062-6"
         d="m 63.999,211.627 c 0,-44.291 35.905,-80.196 80.196,-80.196 v 0 c 44.292,0 80.197,35.905 80.197,80.196 v 0 c 0,44.292 -35.905,80.196 -80.197,80.196 v 0 c -44.291,0 -80.196,-35.904 -80.196,-80.196" />
    </clipPath>
  </defs>
  <sodipodi:namedview
     id="base"
     pagecolor="#ffffff"
     bordercolor="#666666"
     borderopacity="1.0"
     inkscape:pageopacity="0.0"
     inkscape:pageshadow="2"
     inkscape:zoom="0.35"
     inkscape:cx="129.53426"
     inkscape:cy="259.07761"
     inkscape:document-units="mm"
     inkscape:current-layer="layer1"
     showgrid="false"
     inkscape:pagecheckerboard="true"
     inkscape:window-width="1366"
     inkscape:window-height="700"
     inkscape:window-x="0"
     inkscape:window-y="0"
     inkscape:window-maximized="1" />
  <metadata
     id="metadata5">
    <rdf:RDF>
      <cc:Work
         rdf:about="">
        <dc:format>image/svg+xml</dc:format>
        <dc:type
           rdf:resource="http://purl.org/dc/dcmitype/StillImage" />
        <dc:title />
      </cc:Work>
    </rdf:RDF>
  </metadata>
  <g
     inkscape:label="Camada 1"
     inkscape:groupmode="layer"
     id="layer1"
     transform="translate(0,-87)">
    <g
       id="g932"
       transform="matrix(3.1000885,0,0,3.1000885,-230.41682,-374.01463)">
      <g
         inkscape:export-ydpi="96"
         inkscape:export-xdpi="96"
         transform="matrix(0.35277777,0,0,-0.35277777,57.232235,256.67726)"
         id="g1058">
        <g
           clip-path="url(#clipPath1064-3)"
           id="g1060">
          <g
             transform="translate(98.7604,178.179)"
             id="g1066">
            <path
               inkscape:connector-curvature="0"
               id="path1068"
               style="fill:#f6e156;fill-opacity:1;fill-rule:nonzero;stroke:none"
               d="M 0,0 7.023,4.787 V -6.324 Z M 2.963,20.209 -16.417,7 c -2.289,-1.56 -3.39,-4.208 -3.092,-6.781 0.087,-1.853 0.884,-3.673 2.371,-5.013 L 2.481,-22.459 c 1.303,-1.174 2.917,-1.781 4.542,-1.842 v -15.056 -3.155 -52.279 c 0,-4.324 3.505,-7.828 7.829,-7.828 4.323,0 7.828,3.504 7.828,7.828 0,-4.324 3.505,-7.828 7.828,-7.828 4.323,0 7.828,3.504 7.828,7.828 v 52.279 3.155 6.876 l -18.467,16.629 c -1.488,1.34 -2.285,3.16 -2.371,5.013 -0.299,2.574 0.802,5.221 3.091,6.781 L 39.97,9.151 c 0,0 0.77,0.642 2.171,1.48 l 0.263,0.179 c 0.46,0.314 0.945,0.561 1.442,0.755 1.932,0.97 4.535,1.986 7.677,2.557 l -8.931,6.087 c 0,0 -0.77,0.642 -2.172,1.48 l -0.262,0.179 c -0.46,0.314 -0.945,0.56 -1.443,0.755 -2.995,1.505 -7.59,3.135 -13.34,3.013 l 0.001,-0.016 c -0.187,0.008 -0.372,0.029 -0.561,0.029 h -4.271 c -0.123,0 -0.242,-0.015 -0.365,-0.019 l 0.001,0.006 C 14.43,25.758 9.836,24.128 6.84,22.623 6.343,22.428 5.857,22.182 5.397,21.868" />
          </g>
          <g
             transform="translate(181.5963,169.687)"
             id="g1070">
            <path
               inkscape:connector-curvature="0"
               id="path1072"
               style="fill:#f6e156;fill-opacity:1;fill-rule:nonzero;stroke:none"
               d="M 0,0 V 11.111 L 7.023,6.324 Z m -38.532,6.324 7.219,4.92 V -0.177 Z M 23.44,13.323 4.06,26.533 c 0,0 -0.77,0.642 -2.171,1.48 l -0.263,0.179 c -0.46,0.314 -0.945,0.56 -1.443,0.755 -2.996,1.505 -7.589,3.135 -13.339,3.013 v -0.006 c -0.122,0.004 -0.242,0.019 -0.365,0.019 h -4.27 c -0.19,0 -0.375,-0.021 -0.562,-0.029 v 0.016 c -5.75,0.122 -10.343,-1.508 -13.339,-3.013 -0.497,-0.195 -0.982,-0.441 -1.443,-0.755 l -0.262,-0.179 c -1.401,-0.838 -2.172,-1.48 -2.172,-1.48 l -19.38,-13.21 c -2.289,-1.56 -3.39,-4.207 -3.092,-6.78 0.086,-1.853 0.883,-3.673 2.371,-5.013 l 19.619,-17.665 c 1.355,-1.221 3.047,-1.824 4.738,-1.841 v -15.057 -3.155 -52.279 c 0,-4.324 3.505,-7.829 7.829,-7.829 4.323,0 7.828,3.505 7.828,7.829 0,-4.324 3.505,-7.829 7.828,-7.829 4.323,0 7.828,3.505 7.828,7.829 v 52.279 3.155 15.056 c 1.625,0.061 3.24,0.668 4.542,1.842 L 24.161,1.53 c 1.488,1.34 2.285,3.159 2.371,5.013 0.299,2.573 -0.803,5.22 -3.092,6.78" />
          </g>
          <g
             transform="translate(143.6041,176.0108)"
             id="g1074">
            <path
               inkscape:connector-curvature="0"
               id="path1076"
               style="fill:#f1a644;fill-opacity:1;fill-rule:nonzero;stroke:none"
               d="M 0,0 7.219,4.92 V -6.5 Z m 25.011,25.649 h -4.27 c -0.19,0 -0.374,-0.021 -0.562,-0.029 l 0.001,0.016 C 14.43,25.758 9.835,24.128 6.84,22.623 6.342,22.428 5.857,22.182 5.397,21.868 L 5.135,21.689 C 3.733,20.851 2.963,20.209 2.963,20.209 L -16.417,7 c -2.289,-1.56 -3.39,-4.208 -3.092,-6.781 0.086,-1.853 0.883,-3.673 2.371,-5.013 L 2.48,-22.459 c 1.356,-1.221 3.048,-1.824 4.739,-1.841 v -15.057 -3.155 -52.279 c 0,-4.324 3.505,-7.828 7.828,-7.828 4.324,0 7.828,3.504 7.828,7.828" />
          </g>
          <g
             transform="translate(167.733,207.5199)"
             id="g1078">
            <path
               inkscape:connector-curvature="0"
               id="path1080"
               style="fill:#f6e156;fill-opacity:1;fill-rule:nonzero;stroke:none"
               d="M 0,0 C 8.836,0 16,7.163 16,16 16,24.836 8.836,31.999 0,31.999 -8.836,31.999 -16,24.836 -16,16 -16,7.163 -8.836,0 0,0" />
          </g>
          <g
             transform="translate(167.6862,239.5189)"
             id="g1082">
            <path
               inkscape:connector-curvature="0"
               id="path1084"
               style="fill:#f1a644;fill-opacity:1;fill-rule:nonzero;stroke:none"
               d="m 0,0 c -8.836,0 -16,-7.163 -16,-16 0,-8.836 7.164,-15.999 16,-15.999" />
          </g>
          <g
             transform="translate(125.3004,207.6402)"
             id="g1086">
            <path
               inkscape:connector-curvature="0"
               id="path1088"
               style="fill:#f6e156;fill-opacity:1;fill-rule:nonzero;stroke:none"
               d="M 0,0 C 8.836,0 16,7.163 16,16 16,24.836 8.836,31.999 0,31.999 -8.836,31.999 -16,24.836 -16,16 -16,7.163 -8.836,0 0,0" />
          </g>
          <g
             transform="translate(102.2721,154.059)"
             id="g1090">
            <path
               inkscape:connector-curvature="0"
               id="path1092"
               style="fill:#ffffff;fill-opacity:1;fill-rule:nonzero;stroke:none"
               d="m 0,0 2.328,-2.475 1.184,-1.574 c 0,0 2.644,2.132 2.486,2.765 C 5.84,-0.652 3.512,3.697 3.512,3.697 Z" />
          </g>
          <g
             transform="translate(125.3004,207.6402)"
             id="g1094">
            <path
               inkscape:connector-curvature="0"
               id="path1096"
               style="fill:#f1a644;fill-opacity:1;fill-rule:nonzero;stroke:none"
               d="m 0,0 -1.194,0.049 -1.183,0.127 -1.564,0.314 -1.45,0.443 -1.26,0.512 -0.759,0.371 -0.943,0.535 -0.808,0.53 -0.655,0.484 -0.741,0.612 -0.589,0.545 -0.6,0.614 -0.441,0.497 -0.439,0.539 -0.316,0.42 -0.483,0.701 -0.51,0.839 -0.324,0.604 -0.359,0.75 -0.358,0.872 -0.281,0.812 -0.339,1.244 -0.229,1.217 -0.145,1.394 -0.03,0.801 0.014,0.832 0.048,0.744 0.078,0.715 0.105,0.682 0.076,0.401 1.301,3.955 2.703,2.704 3.186,1.95 c 0,0 -1.435,-20.09 9.017,-27.809 z" />
          </g>
          <g
             transform="translate(118.299,132.3371)"
             id="g1098">
            <path
               inkscape:connector-curvature="0"
               id="path1100"
               style="fill:#f1a644;fill-opacity:1;fill-rule:nonzero;stroke:none"
               d="M 0,0 V 3.155 L 4.48,2.026 C 2.855,2.087 -3.239,18.879 -4.542,20.053 l -19.619,17.665 c -1.488,1.34 -2.285,3.16 -2.371,5.013 -0.299,2.573 0.803,5.221 3.092,6.781 l 19.38,13.209 c 0,0 0.77,0.642 2.172,1.48 l 0.262,0.179 c 0.46,0.314 0.945,0.561 1.443,0.755 2.996,1.505 7.59,3.135 13.339,3.013 v -0.006 c 0.122,0.004 0.242,0.019 0.365,0.019 h 4.271 c 0.189,0 0.374,-0.021 0.561,-0.028 v 0.015 c 0.34,0.007 0.664,-0.011 0.997,-0.016 -2.985,1.378 -7.249,2.722 -12.487,2.61 l 10e-4,-0.015 c -0.188,0.007 -0.372,0.028 -0.562,0.028 h -4.27 c -0.123,0 -0.242,-0.015 -0.365,-0.018 v 0.005 c -5.75,0.122 -10.344,-1.508 -13.339,-3.013 -0.498,-0.194 -0.983,-0.441 -1.443,-0.755 l -0.262,-0.179 c -1.402,-0.838 -2.172,-1.48 -2.172,-1.48 L -34.93,52.106 c -2.289,-1.56 -3.39,-4.208 -3.091,-6.781 0.086,-1.853 0.883,-3.673 2.371,-5.013 l 19.618,-17.665 c 1.303,-1.174 2.917,-1.781 4.543,-1.842 V 5.749 2.594 -49.685 c 0,-4.324 3.505,-7.828 7.828,-7.828 1.723,0 3.311,0.563 4.604,1.507 C 0.342,-54.898 0,-53.629 0,-52.279 Z" />
          </g>
          <g
             transform="translate(104.2775,151.7424)"
             id="g1102">
            <path
               inkscape:connector-curvature="0"
               id="path1104"
               style="fill:#f1a644;fill-opacity:1;fill-rule:nonzero;stroke:none"
               d="M 0,0 4.783,-7.745 6.52,-0.747 -13.644,14.98 -5.694,4.86 Z" />
          </g>
          <g
             transform="translate(123.5075,235.8685)"
             id="g1106">
          path
             d=&quot;m 0,0 c -8.245,0 -14.952,-6.708 -14.952,-14.953 0,-8.245 6.707,-14.952 14.952,-14.952 8.245,0 14.952,6.707 14.952,14.952 C 14.952,-6.708 8.245,0 0,0 m 0,-31.999 c -9.399,0 -17.046,7.646 -17.046,17.046 0,9.4 7.647,17.047 17.046,17.047 9.399,0 17.046,-7.647 17.046,-17.047 0,-9.4 -7.647,-17.046 -17.046,-17.046&quot;
             style=&quot;fill:#231f20;fill-opacity:1;fill-rule:nonzero;stroke:none&quot;
             id=&quot;path1108&quot;
             inkscape:connector-curvature=&quot;0&quot; /&gt;
        </g>
          <g
             transform="translate(122.4606,80.7937)"
             id="g1110">
        path
           inkscape:connector-curvature=0
           id=path1112
           style=fill:#231f20;fill-opacity:1;fill-rule:nonzero;stroke:none
           d=m 0,0 h 2.094 c 0,-3.74 3.042,-6.781 6.781,-6.781 3.74,0 6.782,3.041 6.782,6.781 V 61.941 L -3.059,85.214 c -1.533,1.363 -2.498,3.401 -2.6,5.62 -0.35,2.988 1.008,5.963 3.548,7.694 l 19.38,13.21 c 0.074,0.054 1.774,1.281 3.202,2.229 -0.878,0.686 -1.728,1.321 -2.221,1.615 l -0.314,0.213 c -0.37,0.252 -0.785,0.469 -1.234,0.643 -2.668,1.337 -6.752,2.85 -11.852,2.944 l 0.002,-0.048 -1.394,0.046 c -0.092,0.006 -0.183,0.013 -0.276,0.013 l -5.848,-0.053 0.006,0.04 c -5.054,-0.111 -9.094,-1.611 -11.663,-2.902 -0.539,-0.215 -0.954,-0.432 -1.323,-0.683 l -0.262,-0.179 c -1.353,-0.812 -2.084,-1.414 -2.092,-1.42 l -19.46,-13.27 c -1.894,-1.291 -2.906,-3.511 -2.641,-5.794 0.083,-1.728 0.802,-3.249 2.031,-4.357 l 22.227,-21.681 c 0.842,-0.758 0.935,-2.53 0.952,-6.688 0.007,-1.694 0.016,-4.17 0.269,-5.044 l 0.227,-0.008 0.832,-1.673 V 0 c 0,-3.74 3.042,-6.781 6.782,-6.781 C -3.042,-6.781 0,-3.74 0,0 m 8.875,-8.875 c -3.384,0 -6.331,1.903 -7.828,4.696 -1.497,-2.793 -4.444,-4.696 -7.828,-4.696 -4.894,0 -8.876,3.981 -8.876,8.875 v 55.188 l -0.145,0.291 c -1.158,0.691 -1.168,3.172 -1.183,6.918 -0.008,1.864 -0.019,4.681 -0.355,5.241 l -22.161,21.61 c -1.619,1.457 -2.583,3.495 -2.686,5.714 -0.35,2.987 1.008,5.963 3.548,7.694 l 19.38,13.21 -0.001,-0.001 c -0.007,0 0.804,0.664 2.224,1.514 l 0.211,0.146 c 0.499,0.339 1.054,0.631 1.65,0.863 2.89,1.457 7.736,3.205 13.744,3.086 h 0.034 c 0.149,0.009 0.229,0.013 0.309,0.013 h 4.27 c 0.138,0 0.276,-0.008 0.412,-0.018 l 0.127,0.005 c 6.032,0.129 10.854,-1.629 13.832,-3.125 0.506,-0.192 1.062,-0.483 1.562,-0.824 l 0.262,-0.179 c 1.404,-0.837 5.013,-3.852 5.165,-3.979 L 23.2,111.76 c -0.245,0.204 -0.598,0.496 -1.009,0.83 -1.444,-0.925 -3.694,-2.548 -3.72,-2.566 L -0.932,96.798 c -1.894,-1.291 -2.906,-3.511 -2.642,-5.795 0.083,-1.726 0.802,-3.247 2.032,-4.355 L 17.751,62.679 V 0 c 0,-4.894 -3.981,-8.875 -8.876,-8.875 /
      </g>
          <g
             transform="translate(166.109,192.2536)"
             id="g1114">
            <path
               inkscape:connector-curvature="0"
               id="path1116"
               style="fill:#c51d28;fill-opacity:1;fill-rule:nonzero;stroke:none"
               d="m 0,0 -4.25,-29.521 6.601,-5.951 V 0 Z" />
          </g>
          <g
             transform="translate(163.5973,198.9285)"
             id="g1118">
            <path
               inkscape:connector-curvature="0"
               id="path1120"
               style="fill:#c51d28;fill-opacity:1;fill-rule:nonzero;stroke:none"
               d="M 0,0 2.435,-5.168 H 4.863 V 0 Z" />
          </g>
          <g
             transform="translate(170.8073,192.2536)"
             id="g1122">
            <path
               inkscape:connector-curvature="0"
               id="path1124"
               style="fill:#eb3647;fill-opacity:1;fill-rule:nonzero;stroke:none"
               d="m 0,0 4.25,-29.521 -6.601,-5.951 V 0 Z" />
          </g>
          <g
             transform="translate(173.319,198.9285)"
             id="g1126">
            <path
               inkscape:connector-curvature="0"
               id="path1128"
               style="fill:#eb3647;fill-opacity:1;fill-rule:nonzero;stroke:none"
               d="M 0,0 -2.434,-5.168 H -4.863 V 0 Z" />
          </g>
          <g
             transform="translate(167.7326,233.9412)"
             id="g1130">
            <path
               inkscape:connector-curvature="0"
               id="path1132"
               style="fill:#231f20;fill-opacity:1;fill-rule:nonzero;stroke:none"
               d="m 0,0 c -8.245,0 -14.952,-6.707 -14.952,-14.952 0,-8.245 6.707,-14.952 14.952,-14.952 8.245,0 14.953,6.707 14.953,14.952 C 14.953,-6.707 8.245,0 0,0 m 0,-31.999 c -9.399,0 -17.046,7.647 -17.046,17.047 0,9.399 7.647,17.046 17.046,17.046 9.399,0 17.047,-7.647 17.047,-17.046 0,-9.4 -7.648,-17.047 -17.047,-17.047" />
          </g>
          <g
             transform="translate(166.6857,78.8672)"
             id="g1134">
            <path
               inkscape:connector-curvature="0"
               id="path1136"
               style="fill:#231f20;fill-opacity:1;fill-rule:nonzero;stroke:none"
               d="m 0,0 h 2.094 c 0,-3.74 3.042,-6.781 6.781,-6.781 3.74,0 6.782,3.041 6.782,6.781 v 71.499 l 1.008,0.038 c 1.435,0.053 2.813,0.611 3.88,1.572 l 19.619,17.666 c 1.23,1.108 1.949,2.629 2.026,4.284 0.27,2.356 -0.742,4.576 -2.636,5.867 l -19.38,13.209 c -0.087,0.066 -0.818,0.669 -2.12,1.447 l -0.314,0.213 c -0.37,0.252 -0.785,0.469 -1.234,0.643 -2.65,1.328 -6.697,2.829 -11.752,2.942 l 0.005,-0.034 -1.446,0.04 -4.401,0.007 c -0.093,0 -0.184,-0.007 -0.275,-0.013 l -1.396,-0.061 0.003,0.063 c -5.101,-0.095 -9.179,-1.604 -11.763,-2.904 -0.538,-0.214 -0.953,-0.431 -1.323,-0.683 l -0.262,-0.179 c -1.353,-0.812 -2.085,-1.415 -2.093,-1.421 l -19.459,-13.269 c -1.894,-1.291 -2.907,-3.511 -2.641,-5.795 0.083,-1.728 0.802,-3.249 2.031,-4.356 l 19.619,-17.666 c 1.109,-0.997 2.547,-1.555 4.048,-1.571 l 1.037,-0.011 V 0 c 0,-3.74 3.042,-6.781 6.781,-6.781 C -3.042,-6.781 0,-3.74 0,0 m 8.875,-8.875 c -3.384,0 -6.331,1.903 -7.828,4.696 -1.497,-2.793 -4.444,-4.696 -7.828,-4.696 -4.894,0 -8.875,3.981 -8.875,8.875 v 69.52 c -1.631,0.221 -3.162,0.926 -4.392,2.034 L -39.667,89.22 c -1.648,1.483 -2.612,3.522 -2.716,5.741 -0.349,2.989 1.008,5.965 3.548,7.695 l 19.379,13.209 -0.001,-10e-4 c -0.007,0 0.805,0.665 2.226,1.515 l 0.21,0.146 c 0.5,0.341 1.056,0.632 1.651,0.864 2.888,1.457 7.696,3.219 13.744,3.086 l 0.147,-0.004 c 0.13,0.009 0.26,0.016 0.391,0.016 h 4.27 c 0.095,0 0.188,-0.006 0.28,-0.012 v -0.002 l 0.062,0.002 c 6.018,0.138 10.855,-1.63 13.833,-3.126 0.506,-0.192 1.062,-0.483 1.562,-0.824 l 0.262,-0.179 c 1.403,-0.837 2.219,-1.513 2.253,-1.542 l 19.299,-13.148 c 2.54,-1.73 3.897,-4.706 3.543,-7.765 -0.097,-2.147 -1.063,-4.187 -2.711,-5.671 L 21.946,71.554 c -1.178,-1.062 -2.64,-1.757 -4.195,-2.009 V 0 c 0,-4.894 -3.981,-8.875 -8.876,-8.875" />
          </g>
          <g
             transform="translate(135.3073,247.2382)"
             id="g1138">
            <path
               inkscape:connector-curvature="0"
               id="path1140"
               style="fill:#c51d28;fill-opacity:1;fill-rule:nonzero;stroke:none"
               d="m 0,0 c -0.494,-0.033 -1.309,-0.099 -2.293,-0.216 0.008,0.287 0.018,0.601 0.028,0.923 0.482,0.352 0.803,0.912 0.803,1.554 0,0.49 -0.196,0.927 -0.498,1.268 L -2.048,4.803 0,6.693 V 1.539 0.854 Z m -10.419,-2.305 c -3.254,1.709 -8.702,2.192 -10.418,2.305 v 1.539 c 0,0 0,0.001 0,0.001 V 7.08 7.081 7.17 l 1.884,-0.686 c 0.368,-1.738 0.362,-3.555 -0.068,-5.278 0.617,0.124 1.265,0.095 1.869,-0.084 0.286,-0.085 0.569,-0.203 0.867,-0.217 0.4,-0.017 0.788,0.157 1.189,0.156 0.848,-0.003 1.519,-0.767 2.357,-0.898 0.751,-0.117 1.634,0.262 2.218,-0.225 -0.141,0.761 -0.827,1.289 -1.501,1.667 -0.675,0.378 -1.42,0.709 -1.866,1.342 0.856,-0.151 1.722,-0.241 2.59,-0.27 0.113,-0.003 0.226,0.002 0.339,0.003 l 3.156,-1.519 -0.32,-0.054 c -0.39,-0.231 -0.769,-0.48 -1.134,-0.748 0.603,0.183 1.19,0.414 1.775,0.647 l 2.998,-1.443 -0.038,-0.102 c -2.503,-0.431 -4.484,-1.023 -5.897,-1.766 m 0,19.977 6.47,-2.894 v -1.903 l -0.52,-0.007 c -1.824,0.902 -3.754,1.582 -5.742,2.018 -0.294,0.29 -0.588,0.581 -0.881,0.871 -0.386,-1.001 -1.309,-1.696 -2.268,-2.177 -0.156,-0.078 -0.32,-0.141 -0.479,-0.212 0.351,0.376 0.675,0.776 0.931,1.223 -1.261,-0.66 -2.542,-1.282 -3.824,-1.901 l -4.992,-0.072 4.227,1.891 c 0.004,10e-4 0.007,10e-4 0.011,0.002 z M 0.174,12.935 -2.852,12.891 v 1.397 z M -2.138,4.643 c 0.011,-0.325 0.025,-0.649 0.033,-0.974 -0.022,0.02 -0.041,0.041 -0.063,0.06 0.014,0.441 0.025,0.771 0.03,0.914 m -6.847,8.326 c 0.158,0.37 0.297,0.788 0.161,1.167 -0.014,0.041 -0.049,0.072 -0.072,0.109 l 3.34,-1.393 -3.507,-0.051 c 0.025,0.056 0.054,0.111 0.078,0.168 m -1.064,1.757 0.437,-0.182 c -0.059,-0.021 -0.121,-0.036 -0.168,-0.084 -0.089,0.088 -0.179,0.177 -0.269,0.266 m 17.84,-3.995 -17.986,8.042 c -0.142,0.064 -0.305,0.064 -0.448,0 l -6.653,-2.975 c -0.003,-0.002 -0.007,-10e-4 -0.01,-0.003 l -11.322,-5.064 c -0.198,-0.089 -0.325,-0.285 -0.325,-0.501 0,-0.216 0.127,-0.412 0.325,-0.5 l 6.694,-2.994 V 1.328 c 0,0 0,0 0,-0.001 v -1.845 c 0,-0.293 0.231,-0.534 0.524,-0.547 0.072,-0.003 7.199,-0.336 10.72,-2.342 l 5.712,1.671 -0.323,-0.853 c -0.065,-0.169 -0.042,-0.358 0.06,-0.506 0.103,-0.149 0.272,-0.237 0.452,-0.237 h 2.778 c 0.181,0 0.349,0.088 0.451,0.237 0.103,0.148 0.126,0.337 0.062,0.506 l -0.496,1.304 c 1.492,0.171 2.554,0.219 2.566,0.22 0.293,0.013 0.525,0.254 0.525,0.548 V 0.854 1.539 6.736 L 7.791,9.73 c 0.197,0.088 0.324,0.284 0.324,0.5 0,0.216 -0.127,0.412 -0.324,0.501" />
          </g>
          <g
             transform="translate(116.588,253.4802)"
             id="g1142">
            <path
               inkscape:connector-curvature="0"
               id="path1144"
               style="fill:#c51d28;fill-opacity:1;fill-rule:nonzero;stroke:none"
               d="m 0,0 c -0.291,-0.99 -0.247,-2.075 0.125,-3.037 0.106,-0.277 0.239,-0.593 0.1,-0.855 -0.1,-0.19 -0.314,-0.287 -0.463,-0.442 -0.148,-0.156 -0.194,-0.463 0.004,-0.548 1.376,1.029 3.455,0.981 4.781,-0.111 C 3.828,-4.617 2.99,-4.471 2.185,-4.581 4.924,-4.616 7.72,-4.02 10.372,-4.707 10.283,-4.946 9.984,-5.014 9.731,-5.047 8.345,-5.23 6.958,-5.413 5.571,-5.595 6.87,-6.477 8.72,-6.45 9.993,-5.531 c 0.316,0.228 0.599,0.505 0.941,0.691 0.85,0.464 1.891,0.292 2.841,0.107 -1.053,-0.123 -2.08,-0.468 -2.994,-1.007 2.401,0.048 4.641,1.93 5.103,4.287 0.203,-0.836 0.246,-1.711 0.125,-2.563 -0.038,-0.269 -0.09,-0.555 0.024,-0.802 0.114,-0.246 0.478,-0.39 0.663,-0.191 -0.685,1.649 -0.682,3.571 0.007,5.218 C 16.449,-0.658 16.579,-1.583 16.544,-2.486 16.51,-3.388 16.242,-4.381 15.471,-4.851 13.58,-1.435 11.347,1.793 8.817,4.768 8.722,4.88 8.622,5.003 8.616,5.15 8.609,5.317 8.726,5.459 8.808,5.604 9.028,5.995 9.013,6.472 8.966,6.918 8.87,7.819 8.664,8.707 8.354,9.558 7.506,8.891 6.569,8.336 5.576,7.914 3.826,7.17 1.904,6.834 0.25,5.896 -1.059,5.153 -2.184,4.043 -3.626,3.614 -0.655,4.14 2.316,4.666 5.287,5.192 5.722,5.269 6.166,5.349 6.556,5.558 6.879,5.732 7.152,5.987 7.406,6.252 8.053,6.928 8.611,7.689 9.062,8.509 10.555,7.856 12.048,7.203 13.542,6.55 12.828,7.402 11.875,8.05 10.821,8.402 13.175,6.73 15.859,5.524 18.672,4.874 18.134,4.852 17.593,4.922 17.079,5.079" />
          </g>
          <g
             transform="translate(124.4694,264.806)"
             id="g1146">
            <path
               inkscape:connector-curvature="0"
               id="path1148"
               style="fill:#c51d28;fill-opacity:1;fill-rule:nonzero;stroke:none"
               d="m 0,0 -0.33,-3.352 v -16.759 l 0.715,-0.275 4.231,1.374 6.814,0.824 v 8.627 L 13.737,-5.11 0.055,0.714 Z" />
          </g>
          <g
             transform="translate(124.6647,266.011)"
             id="g1150">
            <path
               inkscape:connector-curvature="0"
               id="path1152"
               style="fill:#eb3647;fill-opacity:1;fill-rule:nonzero;stroke:none"
               d="m 0,0 -17.986,-8.042 -0.324,-0.501 0.324,-0.5 6.694,-2.994 10e-4,-7.253 0.21,-0.421 0.886,-0.163 1.344,-0.116 1.932,-0.236 2.685,-0.488 1.427,-0.364 1.723,-0.599 1.037,-0.502 0.271,22.227" />
          </g>
          <g
             transform="translate(135.0646,253.4713)"
             id="g1154">
          path
             d=&quot;M 0,0 C -0.036,0.103 -0.101,0.195 -0.191,0.261 -1.3,1.083 -2.553,1.793 -3.917,2.379 V 6.365 L 5.158,2.307 Z m -3.625,-5.663 c 0,-0.463 -0.377,-0.84 -0.841,-0.84 -0.463,0 -0.84,0.377 -0.84,0.84 0,0.464 0.377,0.841 0.84,0.841 0.464,0 0.841,-0.377 0.841,-0.841 m -1.435,-4.496 0.594,1.563 0.594,-1.563 z m -0.983,0.5 -0.324,-0.854 c -0.064,-0.168 -0.041,-0.357 0.061,-0.506 0.102,-0.148 0.271,-0.237 0.452,-0.237 h 2.778 c 0.18,0 0.348,0.089 0.451,0.237 0.103,0.149 0.125,0.338 0.062,0.506 l -0.497,1.305 c 1.493,0.171 2.554,0.219 2.566,0.219 0.294,0.013 0.525,0.255 0.525,0.548 v 2.056 c 0,0.303 -0.246,0.549 -0.548,0.549 -0.303,0 -0.548,-0.246 -0.548,-0.549 v -1.539 c -0.513,-0.034 -1.363,-0.102 -2.396,-0.227 l -0.265,0.698 c 0.702,0.291 1.198,0.984 1.198,1.79 0,0.878 -0.587,1.621 -1.389,1.858 V 1.18 c 1.03,-0.473 1.986,-1.021 2.852,-1.638 v -0.385 -0.001 -6.225 c 0,-0.303 0.245,-0.549 0.548,-0.549 0.303,0 0.548,0.246 0.548,0.549 v 5.881 L 6.726,1.806 C 6.923,1.894 7.05,2.09 7.05,2.307 c 0,0.216 -0.128,0.412 -0.325,0.5 l -17.985,8.042 c -0.143,0.064 -0.305,0.064 -0.448,0 L -19,7.589 c -0.276,-0.124 -0.4,-0.448 -0.276,-0.724 0.123,-0.277 0.447,-0.401 0.724,-0.277 l 7.068,3.16 6.47,-2.893 V 2.816 c -3.434,1.256 -6.325,1.351 -6.455,1.355 -0.01,0 -0.02,0 -0.031,0 C -11.639,4.167 -14.955,4.057 -18.71,2.524 -20.208,1.912 -21.577,1.151 -22.777,0.261 -22.868,0.195 -22.933,0.103 -22.969,0 l -5.157,2.307 10.202,4.564 c 0.277,0.123 0.401,0.447 0.277,0.724 -0.124,0.277 -0.448,0.4 -0.725,0.277 L -29.694,2.807 c -0.197,-0.088 -0.324,-0.284 -0.324,-0.5 0,-0.217 0.127,-0.413 0.324,-0.501 L -23,-1.188 v -5.407 c 0,-0.303 0.246,-0.548 0.549,-0.548 0.303,0 0.548,0.245 0.548,0.548 v 5.751 0.001 0.385 c 1.074,0.766 2.286,1.427 3.607,1.967 3.437,1.403 6.567,1.555 6.812,1.565 0.239,-0.01 3.163,-0.149 6.47,-1.43 v -5.449 c -0.802,-0.237 -1.389,-0.98 -1.389,-1.858 0,-0.806 0.496,-1.499 1.198,-1.79 l -0.383,-1.01 c -2.502,-0.43 -4.484,-1.023 -5.896,-1.766 -3.254,1.71 -8.703,2.193 -10.418,2.306 v 1.538 c 0,0.303 -0.246,0.548 -0.549,0.548 -0.303,0 -0.548,-0.245 -0.548,-0.548 v -2.056 c 0,-0.293 0.231,-0.535 0.524,-0.548 0.072,-0.003 7.198,-0.336 10.72,-2.341&quot;
             style=&quot;fill:#110f0d;fill-opacity:1;fill-rule:nonzero;stroke:none&quot;
             id=&quot;path1156&quot;
             inkscape:connector-curvature=&quot;0&quot; /&gt;
        </g>
          <g
             transform="translate(131.4396,247.8085)"
             id="g1158">
            <path
               inkscape:connector-curvature="0"
               id="path1160"
               style="fill:#f6e156;fill-opacity:1;fill-rule:nonzero;stroke:none"
               d="m 0,0 c 0,-0.466 -0.378,-0.844 -0.844,-0.844 -0.467,0 -0.844,0.378 -0.844,0.844 0,0.466 0.377,0.844 0.844,0.844 C -0.378,0.844 0,0.466 0,0" />
          </g>
          <g
             transform="translate(130.5988,244.8757)"
             id="g1162">
            <path
               inkscape:connector-curvature="0"
               id="path1164"
               style="fill:#f6e156;fill-opacity:1;fill-rule:nonzero;stroke:none"
               d="M 0,0 -0.584,-1.564 H 0.584 Z" />
          </g>
          <g
             transform="translate(163.2394,189.8518)"
             id="g1166">
            <path
               inkscape:connector-curvature="0"
               id="path1168"
               style="fill:#100f0d;fill-opacity:1;fill-rule:nonzero;stroke:none"
               d="m 0,0 h 1.396 0.024 1 0.116 1.304 l 4.15,-28.83 -5.52,-4.975 -0.001,0.002 -0.552,-0.495 -0.497,0.444 v 0.004 l -5.57,5.02 z M 9.05,-29.22 4.7,1 H 2.536 2.42 1.42 1.396 -0.86 l -4.35,-30.22 5.947,-5.363 v -0.001 L 0.868,-34.701 1.42,-35.2 v 0.004 l 0.443,-0.396 v 10e-4 l 0.048,-0.054 0.509,0.456 V -35.2 Z" />
          </g>
          <g
             transform="translate(163.2394,189.8518)"
             id="g1170">
            <path
               inkscape:connector-curvature="0"
               id="path1172"
               style="fill:none;stroke:#100f0d;stroke-width:0.75;stroke-linecap:butt;stroke-linejoin:miter;stroke-miterlimit:10;stroke-dasharray:none;stroke-opacity:1"
               d="m 0,0 h 1.396 0.024 1 0.116 1.304 l 4.15,-28.83 -5.52,-4.975 -0.001,0.002 -0.552,-0.495 -0.497,0.444 v 0.004 l -5.57,5.02 z M 9.05,-29.22 4.7,1 H 2.536 2.42 1.42 1.396 -0.86 l -4.35,-30.22 5.947,-5.363 v -0.001 L 0.868,-34.701 1.42,-35.2 v 0.004 l 0.443,-0.396 v 10e-4 l 0.048,-0.054 0.509,0.456 V -35.2 Z" />
          </g>
          <g
             transform="translate(164.6076,198.26)"
             id="g1174">
            <path
               inkscape:connector-curvature="0"
               id="path1176"
               style="fill:#100f0d;fill-opacity:1;fill-rule:nonzero;stroke:none"
               d="M 0,0 V -0.002 H 1.139 V 0 H 4.622 L 2.662,-4.17 H 1.139 1.052 0.052 0 -1.558 L -3.518,0 Z m 0,-5.17 h 0.052 1 0.087 2.153 L 6.202,1 H 1.052 V 0.998 h -1 V 1 h -5.15 l 2.91,-6.17 z" />
          </g>
          <g
             transform="translate(164.6076,198.26)"
             id="g1178">
            <path
               inkscape:connector-curvature="0"
               id="path1180"
               style="fill:none;stroke:#100f0d;stroke-width:0.75;stroke-linecap:butt;stroke-linejoin:miter;stroke-miterlimit:10;stroke-dasharray:none;stroke-opacity:1"
               d="M 0,0 V -0.002 H 1.139 V 0 H 4.622 L 2.662,-4.17 H 1.139 1.052 0.052 0 -1.558 L -3.518,0 Z m 0,-5.17 h 0.052 1 0.087 2.153 L 6.202,1 H 1.052 V 0.998 h -1 V 1 h -5.15 l 2.91,-6.17 z" />
          </g>
        </g>
      </g>
      <g
         inkscape:export-ydpi="96"
         inkscape:export-xdpi="96"
         transform="matrix(0.35277777,0,0,-0.35277777,136.06571,182.01989)"
         id="g1190">
        <path
           inkscape:connector-curvature="0"
           id="path1192"
           style="fill:none;stroke:#ffffff;stroke-width:1;stroke-linecap:butt;stroke-linejoin:miter;stroke-miterlimit:10;stroke-dasharray:none;stroke-opacity:1"
           d="m 0,0 c 0,-43.779 -35.49,-79.269 -79.27,-79.269 -43.779,0 -79.269,35.49 -79.269,79.269 0,43.779 35.49,79.269 79.269,79.269 C -35.49,79.269 0,43.779 0,0 Z" />
      </g>
    </g>
  </g>
</svg>
