<?xml version="1.0" encoding="UTF-8" standalone="no"?>
<!-- Created with Inkscape (http://www.inkscape.org/) -->

<svg
   xmlns:dc="http://purl.org/dc/elements/1.1/"
   xmlns:cc="http://creativecommons.org/ns#"
   xmlns:rdf="http://www.w3.org/1999/02/22-rdf-syntax-ns#"
   xmlns:svg="http://www.w3.org/2000/svg"
   xmlns="http://www.w3.org/2000/svg"
   xmlns:sodipodi="http://sodipodi.sourceforge.net/DTD/sodipodi-0.dtd"
   xmlns:inkscape="http://www.inkscape.org/namespaces/inkscape"
   width="162"
   height="162"
   viewBox="0 0 42.862499 42.862499"
   version="1.1"
   id="svg8"
   inkscape:version="0.92.3 (2405546, 2018-03-11)"
   sodipodi:docname="content-back.svg">
  <defs
     id="defs2">
    <clipPath
       id="clipPath339"
       clipPathUnits="userSpaceOnUse">
      <path
         inkscape:connector-curvature="0"
         id="path337"
         d="m 321.474,323.945 c 0,-8.647 7.01,-15.657 15.657,-15.657 v 0 c 8.647,0 15.658,7.01 15.658,15.657 v 0 c 0,8.648 -7.011,15.658 -15.658,15.658 v 0 c -8.647,0 -15.657,-7.01 -15.657,-15.658" />
    </clipPath>
  </defs>
  <sodipodi:namedview
     id="base"
     pagecolor="#ffffff"
     bordercolor="#666666"
     borderopacity="1.0"
     inkscape:pageopacity="0.0"
     inkscape:pageshadow="2"
     inkscape:zoom="2.8"
     inkscape:cx="132.28181"
     inkscape:cy="108.22568"
     inkscape:document-units="mm"
     inkscape:current-layer="layer1"
     showgrid="false"
     inkscape:pagecheckerboard="true"
     inkscape:window-width="2560"
     inkscape:window-height="1012"
     inkscape:window-x="0"
     inkscape:window-y="0"
     inkscape:window-maximized="1"
     units="px" />
  <metadata
     id="metadata5">
    <rdf:RDF>
      <cc:Work
         rdf:about="">
        <dc:format>image/svg+xml</dc:format>
        <dc:type
           rdf:resource="http://purl.org/dc/dcmitype/StillImage" />
        <dc:title></dc:title>
      </cc:Work>
    </rdf:RDF>
  </metadata>
  <g
     inkscape:label="Camada 1"
     inkscape:groupmode="layer"
     id="layer1"
     transform="translate(0,-254.13751)">
    <g
       id="g800"
       transform="matrix(3.8397169,0,0,3.8397169,-273.60765,-423.93813)"
       inkscape:export-xdpi="96"
       inkscape:export-ydpi="96">
      <g
         transform="matrix(0.35277777,0,0,-0.35277777,82.367122,182.17176)"
         id="g329">
        <path
           inkscape:connector-curvature="0"
           id="path331"
           style="fill:#ed8914;fill-opacity:1;fill-rule:nonzero;stroke:none"
           d="m 0,0 c 0,8.648 -7.01,15.658 -15.658,15.658 -8.647,0 -15.657,-7.01 -15.657,-15.658 0,-8.648 7.01,-15.658 15.657,-15.658 C -7.01,-15.658 0,-8.648 0,0" />
      </g>
      <g
         transform="matrix(0.35277777,0,0,-0.35277777,-42.088924,296.45253)"
         id="g333">
        <g
           clip-path="url(#clipPath339)"
           id="g335">
          <g
             transform="translate(346.4993,332.997)"
             id="g341">
            <path
               inkscape:connector-curvature="0"
               id="path343"
               style="fill:#b5b4b2;fill-opacity:1;fill-rule:nonzero;stroke:none"
               d="m 0,0 -0.05,1.288 c -0.025,0.365 -0.339,0.64 -0.7,0.614 L -18.493,0.633 c -0.403,-0.029 -0.705,-0.78 -0.676,-1.188 z" />
          </g>
          <g
             transform="translate(346.5125,331.0796)"
             id="g345">
            <path
               inkscape:connector-curvature="0"
               id="path347"
               style="fill:#ffffff;fill-opacity:1;fill-rule:nonzero;stroke:none"
               d="m 0,0 -0.001,1.561 c -0.015,0.343 -0.32,0.607 -0.683,0.591 L -18.454,1.363 C -18.857,1.346 -19.172,0.92 -19.155,0.538 Z" />
          </g>
          <g
             transform="translate(343.9021,308.2389)"
             id="g349">
            <path
               inkscape:connector-curvature="0"
               id="path351"
               style="fill:#54a3de;fill-opacity:1;fill-rule:nonzero;stroke:none"
               d="m 0,0 h -15.534 v 23.665 c 0,0.375 0.304,0.679 0.68,0.679 H 0 c 2.011,0 3.641,-1.63 3.641,-3.641 V 3.641 C 3.641,1.63 2.011,0 0,0" />
          </g>
          <path
             inkscape:connector-curvature="0"
             id="path353"
             style="fill:#54a3de;fill-opacity:1;fill-rule:nonzero;stroke:none"
             d="m 329.051,307.942 h -2.021 v 24.671 h 2.021 z" />
          <path
             inkscape:connector-curvature="0"
             id="path355"
             style="fill:#2b64a8;fill-opacity:1;fill-rule:nonzero;stroke:none"
             d="m 327.03,307.942 h 1.396 v 24.671 h -1.396 z" />
          <g
             transform="translate(327.5149,307.6549)"
             id="g357">
            <path
               inkscape:connector-curvature="0"
               id="path359"
               style="fill:#100f0d;fill-opacity:1;fill-rule:nonzero;stroke:none"
               d="m 0,0 h 17.784 c 0.582,0 1.055,0.478 1.055,1.066 v 22.2 c 0,0.587 -0.473,1.066 -1.055,1.066 H 0.061 C 0.027,24.332 0,24.304 0,24.271 Z m 17.784,-0.339 h -18.12 v 24.61 c 0,0.22 0.178,0.4 0.397,0.4 h 17.723 c 0.767,0 1.391,-0.631 1.391,-1.405 v -22.2 c 0,-0.775 -0.624,-1.405 -1.391,-1.405" />
          </g>
          <g
             transform="translate(327.1809,331.9597)"
             id="g361">
            path
               inkscape:connector-curvature=&quot;0&quot;
               id=&quot;path363&quot;
               style=&quot;fill:#100f0d;fill-opacity:1;fill-rule:nonzero;stroke:none&quot;
               d=&quot;m 0,0 c -0.017,0.238 0.058,0.554 0.194,0.825 0.168,0.333 0.394,0.526 0.638,0.543 l 17.742,1.27 c 0.219,0.018 0.432,-0.056 0.598,-0.201 0.167,-0.146 0.267,-0.348 0.283,-0.57 L 19.504,0.573 19.168,0.56 19.119,1.848 C 19.11,1.974 19.051,2.094 18.952,2.18 18.854,2.267 18.728,2.31 18.598,2.3 L 0.855,1.03 C 0.738,1.022 0.603,0.887 0.493,0.67 0.386,0.458 0.323,0.199 0.335,0.024 Z&quot; /&gt;
          </g>
          <path
             inkscape:connector-curvature="0"
             id="path365"
             style="fill:#100f0d;fill-opacity:1;fill-rule:nonzero;stroke:none"
             d="m 329.545,307.485 h -0.336 v 24.671 h 0.336 z" />
          <g
             transform="translate(342.1897,324.6362)"
             id="g367">
            <path
               inkscape:connector-curvature="0"
               id="path369"
               style="fill:#f9f1c8;fill-opacity:1;fill-rule:nonzero;stroke:none"
               d="m 0,0 h -7.459 c -1.089,0 -1.973,0.883 -1.973,1.972 v 1.204 c 0,1.089 0.884,1.972 1.973,1.972 H 0 c 1.089,0 1.972,-0.883 1.972,-1.972 V 1.972 C 1.972,0.883 1.089,0 0,0" />
          </g>
          <g
             transform="translate(343.6321,329.7845)"
             id="g371">
            <path
               inkscape:connector-curvature="0"
               id="path373"
               style="fill:#c9c8c6;fill-opacity:1;fill-rule:nonzero;stroke:none"
               d="m 0,0 h -10.344 c -0.293,0 -0.53,-0.24 -0.53,-0.535 0,-0.274 0.219,-0.495 0.49,-0.495 h 9.577 c 0.292,0 0.53,-0.24 0.53,-0.535 v -3.303 c 0,-0.155 0.124,-0.28 0.277,-0.28 0.293,0 0.53,0.239 0.53,0.535 v 4.078 C 0.53,-0.24 0.293,0 0,0" />
          </g>
          <g
             transform="translate(332.9163,328.9791)"
             id="g375">
            <path
               inkscape:connector-curvature="0"
               id="path377"
               style="fill:#100f0d;fill-opacity:1;fill-rule:nonzero;stroke:none"
               d="m 0,0 c -0.273,0 -0.495,-0.224 -0.495,-0.5 v -3.809 c 0,-0.276 0.222,-0.5 0.495,-0.5 h 10.079 c 0.272,0 0.494,0.224 0.494,0.5 V -0.5 c 0,0.276 -0.222,0.5 -0.494,0.5 z M 10.079,-5.148 H 0 c -0.458,0 -0.831,0.376 -0.831,0.839 V -0.5 c 0,0.463 0.373,0.839 0.831,0.839 h 10.079 c 0.458,0 0.83,-0.376 0.83,-0.839 v -3.809 c 0,-0.463 -0.372,-0.839 -0.83,-0.839" />
          </g>
          <g
             transform="translate(342.4978,327.5168)"
             id="g379">
            <path
               inkscape:connector-curvature="0"
               id="path381"
               style="fill:#54a3de;fill-opacity:1;fill-rule:nonzero;stroke:none"
               d="m 0,0 h -8.076 c -0.166,0 -0.301,0.135 -0.301,0.302 v 0.009 c 0,0.167 0.135,0.302 0.301,0.302 H 0 c 0.167,0 0.302,-0.135 0.302,-0.302 V 0.302 C 0.302,0.135 0.167,0 0,0" />
          </g>
          <g
             transform="translate(342.4978,325.5671)"
             id="g383">
            <path
               inkscape:connector-curvature="0"
               id="path385"
               style="fill:#54a3de;fill-opacity:1;fill-rule:nonzero;stroke:none"
               d="m 0,0 h -8.076 c -0.166,0 -0.301,0.135 -0.301,0.302 v 0.009 c 0,0.167 0.135,0.302 0.301,0.302 H 0 c 0.167,0 0.302,-0.135 0.302,-0.302 V 0.302 C 0.302,0.135 0.167,0 0,0" />
          </g>
          <g
             transform="translate(342.4465,325.6832)"
             id="g387">
            <path
               inkscape:connector-curvature="0"
               id="path389"
               style="fill:#2b64a8;fill-opacity:1;fill-rule:nonzero;stroke:none"
               d="M 0,0 -0.067,0.19 -0.304,0.307 H -8.376 L -8.326,0.19 -8.259,0" />
          </g>
          <g
             transform="translate(342.4963,327.8734)"
             id="g391">
            <path
               inkscape:connector-curvature="0"
               id="path393"
               style="fill:#2b64a8;fill-opacity:1;fill-rule:nonzero;stroke:none"
               d="m 0,0 c 0.122,0 0.225,-0.074 0.273,-0.178 0.019,0.039 0.03,0.082 0.03,0.128 0,0.169 -0.136,0.306 -0.303,0.306 h -8.072 c -0.168,0 -0.304,-0.137 -0.304,-0.306 0,-0.046 0.012,-0.089 0.03,-0.128 C -8.298,-0.074 -8.194,0 -8.072,0" />
          </g>
          <g
             transform="translate(334.0095,327.7386)"
             id="g395">
            <path
               inkscape:connector-curvature="0"
               id="path397"
               style="fill:#100f0d;fill-opacity:1;fill-rule:nonzero;stroke:none"
               d="m 0,0 c -0.087,0 -0.158,-0.072 -0.158,-0.16 v -0.124 c 0,-0.088 0.071,-0.159 0.158,-0.159 h 8.195 c 0.087,0 0.158,0.071 0.158,0.159 V -0.16 C 8.353,-0.072 8.282,0 8.195,0 Z M 8.195,-0.613 H 0 c -0.18,0 -0.326,0.148 -0.326,0.329 v 0.124 c 0,0.182 0.146,0.33 0.326,0.33 h 8.195 c 0.18,0 0.326,-0.148 0.326,-0.33 v -0.124 c 0,-0.181 -0.146,-0.329 -0.326,-0.329" />
          </g>
          <g
             transform="translate(334.0095,325.9049)"
             id="g399">
            <path
               inkscape:connector-curvature="0"
               id="path401"
               style="fill:#100f0d;fill-opacity:1;fill-rule:nonzero;stroke:none"
               d="m 0,0 c -0.087,0 -0.158,-0.072 -0.158,-0.16 v -0.123 c 0,-0.089 0.071,-0.16 0.158,-0.16 h 8.195 c 0.087,0 0.158,0.071 0.158,0.16 V -0.16 C 8.353,-0.072 8.282,0 8.195,0 Z M 8.195,-0.613 H 0 c -0.18,0 -0.326,0.148 -0.326,0.33 v 0.123 c 0,0.182 0.146,0.33 0.326,0.33 h 8.195 c 0.18,0 0.326,-0.148 0.326,-0.33 v -0.123 c 0,-0.182 -0.146,-0.33 -0.326,-0.33" />
          </g>
        </g>
      </g>
    </g>
  </g>
</svg>
