<?xml version="1.0" encoding="UTF-8" standalone="no"?>
<!-- Created with Inkscape (http://www.inkscape.org/) -->

<svg
   xmlns:dc="http://purl.org/dc/elements/1.1/"
   xmlns:cc="http://creativecommons.org/ns#"
   xmlns:rdf="http://www.w3.org/1999/02/22-rdf-syntax-ns#"
   xmlns:svg="http://www.w3.org/2000/svg"
   xmlns="http://www.w3.org/2000/svg"
   xmlns:sodipodi="http://sodipodi.sourceforge.net/DTD/sodipodi-0.dtd"
   xmlns:inkscape="http://www.inkscape.org/namespaces/inkscape"
   width="210mm"
   height="210mm"
   viewBox="0 0 210 210"
   version="1.1"
   id="svg8"
   inkscape:version="0.92.3 (2405546, 2018-03-11)"
   sodipodi:docname="1-front.svg">
  <defs
     id="defs2" />
  <sodipodi:namedview
     id="base"
     pagecolor="#ffffff"
     bordercolor="#666666"
     borderopacity="1.0"
     inkscape:pageopacity="0.0"
     inkscape:pageshadow="2"
     inkscape:zoom="0.35"
     inkscape:cx="194.24417"
     inkscape:cy="299.50134"
     inkscape:document-units="mm"
     inkscape:current-layer="layer1"
     showgrid="false"
     inkscape:pagecheckerboard="true"
     inkscape:window-width="1366"
     inkscape:window-height="703"
     inkscape:window-x="0"
     inkscape:window-y="0"
     inkscape:window-maximized="1" />
  <metadata
     id="metadata5">
    <rdf:RDF>
      <cc:Work
         rdf:about="">
        <dc:format>image/svg+xml</dc:format>
        <dc:type
           rdf:resource="http://purl.org/dc/dcmitype/StillImage" />
        <dc:title />
      </cc:Work>
    </rdf:RDF>
  </metadata>
  <g
     inkscape:label="Camada 1"
     inkscape:groupmode="layer"
     id="layer1"
     transform="translate(0,-87)">
    <g
       id="g69"
       inkscape:export-xdpi="96"
       inkscape:export-ydpi="96">
      <g
         inkscape:export-ydpi="96"
         inkscape:export-xdpi="96"
         transform="matrix(1.0966994,0,0,-1.0966994,-184.37703,570.66138)"
         id="g3942">
        <path
           inkscape:connector-curvature="0"
           id="path3944"
           style="fill:none;stroke:#ffffff;stroke-width:1;stroke-linecap:butt;stroke-linejoin:miter;stroke-miterlimit:10;stroke-dasharray:none;stroke-opacity:1"
           d="m 342.85715,345.00001 c 0,-43.779 -35.49,-79.27 -79.27,-79.27 -43.779,0 -79.269,35.491 -79.269,79.27 0,43.779 35.49,79.269 79.269,79.269 43.78,0 79.27,-35.49 79.27,-79.269 z" />
      </g>
      <g
         inkscape:export-ydpi="96"
         inkscape:export-xdpi="96"
         transform="matrix(1.0966994,0,0,-1.0966994,181.86944,177.04245)"
         id="g3946">
        <path
           inkscape:connector-curvature="0"
           id="path3948"
           style="fill:#e0dfde;fill-opacity:1;fill-rule:nonzero;stroke:none"
           d="m 0,0 -69.501,31.077 c -0.551,0.247 -1.179,0.247 -1.729,0 l -20.91,-9.35 c -0.09,-0.026 -0.181,-0.021 -0.269,-0.06 L -140.732,0 c -0.764,-0.341 -1.254,-1.1 -1.254,-1.935 0,-0.836 0.49,-1.593 1.254,-1.934 l 25.868,-11.569 v -12.79 c 0,-0.004 0.001,-0.004 0.001,-0.008 v -15.231 c 0,-1.133 0.892,-2.066 2.026,-2.116 0.276,-0.012 27.816,-1.299 41.422,-9.048 0.326,-0.185 0.687,-0.277 1.05,-0.277 0.361,0 0.723,0.092 1.048,0.278 4.576,2.608 11.435,4.82 19.978,6.457 l -1.252,-3.299 c -0.249,-0.651 -0.16,-1.382 0.235,-1.955 0.396,-0.573 1.049,-0.916 1.745,-0.916 h 10.735 c 0.698,0 1.349,0.343 1.745,0.916 0.395,0.573 0.484,1.304 0.236,1.955 l -1.915,5.042 c 5.766,0.66 9.868,0.846 9.915,0.848 1.133,0.049 2.028,0.982 2.028,2.116 v 11.795 11.315 4.918 L 0.001,-3.869 c 0.762,0.341 1.254,1.098 1.254,1.934 C 1.255,-1.1 0.762,-0.341 0,0" />
      </g>
      <g
         inkscape:export-ydpi="96"
         inkscape:export-xdpi="96"
         transform="matrix(1.0966994,0,0,-1.0966994,181.86953,177.27878)"
         id="g3950">
        <path
           inkscape:connector-curvature="0"
           id="path3952"
           style="fill:#ffffff;fill-opacity:1;fill-rule:nonzero;stroke:none"
           d="m 0,0 -69.501,31.077 c -0.551,0.247 -1.179,0.247 -1.729,0 l -5.389,-2.41 60.22,-30.945 c 0.763,-0.341 1.255,-1.099 1.255,-1.934 0,-0.836 -0.492,-1.593 -1.254,-1.934 l -25.156,-12.135 -0.712,-4.353 v -11.314 -11.795 c 0,-1.134 -0.895,-2.067 -2.028,-2.117 -0.032,-10e-4 -1.994,-0.093 -5.063,-0.36 l -1.234,-3.251 c -0.248,-0.652 -0.16,-1.383 0.235,-1.956 0.396,-0.573 1.049,-0.916 1.745,-0.916 h 10.735 c 0.698,0 1.349,0.343 1.744,0.916 0.396,0.573 0.485,1.304 0.237,1.956 l -1.914,5.041 c 5.765,0.66 9.867,0.846 9.914,0.848 1.133,0.049 2.028,0.982 2.028,2.117 v 11.795 11.314 4.919 L 0.001,-3.869 C 0.763,-3.528 1.255,-2.77 1.255,-1.935 1.255,-1.1 0.762,-0.341 0,0" />
      </g>
      <g
         inkscape:export-ydpi="96"
         inkscape:export-xdpi="96"
         transform="matrix(1.0966994,0,0,-1.0966994,127.33352,230.19749)"
         id="g3954">
        <path
           inkscape:connector-curvature="0"
           id="path3956"
           style="fill:#ffffff;fill-opacity:1;fill-rule:nonzero;stroke:none"
           d="M 0,0 C 0.127,0.011 0.247,0.021 0.37,0.032 L 0.388,0.079 C 0.255,0.054 0.132,0.026 0,0" />
      </g>
      <g
         inkscape:export-ydpi="96"
         inkscape:export-xdpi="96"
         transform="matrix(1.0966994,0,0,-1.0966994,131.53585,163.10208)"
         id="g3958">
        <path
           inkscape:connector-curvature="0"
           id="path3960"
           style="fill:#ffffff;fill-opacity:1;fill-rule:nonzero;stroke:none"
           d="M 0,0 C 0,0 15.084,-6.202 4.76,-30.136 -2.232,-46.344 33.755,-17.66 33.755,-17.66 L -0.757,1.229" />
      </g>
      <g
         inkscape:export-ydpi="96"
         inkscape:export-xdpi="96"
         transform="matrix(1.0966994,0,0,-1.0966994,99.25737,148.19707)"
         id="g3962">
        <path
           inkscape:connector-curvature="0"
           id="path3964"
           style="fill:#110f0d;fill-opacity:1;fill-rule:nonzero;stroke:none"
           d="m 0,0 c -0.087,0 -0.176,-0.02 -0.261,-0.061 l -65.107,-31.803 c -0.398,-0.194 -0.432,-0.628 -0.434,-0.756 0,-0.128 0.027,-0.565 0.426,-0.766 l 21.787,-11.046 c 44.378,37.362 82.659,4.307 87.274,0.022 l 21.07,11.012 c 0.392,0.205 0.419,0.639 0.417,0.766 -0.002,0.127 -0.037,0.557 -0.43,0.751 L 0.261,-0.062 C 0.178,-0.021 0.089,0 0,0 m 43.373,-46.508 -0.445,0.451 c -0.394,0.397 -39.789,39.167 -85.84,-0.05 l -0.436,-0.371 -22.805,11.562 c -0.848,0.43 -1.37,1.315 -1.364,2.309 0.009,0.992 0.543,1.868 1.395,2.284 L -1.013,1.48 c 0.648,0.316 1.387,0.315 2.035,-0.004 l 64.48,-31.819 c 0.842,-0.417 1.373,-1.286 1.385,-2.269 0.012,-0.985 -0.501,-1.87 -1.338,-2.307 z" />
      </g>
      <g
         inkscape:export-ydpi="96"
         inkscape:export-xdpi="96"
         transform="matrix(1.0966994,0,0,-1.0966994,99.28873,242.45345)"
         id="g3966">
        <path
           inkscape:connector-curvature="0"
           id="path3968"
           style="fill:#110f0d;fill-opacity:1;fill-rule:nonzero;stroke:none"
           d="m 0,0 c -4.792,5.608 -24.393,8.857 -41.139,10.027 -1.804,0.127 -3.216,1.647 -3.216,3.461 v 27.003 h 1.715 V 13.488 c 0,-0.917 0.712,-1.686 1.622,-1.75 10.63,-0.743 36.034,-3.266 42.321,-10.624 z" />
      </g>
      <g
         inkscape:export-ydpi="96"
         inkscape:export-xdpi="96"
         transform="matrix(1.0966994,0,0,-1.0966994,99.30154,242.45345)"
         id="g3970">
        <path
           inkscape:connector-curvature="0"
           id="path3972"
           style="fill:#110f0d;fill-opacity:1;fill-rule:nonzero;stroke:none"
           d="m 0,0 -1.303,1.114 c 3.137,3.67 11.327,6.58 24.345,8.646 L 23.31,8.067 C 10.885,6.094 2.824,3.304 0,0" />
      </g>
      <g
         inkscape:export-ydpi="96"
         inkscape:export-xdpi="96"
         transform="matrix(1.0966994,0,0,-1.0966994,133.54061,232.42896)"
         id="g3974">
        <path
           inkscape:connector-curvature="0"
           id="path3976"
           style="fill:#110f0d;fill-opacity:1;fill-rule:nonzero;stroke:none"
           d="m 0,0 -0.194,1.703 c 3.984,0.459 7.411,0.739 9.585,0.892 0.908,0.066 1.618,0.834 1.618,1.75 v 27.006 h 1.715 V 4.345 c 0,-1.813 -1.41,-3.332 -3.212,-3.46 C 7.356,0.732 3.956,0.455 0,0" />
      </g>
      <g
         inkscape:export-ydpi="96"
         inkscape:export-xdpi="96"
         transform="matrix(1.0966994,0,0,-1.0966994,129.00532,213.8105)"
         id="g3978">
        <path
           inkscape:connector-curvature="0"
           id="path3980"
           style="fill:#110f0d;fill-opacity:1;fill-rule:nonzero;stroke:none"
           d="m 0,0 c -2.707,0 -4.909,-2.202 -4.909,-4.909 0,-2.707 2.202,-4.909 4.909,-4.909 2.707,0 4.909,2.202 4.909,4.909 C 4.909,-2.202 2.707,0 0,0 m 0,-11.533 c -3.653,0 -6.624,2.971 -6.624,6.624 0,3.653 2.971,6.624 6.624,6.624 3.653,0 6.624,-2.971 6.624,-6.624 0,-3.653 -2.971,-6.624 -6.624,-6.624" />
      </g>
      <path
         inkscape:export-ydpi="96"
         inkscape:export-xdpi="96"
         inkscape:connector-curvature="0"
         id="path3982"
         style="fill:#110f0d;fill-opacity:1;fill-rule:nonzero;stroke:none;stroke-width:1.09669948"
         d="m 129.94531,212.87007 h -1.88083 v -51.11606 h 1.88083 z" />
      <g
         inkscape:export-ydpi="96"
         inkscape:export-xdpi="96"
         transform="matrix(1.0966994,0,0,-1.0966994,122.73801,237.4693)"
         id="g3984">
        <path
           inkscape:connector-curvature="0"
           id="path3986"
           style="fill:#110f0d;fill-opacity:1;fill-rule:nonzero;stroke:none"
           d="M 0,0 H 11.431 L 5.772,9.938 4.912,10.363 5.658,9.938 Z M 11.607,-1.715 H -0.177 c -0.582,0 -1.103,0.3 -1.394,0.801 -0.292,0.502 -0.295,1.103 -0.007,1.608 l 5.745,10.094 c 0.322,0.563 0.901,0.899 1.548,0.899 H 5.716 C 6.365,11.686 6.942,11.349 7.262,10.786 L 13.009,0.695 c 0.286,-0.505 0.285,-1.106 -0.007,-1.608 -0.293,-0.502 -0.814,-0.802 -1.395,-0.802" />
      </g>
      <g
         inkscape:export-ydpi="96"
         inkscape:export-xdpi="96"
         transform="matrix(1.0966994,0,0,-1.0966994,134.35163,219.07841)"
         id="g3988">
        <path
           inkscape:connector-curvature="0"
           id="path3990"
           style="fill:#f1db09;fill-opacity:1;fill-rule:nonzero;stroke:none"
           d="m 0,0 c 0,-2.77 -2.182,-5.015 -4.874,-5.015 -2.692,0 -4.874,2.245 -4.874,5.015 0,2.77 2.182,5.015 4.874,5.015 C -2.182,5.015 0,2.77 0,0" />
      </g>
      <g
         inkscape:export-ydpi="96"
         inkscape:export-xdpi="96"
         transform="matrix(1.0966994,0,0,-1.0966994,132.42682,219.07841)"
         id="g3992">
        <path
           inkscape:connector-curvature="0"
           id="path3994"
           style="fill:#e2b810;fill-opacity:1;fill-rule:nonzero;stroke:none"
           d="m 0,0 c 0,-2.453 -1.715,-4.488 -3.977,-4.922 0.291,-0.056 0.589,-0.093 0.897,-0.093 2.691,0 4.874,2.245 4.874,5.015 0,2.77 -2.183,5.015 -4.874,5.015 -0.308,0 -0.606,-0.037 -0.897,-0.093 C -1.715,4.488 0,2.454 0,0" />
      </g>
      <g
         inkscape:export-ydpi="96"
         inkscape:export-xdpi="96"
         transform="matrix(1.0966994,0,0,-1.0966994,128.67016,226.59087)"
         id="g3996">
        <path
           inkscape:connector-curvature="0"
           id="path3998"
           style="fill:#f1db09;fill-opacity:1;fill-rule:nonzero;stroke:none"
           d="M 0,0 -5.543,-9.55 C -5.638,-9.714 -5.52,-9.919 -5.33,-9.919 H 5.755 c 0.19,0 0.308,0.205 0.213,0.369 L 0.425,0 C 0.331,0.163 0.095,0.163 0,0" />
      </g>
      <g
         inkscape:export-ydpi="96"
         inkscape:export-xdpi="96"
         transform="matrix(1.0966994,0,0,-1.0966994,133.50739,237.06426)"
         id="g4000">
        <path
           inkscape:connector-curvature="0"
           id="path4002"
           style="fill:#e2b810;fill-opacity:1;fill-rule:nonzero;stroke:none"
           d="m 0,0 -4.977,8.575 0.566,0.975 c 0.095,0.163 0.331,0.163 0.426,0 L 1.557,0 C 1.652,-0.164 1.534,-0.369 1.344,-0.369 h -1.557 c 0.19,0 0.308,0.205 0.213,0.369" />
      </g>
    </g>
  </g>
</svg>
