<?xml version="1.0" encoding="UTF-8" standalone="no"?>
<!-- Created with Inkscape (http://www.inkscape.org/) -->

<svg
   xmlns:dc="http://purl.org/dc/elements/1.1/"
   xmlns:cc="http://creativecommons.org/ns#"
   xmlns:rdf="http://www.w3.org/1999/02/22-rdf-syntax-ns#"
   xmlns:svg="http://www.w3.org/2000/svg"
   xmlns="http://www.w3.org/2000/svg"
   xmlns:sodipodi="http://sodipodi.sourceforge.net/DTD/sodipodi-0.dtd"
   xmlns:inkscape="http://www.inkscape.org/namespaces/inkscape"
   width="162"
   height="162"
   viewBox="0 0 42.862499 42.862501"
   version="1.1"
   id="svg8"
   inkscape:version="0.92.3 (2405546, 2018-03-11)"
   sodipodi:docname="1-back1.svg">
  <defs
     id="defs2" />
  <sodipodi:namedview
     id="base"
     pagecolor="#ffffff"
     bordercolor="#666666"
     borderopacity="1.0"
     inkscape:pageopacity="0.0"
     inkscape:pageshadow="2"
     inkscape:zoom="2.8"
     inkscape:cx="68.901824"
     inkscape:cy="73.846269"
     inkscape:document-units="mm"
     inkscape:current-layer="layer1"
     showgrid="false"
     units="px"
     inkscape:window-width="1366"
     inkscape:window-height="703"
     inkscape:window-x="0"
     inkscape:window-y="0"
     inkscape:window-maximized="1" />
  <metadata
     id="metadata5">
    <rdf:RDF>
      <cc:Work
         rdf:about="">
        <dc:format>image/svg+xml</dc:format>
        <dc:type
           rdf:resource="http://purl.org/dc/dcmitype/StillImage" />
        <dc:title></dc:title>
      </cc:Work>
    </rdf:RDF>
  </metadata>
  <g
     inkscape:label="Camada 1"
     inkscape:groupmode="layer"
     id="layer1"
     transform="translate(0,-254.13748)">
    <g
       id="g301"
       transform="matrix(1.3856527,0,0,-1.3856527,42.699406,275.73885)"
       inkscape:export-xdpi="96"
       inkscape:export-ydpi="96">
      <path
         d="m 0,0 c 0,-8.432 -6.835,-15.267 -15.267,-15.267 -8.432,0 -15.267,6.835 -15.267,15.267 0,8.432 6.835,15.267 15.267,15.267 C -6.835,15.267 0,8.432 0,0"
         style="fill:#20602e;fill-opacity:1;fill-rule:nonzero;stroke:none"
         id="path303"
         inkscape:connector-curvature="0" />
    </g>
    <g
       id="g305"
       transform="matrix(1.3856527,0,0,-1.3856527,40.323256,272.02598)"
       inkscape:export-xdpi="96"
       inkscape:export-ydpi="96">
      <path
         d="m 0,0 -13.386,5.985 c -0.106,0.048 -0.227,0.048 -0.333,0 l -4.027,-1.8 C -17.763,4.18 -17.781,4.181 -17.798,4.173 L -27.105,0 c -0.147,-0.066 -0.241,-0.212 -0.241,-0.373 0,-0.16 0.094,-0.306 0.241,-0.372 l 4.982,-2.228 v -2.464 c 0,0 0.001,0 0.001,-10e-4 v -2.934 c 0,-0.218 0.171,-0.398 0.39,-0.407 0.053,-0.002 5.357,-0.25 7.978,-1.743 0.062,-0.035 0.132,-0.053 0.202,-0.053 0.069,0 0.139,0.018 0.202,0.054 0.881,0.502 2.202,0.928 3.847,1.243 l -0.241,-0.635 c -0.048,-0.126 -0.031,-0.266 0.046,-0.377 0.076,-0.11 0.202,-0.176 0.336,-0.176 h 2.067 c 0.135,0 0.26,0.066 0.336,0.176 0.076,0.111 0.093,0.251 0.046,0.377 l -0.369,0.971 c 1.11,0.127 1.901,0.163 1.91,0.163 0.218,0.009 0.39,0.189 0.39,0.408 v 2.271 2.18 0.947 L 0,-0.745 c 0.147,0.066 0.242,0.212 0.242,0.372 C 0.242,-0.212 0.147,-0.066 0,0"
         style="fill:#e0dfde;fill-opacity:1;fill-rule:nonzero;stroke:none"
         id="path307"
         inkscape:connector-curvature="0" />
    </g>
    <g
       id="g309"
       transform="matrix(1.3856527,0,0,-1.3856527,40.323416,272.08349)"
       inkscape:export-xdpi="96"
       inkscape:export-ydpi="96">
      <path
         d="m 0,0 -13.386,5.985 c -0.106,0.048 -0.227,0.048 -0.333,0 l -1.038,-0.464 11.599,-5.96 c 0.146,-0.065 0.241,-0.211 0.241,-0.372 0,-0.161 -0.094,-0.307 -0.241,-0.373 L -8.003,-3.521 -8.14,-4.359 V -6.538 -8.81 c 0,-0.218 -0.173,-0.398 -0.391,-0.408 -0.006,0 -0.384,-0.018 -0.975,-0.069 l -0.238,-0.626 c -0.048,-0.126 -0.031,-0.266 0.046,-0.377 0.076,-0.11 0.201,-0.176 0.336,-0.176 h 2.067 c 0.134,0 0.26,0.066 0.336,0.176 0.076,0.111 0.093,0.251 0.046,0.377 l -0.369,0.971 c 1.11,0.127 1.9,0.163 1.909,0.163 0.219,0.009 0.391,0.189 0.391,0.408 v 2.271 2.18 0.947 L 0,-0.745 c 0.147,0.066 0.242,0.212 0.242,0.372 C 0.242,-0.212 0.147,-0.066 0,0"
         style="fill:#ffffff;fill-opacity:1;fill-rule:nonzero;stroke:none"
         id="path311"
         inkscape:connector-curvature="0" />
    </g>
    <g
       id="g313"
       transform="matrix(1.3856527,0,0,-1.3856527,27.052326,284.96078)"
       inkscape:export-xdpi="96"
       inkscape:export-ydpi="96">
      <path
         d="M 0,0 C 0.024,0.002 0.048,0.004 0.071,0.006 L 0.075,0.015 C 0.049,0.01 0.026,0.005 0,0"
         style="fill:#ffffff;fill-opacity:1;fill-rule:nonzero;stroke:none"
         id="path315"
         inkscape:connector-curvature="0" />
    </g>
    <g
       id="g317"
       transform="matrix(1.3856527,0,0,-1.3856527,28.074936,268.63363)"
       inkscape:export-xdpi="96"
       inkscape:export-ydpi="96">
      <path
         d="m 0,0 c 0,0 2.905,-1.195 0.917,-5.804 -1.347,-3.122 5.584,2.403 5.584,2.403 l -6.647,3.638"
         style="fill:#ffffff;fill-opacity:1;fill-rule:nonzero;stroke:none"
         id="path319"
         inkscape:connector-curvature="0" />
    </g>
    <g
       id="g321"
       transform="matrix(1.3856527,0,0,-1.3856527,20.220209,265.00639)"
       inkscape:export-xdpi="96"
       inkscape:export-ydpi="96">
      <path
         d="m 0,0 c -0.017,0 -0.034,-0.004 -0.05,-0.012 l -12.54,-6.125 c -0.077,-0.038 -0.083,-0.121 -0.083,-0.146 0,-0.024 0.005,-0.108 0.082,-0.147 l 4.196,-2.128 c 8.547,7.196 15.92,0.83 16.809,0.005 l 4.058,2.12 c 0.075,0.04 0.08,0.123 0.08,0.148 0,0.025 -0.007,0.107 -0.083,0.145 L 0.05,-0.012 C 0.034,-0.004 0.017,0 0,0 M 8.354,-8.958 8.268,-8.871 C 8.192,-8.794 0.604,-1.327 -8.265,-8.88 l -0.084,-0.072 -4.392,2.227 c -0.163,0.083 -0.264,0.253 -0.263,0.445 0.002,0.191 0.105,0.36 0.269,0.44 l 12.54,6.125 c 0.125,0.061 0.267,0.06 0.392,-0.001 l 12.418,-6.128 c 0.163,-0.08 0.265,-0.248 0.267,-0.437 0.003,-0.19 -0.096,-0.36 -0.257,-0.444 z"
         style="fill:#110f0d;fill-opacity:1;fill-rule:nonzero;stroke:none"
         id="path323"
         inkscape:connector-curvature="0" />
    </g>
    <g
       id="g325"
       transform="matrix(1.3856527,0,0,-1.3856527,20.227869,287.9431)"
       inkscape:export-xdpi="96"
       inkscape:export-ydpi="96">
      <path
         d="m 0,0 c -0.923,1.08 -4.698,1.706 -7.923,1.931 -0.348,0.025 -0.62,0.317 -0.62,0.667 v 5.201 h 0.331 V 2.598 c 0,-0.177 0.137,-0.325 0.312,-0.338 2.047,-0.143 6.94,-0.628 8.151,-2.046 z"
         style="fill:#110f0d;fill-opacity:1;fill-rule:nonzero;stroke:none"
         id="path327"
         inkscape:connector-curvature="0" />
    </g>
    <g
       id="g329"
       transform="matrix(1.3856527,0,0,-1.3856527,20.230893,287.9431)"
       inkscape:export-xdpi="96"
       inkscape:export-ydpi="96">
      <path
         d="M 0,0 -0.251,0.214 C 0.353,0.921 1.931,1.482 4.438,1.88 L 4.489,1.554 C 2.096,1.174 0.544,0.636 0,0"
         style="fill:#110f0d;fill-opacity:1;fill-rule:nonzero;stroke:none"
         id="path331"
         inkscape:connector-curvature="0" />
    </g>
    <g
       id="g333"
       transform="matrix(1.3856527,0,0,-1.3856527,28.562816,285.50368)"
       inkscape:export-xdpi="96"
       inkscape:export-ydpi="96">
      <path
         d="M 0,0 -0.037,0.328 C 0.73,0.416 1.39,0.47 1.809,0.5 1.984,0.512 2.12,0.66 2.12,0.837 V 6.038 H 2.451 V 0.837 C 2.451,0.488 2.179,0.195 1.832,0.17 1.417,0.141 0.762,0.087 0,0"
         style="fill:#110f0d;fill-opacity:1;fill-rule:nonzero;stroke:none"
         id="path335"
         inkscape:connector-curvature="0" />
    </g>
    <g
       id="g337"
       transform="matrix(1.3856527,0,0,-1.3856527,27.459286,280.97328)"
       inkscape:export-xdpi="96"
       inkscape:export-ydpi="96">
      <path
         d="m 0,0 c -0.521,0 -0.946,-0.424 -0.946,-0.946 0,-0.521 0.425,-0.945 0.946,-0.945 0.521,0 0.945,0.424 0.945,0.945 C 0.945,-0.424 0.521,0 0,0 m 0,-2.221 c -0.704,0 -1.276,0.572 -1.276,1.275 0,0.704 0.572,1.276 1.276,1.276 0.703,0 1.276,-0.572 1.276,-1.276 0,-0.703 -0.573,-1.275 -1.276,-1.275"
         style="fill:#110f0d;fill-opacity:1;fill-rule:nonzero;stroke:none"
         id="path339"
         inkscape:connector-curvature="0" />
    </g>
    <path
       d="m 27.688206,280.74381 h -0.45728 v -12.43902 h 0.45728 z"
       style="fill:#110f0d;fill-opacity:1;fill-rule:nonzero;stroke:none;stroke-width:1.38565278"
       id="path341"
       inkscape:connector-curvature="0"
       inkscape:export-xdpi="96"
       inkscape:export-ydpi="96" />
    <g
       id="g343"
       transform="matrix(1.3856527,0,0,-1.3856527,25.934109,286.73038)"
       inkscape:export-xdpi="96"
       inkscape:export-ydpi="96">
      <path
         d="M 0,0 H 2.202 L 1.112,1.914 0.946,1.996 1.09,1.914 Z m 2.235,-0.33 h -2.269 c -0.112,0 -0.212,0.057 -0.269,0.154 -0.056,0.097 -0.056,0.212 -0.001,0.31 l 1.107,1.944 c 0.062,0.108 0.173,0.173 0.298,0.173 v 0 c 0.125,0 0.236,-0.065 0.298,-0.174 L 2.505,0.134 C 2.561,0.037 2.56,-0.079 2.504,-0.176 2.448,-0.273 2.347,-0.33 2.235,-0.33"
         style="fill:#110f0d;fill-opacity:1;fill-rule:nonzero;stroke:none"
         id="path345"
         inkscape:connector-curvature="0" />
    </g>
    <g
       id="g347"
       transform="matrix(1.3856527,0,0,-1.3856527,28.760146,282.25501)"
       inkscape:export-xdpi="96"
       inkscape:export-ydpi="96">
      <path
         d="m 0,0 c 0,-0.533 -0.42,-0.966 -0.939,-0.966 -0.518,0 -0.938,0.433 -0.938,0.966 0,0.533 0.42,0.966 0.938,0.966 C -0.42,0.966 0,0.533 0,0"
         style="fill:#f1db09;fill-opacity:1;fill-rule:nonzero;stroke:none"
         id="path349"
         inkscape:connector-curvature="0" />
    </g>
    <g
       id="g351"
       transform="matrix(1.3856527,0,0,-1.3856527,28.291796,282.25501)"
       inkscape:export-xdpi="96"
       inkscape:export-ydpi="96">
      <path
         d="m 0,0 c 0,-0.473 -0.33,-0.864 -0.766,-0.948 0.056,-0.011 0.114,-0.018 0.173,-0.018 0.518,0 0.938,0.433 0.938,0.966 0,0.533 -0.42,0.966 -0.938,0.966 -0.059,0 -0.117,-0.007 -0.173,-0.018 C -0.33,0.864 0,0.472 0,0"
         style="fill:#e2b810;fill-opacity:1;fill-rule:nonzero;stroke:none"
         id="path353"
         inkscape:connector-curvature="0" />
    </g>
    <g
       id="g355"
       transform="matrix(1.3856527,0,0,-1.3856527,27.139646,284.49324)"
       inkscape:export-xdpi="96"
       inkscape:export-ydpi="96">
      <path
         d="m 0,0 -0.723,-1.245 c -0.095,-0.164 0.024,-0.37 0.213,-0.37 h 1.445 c 0.19,0 0.308,0.206 0.213,0.37 L 0.425,0 C 0.331,0.163 0.095,0.163 0,0"
         style="fill:#f1db09;fill-opacity:1;fill-rule:nonzero;stroke:none"
         id="path357"
         inkscape:connector-curvature="0" />
    </g>
    <g
       id="g359"
       transform="matrix(1.3856527,0,0,-1.3856527,28.554646,286.63187)"
       inkscape:export-xdpi="96"
       inkscape:export-ydpi="96">
      <path
         d="m 0,0 -0.958,1.652 0.109,0.187 c 0.018,0.032 0.063,0.032 0.082,0 L 0.3,0 C 0.318,-0.031 0.296,-0.071 0.259,-0.071 h -0.3 c 0.037,0 0.059,0.04 0.041,0.071"
         style="fill:#e2b810;fill-opacity:1;fill-rule:nonzero;stroke:none"
         id="path361"
         inkscape:connector-curvature="0" />
    </g>
  </g>
</svg>
