<?xml version="1.0" encoding="UTF-8" standalone="no"?>
<!-- Created with Inkscape (http://www.inkscape.org/) -->

<svg
   xmlns:dc="http://purl.org/dc/elements/1.1/"
   xmlns:cc="http://creativecommons.org/ns#"
   xmlns:rdf="http://www.w3.org/1999/02/22-rdf-syntax-ns#"
   xmlns:svg="http://www.w3.org/2000/svg"
   xmlns="http://www.w3.org/2000/svg"
   xmlns:sodipodi="http://sodipodi.sourceforge.net/DTD/sodipodi-0.dtd"
   xmlns:inkscape="http://www.inkscape.org/namespaces/inkscape"
   width="162"
   height="162"
   viewBox="0 0 42.862499 42.862499"
   version="1.1"
   id="svg8"
   inkscape:version="0.92.3 (2405546, 2018-03-11)"
   sodipodi:docname="environment-back.svg">
  <defs
     id="defs2">
    <clipPath
       id="clipPath1180-3"
       clipPathUnits="userSpaceOnUse">
      <path
         inkscape:connector-curvature="0"
         id="path1178-6"
         d="m 319.824,324.059 c 0,-8.398 6.809,-15.206 15.206,-15.206 v 0 c 8.398,0 15.207,6.808 15.207,15.206 v 0 c 0,8.398 -6.809,15.207 -15.207,15.207 v 0 c -8.397,0 -15.206,-6.809 -15.206,-15.207" />
    </clipPath>
  </defs>
  <sodipodi:namedview
     id="base"
     pagecolor="#ffffff"
     bordercolor="#666666"
     borderopacity="1.0"
     inkscape:pageopacity="0.0"
     inkscape:pageshadow="2"
     inkscape:zoom="2.8"
     inkscape:cx="131.08479"
     inkscape:cy="107.11659"
     inkscape:document-units="mm"
     inkscape:current-layer="layer1"
     showgrid="false"
     inkscape:pagecheckerboard="true"
     inkscape:window-width="2560"
     inkscape:window-height="1012"
     inkscape:window-x="0"
     inkscape:window-y="0"
     inkscape:window-maximized="1"
     units="px" />
  <metadata
     id="metadata5">
    <rdf:RDF>
      <cc:Work
         rdf:about="">
        <dc:format>image/svg+xml</dc:format>
        <dc:type
           rdf:resource="http://purl.org/dc/dcmitype/StillImage" />
        <dc:title></dc:title>
      </cc:Work>
    </rdf:RDF>
  </metadata>
  <g
     inkscape:label="Camada 1"
     inkscape:groupmode="layer"
     id="layer1"
     transform="translate(0,-254.13751)">
    <g
       id="g1174"
       transform="matrix(1.3905593,0,0,-1.3905593,-444.27894,726.15545)"
       inkscape:export-xdpi="96"
       inkscape:export-ydpi="96">
      <g
         id="g1176"
         clip-path="url(#clipPath1180-3)">
        <g
           id="g1182"
           transform="translate(350.2365,324.0594)">
          <path
             d="m 0,0 c 0,-8.398 -6.808,-15.206 -15.206,-15.206 -8.398,0 -15.206,6.808 -15.206,15.206 0,8.398 6.808,15.206 15.206,15.206 C -6.808,15.206 0,8.398 0,0"
             style="fill:#ef287c;fill-opacity:1;fill-rule:nonzero;stroke:none"
             id="path1184"
             inkscape:connector-curvature="0" />
        </g>
        <g
           id="g1186"
           transform="translate(343.6711,319.177)">
          <path
             d="m 0,0 h -20.007 v 10.641 c 0,1.592 1.29,2.882 2.882,2.882 H 0 c 1.592,0 2.882,-1.29 2.882,-2.882 V 2.883 C 2.882,1.291 1.592,0 0,0"
             style="fill:#ffffff;fill-opacity:1;fill-rule:nonzero;stroke:none"
             id="path1188"
             inkscape:connector-curvature="0" />
        </g>
        <g
           id="g1190"
           transform="translate(330.9704,319.1975)">
          <path
             d="m 0,0 h -8.896 v 5.44 h 7.359 c 1.233,0 2.232,-0.999 2.232,-2.231 V 0.695 C 0.695,0.311 0.384,0 0,0"
             style="fill:#6296d6;fill-opacity:1;fill-rule:nonzero;stroke:none"
             id="path1192"
             inkscape:connector-curvature="0" />
        </g>
        <g
           id="g1194"
           transform="translate(331.4695,319.052)">
          <path
             d="m 0,0 -0.184,-0.411 -0.224,-0.141 -0.236,-0.08 -0.663,-0.024 h -7.346 l -0.334,0.053 -0.321,0.168 -0.214,0.221 L -9.643,0"
             style="fill:#b5b4b2;fill-opacity:1;fill-rule:nonzero;stroke:none"
             id="path1196"
             inkscape:connector-curvature="0" />
        </g>
        <g
           id="g1198"
           transform="translate(333.4807,330.5372)">
          <path
             d="m 0,0 h -7.009 c -0.195,0 -0.353,0.158 -0.353,0.353 0,0.194 0.158,0.352 0.353,0.352 H 0 C 0.195,0.705 0.353,0.547 0.353,0.353 0.353,0.158 0.195,0 0,0"
             style="fill:#b5b4b2;fill-opacity:1;fill-rule:nonzero;stroke:none"
             id="path1200"
             inkscape:connector-curvature="0" />
        </g>
        <g
           id="g1202"
           transform="translate(342.3293,328.5484)">
          <path
             d="m 0,0 h -15.979 c -0.195,0 -0.353,0.158 -0.353,0.353 0,0.195 0.158,0.352 0.353,0.352 H 0 C 0.195,0.705 0.353,0.548 0.353,0.353 0.353,0.158 0.195,0 0,0"
             style="fill:#b5b4b2;fill-opacity:1;fill-rule:nonzero;stroke:none"
             id="path1204"
             inkscape:connector-curvature="0" />
        </g>
        <g
           id="g1206"
           transform="translate(344.1184,326.6165)">
          <path
             d="m 0,0 h -17.747 c -0.194,0 -0.352,0.158 -0.352,0.353 0,0.195 0.158,0.352 0.352,0.352 H 0 C 0.195,0.705 0.353,0.548 0.353,0.353 0.353,0.158 0.195,0 0,0"
             style="fill:#b5b4b2;fill-opacity:1;fill-rule:nonzero;stroke:none"
             id="path1208"
             inkscape:connector-curvature="0" />
        </g>
        <g
           id="g1210"
           transform="translate(344.2195,311.5526)">
          <path
             d="m 0,0 h -19.64 c -0.951,0 -1.722,0.771 -1.722,1.722 V 4.69 H 1.722 V 1.722 C 1.722,0.771 0.951,0 0,0"
             style="fill:#f6e156;fill-opacity:1;fill-rule:nonzero;stroke:none"
             id="path1212"
             inkscape:connector-curvature="0" />
        </g>
        <g
           id="g1214"
           transform="translate(321.7492,323.9915)">
          <path
             d="m 0,0 0.187,0.46 0.227,0.158 0.239,0.09 0.672,0.027 H 8.77 L 9.107,0.676 9.433,0.487 9.65,0.24 9.772,0"
             style="fill:#b5b4b2;fill-opacity:1;fill-rule:nonzero;stroke:none"
             id="path1216"
             inkscape:connector-curvature="0" />
        </g>
        <g
           id="g1218"
           transform="translate(345.9543,315.9555)">
          <path
             d="m 0,0 h -23.11 c -0.368,0 -0.666,0.298 -0.666,0.666 0,0.367 0.298,0.665 0.666,0.665 H 0 C 0.368,1.331 0.666,1.033 0.666,0.666 0.666,0.298 0.368,0 0,0"
             style="fill:#d2713d;fill-opacity:1;fill-rule:nonzero;stroke:none"
             id="path1220"
             inkscape:connector-curvature="0" />
        </g>
        <g
           id="g1222"
           transform="translate(345.948,319.1435)">
          <path
             d="m 0,0 -0.188,-0.38 -0.229,-0.13 -0.242,-0.074 -0.679,-0.022 h -7.517 l -0.342,0.049 -0.328,0.155 -0.22,0.204 L -9.868,0"
             style="fill:#b5b4b2;fill-opacity:1;fill-rule:nonzero;stroke:none"
             id="path1224"
             inkscape:connector-curvature="0" />
        </g>
        <g
           id="g1226"
           transform="translate(336.2429,324.1789)">
          <path
             d="m 0,0 0.184,0.411 0.224,0.141 0.237,0.08 0.664,0.024 H 8.663 L 8.996,0.603 9.317,0.435 9.533,0.214 9.652,0"
             style="fill:#b5b4b2;fill-opacity:1;fill-rule:nonzero;stroke:none"
             id="path1228"
             inkscape:connector-curvature="0" />
        </g>
        <path
           d="m 322.857,314.614 h 23.091 v 1.342 h -23.091 z"
           style="fill:#f1a644;fill-opacity:1;fill-rule:nonzero;stroke:none"
           id="path1230"
           inkscape:connector-curvature="0" />
        <path
           d="m 342.161,317.22 h -1.371 v 1.562 h 1.371 z"
           style="fill:#b5b4b2;fill-opacity:1;fill-rule:nonzero;stroke:none"
           id="path1232"
           inkscape:connector-curvature="0" />
        <path
           d="m 327.736,317.22 h -1.371 v 1.562 h 1.371 z"
           style="fill:#b5b4b2;fill-opacity:1;fill-rule:nonzero;stroke:none"
           id="path1234"
           inkscape:connector-curvature="0" />
        <g
           id="g1236"
           transform="translate(321.9216,316.7275)">
          <path
             d="m 0,0 c -0.037,0 -0.068,-0.03 -0.068,-0.068 v -0.867 c 0,-0.038 0.031,-0.068 0.068,-0.068 h 23.978 c 0.037,0 0.068,0.03 0.068,0.068 v 0.867 C 24.046,-0.03 24.015,0 23.978,0 Z M 23.978,-1.331 H 0 c -0.218,0 -0.396,0.177 -0.396,0.396 v 0.867 c 0,0.219 0.178,0.396 0.396,0.396 h 23.978 c 0.218,0 0.396,-0.177 0.396,-0.396 v -0.867 c 0,-0.219 -0.178,-0.396 -0.396,-0.396"
             style="fill:#231f20;fill-opacity:1;fill-rule:nonzero;stroke:none"
             id="path1238"
             inkscape:connector-curvature="0" />
        </g>
        <g
           id="g1240"
           transform="translate(322.5759,315.3961)">
          <path
             d="m 0,0 v -3.961 c 0,-0.221 0.18,-0.401 0.401,-0.401 h 21.954 c 0.221,0 0.401,0.18 0.401,0.401 V 0 Z M 22.355,-4.69 H 0.401 c -0.402,0 -0.729,0.327 -0.729,0.729 v 4.289 h 23.412 v -4.289 c 0,-0.402 -0.327,-0.729 -0.729,-0.729"
             style="fill:#231f20;fill-opacity:1;fill-rule:nonzero;stroke:none"
             id="path1242"
             inkscape:connector-curvature="0" />
        </g>
        <g
           id="g1244"
           transform="translate(322.5945,324.6133)">
          <path
             d="m 0,0 c -0.408,0 -0.741,-0.332 -0.741,-0.741 v -4.514 c 0,-0.408 0.333,-0.741 0.741,-0.741 h 7.947 c 0.409,0 0.741,0.333 0.741,0.741 v 4.514 C 8.688,-0.332 8.356,0 7.947,0 Z M 7.947,-6.324 H 0 c -0.589,0 -1.069,0.48 -1.069,1.069 v 4.514 c 0,0.59 0.48,1.069 1.069,1.069 h 7.947 c 0.59,0 1.07,-0.479 1.07,-1.069 v -4.514 c 0,-0.589 -0.48,-1.069 -1.07,-1.069"
             style="fill:#231f20;fill-opacity:1;fill-rule:nonzero;stroke:none"
             id="path1246"
             inkscape:connector-curvature="0" />
        </g>
        <path
           d="m 331.37,318.962 h -9.603 v 0.295 h 9.603 z"
           style="fill:#231f20;fill-opacity:1;fill-rule:nonzero;stroke:none"
           id="path1248"
           inkscape:connector-curvature="0" />
        <path
           d="m 326.115,317.008 h 1.139 v 1.329 h -1.139 z m 1.372,-0.233 h -1.604 v 1.795 h 1.604 z"
           style="fill:#231f20;fill-opacity:1;fill-rule:nonzero;stroke:none"
           id="path1250"
           inkscape:connector-curvature="0" />
        <path
           d="m 345.803,318.962 h -9.583 v 0.295 h 9.583 z"
           style="fill:#231f20;fill-opacity:1;fill-rule:nonzero;stroke:none"
           id="path1252"
           inkscape:connector-curvature="0" />
        <path
           d="m 340.57,317.008 h 1.139 v 1.329 h -1.139 z m 1.371,-0.233 h -1.604 v 1.795 h 1.604 z"
           style="fill:#231f20;fill-opacity:1;fill-rule:nonzero;stroke:none"
           id="path1254"
           inkscape:connector-curvature="0" />
        <g
           id="g1256"
           transform="translate(346.0608,319.5586)">
          <path
             d="M 0,0 H -0.743 V 0.328 H 0 c 0.462,0 0.838,0.376 0.838,0.839 v 11.518 c 0,0.462 -0.376,0.838 -0.838,0.838 h -20.885 c -0.463,0 -0.839,-0.376 -0.839,-0.838 V 5.167 h -0.328 v 7.518 c 0,0.643 0.523,1.166 1.167,1.166 H 0 c 0.643,0 1.167,-0.523 1.167,-1.166 V 1.167 C 1.167,0.523 0.643,0 0,0"
             style="fill:#231f20;fill-opacity:1;fill-rule:nonzero;stroke:none"
             id="path1258"
             inkscape:connector-curvature="0" />
        </g>
        <path
           d="m 336.144,319.559 h -4.645 v 0.328 h 4.645 z"
           style="fill:#231f20;fill-opacity:1;fill-rule:nonzero;stroke:none"
           id="path1260"
           inkscape:connector-curvature="0" />
        <g
           id="g1262"
           transform="translate(326.8127,330.799)">
          <path
             d="m 0,0 c -0.065,0 -0.119,-0.053 -0.119,-0.119 v -0.238 c 0,-0.065 0.054,-0.119 0.119,-0.119 h 7.247 c 0.065,0 0.119,0.054 0.119,0.119 v 0.238 C 7.366,-0.053 7.312,0 7.247,0 Z M 7.247,-0.705 H 0 c -0.192,0 -0.349,0.156 -0.349,0.348 v 0.238 c 0,0.192 0.157,0.349 0.349,0.349 h 7.247 c 0.192,0 0.349,-0.157 0.349,-0.349 v -0.238 c 0,-0.192 -0.157,-0.348 -0.349,-0.348"
             style="fill:#231f20;fill-opacity:1;fill-rule:nonzero;stroke:none"
             id="path1264"
             inkscape:connector-curvature="0" />
        </g>
        <g
           id="g1266"
           transform="translate(326.6867,328.7385)">
          <path
             d="m 0,0 c -0.065,0 -0.119,-0.053 -0.119,-0.119 v -0.237 c 0,-0.066 0.054,-0.12 0.119,-0.12 h 16.217 c 0.066,0 0.119,0.054 0.119,0.12 v 0.237 C 16.336,-0.053 16.283,0 16.217,0 Z M 16.217,-0.705 H 0 c -0.192,0 -0.349,0.156 -0.349,0.349 v 0.237 c 0,0.192 0.157,0.349 0.349,0.349 h 16.217 c 0.193,0 0.349,-0.157 0.349,-0.349 v -0.237 c 0,-0.193 -0.156,-0.349 -0.349,-0.349"
             style="fill:#231f20;fill-opacity:1;fill-rule:nonzero;stroke:none"
             id="path1268"
             inkscape:connector-curvature="0" />
        </g>
        <g
           id="g1270"
           transform="translate(326.7707,326.8723)">
          <path
             d="m 0,0 c -0.065,0 -0.119,-0.053 -0.119,-0.119 v -0.237 c 0,-0.066 0.054,-0.12 0.119,-0.12 h 17.984 c 0.066,0 0.119,0.054 0.119,0.12 v 0.237 C 18.103,-0.053 18.05,0 17.984,0 Z M 17.984,-0.705 H 0 c -0.192,0 -0.349,0.156 -0.349,0.349 v 0.237 c 0,0.192 0.157,0.349 0.349,0.349 h 17.984 c 0.192,0 0.349,-0.157 0.349,-0.349 v -0.237 c 0,-0.193 -0.157,-0.349 -0.349,-0.349"
             style="fill:#231f20;fill-opacity:1;fill-rule:nonzero;stroke:none"
             id="path1272"
             inkscape:connector-curvature="0" />
        </g>
        <g
           id="g1274"
           transform="translate(345.2922,319.2027)">
          <path
             d="m 0,0 h -8.743 v 5.304 h 7.354 c 1.23,0 2.228,-0.997 2.228,-2.228 V 0.839 C 0.839,0.376 0.463,0 0,0"
             style="fill:#6296d6;fill-opacity:1;fill-rule:nonzero;stroke:none"
             id="path1276"
             inkscape:connector-curvature="0" />
        </g>
        <g
           id="g1278"
           transform="translate(337.0486,324.6133)">
          <path
             d="m 0,0 c -0.408,0 -0.741,-0.332 -0.741,-0.741 v -4.514 c 0,-0.408 0.333,-0.741 0.741,-0.741 h 7.947 c 0.408,0 0.741,0.333 0.741,0.741 v 4.514 C 8.688,-0.332 8.355,0 7.947,0 Z M 7.947,-6.324 H 0 c -0.589,0 -1.069,0.48 -1.069,1.069 v 4.514 c 0,0.59 0.48,1.069 1.069,1.069 h 7.947 c 0.59,0 1.069,-0.479 1.069,-1.069 v -4.514 c 0,-0.589 -0.479,-1.069 -1.069,-1.069"
             style="fill:#231f20;fill-opacity:1;fill-rule:nonzero;stroke:none"
             id="path1280"
             inkscape:connector-curvature="0" />
        </g>
      </g>
    </g>
  </g>
</svg>
