<?xml version="1.0" encoding="UTF-8" standalone="no"?>
<!-- Created with Inkscape (http://www.inkscape.org/) -->

<svg
   xmlns:dc="http://purl.org/dc/elements/1.1/"
   xmlns:cc="http://creativecommons.org/ns#"
   xmlns:rdf="http://www.w3.org/1999/02/22-rdf-syntax-ns#"
   xmlns:svg="http://www.w3.org/2000/svg"
   xmlns="http://www.w3.org/2000/svg"
   xmlns:sodipodi="http://sodipodi.sourceforge.net/DTD/sodipodi-0.dtd"
   xmlns:inkscape="http://www.inkscape.org/namespaces/inkscape"
   width="210mm"
   height="210mm"
   viewBox="0 0 210 210"
   version="1.1"
   id="svg8"
   inkscape:version="0.92.3 (2405546, 2018-03-11)"
   sodipodi:docname="environment-front.svg">
  <defs
     id="defs2">
    <clipPath
       id="clipPath1068"
       clipPathUnits="userSpaceOnUse">
      <path
         inkscape:connector-curvature="0"
         id="path1066"
         d="m 64.926,212.994 c 0,-43.78 35.491,-79.269 79.269,-79.269 v 0 c 43.78,0 79.27,35.489 79.27,79.269 v 0 c 0,43.78 -35.49,79.269 -79.27,79.269 v 0 c -43.778,0 -79.269,-35.489 -79.269,-79.269" />
    </clipPath>
  </defs>
  <sodipodi:namedview
     id="base"
     pagecolor="#ffffff"
     bordercolor="#666666"
     borderopacity="1.0"
     inkscape:pageopacity="0.0"
     inkscape:pageshadow="2"
     inkscape:zoom="0.35"
     inkscape:cx="57.429284"
     inkscape:cy="501.46392"
     inkscape:document-units="mm"
     inkscape:current-layer="layer1"
     showgrid="false"
     inkscape:pagecheckerboard="true"
     inkscape:window-width="1366"
     inkscape:window-height="700"
     inkscape:window-x="0"
     inkscape:window-y="0"
     inkscape:window-maximized="1" />
  <metadata
     id="metadata5">
    <rdf:RDF>
      <cc:Work
         rdf:about="">
        <dc:format>image/svg+xml</dc:format>
        <dc:type
           rdf:resource="http://purl.org/dc/dcmitype/StillImage" />
        <dc:title />
      </cc:Work>
    </rdf:RDF>
  </metadata>
  <g
     inkscape:label="Camada 1"
     inkscape:groupmode="layer"
     id="layer1"
     transform="translate(0,-87)">
    <g
       id="g1062"
       transform="matrix(1.1013965,0,0,-1.1013965,-53.360695,423.86765)"
       inkscape:export-xdpi="96"
       inkscape:export-ydpi="96">
      <g
         id="g1064"
         clip-path="url(#clipPath1068)">
        <g
           id="g1070"
           transform="translate(223.465,212.9937)">
          <path
             d="m 0,0 c 0,-43.779 -35.49,-79.269 -79.27,-79.269 -43.779,0 -79.269,35.49 -79.269,79.269 0,43.779 35.49,79.27 79.269,79.27 C -35.49,79.27 0,43.779 0,0 Z"
             style="fill:none;stroke:#ffffff;stroke-width:1;stroke-linecap:butt;stroke-linejoin:miter;stroke-miterlimit:10;stroke-dasharray:none;stroke-opacity:1"
             id="path1072"
             inkscape:connector-curvature="0" />
        </g>
        <g
           id="g1074"
           transform="translate(201.3825,187.5416)">
          <path
             d="m 0,0 h -116.442 v 67.614 c 0,1.592 1.291,2.882 2.883,2.882 L 0,70.496 c 1.592,0 2.883,-1.29 2.883,-2.882 V 2.883 C 2.883,1.291 1.592,0 0,0"
             style="fill:#ffffff;fill-opacity:1;fill-rule:nonzero;stroke:none"
             id="path1076"
             inkscape:connector-curvature="0" />
        </g>
        <g
           id="g1078"
           transform="translate(125.9585,187.6481)">
          <path
             d="m 0,0 h -49.302 v 28.36 h 47.765 c 1.233,0 2.232,-0.999 2.232,-2.231 V 0.695 C 0.695,0.311 0.384,0 0,0"
             style="fill:#6296d6;fill-opacity:1;fill-rule:nonzero;stroke:none"
             id="path1080"
             inkscape:connector-curvature="0" />
        </g>
        <g
           id="g1082"
           transform="translate(125.6328,186.8895)">
          <path
             d="M 0,0 -0.959,-2.142 -2.126,-2.877 -3.357,-3.296 -6.816,-3.42 h -38.296 l -1.738,0.276 -1.671,0.876 -1.122,1.152 L -50.268,0"
             style="fill:#b5b4b2;fill-opacity:1;fill-rule:nonzero;stroke:none"
             id="path1084"
             inkscape:connector-curvature="0" />
        </g>
        <g
           id="g1086"
           transform="translate(137.2417,246.7622)">
          <path
             d="m 0,0 h -38.79 c -0.394,0 -0.713,0.319 -0.713,0.713 v 2.252 c 0,0.394 0.319,0.713 0.713,0.713 H 0 c 0.394,0 0.713,-0.319 0.713,-0.713 V 0.713 C 0.713,0.319 0.394,0 0,0"
             style="fill:#b5b4b2;fill-opacity:1;fill-rule:nonzero;stroke:none"
             id="path1088"
             inkscape:connector-curvature="0" />
        </g>
        <g
           id="g1090"
           transform="translate(183.3693,236.3949)">
          <path
             d="m 0,0 h -85.552 c -0.394,0 -0.713,0.319 -0.713,0.713 v 2.252 c 0,0.394 0.319,0.713 0.713,0.713 H 0 c 0.394,0 0.713,-0.319 0.713,-0.713 V 0.713 C 0.713,0.319 0.394,0 0,0"
             style="fill:#b5b4b2;fill-opacity:1;fill-rule:nonzero;stroke:none"
             id="path1092"
             inkscape:connector-curvature="0" />
        </g>
        <g
           id="g1094"
           transform="translate(192.696,226.3241)">
          <path
             d="m 0,0 h -94.763 c -0.394,0 -0.713,0.319 -0.713,0.713 v 2.252 c 0,0.394 0.319,0.713 0.713,0.713 H 0 c 0.394,0 0.713,-0.319 0.713,-0.713 V 0.713 C 0.713,0.319 0.394,0 0,0"
             style="fill:#b5b4b2;fill-opacity:1;fill-rule:nonzero;stroke:none"
             id="path1096"
             inkscape:connector-curvature="0" />
        </g>
        <g
           id="g1098"
           transform="translate(199.3522,147.7957)">
          <path
             d="m 0,0 h -116.894 c -0.951,0 -1.722,0.771 -1.722,1.722 V 24.451 H 1.722 V 1.722 C 1.722,0.771 0.951,0 0,0"
             style="fill:#f6e156;fill-opacity:1;fill-rule:nonzero;stroke:none"
             id="path1100"
             inkscape:connector-curvature="0" />
        </g>
        <g
           id="g1102"
           transform="translate(74.9604,212.64)">
          <path
             d="m 0,0 0.972,2.399 1.183,0.823 1.247,0.47 3.505,0.139 H 45.716 L 47.478,3.522 49.171,2.541 50.308,1.25 50.941,0"
             style="fill:#b5b4b2;fill-opacity:1;fill-rule:nonzero;stroke:none"
             id="path1104"
             inkscape:connector-curvature="0" />
        </g>
        <g
           id="g1106"
           transform="translate(203.9055,170.7481)">
          <path
             d="m 0,0 h -126.001 c -0.39,0 -0.707,0.316 -0.707,0.707 v 5.527 c 0,0.39 0.317,0.707 0.707,0.707 H 0 c 0.391,0 0.707,-0.317 0.707,-0.707 V 0.707 C 0.707,0.316 0.391,0 0,0"
             style="fill:#d2713d;fill-opacity:1;fill-rule:nonzero;stroke:none"
             id="path1108"
             inkscape:connector-curvature="0" />
        </g>
        <g
           id="g1110"
           transform="translate(201.1081,187.367)">
          <path
             d="m 0,0 -0.981,-1.979 -1.194,-0.68 -1.261,-0.387 -3.538,-0.115 h -39.191 l -1.779,0.255 -1.71,0.81 -1.148,1.065 L -51.441,0"
             style="fill:#b5b4b2;fill-opacity:1;fill-rule:nonzero;stroke:none"
             id="path1112"
             inkscape:connector-curvature="0" />
        </g>
        <g
           id="g1114"
           transform="translate(150.5148,213.6165)">
          <path
             d="M 0,0 0.96,2.142 2.128,2.877 3.361,3.296 6.823,3.42 H 45.158 L 46.898,3.144 48.571,2.268 49.694,1.116 50.319,0"
             style="fill:#b5b4b2;fill-opacity:1;fill-rule:nonzero;stroke:none"
             id="path1116"
             inkscape:connector-curvature="0" />
        </g>
        <path
           d="m 80.736,163.753 h 120.372 v 6.995 H 80.736 Z"
           style="fill:#f1a644;fill-opacity:1;fill-rule:nonzero;stroke:none"
           id="path1118"
           inkscape:connector-curvature="0" />
        <path
           d="m 181.369,177.338 h -7.149 v 8.142 h 7.149 z"
           style="fill:#b5b4b2;fill-opacity:1;fill-rule:nonzero;stroke:none"
           id="path1120"
           inkscape:connector-curvature="0" />
        <path
           d="m 106.167,177.338 h -7.149 v 8.142 h 7.149 z"
           style="fill:#b5b4b2;fill-opacity:1;fill-rule:nonzero;stroke:none"
           id="path1122"
           inkscape:connector-curvature="0" />
        <g
           id="g1124"
           transform="translate(75.8593,174.7725)">
          <path
             d="m 0,0 c -0.195,0 -0.354,-0.159 -0.354,-0.353 v -4.524 c 0,-0.194 0.159,-0.353 0.354,-0.353 h 124.996 c 0.195,0 0.354,0.159 0.354,0.353 v 4.524 C 125.35,-0.159 125.191,0 124.996,0 Z M 124.996,-6.941 H 0 c -1.138,0 -2.065,0.926 -2.065,2.064 v 4.524 c 0,1.138 0.927,2.064 2.065,2.064 h 124.996 c 1.138,0 2.065,-0.926 2.065,-2.064 v -4.524 c 0,-1.138 -0.927,-2.064 -2.065,-2.064"
             style="fill:#231f20;fill-opacity:1;fill-rule:nonzero;stroke:none"
             id="path1126"
             inkscape:connector-curvature="0" />
        </g>
        <g
           id="g1128"
           transform="translate(79.2685,167.8315)">
          <path
             d="m 0,0 v -20.648 c 0,-1.153 0.938,-2.091 2.091,-2.091 h 114.446 c 1.152,0 2.091,0.938 2.091,2.091 V 0 Z M 116.537,-24.45 H 2.091 c -2.096,0 -3.802,1.706 -3.802,3.802 V 1.711 h 122.05 v -22.359 c 0,-2.096 -1.706,-3.802 -3.802,-3.802"
             style="fill:#231f20;fill-opacity:1;fill-rule:nonzero;stroke:none"
             id="path1130"
             inkscape:connector-curvature="0" />
        </g>
        <g
           id="g1132"
           transform="translate(79.3671,215.8806)">
          <path
             d="m 0,0 c -2.129,0 -3.862,-1.733 -3.862,-3.862 v -23.531 c 0,-2.129 1.733,-3.862 3.862,-3.862 h 41.429 c 2.129,0 3.862,1.733 3.862,3.862 V -3.862 C 45.291,-1.733 43.558,0 41.429,0 Z M 41.429,-32.966 H 0 c -3.073,0 -5.573,2.5 -5.573,5.573 v 23.531 c 0,3.073 2.5,5.573 5.573,5.573 h 41.429 c 3.072,0 5.572,-2.5 5.572,-5.573 v -23.531 c 0,-3.073 -2.5,-5.573 -5.572,-5.573"
             style="fill:#231f20;fill-opacity:1;fill-rule:nonzero;stroke:none"
             id="path1134"
             inkscape:connector-curvature="0" />
        </g>
        <path
           d="M 125.112,186.42 H 75.05 v 1.54 h 50.062 z"
           style="fill:#231f20;fill-opacity:1;fill-rule:nonzero;stroke:none"
           id="path1136"
           inkscape:connector-curvature="0" />
        <path
           d="m 97.722,176.235 h 5.935 v 6.928 h -5.935 z m 7.15,-1.214 h -8.364 v 9.357 h 8.364 z"
           style="fill:#231f20;fill-opacity:1;fill-rule:nonzero;stroke:none"
           id="path1138"
           inkscape:connector-curvature="0" />
        <path
           d="m 200.354,186.42 h -49.955 v 1.54 h 49.955 z"
           style="fill:#231f20;fill-opacity:1;fill-rule:nonzero;stroke:none"
           id="path1140"
           inkscape:connector-curvature="0" />
        <path
           d="m 173.071,176.235 h 5.934 v 6.928 h -5.934 z m 7.149,-1.214 h -8.364 v 9.357 h 8.364 z"
           style="fill:#231f20;fill-opacity:1;fill-rule:nonzero;stroke:none"
           id="path1142"
           inkscape:connector-curvature="0" />
        <g
           id="g1144"
           transform="translate(201.6955,189.5308)">
          <path
             d="M 0,0 H -3.874 V 1.711 H 0 c 2.409,0 4.37,1.96 4.37,4.37 v 60.045 c 0,2.409 -1.961,4.37 -4.37,4.37 h -108.875 c -2.409,0 -4.37,-1.961 -4.37,-4.37 V 26.938 h -1.711 v 39.188 c 0,3.353 2.728,6.081 6.081,6.081 L 0,72.207 c 3.353,0 6.081,-2.728 6.081,-6.081 V 6.081 C 6.081,2.727 3.353,0 0,0"
             style="fill:#231f20;fill-opacity:1;fill-rule:nonzero;stroke:none"
             id="path1146"
             inkscape:connector-curvature="0" />
        </g>
        <path
           d="m 149.999,189.531 h -24.213 v 1.711 h 24.213 z"
           style="fill:#231f20;fill-opacity:1;fill-rule:nonzero;stroke:none"
           id="path1148"
           inkscape:connector-curvature="0" />
        <g
           id="g1150"
           transform="translate(101.3562,248.127)">
          <path
             d="m 0,0 c -0.342,0 -0.621,-0.278 -0.621,-0.621 v -1.238 c 0,-0.342 0.279,-0.62 0.621,-0.62 h 37.777 c 0.342,0 0.62,0.278 0.62,0.62 v 1.238 C 38.397,-0.278 38.119,0 37.777,0 Z M 37.777,-3.677 H 0 c -1.002,0 -1.818,0.816 -1.818,1.818 v 1.238 c 0,1.003 0.816,1.819 1.818,1.819 h 37.777 c 1.002,0 1.818,-0.816 1.818,-1.819 v -1.238 c 0,-1.002 -0.816,-1.818 -1.818,-1.818"
             style="fill:#231f20;fill-opacity:1;fill-rule:nonzero;stroke:none"
             id="path1152"
             inkscape:connector-curvature="0" />
        </g>
        <g
           id="g1154"
           transform="translate(100.7004,237.3859)">
          <path
             d="m 0,0 c -0.342,0 -0.621,-0.278 -0.621,-0.621 v -1.238 c 0,-0.342 0.279,-0.62 0.621,-0.62 h 84.539 c 0.343,0 0.621,0.278 0.621,0.62 v 1.238 C 85.16,-0.278 84.882,0 84.539,0 Z M 84.539,-3.677 H 0 c -1.002,0 -1.818,0.816 -1.818,1.818 v 1.238 c 0,1.003 0.816,1.819 1.818,1.819 h 84.539 c 1.003,0 1.819,-0.816 1.819,-1.819 v -1.238 c 0,-1.002 -0.816,-1.818 -1.819,-1.818"
             style="fill:#231f20;fill-opacity:1;fill-rule:nonzero;stroke:none"
             id="path1156"
             inkscape:connector-curvature="0" />
        </g>
        <g
           id="g1158"
           transform="translate(101.1374,227.6574)">
          <path
             d="m 0,0 c -0.343,0 -0.621,-0.278 -0.621,-0.621 v -1.238 c 0,-0.342 0.278,-0.62 0.621,-0.62 h 93.75 c 0.342,0 0.62,0.278 0.62,0.62 v 1.238 C 94.37,-0.278 94.092,0 93.75,0 Z M 93.75,-3.677 H 0 c -1.002,0 -1.819,0.816 -1.819,1.818 v 1.238 c 0,1.003 0.817,1.819 1.819,1.819 h 93.75 c 1.002,0 1.818,-0.816 1.818,-1.819 v -1.238 c 0,-1.002 -0.816,-1.818 -1.818,-1.818"
             style="fill:#231f20;fill-opacity:1;fill-rule:nonzero;stroke:none"
             id="path1160"
             inkscape:connector-curvature="0" />
        </g>
        <g
           id="g1162"
           transform="translate(201.2253,187.6754)">
          <path
             d="m 0,0 h -49.11 v 27.652 h 47.721 c 1.23,0 2.228,-0.997 2.228,-2.228 V 0.839 C 0.839,0.376 0.463,0 0,0"
             style="fill:#6296d6;fill-opacity:1;fill-rule:nonzero;stroke:none"
             id="path1164"
             inkscape:connector-curvature="0" />
        </g>
        <g
           id="g1166"
           transform="translate(154.7165,215.8806)">
          <path
             d="m 0,0 c -2.129,0 -3.862,-1.733 -3.862,-3.862 v -23.531 c 0,-2.129 1.733,-3.862 3.862,-3.862 h 41.428 c 2.129,0 3.862,1.733 3.862,3.862 V -3.862 C 45.29,-1.733 43.557,0 41.428,0 Z M 41.428,-32.966 H 0 c -3.073,0 -5.573,2.5 -5.573,5.573 v 23.531 c 0,3.073 2.5,5.573 5.573,5.573 H 41.428 C 44.5,1.711 47,-0.789 47,-3.862 v -23.531 c 0,-3.073 -2.5,-5.573 -5.572,-5.573"
             style="fill:#231f20;fill-opacity:1;fill-rule:nonzero;stroke:none"
             id="path1168"
             inkscape:connector-curvature="0" />
        </g>
        <g
           id="g1170"
           transform="translate(223.465,212.9937)">
          <path
             d="m 0,0 c 0,-43.779 -35.49,-79.269 -79.27,-79.269 -43.779,0 -79.269,35.49 -79.269,79.269 0,43.779 35.49,79.27 79.269,79.27 C -35.49,79.27 0,43.779 0,0 Z"
             style="fill:none;stroke:#ffffff;stroke-width:1;stroke-linecap:butt;stroke-linejoin:miter;stroke-miterlimit:10;stroke-dasharray:none;stroke-opacity:1"
             id="path1172"
             inkscape:connector-curvature="0" />
        </g>
      </g>
    </g>
  </g>
</svg>
