<?xml version="1.0" encoding="UTF-8" standalone="no"?>
<!-- Created with Inkscape (http://www.inkscape.org/) -->

<svg
   xmlns:dc="http://purl.org/dc/elements/1.1/"
   xmlns:cc="http://creativecommons.org/ns#"
   xmlns:rdf="http://www.w3.org/1999/02/22-rdf-syntax-ns#"
   xmlns:svg="http://www.w3.org/2000/svg"
   xmlns="http://www.w3.org/2000/svg"
   xmlns:sodipodi="http://sodipodi.sourceforge.net/DTD/sodipodi-0.dtd"
   xmlns:inkscape="http://www.inkscape.org/namespaces/inkscape"
   width="162"
   height="162"
   viewBox="0 0 42.862499 42.862499"
   version="1.1"
   id="svg8"
   inkscape:version="0.92.3 (2405546, 2018-03-11)"
   sodipodi:docname="indicators-back.svg">
  <defs
     id="defs2">
    <clipPath
       id="clipPath1214"
       clipPathUnits="userSpaceOnUse">
      <path
         inkscape:connector-curvature="0"
         id="path1212"
         d="m 316.947,323.883 c 0,-8.495 6.886,-15.382 15.382,-15.382 v 0 c 8.496,0 15.382,6.887 15.382,15.382 v 0 c 0,8.496 -6.886,15.383 -15.382,15.383 v 0 c -8.496,0 -15.382,-6.887 -15.382,-15.383" />
    </clipPath>
  </defs>
  <sodipodi:namedview
     id="base"
     pagecolor="#ffffff"
     bordercolor="#666666"
     borderopacity="1.0"
     inkscape:pageopacity="0.0"
     inkscape:pageshadow="2"
     inkscape:zoom="3.959798"
     inkscape:cx="116.43693"
     inkscape:cy="95.656244"
     inkscape:document-units="mm"
     inkscape:current-layer="layer1"
     showgrid="false"
     inkscape:pagecheckerboard="true"
     inkscape:window-width="2560"
     inkscape:window-height="1012"
     inkscape:window-x="0"
     inkscape:window-y="0"
     inkscape:window-maximized="1"
     units="px" />
  <metadata
     id="metadata5">
    <rdf:RDF>
      <cc:Work
         rdf:about="">
        <dc:format>image/svg+xml</dc:format>
        <dc:type
           rdf:resource="http://purl.org/dc/dcmitype/StillImage" />
        <dc:title></dc:title>
      </cc:Work>
    </rdf:RDF>
  </metadata>
  <g
     inkscape:label="Camada 1"
     inkscape:groupmode="layer"
     id="layer1"
     transform="translate(0,-254.13751)">
    <g
       id="g1208"
       transform="matrix(1.3778867,0,0,-1.3778867,-436.53623,721.85696)"
       inkscape:export-xdpi="96"
       inkscape:export-ydpi="96">
      <g
         id="g1210"
         clip-path="url(#clipPath1214)">
        <g
           id="g1216"
           transform="translate(347.7114,323.8831)">
          <path
             d="m 0,0 c 0,-8.495 -6.887,-15.382 -15.382,-15.382 -8.496,0 -15.383,6.887 -15.383,15.382 0,8.495 6.887,15.382 15.383,15.382 C -6.887,15.382 0,8.495 0,0"
             style="fill:#83cf50;fill-opacity:1;fill-rule:nonzero;stroke:none"
             id="path1218"
             inkscape:connector-curvature="0" />
        </g>
        <g
           id="g1220"
           transform="translate(333.2112,313.1659)">
          <path
             d="m 0,0 c -0.079,-0.14 -0.029,-0.317 0.11,-0.395 0.14,-0.079 0.317,-0.029 0.395,0.11"
             style="fill:#bf6936;fill-opacity:1;fill-rule:nonzero;stroke:none"
             id="path1222"
             inkscape:connector-curvature="0" />
        </g>
        <g
           id="g1224"
           transform="translate(336.2893,327.3325)">
          <path
             d="m 0,0 c 0.005,0.005 0.003,0.009 -0.01,0.011 l 0.002,0.022 C 0.03,0.079 0.056,0.136 0.056,0.2 v 1.561 c 0,0.15 -0.121,0.271 -0.271,0.271 h -0.079 -6.72 -0.216 c -0.15,0 -0.271,-0.121 -0.271,-0.271 V 0.2 c 0,-0.088 0.045,-0.164 0.112,-0.213 l 0.024,0.007 v -0.007 h -0.024 c -0.021,0 -0.02,-0.004 -0.014,-0.008 -2.569,-1.343 -4.324,-4.031 -4.324,-7.132 0,-4.443 3.602,-8.046 8.046,-8.046 4.443,0 8.046,3.603 8.046,8.046 C 4.365,-4.036 2.591,-1.336 0,0"
             style="fill:#f6e156;fill-opacity:1;fill-rule:nonzero;stroke:none"
             id="path1226"
             inkscape:connector-curvature="0" />
        </g>
        <g
           id="g1228"
           transform="translate(332.5237,333.9989)">
          <path
             d="m 0,0 -5.204,12.513 -7.69,-0.285 10.416,-18.513 H 2.614 L 2.587,-6.22"
             style="fill:#ef287c;fill-opacity:1;fill-rule:nonzero;stroke:none"
             id="path1230"
             inkscape:connector-curvature="0" />
        </g>
        <g
           id="g1232"
           transform="translate(345.6423,346.2267)">
          <path
             d="m 0,0 -7.69,0.285 -5.429,-12.513 2.587,-6.22 0.172,-0.036 z"
             style="fill:#ef287c;fill-opacity:1;fill-rule:nonzero;stroke:none"
             id="path1234"
             inkscape:connector-curvature="0" />
        </g>
        <g
           id="g1236"
           transform="translate(335.1103,327.7785)">
          <path
             d="M 0,0 -2.587,6.22"
             style="fill:#ef287c;fill-opacity:1;fill-rule:nonzero;stroke:none"
             id="path1238"
             inkscape:connector-curvature="0" />
        </g>
        <g
           id="g1240"
           transform="translate(344.8542,346.3618)">
          <path
             d="m 0,0 -2.411,0.015 -9.069,-16.182 -1.465,-2.481 h 2.496 0.404 l 0.127,0.082 z"
             style="fill:#c72672;fill-opacity:1;fill-rule:nonzero;stroke:none"
             id="path1242"
             inkscape:connector-curvature="0" />
        </g>
        <g
           id="g1244"
           transform="translate(324.7617,346.3883)">
          <path
             d="m 0,0 2.558,0.123 6.537,-16.41 1.254,-2.323 0.045,0.086 -2.284,-0.029 -0.172,-0.033 z"
             style="fill:#c72672;fill-opacity:1;fill-rule:nonzero;stroke:none"
             id="path1246"
             inkscape:connector-curvature="0" />
        </g>
        <g
           id="g1248"
           transform="translate(328.886,327.3119)">
          <path
             d="M 0,0 -0.271,-0.149 -0.721,-0.426 -1.057,-0.662 -1.318,-0.864 -1.56,-1.066 -1.774,-1.259 -2.15,-1.634 -2.664,-2.24 -3.483,-3.386 -3.872,-4.068 V -4.469 L -3.95,-4.704 c 0,0 -0.056,-0.184 -0.063,-0.206 -0.006,-0.023 -0.035,-0.127 -0.043,-0.159 -0.009,-0.031 -0.05,-0.197 -0.05,-0.197 0,0 -0.026,-0.112 -0.04,-0.179 -0.014,-0.067 -0.046,-0.231 -0.046,-0.231 0,0 -0.036,-0.209 -0.038,-0.226 -0.003,-0.018 -0.045,-0.338 -0.045,-0.338 0,0 -0.023,-0.242 -0.025,-0.265 -0.002,-0.024 -0.03,-0.234 -0.024,-0.277 0.006,-0.043 0,-0.32 0,-0.32 l 0.002,-0.211 0.008,-0.211 0.012,-0.212 0.02,-0.222 0.026,-0.221 0.042,-0.286 0.079,-0.41 0.085,-0.347 0.148,-0.486 0.144,-0.393 0.098,-0.236 0.112,-0.247 0.096,-0.194 0.094,-0.179 0.143,-0.254 0.157,-0.254 0.162,-0.244 c 0,0 0.106,-0.15 0.12,-0.168 0.013,-0.019 0.165,-0.218 0.165,-0.218 l 0.154,-0.191 0.295,-0.333 0.157,-0.164 0.233,-0.227 0.177,-0.161 0.194,-0.165 0.283,-0.224 0.208,-0.152 0.273,-0.184 c 0,0 0.139,-0.089 0.218,-0.135 0.078,-0.047 0.319,-0.183 0.319,-0.183 0,0 0.124,-0.066 0.144,-0.076 0.019,-0.01 0.414,-0.198 0.414,-0.198 l 0.236,-0.101 0.342,-0.13 0.209,-0.07 0.343,-0.103 0.228,-0.059 0.336,-0.074 0.216,-0.039 0.364,-0.054 0.421,-0.04 0.331,-0.016 c 0,0 0.29,-0.005 0.332,-0.004 0.042,0.001 0.361,0 0.361,0 l 0.332,0.038 0.405,0.05 0.399,0.069 0.303,0.067 0.31,0.082 c 0,0 -7.469,1.534 -5.926,14.872"
             style="fill:#d09a18;fill-opacity:1;fill-rule:nonzero;stroke:none"
             id="path1250"
             inkscape:connector-curvature="0" />
        </g>
        <g
           id="g1252"
           transform="translate(332.7783,324.1219)">
          <path
             d="M 0,0 1.133,-2.295 C 1.16,-2.351 1.214,-2.39 1.276,-2.399 L 3.809,-2.767 C 3.964,-2.79 4.026,-2.981 3.914,-3.091 L 2.081,-4.878 C 2.036,-4.921 2.016,-4.984 2.026,-5.045 l 0.433,-2.523 c 0.027,-0.155 -0.136,-0.274 -0.275,-0.2 l -2.266,1.191 c -0.055,0.029 -0.121,0.029 -0.177,0 l -2.265,-1.191 c -0.139,-0.074 -0.302,0.045 -0.276,0.2 l 0.433,2.523 c 0.011,0.061 -0.009,0.124 -0.054,0.167 l -1.833,1.787 c -0.113,0.11 -0.051,0.301 0.105,0.324 l 2.533,0.368 c 0.062,0.009 0.115,0.048 0.143,0.104 L -0.34,0 C -0.271,0.141 -0.07,0.141 0,0"
             style="fill:#f1a644;fill-opacity:1;fill-rule:nonzero;stroke:none"
             id="path1254"
             inkscape:connector-curvature="0" />
        </g>
        <g
           id="g1256"
           transform="translate(331.7248,325.5466)">
          path
             d=&quot;M 0,0 C 0,0.156 0.126,0.283 0.283,0.283 0.439,0.286 0.566,0.16 0.566,0.003 0.569,-0.153 0.443,-0.283 0.286,-0.283 H 0.283 C 0.13,-0.283 0,-0.156 0,0 m -1.391,-0.2 c -0.03,0.153 0.07,0.303 0.223,0.333 0.153,0.033 0.303,-0.066 0.333,-0.219 0.03,-0.154 -0.067,-0.303 -0.223,-0.337 h 0.003 c -0.02,-0.003 -0.04,-0.003 -0.057,-0.003 -0.133,0 -0.253,0.093 -0.279,0.226 M 1.618,-0.419 C 1.465,-0.386 1.368,-0.236 1.401,-0.083 1.435,0.07 1.588,0.166 1.741,0.133 1.894,0.1 1.99,-0.053 1.957,-0.206 c -0.03,-0.13 -0.146,-0.22 -0.276,-0.22 -0.02,0 -0.04,0 -0.063,0.007 m -4.33,-0.26 c -0.064,0.143 0.003,0.31 0.146,0.373 0.143,0.063 0.309,0 0.373,-0.147 0.063,-0.143 -0.004,-0.309 -0.147,-0.369 -0.036,-0.017 -0.073,-0.027 -0.113,-0.027 -0.11,0 -0.213,0.064 -0.259,0.17 m 5.597,-0.173 c -0.139,0.067 -0.199,0.233 -0.132,0.376 0.066,0.14 0.236,0.203 0.376,0.133 0.143,-0.066 0.203,-0.236 0.136,-0.376 -0.05,-0.103 -0.15,-0.163 -0.256,-0.163 -0.04,0 -0.083,0.01 -0.124,0.03 m -6.772,-0.592 c -0.097,0.126 -0.073,0.302 0.053,0.396 0.123,0.096 0.303,0.073 0.396,-0.054 0.096,-0.123 0.07,-0.302 -0.053,-0.396 -0.053,-0.04 -0.113,-0.056 -0.173,-0.056 -0.084,0 -0.17,0.036 -0.223,0.11 m 7.911,-0.117 h 0.003 c -0.123,0.1 -0.146,0.276 -0.05,0.4 0.097,0.123 0.276,0.143 0.4,0.046 C 4.5,-1.212 4.52,-1.391 4.423,-1.514 4.367,-1.584 4.283,-1.621 4.2,-1.621 c -0.06,0 -0.123,0.02 -0.176,0.06 m -8.86,-0.919 c -0.123,0.097 -0.146,0.273 -0.05,0.4 0.097,0.12 0.277,0.143 0.4,0.047 0.119,-0.097 0.143,-0.274 0.046,-0.397 -0.056,-0.073 -0.14,-0.109 -0.223,-0.109 -0.059,0 -0.123,0.02 -0.173,0.059 m 9.815,-0.023 c -0.1,0.123 -0.08,0.303 0.043,0.4 0.12,0.099 0.3,0.079 0.396,-0.044 0.1,-0.119 0.08,-0.299 -0.04,-0.396 -0.053,-0.043 -0.116,-0.063 -0.179,-0.063 -0.084,0 -0.164,0.037 -0.22,0.103 m -10.47,-1.218 c -0.144,0.063 -0.207,0.23 -0.147,0.373 0.063,0.143 0.23,0.209 0.373,0.146 0.143,-0.063 0.21,-0.229 0.15,-0.372 h -0.004 c -0.046,-0.107 -0.15,-0.17 -0.259,-0.17 -0.037,0 -0.073,0.006 -0.113,0.023 m 11.189,0.09 v 0 c -0.067,0.14 -0.01,0.309 0.13,0.379 0.143,0.07 0.309,0.01 0.379,-0.129 0.07,-0.14 0.01,-0.31 -0.13,-0.38 -0.039,-0.02 -0.083,-0.03 -0.123,-0.03 -0.106,0 -0.206,0.06 -0.256,0.16 M -5.838,-5.082 c -0.153,0.03 -0.253,0.176 -0.226,0.329 0.03,0.157 0.18,0.257 0.333,0.227 0.153,-0.027 0.253,-0.177 0.226,-0.33 -0.026,-0.136 -0.146,-0.233 -0.279,-0.233 -0.017,0 -0.037,0.004 -0.054,0.007 m 11.985,0.19 c -0.033,0.153 0.06,0.306 0.213,0.339 0.153,0.037 0.303,-0.06 0.34,-0.21 0.036,-0.153 -0.06,-0.306 -0.213,-0.342 -0.02,-0.004 -0.043,-0.007 -0.064,-0.007 -0.129,0 -0.246,0.09 -0.276,0.22 M -5.914,-6.483 c -0.16,0 -0.283,0.126 -0.283,0.283 0,0.156 0.126,0.283 0.286,0.283 0.157,-0.004 0.28,-0.13 0.28,-0.287 0,-0.156 -0.127,-0.279 -0.283,-0.279 M 6.304,-6.25 v 0 0.006 0.02 c -0.003,0.157 0.123,0.283 0.279,0.287 0.157,0 0.287,-0.127 0.287,-0.283 V -6.234 -6.25 c 0,-0.157 -0.127,-0.283 -0.284,-0.283 -0.156,0 -0.282,0.126 -0.282,0.283 M -6.044,-7.658 c -0.033,0.153 0.063,0.303 0.216,0.336 0.15,0.037 0.303,-0.063 0.337,-0.213 0.033,-0.153 -0.063,-0.306 -0.217,-0.34 -0.02,-0.003 -0.04,-0.006 -0.06,-0.006 -0.133,0 -0.249,0.09 -0.276,0.223 M 6.367,-7.921 c -0.153,0.037 -0.25,0.186 -0.213,0.339 0.033,0.154 0.186,0.25 0.339,0.213 0.153,-0.033 0.247,-0.186 0.214,-0.339 -0.03,-0.13 -0.147,-0.22 -0.277,-0.22 -0.02,0 -0.043,0.004 -0.063,0.007 M -5.572,-9.046 v 0 c -0.066,0.14 -0.006,0.31 0.137,0.376 0.14,0.07 0.31,0.007 0.376,-0.133 0.067,-0.143 0.007,-0.31 -0.133,-0.376 -0.04,-0.02 -0.08,-0.03 -0.123,-0.03 -0.107,0 -0.206,0.06 -0.257,0.163 M 5.841,-9.222 c -0.14,0.066 -0.2,0.236 -0.13,0.376 0.067,0.143 0.237,0.199 0.376,0.133 0.143,-0.07 0.2,-0.237 0.133,-0.38 -0.05,-0.1 -0.149,-0.159 -0.256,-0.159 -0.04,0 -0.083,0.01 -0.123,0.03 m -10.637,-1.069 c -0.1,0.12 -0.076,0.3 0.047,0.396 0.119,0.097 0.299,0.077 0.396,-0.046 0.096,-0.123 0.076,-0.3 -0.047,-0.396 -0.053,-0.044 -0.113,-0.064 -0.176,-0.064 -0.083,0 -0.167,0.037 -0.22,0.11 m 9.835,-0.086 c -0.123,0.1 -0.143,0.276 -0.043,0.399 0.096,0.123 0.276,0.14 0.396,0.043 0.123,-0.096 0.143,-0.276 0.046,-0.396 -0.056,-0.07 -0.14,-0.106 -0.223,-0.106 -0.063,0 -0.123,0.02 -0.176,0.06 m -8.806,-0.959 c -0.12,0.1 -0.14,0.276 -0.04,0.4 0.096,0.123 0.276,0.139 0.396,0.043 0.123,-0.1 0.143,-0.276 0.043,-0.4 -0.057,-0.069 -0.14,-0.106 -0.22,-0.106 -0.063,0 -0.126,0.023 -0.179,0.063 m 7.768,0.013 c -0.097,0.124 -0.077,0.303 0.043,0.4 0.123,0.096 0.303,0.076 0.399,-0.047 0.097,-0.119 0.077,-0.299 -0.047,-0.396 -0.049,-0.043 -0.113,-0.063 -0.176,-0.063 -0.083,0 -0.166,0.037 -0.219,0.106 m -6.53,-0.802 c -0.14,0.07 -0.2,0.24 -0.13,0.38 0.07,0.143 0.24,0.2 0.379,0.13 0.14,-0.067 0.2,-0.237 0.13,-0.376 -0.05,-0.104 -0.15,-0.16 -0.256,-0.16 -0.04,0 -0.083,0.01 -0.123,0.026 m 5.305,0.114 c -0.067,0.139 -0.007,0.309 0.133,0.376 0.143,0.07 0.313,0.01 0.379,-0.133 0.067,-0.14 0.007,-0.31 -0.133,-0.376 -0.04,-0.02 -0.08,-0.031 -0.123,-0.031 -0.106,0 -0.206,0.06 -0.256,0.164 m -3.924,-0.603 c -0.15,0.034 -0.246,0.187 -0.21,0.34 0.037,0.153 0.187,0.246 0.34,0.213 0.153,-0.037 0.246,-0.19 0.213,-0.34 -0.03,-0.133 -0.15,-0.219 -0.277,-0.219 -0.023,0 -0.043,0 -0.066,0.006 m 2.579,0.203 c -0.033,0.153 0.06,0.303 0.213,0.34 0.153,0.033 0.306,-0.064 0.34,-0.217 0.033,-0.153 -0.064,-0.303 -0.217,-0.336 -0.02,-0.006 -0.039,-0.01 -0.06,-0.01 -0.129,0 -0.246,0.09 -0.276,0.223 M 0.31,-12.784 v 0 c -0.157,0 -0.283,0.13 -0.283,0.287 0.003,0.156 0.129,0.283 0.286,0.279 0.156,0 0.283,-0.126 0.283,-0.283 0,-0.156 -0.13,-0.283 -0.283,-0.283 z&quot;
             style=&quot;fill:#ca971f;fill-opacity:1;fill-rule:nonzero;stroke:none&quot;
             id=&quot;path1258&quot;
             inkscape:connector-curvature=&quot;0&quot; /&gt;
        </g>
        <g
           id="g1260"
           transform="translate(332.0639,311.0758)">
          <path
             d="m 0,0 c -4.529,0 -8.213,3.684 -8.213,8.212 0,3.038 1.658,5.802 4.333,7.238 l 0.011,0.064 0.118,0.003 0.059,0.031 0.197,-0.148 -0.12,-0.264 -0.093,0.028 C -6.284,13.788 -7.88,11.133 -7.88,8.212 -7.88,3.868 -4.345,0.333 0,0.333 c 4.345,0 7.879,3.535 7.879,7.879 0,2.972 -1.646,5.66 -4.295,7.017 l 0.007,0.013 -0.08,0.021 0.03,0.23 0.085,0.088 0.109,-0.056 C 6.497,14.112 8.212,11.31 8.212,8.212 8.212,3.684 4.528,0 0,0"
             style="fill:#100f0d;fill-opacity:1;fill-rule:nonzero;stroke:none"
             id="path1262"
             inkscape:connector-curvature="0" />
        </g>
        <g
           id="g1264"
           transform="translate(328.2761,326.321)">
          <path
             d="m 0,0 c -0.105,0.078 -0.166,0.195 -0.166,0.32 v 1.561 c 0,0.223 0.182,0.404 0.404,0.404 H 0.455 V 2.018 H 0.238 C 0.162,2.018 0.101,1.957 0.101,1.881 V 0.32 c 0,-0.055 0.036,-0.09 0.058,-0.106 z"
             style="fill:#100f0d;fill-opacity:1;fill-rule:nonzero;stroke:none"
             id="path1266"
             inkscape:connector-curvature="0" />
        </g>
        <g
           id="g1268"
           transform="translate(335.8191,326.3596)">
          <path
             d="m 0,0 -0.191,0.186 c 0.025,0.026 0.04,0.06 0.04,0.096 v 1.56 c 0,0.076 -0.062,0.138 -0.138,0.138 h -0.079 v 0.266 h 0.079 c 0.223,0 0.404,-0.181 0.404,-0.404 V 0.282 C 0.115,0.176 0.074,0.076 0,0"
             style="fill:#100f0d;fill-opacity:1;fill-rule:nonzero;stroke:none"
             id="path1270"
             inkscape:connector-curvature="0" />
        </g>
        <g
           id="g1272"
           transform="translate(332.061,317.1123)">
          <path
             d="M 0,0 C 0.057,0 0.114,-0.014 0.166,-0.041 L 2.431,-1.232 2.629,-1.179 2.465,-1.208 2.032,1.315 C 2.013,1.431 2.051,1.549 2.135,1.63 L 3.968,3.417 3.955,3.457 1.422,3.825 C 1.306,3.842 1.205,3.915 1.154,4.02 L 0.021,6.315 H -0.021 L -1.154,4.02 C -1.206,3.915 -1.306,3.842 -1.422,3.825 L -3.955,3.457 -4.084,3.298 -3.968,3.417 -2.077,1.574 -2.344,-0.912 c -0.052,-0.163 -0.057,-0.255 -0.052,-0.301 l 2.23,1.172 C -0.114,-0.014 -0.057,0 0,0 m 2.443,-1.568 c -0.057,0 -0.114,0.014 -0.167,0.042 l -2.265,1.191 -2.288,-1.191 c -0.113,-0.061 -0.241,-0.051 -0.332,0.026 -0.098,0.082 -0.185,0.266 -0.057,0.674 l 0.241,2.275 -1.775,1.73 c -0.098,0.095 -0.133,0.235 -0.09,0.365 0.042,0.13 0.152,0.223 0.287,0.242 l 2.533,0.369 1.151,2.308 C -0.259,6.585 -0.137,6.661 0,6.661 v 0 c 0.136,0 0.259,-0.076 0.319,-0.198 L 1.452,4.167 4.003,3.786 C 4.138,3.767 4.248,3.674 4.29,3.544 4.332,3.414 4.298,3.274 4.2,3.179 L 2.367,1.392 2.793,-1.151 C 2.816,-1.286 2.762,-1.42 2.651,-1.5 2.589,-1.545 2.516,-1.568 2.443,-1.568"
             style="fill:#100f0d;fill-opacity:1;fill-rule:nonzero;stroke:none"
             id="path1274"
             inkscape:connector-curvature="0" />
        </g>
        <g
           id="g1276"
           transform="translate(327.3435,323.269)">
          <path
             d="m 0,0 c 0,0.16 -0.13,0.29 -0.29,0.29 -0.16,0 -0.29,-0.13 -0.29,-0.29 0,-0.16 0.13,-0.29 0.29,-0.29 C -0.13,-0.29 0,-0.16 0,0"
             style="fill:#bf6936;fill-opacity:1;fill-rule:nonzero;stroke:none"
             id="path1278"
             inkscape:connector-curvature="0" />
        </g>
        <g
           id="g1280"
           transform="translate(326.6325,322.0593)">
          <path
             d="m 0,0 c 0,0.16 -0.13,0.29 -0.29,0.29 -0.16,0 -0.29,-0.13 -0.29,-0.29 0,-0.16 0.13,-0.29 0.29,-0.29 C -0.13,-0.29 0,-0.16 0,0"
             style="fill:#bf6936;fill-opacity:1;fill-rule:nonzero;stroke:none"
             id="path1282"
             inkscape:connector-curvature="0" />
        </g>
        <g
           id="g1284"
           transform="translate(326.2431,320.6909)">
          <path
             d="m 0,0 c 0,0.16 -0.13,0.29 -0.29,0.29 -0.16,0 -0.29,-0.13 -0.29,-0.29 0,-0.16 0.13,-0.29 0.29,-0.29 C -0.13,-0.29 0,-0.16 0,0"
             style="fill:#bf6936;fill-opacity:1;fill-rule:nonzero;stroke:none"
             id="path1286"
             inkscape:connector-curvature="0" />
        </g>
        <g
           id="g1288"
           transform="translate(326.0866,319.3466)">
          <path
             d="m 0,0 c 0,0.16 -0.13,0.29 -0.29,0.29 -0.16,0 -0.29,-0.13 -0.29,-0.29 0,-0.16 0.13,-0.29 0.29,-0.29 C -0.13,-0.29 0,-0.16 0,0"
             style="fill:#bf6936;fill-opacity:1;fill-rule:nonzero;stroke:none"
             id="path1290"
             inkscape:connector-curvature="0" />
        </g>
        <g
           id="g1292"
           transform="translate(326.3911,318.2174)">
          <path
             d="m 0,0 c 0,0.16 -0.13,0.29 -0.29,0.29 -0.16,0 -0.29,-0.13 -0.29,-0.29 0,-0.16 0.13,-0.29 0.29,-0.29 C -0.13,-0.29 0,-0.16 0,0"
             style="fill:#bf6936;fill-opacity:1;fill-rule:nonzero;stroke:none"
             id="path1294"
             inkscape:connector-curvature="0" />
        </g>
        <g
           id="g1296"
           transform="translate(326.7007,316.5827)">
          <path
             d="m 0,0 c 0,0.16 -0.13,0.29 -0.29,0.29 -0.16,0 -0.29,-0.13 -0.29,-0.29 0,-0.16 0.13,-0.29 0.29,-0.29 C -0.13,-0.29 0,-0.16 0,0"
             style="fill:#bf6936;fill-opacity:1;fill-rule:nonzero;stroke:none"
             id="path1298"
             inkscape:connector-curvature="0" />
        </g>
        <g
           id="g1300"
           transform="translate(327.4228,315.4215)">
          <path
             d="m 0,0 c 0,0.16 -0.13,0.29 -0.29,0.29 -0.16,0 -0.29,-0.13 -0.29,-0.29 0,-0.16 0.13,-0.29 0.29,-0.29 C -0.13,-0.29 0,-0.16 0,0"
             style="fill:#bf6936;fill-opacity:1;fill-rule:nonzero;stroke:none"
             id="path1302"
             inkscape:connector-curvature="0" />
        </g>
        <g
           id="g1304"
           transform="translate(328.4284,314.4017)">
          <path
             d="m 0,0 c 0,0.16 -0.13,0.29 -0.29,0.29 -0.16,0 -0.29,-0.13 -0.29,-0.29 0,-0.16 0.13,-0.29 0.29,-0.29 C -0.13,-0.29 0,-0.16 0,0"
             style="fill:#bf6936;fill-opacity:1;fill-rule:nonzero;stroke:none"
             id="path1306"
             inkscape:connector-curvature="0" />
        </g>
        <g
           id="g1308"
           transform="translate(329.5813,313.691)">
          <path
             d="m 0,0 c 0,0.16 -0.13,0.29 -0.29,0.29 -0.16,0 -0.29,-0.13 -0.29,-0.29 0,-0.16 0.13,-0.29 0.29,-0.29 C -0.13,-0.29 0,-0.16 0,0"
             style="fill:#bf6936;fill-opacity:1;fill-rule:nonzero;stroke:none"
             id="path1310"
             inkscape:connector-curvature="0" />
        </g>
        <g
           id="g1312"
           transform="translate(330.9494,313.1999)">
          <path
             d="m 0,0 c 0,0.16 -0.13,0.29 -0.29,0.29 -0.16,0 -0.29,-0.13 -0.29,-0.29 0,-0.16 0.13,-0.29 0.29,-0.29 C -0.13,-0.29 0,-0.16 0,0"
             style="fill:#bf6936;fill-opacity:1;fill-rule:nonzero;stroke:none"
             id="path1314"
             inkscape:connector-curvature="0" />
        </g>
        <g
           id="g1316"
           transform="translate(332.3528,313.028)">
          <path
             d="m 0,0 c 0,0.16 -0.13,0.29 -0.29,0.29 -0.16,0 -0.29,-0.13 -0.29,-0.29 0,-0.16 0.13,-0.29 0.29,-0.29 C -0.13,-0.29 0,-0.16 0,0"
             style="fill:#bf6936;fill-opacity:1;fill-rule:nonzero;stroke:none"
             id="path1318"
             inkscape:connector-curvature="0" />
        </g>
        <g
           id="g1320"
           transform="translate(328.3298,324.2859)">
          <path
             d="m 0,0 c 0,0.16 -0.13,0.29 -0.29,0.29 -0.16,0 -0.29,-0.13 -0.29,-0.29 0,-0.16 0.13,-0.29 0.29,-0.29 C -0.13,-0.29 0,-0.16 0,0"
             style="fill:#bf6936;fill-opacity:1;fill-rule:nonzero;stroke:none"
             id="path1322"
             inkscape:connector-curvature="0" />
        </g>
        <g
           id="g1324"
           transform="translate(332.3759,333.8187)">
          <path
             d="M 0,0 0.539,1.083 3.827,-3.906 2.734,-6.04 0.675,-2.479 -0.315,0.18 -0.032,0.613 0.353,-0.314"
             style="fill:#c72672;fill-opacity:1;fill-rule:nonzero;stroke:none"
             id="path1326"
             inkscape:connector-curvature="0" />
        </g>
        <g
           id="g1328"
           transform="translate(334.7712,326.979)">
          <path
             d="m 0,0 h -5.437 l -10.597,18.836 8.078,0.299 5.248,-12.619 -0.308,-0.128 -5.159,12.406 -7.302,-0.271 10.234,-18.19 h 4.995 V 0.242 l 0.127,0.052 z"
             style="fill:#100f0d;fill-opacity:1;fill-rule:nonzero;stroke:none"
             id="path1330"
             inkscape:connector-curvature="0" />
        </g>
        <g
           id="g1332"
           transform="translate(332.0901,333.4293)">
          <path
             d="m 0,0 2.51,-6.035 10.15,18.108 -7.305,0.271 z m 2.663,-6.442 -0.377,0.078 -2.647,6.367 0.028,0.065 5.473,12.616 8.076,-0.299 z"
             style="fill:#100f0d;fill-opacity:1;fill-rule:nonzero;stroke:none"
             id="path1334"
             inkscape:connector-curvature="0" />
        </g>
        <g
           id="g1336"
           transform="translate(333.0534,313.2502)">
          <path
             d="M 0,0 0.324,-0.201 0.573,-0.34 1.001,0.281 0.12,0.642 Z"
             style="fill:#f6e156;fill-opacity:1;fill-rule:nonzero;stroke:none"
             id="path1338"
             inkscape:connector-curvature="0" />
        </g>
        <g
           id="g1340"
           transform="translate(333.7702,313.0615)">
          <path
             d="m 0,0 c 0,0.16 -0.13,0.29 -0.29,0.29 -0.16,0 -0.29,-0.13 -0.29,-0.29 0,-0.16 0.13,-0.29 0.29,-0.29 C -0.13,-0.29 0,-0.16 0,0"
             style="fill:#ca971f;fill-opacity:1;fill-rule:nonzero;stroke:none"
             id="path1342"
             inkscape:connector-curvature="0" />
        </g>
      </g>
    </g>
  </g>
</svg>
