<?xml version="1.0" encoding="UTF-8" standalone="no"?>
<!-- Created with Inkscape (http://www.inkscape.org/) -->

<svg
   xmlns:dc="http://purl.org/dc/elements/1.1/"
   xmlns:cc="http://creativecommons.org/ns#"
   xmlns:rdf="http://www.w3.org/1999/02/22-rdf-syntax-ns#"
   xmlns:svg="http://www.w3.org/2000/svg"
   xmlns="http://www.w3.org/2000/svg"
   xmlns:sodipodi="http://sodipodi.sourceforge.net/DTD/sodipodi-0.dtd"
   xmlns:inkscape="http://www.inkscape.org/namespaces/inkscape"
   width="210mm"
   height="210mm"
   viewBox="0 0 210 210"
   version="1.1"
   id="svg8"
   inkscape:version="0.92.3 (2405546, 2018-03-11)"
   sodipodi:docname="indicators-front.svg">
  <defs
     id="defs2">
    <clipPath
       id="clipPath1202"
       clipPathUnits="userSpaceOnUse">
      <path
         inkscape:connector-curvature="0"
         id="path1200"
         d="M 0,375.106 H 566.929 V 0 H 0 Z" />
    </clipPath>
    <clipPath
       id="clipPath1066"
       clipPathUnits="userSpaceOnUse">
      <path
         inkscape:connector-curvature="0"
         id="path1064"
         d="m 61.628,211.866 c 0,-43.779 35.491,-79.269 79.27,-79.269 v 0 c 43.779,0 79.27,35.49 79.27,79.269 v 0 c 0,43.779 -35.491,79.27 -79.27,79.27 v 0 c -43.779,0 -79.27,-35.491 -79.27,-79.27" />
    </clipPath>
  </defs>
  <sodipodi:namedview
     id="base"
     pagecolor="#ffffff"
     bordercolor="#666666"
     borderopacity="1.0"
     inkscape:pageopacity="0.0"
     inkscape:pageshadow="2"
     inkscape:zoom="0.35"
     inkscape:cx="11.040401"
     inkscape:cy="398.90662"
     inkscape:document-units="mm"
     inkscape:current-layer="layer1"
     showgrid="false"
     inkscape:pagecheckerboard="true"
     inkscape:window-width="1366"
     inkscape:window-height="700"
     inkscape:window-x="0"
     inkscape:window-y="0"
     inkscape:window-maximized="1" />
  <metadata
     id="metadata5">
    <rdf:RDF>
      <cc:Work
         rdf:about="">
        <dc:format>image/svg+xml</dc:format>
        <dc:type
           rdf:resource="http://purl.org/dc/dcmitype/StillImage" />
        <dc:title></dc:title>
      </cc:Work>
    </rdf:RDF>
  </metadata>
  <g
     inkscape:label="Camada 1"
     inkscape:groupmode="layer"
     id="layer1"
     transform="translate(0,-87)">
    <g
       id="g1060"
       transform="matrix(1.1014425,0,0,-1.1014425,-52.381522,426.03679)"
       inkscape:export-xdpi="96"
       inkscape:export-ydpi="96">
      <g
         id="g1062"
         clip-path="url(#clipPath1066)">
        <g
           id="g1068"
           transform="translate(220.1675,211.866)">
          <path
             d="m 0,0 c 0,-43.779 -35.49,-79.269 -79.27,-79.269 -43.779,0 -79.269,35.49 -79.269,79.269 0,43.779 35.49,79.27 79.269,79.27 C -35.49,79.27 0,43.779 0,0 Z"
             style="fill:none;stroke:#ffffff;stroke-width:1;stroke-linecap:butt;stroke-linejoin:miter;stroke-miterlimit:10;stroke-dasharray:none;stroke-opacity:1"
             id="path1070"
             inkscape:connector-curvature="0" />
        </g>
        <g
           id="g1072"
           transform="translate(161.3064,229.6417)">
          <path
             d="m 0,0 c 0.026,0.023 0.018,0.046 -0.049,0.055 l 0.01,0.115 c 0.195,0.239 0.327,0.531 0.327,0.863 v 8.042 c 0,0.77 -0.624,1.395 -1.394,1.395 h -0.407 -34.633 -1.115 c -0.77,0 -1.394,-0.625 -1.394,-1.395 V 1.033 c 0,-0.458 0.235,-0.845 0.576,-1.099 l 0.128,0.036 -0.004,-0.036 h -0.124 c -0.109,0 -0.102,-0.021 -0.072,-0.041 -13.239,-6.923 -22.282,-20.777 -22.282,-36.753 0,-22.899 18.564,-41.462 41.463,-41.462 22.899,0 41.462,18.563 41.462,41.462 C 22.492,-20.8 13.353,-6.887 0,0"
             style="fill:#f6e156;fill-opacity:1;fill-rule:nonzero;stroke:none"
             id="path1074"
             inkscape:connector-curvature="0" />
        </g>
        <g
           id="g1076"
           transform="translate(141.9004,263.9952)">
          <path
             d="m 0,0 -26.815,64.481 -39.629,-1.469 53.673,-95.401 h 26.24 l -0.138,0.334"
             style="fill:#ef287c;fill-opacity:1;fill-rule:nonzero;stroke:none"
             id="path1078"
             inkscape:connector-curvature="0" />
        </g>
        <g
           id="g1080"
           transform="translate(209.5044,327.0077)">
          <path
             d="m 0,0 -39.629,1.468 -27.975,-64.48 13.331,-32.056 0.884,-0.183 z"
             style="fill:#ef287c;fill-opacity:1;fill-rule:nonzero;stroke:none"
             id="path1082"
             inkscape:connector-curvature="0" />
        </g>
        <g
           id="g1084"
           transform="translate(155.2309,231.9401)">
          <path
             d="M 0,0 -13.331,32.055"
             style="fill:#ef287c;fill-opacity:1;fill-rule:nonzero;stroke:none"
             id="path1086"
             inkscape:connector-curvature="0" />
        </g>
        <g
           id="g1088"
           transform="translate(205.4438,327.7043)">
          <path
             d="m 0,0 -12.425,0.075 -46.738,-83.386 -7.546,-12.787 h 12.864 2.079 l 0.657,0.424 z"
             style="fill:#c72672;fill-opacity:1;fill-rule:nonzero;stroke:none"
             id="path1090"
             inkscape:connector-curvature="0" />
        </g>
        <g
           id="g1092"
           transform="translate(101.9021,327.8409)">
          <path
             d="m 0,0 13.184,0.635 33.684,-84.566 6.461,-11.97 0.234,0.441 -11.771,-0.148 -0.887,-0.17 z"
             style="fill:#c72672;fill-opacity:1;fill-rule:nonzero;stroke:none"
             id="path1094"
             inkscape:connector-curvature="0" />
        </g>
        <g
           id="g1096"
           transform="translate(123.1557,229.535)">
          <path
             d="m 0,0 -1.399,-0.769 -2.316,-1.428 -1.732,-1.216 -1.345,-1.037 -1.246,-1.041 -1.103,-0.996 -1.938,-1.935 -2.65,-3.12 -4.219,-5.907 -2.006,-3.515 v -2.065 l -0.404,-1.21 c 0,0 -0.288,-0.95 -0.321,-1.065 -0.033,-0.115 -0.183,-0.655 -0.225,-0.815 -0.043,-0.161 -0.255,-1.016 -0.255,-1.016 0,0 -0.137,-0.58 -0.209,-0.926 -0.073,-0.345 -0.236,-1.187 -0.236,-1.187 0,0 -0.182,-1.076 -0.196,-1.167 -0.014,-0.091 -0.23,-1.741 -0.23,-1.741 0,0 -0.119,-1.247 -0.128,-1.368 -0.009,-0.122 -0.154,-1.205 -0.124,-1.425 0.03,-0.221 -0.004,-1.647 -0.004,-1.647 l 0.014,-1.088 0.038,-1.087 0.067,-1.092 0.101,-1.148 0.132,-1.137 0.218,-1.473 0.41,-2.113 0.437,-1.788 0.758,-2.508 0.743,-2.023 0.505,-1.213 0.581,-1.276 0.49,-0.998 0.486,-0.924 0.74,-1.31 0.806,-1.31 0.835,-1.254 c 0,0 0.548,-0.772 0.617,-0.867 0.07,-0.096 0.851,-1.123 0.851,-1.123 l 0.795,-0.982 1.519,-1.72 0.811,-0.846 1.199,-1.167 0.913,-0.829 1,-0.853 1.457,-1.151 1.073,-0.783 1.406,-0.949 c 0,0 0.719,-0.46 1.122,-0.7 0.403,-0.239 1.646,-0.939 1.646,-0.939 0,0 0.642,-0.34 0.741,-0.391 0.099,-0.051 2.134,-1.023 2.134,-1.023 l 1.218,-0.518 1.759,-0.669 1.08,-0.365 1.765,-0.527 1.176,-0.304 1.73,-0.382 1.116,-0.204 1.873,-0.274 2.169,-0.209 1.71,-0.084 c 0,0 1.491,-0.024 1.708,-0.018 0.217,0.006 1.864,0 1.864,0 l 1.707,0.195 2.089,0.257 2.055,0.358 1.563,0.345 1.596,0.419 c 0,0 -38.49,7.91 -30.537,76.641"
             style="fill:#d09a18;fill-opacity:1;fill-rule:nonzero;stroke:none"
             id="path1098"
             inkscape:connector-curvature="0" />
        </g>
        <g
           id="g1100"
           transform="translate(143.2129,213.0968)">
          <path
             d="m 0,0 5.838,-11.829 c 0.142,-0.288 0.417,-0.488 0.736,-0.535 l 13.054,-1.896 c 0.801,-0.117 1.122,-1.102 0.541,-1.668 l -9.445,-9.207 c -0.231,-0.225 -0.336,-0.548 -0.282,-0.866 l 2.23,-13.001 c 0.137,-0.798 -0.701,-1.407 -1.418,-1.03 l -11.676,6.138 c -0.285,0.15 -0.625,0.15 -0.91,0 l -11.675,-6.138 c -0.718,-0.377 -1.556,0.232 -1.419,1.03 l 2.23,13.001 c 0.054,0.318 -0.051,0.641 -0.281,0.866 l -9.446,9.207 c -0.58,0.566 -0.26,1.551 0.542,1.668 l 13.054,1.896 c 0.318,0.047 0.593,0.247 0.736,0.535 L -1.753,0 C -1.395,0.727 -0.359,0.727 0,0"
             style="fill:#f1a644;fill-opacity:1;fill-rule:nonzero;stroke:none"
             id="path1102"
             inkscape:connector-curvature="0" />
        </g>
        <g
           id="g1104"
           transform="translate(137.7844,220.4384)">
          path
             d=&quot;M 0,0 C 0,0.807 0.652,1.458 1.459,1.458 2.264,1.475 2.916,0.823 2.916,0.018 2.933,-0.789 2.281,-1.458 1.476,-1.458 H 1.459 C 0.67,-1.458 0,-0.806 0,0 m -7.168,-1.029 c -0.155,0.789 0.36,1.561 1.148,1.715 0.789,0.172 1.562,-0.343 1.716,-1.132 0.154,-0.788 -0.344,-1.56 -1.149,-1.732 h 0.016 c -0.102,-0.017 -0.206,-0.017 -0.291,-0.017 -0.687,0 -1.303,0.48 -1.44,1.166 M 8.336,-2.161 C 7.547,-1.99 7.05,-1.218 7.22,-0.429 7.393,0.36 8.182,0.858 8.971,0.686 9.76,0.514 10.257,-0.275 10.085,-1.064 9.93,-1.732 9.331,-2.195 8.661,-2.195 c -0.102,0 -0.204,0 -0.325,0.034 m -22.313,-1.338 c -0.326,0.738 0.017,1.595 0.754,1.921 0.737,0.326 1.594,0 1.921,-0.754 0.326,-0.738 -0.017,-1.596 -0.756,-1.904 -0.187,-0.086 -0.376,-0.137 -0.582,-0.137 -0.567,0 -1.098,0.326 -1.337,0.874 M 14.87,-4.391 c -0.72,0.344 -1.029,1.201 -0.685,1.938 0.341,0.721 1.217,1.047 1.938,0.687 0.737,-0.343 1.045,-1.218 0.703,-1.939 -0.258,-0.531 -0.772,-0.84 -1.321,-0.84 -0.206,0 -0.429,0.051 -0.635,0.154 m -34.902,-3.052 c -0.497,0.651 -0.377,1.56 0.275,2.041 0.635,0.497 1.561,0.376 2.04,-0.275 0.498,-0.635 0.36,-1.56 -0.275,-2.041 -0.273,-0.206 -0.582,-0.291 -0.891,-0.291 -0.429,0 -0.874,0.188 -1.149,0.566 m 40.767,-0.601 h 0.019 c -0.635,0.514 -0.756,1.424 -0.258,2.059 0.497,0.634 1.423,0.737 2.058,0.239 0.635,-0.497 0.737,-1.423 0.24,-2.057 -0.292,-0.36 -0.721,-0.55 -1.149,-0.55 -0.308,0 -0.635,0.103 -0.91,0.309 m -45.656,-4.734 c -0.633,0.498 -0.754,1.407 -0.256,2.059 0.498,0.617 1.424,0.737 2.058,0.24 0.617,-0.497 0.737,-1.407 0.24,-2.041 -0.291,-0.378 -0.72,-0.566 -1.149,-0.566 -0.308,0 -0.635,0.103 -0.893,0.308 m 50.579,-0.12 c -0.514,0.635 -0.412,1.561 0.223,2.059 0.618,0.514 1.544,0.411 2.041,-0.224 0.515,-0.617 0.412,-1.543 -0.206,-2.041 -0.274,-0.222 -0.599,-0.325 -0.926,-0.325 -0.429,0 -0.841,0.189 -1.132,0.531 m -53.957,-6.277 c -0.737,0.326 -1.064,1.184 -0.754,1.921 0.325,0.738 1.183,1.08 1.921,0.755 0.737,-0.326 1.081,-1.184 0.771,-1.921 h -0.017 c -0.239,-0.549 -0.772,-0.875 -1.338,-0.875 -0.188,0 -0.377,0.035 -0.583,0.12 m 57.662,0.463 v 0 c -0.344,0.721 -0.052,1.595 0.668,1.956 0.739,0.36 1.596,0.051 1.956,-0.67 0.36,-0.72 0.052,-1.594 -0.67,-1.954 -0.204,-0.103 -0.429,-0.155 -0.633,-0.155 -0.549,0 -1.063,0.309 -1.321,0.823 m -59.446,-7.478 c -0.789,0.155 -1.303,0.91 -1.166,1.699 0.155,0.805 0.927,1.32 1.716,1.166 0.788,-0.138 1.303,-0.909 1.165,-1.698 -0.137,-0.703 -0.753,-1.201 -1.44,-1.201 -0.086,0 -0.189,0.018 -0.275,0.034 m 61.76,0.978 c -0.17,0.79 0.31,1.578 1.099,1.749 0.789,0.189 1.561,-0.308 1.749,-1.08 0.189,-0.789 -0.308,-1.578 -1.097,-1.766 -0.103,-0.018 -0.223,-0.035 -0.327,-0.035 -0.668,0 -1.268,0.464 -1.424,1.132 m -62.153,-8.198 c -0.825,0 -1.459,0.652 -1.459,1.458 0,0.806 0.651,1.458 1.475,1.458 0.806,-0.018 1.441,-0.669 1.441,-1.476 0,-0.805 -0.652,-1.44 -1.457,-1.44 m 62.961,1.201 v 0 0.034 0.102 c -0.017,0.807 0.634,1.458 1.44,1.476 0.806,0 1.476,-0.652 1.476,-1.458 v -0.069 -0.085 c 0,-0.807 -0.653,-1.458 -1.459,-1.458 -0.806,0 -1.457,0.651 -1.457,1.458 m -63.631,-7.255 c -0.171,0.789 0.326,1.56 1.115,1.732 0.772,0.188 1.561,-0.326 1.732,-1.098 0.173,-0.789 -0.325,-1.578 -1.114,-1.749 -0.104,-0.017 -0.206,-0.035 -0.31,-0.035 -0.685,0 -1.286,0.463 -1.423,1.15 m 63.956,-1.355 c -0.789,0.189 -1.287,0.961 -1.097,1.75 0.17,0.788 0.959,1.286 1.748,1.097 0.789,-0.171 1.27,-0.961 1.099,-1.75 -0.154,-0.668 -0.756,-1.131 -1.424,-1.131 -0.104,0 -0.222,0.016 -0.326,0.034 m -61.521,-5.798 v 0 c -0.342,0.721 -0.034,1.596 0.703,1.939 0.721,0.36 1.597,0.034 1.938,-0.687 0.344,-0.737 0.035,-1.594 -0.685,-1.937 -0.206,-0.104 -0.412,-0.155 -0.635,-0.155 -0.549,0 -1.063,0.309 -1.321,0.84 M 30.1,-47.525 c -0.721,0.343 -1.029,1.217 -0.669,1.938 0.344,0.737 1.218,1.029 1.938,0.686 0.737,-0.361 1.03,-1.218 0.687,-1.955 -0.258,-0.515 -0.772,-0.823 -1.322,-0.823 -0.206,0 -0.428,0.051 -0.634,0.154 m -54.815,-5.506 c -0.514,0.618 -0.393,1.544 0.241,2.041 0.617,0.498 1.543,0.395 2.04,-0.24 0.498,-0.634 0.396,-1.544 -0.239,-2.041 -0.275,-0.223 -0.583,-0.326 -0.91,-0.326 -0.428,0 -0.857,0.189 -1.132,0.566 m 50.683,-0.446 c -0.635,0.515 -0.739,1.424 -0.225,2.059 0.498,0.634 1.424,0.72 2.042,0.222 0.635,-0.497 0.737,-1.423 0.239,-2.041 -0.291,-0.36 -0.72,-0.548 -1.149,-0.548 -0.324,0 -0.634,0.103 -0.907,0.308 m -45.382,-4.939 c -0.618,0.515 -0.721,1.423 -0.206,2.058 0.498,0.635 1.424,0.72 2.04,0.223 0.635,-0.514 0.739,-1.424 0.223,-2.058 -0.291,-0.361 -0.72,-0.549 -1.132,-0.549 -0.325,0 -0.652,0.12 -0.925,0.326 m 40.03,0.068 c -0.497,0.635 -0.395,1.561 0.223,2.059 0.635,0.497 1.561,0.394 2.058,-0.24 0.498,-0.618 0.394,-1.544 -0.241,-2.041 -0.256,-0.223 -0.583,-0.326 -0.907,-0.326 -0.429,0 -0.858,0.188 -1.133,0.548 m -33.65,-4.133 c -0.72,0.361 -1.03,1.235 -0.67,1.955 0.36,0.738 1.236,1.029 1.956,0.669 0.72,-0.343 1.029,-1.217 0.669,-1.938 -0.257,-0.531 -0.773,-0.823 -1.32,-0.823 -0.206,0 -0.429,0.051 -0.635,0.137 m 27.338,0.584 c -0.342,0.72 -0.034,1.594 0.686,1.937 0.737,0.36 1.613,0.051 1.955,-0.686 0.343,-0.72 0.035,-1.595 -0.685,-1.937 -0.206,-0.103 -0.412,-0.155 -0.635,-0.155 -0.549,0 -1.063,0.309 -1.321,0.841 m -20.221,-3.105 c -0.771,0.172 -1.268,0.961 -1.081,1.749 0.19,0.789 0.962,1.269 1.751,1.098 0.789,-0.189 1.269,-0.978 1.097,-1.749 -0.154,-0.687 -0.772,-1.132 -1.424,-1.132 -0.119,0 -0.223,0 -0.343,0.034 m 13.292,1.046 c -0.171,0.789 0.31,1.561 1.098,1.749 0.789,0.172 1.578,-0.325 1.749,-1.114 0.173,-0.789 -0.325,-1.561 -1.114,-1.733 -0.104,-0.034 -0.206,-0.051 -0.31,-0.051 -0.668,0 -1.267,0.463 -1.423,1.149 m -5.779,-1.921 v 0 c -0.807,0 -1.459,0.669 -1.459,1.476 0.017,0.805 0.669,1.457 1.476,1.44 0.806,0 1.457,-0.652 1.457,-1.458 0,-0.806 -0.668,-1.458 -1.457,-1.458 z&quot;
             style=&quot;fill:#ca971f;fill-opacity:1;fill-rule:nonzero;stroke:none&quot;
             id=&quot;path1106&quot;
             inkscape:connector-curvature=&quot;0&quot; /&gt;
        </g>
        <g
           id="g1108"
           transform="translate(139.5315,145.867)">
          <path
             d="m 0,0 c -23.336,0 -42.321,18.984 -42.321,42.32 0,15.657 8.54,29.896 22.328,37.296 l 0.055,0.333 0.608,0.016 0.303,0.158 1.017,-0.762 -0.62,-1.361 -0.479,0.144 C -32.381,71.054 -40.606,57.369 -40.606,42.32 -40.606,19.93 -22.39,1.715 0,1.715 c 22.39,0 40.604,18.215 40.604,40.605 0,15.313 -8.481,29.168 -22.135,36.156 l 0.035,0.072 -0.412,0.106 0.154,1.186 0.441,0.451 0.563,-0.287 C 33.479,72.72 42.32,58.281 42.32,42.32 42.32,18.984 23.334,0 0,0"
             style="fill:#100f0d;fill-opacity:1;fill-rule:nonzero;stroke:none"
             id="path1110"
             inkscape:connector-curvature="0" />
        </g>
        <g
           id="g1112"
           transform="translate(120.0122,224.4289)">
          <path
             d="m 0,0 c -0.543,0.404 -0.853,1.006 -0.853,1.651 v 8.042 c 0,1.147 0.933,2.081 2.081,2.081 H 2.343 V 10.4 H 1.228 C 0.837,10.4 0.521,10.083 0.521,9.693 V 1.651 c 0,-0.283 0.187,-0.466 0.3,-0.549 z"
             style="fill:#100f0d;fill-opacity:1;fill-rule:nonzero;stroke:none"
             id="path1114"
             inkscape:connector-curvature="0" />
        </g>
        <g
           id="g1116"
           transform="translate(158.883,224.6281)">
          <path
             d="m 0,0 -0.985,0.958 c 0.133,0.135 0.205,0.311 0.205,0.493 v 8.042 c 0,0.391 -0.319,0.708 -0.709,0.708 h -0.407 v 1.373 h 0.407 c 1.147,0 2.082,-0.933 2.082,-2.081 V 1.451 C 0.593,0.909 0.382,0.393 0,0"
             style="fill:#100f0d;fill-opacity:1;fill-rule:nonzero;stroke:none"
             id="path1118"
             inkscape:connector-curvature="0" />
        </g>
        <g
           id="g1120"
           transform="translate(139.5163,176.974)">
          <path
             d="m 0,0 c 0.295,0 0.588,-0.07 0.856,-0.211 l 11.674,-6.138 1.02,0.272 -0.846,-0.145 -2.231,13.001 c -0.1,0.596 0.097,1.202 0.528,1.623 l 9.448,9.209 -0.069,0.205 -13.054,1.897 C 6.73,19.799 6.212,20.174 5.946,20.717 L 0.109,32.545 H -0.107 L -5.946,20.717 C -6.212,20.174 -6.73,19.799 -7.328,19.713 l -13.052,-1.897 -0.667,-0.819 0.598,0.614 9.745,-9.499 -1.372,-12.813 c -0.273,-0.838 -0.295,-1.313 -0.273,-1.551 l 11.496,6.041 C -0.586,-0.07 -0.293,0 0,0 m 12.588,-8.08 c -0.293,0 -0.586,0.072 -0.857,0.214 L 0.057,-1.728 -11.731,-7.866 c -0.586,-0.31 -1.246,-0.26 -1.713,0.136 -0.503,0.423 -0.955,1.369 -0.292,3.472 l 1.24,11.724 -9.149,8.917 c -0.504,0.491 -0.681,1.212 -0.464,1.881 0.218,0.669 0.786,1.148 1.481,1.249 l 13.054,1.896 5.929,11.895 c 0.31,0.63 0.94,1.022 1.643,1.023 H 0 c 0.703,0 1.333,-0.391 1.646,-1.022 L 7.483,21.476 20.628,19.513 c 0.695,-0.101 1.263,-0.58 1.481,-1.249 0.217,-0.669 0.04,-1.39 -0.463,-1.881 L 12.198,7.175 14.396,-5.932 C 14.513,-6.628 14.233,-7.315 13.662,-7.729 13.341,-7.961 12.965,-8.08 12.588,-8.08"
             style="fill:#100f0d;fill-opacity:1;fill-rule:nonzero;stroke:none"
             id="path1122"
             inkscape:connector-curvature="0" />
        </g>
        <g
           id="g1124"
           transform="translate(115.2058,208.7016)">
          <path
             d="m 0,0 c 0,0.825 -0.669,1.495 -1.495,1.495 -0.825,0 -1.494,-0.67 -1.494,-1.495 0,-0.825 0.669,-1.495 1.494,-1.495 C -0.669,-1.495 0,-0.825 0,0"
             style="fill:#bf6936;fill-opacity:1;fill-rule:nonzero;stroke:none"
             id="path1126"
             inkscape:connector-curvature="0" />
        </g>
        <g
           id="g1128"
           transform="translate(111.5422,202.4677)">
          <path
             d="m 0,0 c 0,0.825 -0.669,1.495 -1.495,1.495 -0.825,0 -1.494,-0.67 -1.494,-1.495 0,-0.825 0.669,-1.495 1.494,-1.495 C -0.669,-1.495 0,-0.825 0,0"
             style="fill:#bf6936;fill-opacity:1;fill-rule:nonzero;stroke:none"
             id="path1130"
             inkscape:connector-curvature="0" />
        </g>
        <g
           id="g1132"
           transform="translate(109.5356,195.4155)">
          <path
             d="m 0,0 c 0,0.825 -0.669,1.495 -1.495,1.495 -0.825,0 -1.494,-0.67 -1.494,-1.495 0,-0.825 0.669,-1.495 1.494,-1.495 C -0.669,-1.495 0,-0.825 0,0"
             style="fill:#bf6936;fill-opacity:1;fill-rule:nonzero;stroke:none"
             id="path1134"
             inkscape:connector-curvature="0" />
        </g>
        <g
           id="g1136"
           transform="translate(108.7295,188.4884)">
          <path
             d="m 0,0 c 0,0.825 -0.669,1.495 -1.495,1.495 -0.825,0 -1.494,-0.67 -1.494,-1.495 0,-0.825 0.669,-1.495 1.494,-1.495 C -0.669,-1.495 0,-0.825 0,0"
             style="fill:#bf6936;fill-opacity:1;fill-rule:nonzero;stroke:none"
             id="path1138"
             inkscape:connector-curvature="0" />
        </g>
        <g
           id="g1140"
           transform="translate(110.2981,182.6689)">
          <path
             d="m 0,0 c 0,0.825 -0.669,1.495 -1.495,1.495 -0.825,0 -1.494,-0.67 -1.494,-1.495 0,-0.825 0.669,-1.495 1.494,-1.495 C -0.669,-1.495 0,-0.825 0,0"
             style="fill:#bf6936;fill-opacity:1;fill-rule:nonzero;stroke:none"
             id="path1142"
             inkscape:connector-curvature="0" />
        </g>
        <g
           id="g1144"
           transform="translate(111.8933,174.2457)">
          <path
             d="m 0,0 c 0,0.825 -0.669,1.495 -1.494,1.495 -0.826,0 -1.495,-0.67 -1.495,-1.495 0,-0.825 0.669,-1.495 1.495,-1.495 C -0.669,-1.495 0,-0.825 0,0"
             style="fill:#bf6936;fill-opacity:1;fill-rule:nonzero;stroke:none"
             id="path1146"
             inkscape:connector-curvature="0" />
        </g>
        <g
           id="g1148"
           transform="translate(115.6155,168.2612)">
          <path
             d="m 0,0 c 0,0.825 -0.669,1.495 -1.495,1.495 -0.825,0 -1.494,-0.67 -1.494,-1.495 0,-0.826 0.669,-1.495 1.494,-1.495 C -0.669,-1.495 0,-0.826 0,0"
             style="fill:#bf6936;fill-opacity:1;fill-rule:nonzero;stroke:none"
             id="path1150"
             inkscape:connector-curvature="0" />
        </g>
        <g
           id="g1152"
           transform="translate(120.7973,163.0064)">
          <path
             d="m 0,0 c 0,0.825 -0.669,1.495 -1.495,1.495 -0.825,0 -1.494,-0.67 -1.494,-1.495 0,-0.826 0.669,-1.495 1.494,-1.495 C -0.669,-1.495 0,-0.826 0,0"
             style="fill:#bf6936;fill-opacity:1;fill-rule:nonzero;stroke:none"
             id="path1154"
             inkscape:connector-curvature="0" />
        </g>
        <g
           id="g1156"
           transform="translate(126.7378,159.3433)">
          <path
             d="M 0,0 C 0,0.826 -0.669,1.495 -1.495,1.495 -2.32,1.495 -2.989,0.826 -2.989,0 c 0,-0.825 0.669,-1.495 1.494,-1.495 C -0.669,-1.495 0,-0.825 0,0"
             style="fill:#bf6936;fill-opacity:1;fill-rule:nonzero;stroke:none"
             id="path1158"
             inkscape:connector-curvature="0" />
        </g>
        <g
           id="g1160"
           transform="translate(133.7883,156.8132)">
          <path
             d="m 0,0 c 0,0.825 -0.669,1.495 -1.495,1.495 -0.825,0 -1.494,-0.67 -1.494,-1.495 0,-0.825 0.669,-1.495 1.494,-1.495 C -0.669,-1.495 0,-0.825 0,0"
             style="fill:#bf6936;fill-opacity:1;fill-rule:nonzero;stroke:none"
             id="path1162"
             inkscape:connector-curvature="0" />
        </g>
        <g
           id="g1164"
           transform="translate(141.0205,155.9271)">
          <path
             d="m 0,0 c 0,0.825 -0.669,1.495 -1.495,1.495 -0.825,0 -1.494,-0.67 -1.494,-1.495 0,-0.825 0.669,-1.495 1.494,-1.495 C -0.669,-1.495 0,-0.825 0,0"
             style="fill:#bf6936;fill-opacity:1;fill-rule:nonzero;stroke:none"
             id="path1166"
             inkscape:connector-curvature="0" />
        </g>
        <g
           id="g1168"
           transform="translate(120.289,213.9416)">
          <path
             d="m 0,0 c 0,0.825 -0.669,1.495 -1.495,1.495 -0.825,0 -1.494,-0.67 -1.494,-1.495 0,-0.825 0.669,-1.495 1.494,-1.495 C -0.669,-1.495 0,-0.825 0,0"
             style="fill:#bf6936;fill-opacity:1;fill-rule:nonzero;stroke:none"
             id="path1170"
             inkscape:connector-curvature="0" />
        </g>
        <g
           id="g1172"
           transform="translate(141.1396,263.0666)">
          <path
             d="m 0,0 2.78,5.582 16.939,-25.71 -5.628,-10.998 -10.615,18.354 -5.099,13.701 1.456,2.23 1.986,-4.775"
             style="fill:#c72672;fill-opacity:1;fill-rule:nonzero;stroke:none"
             id="path1174"
             inkscape:connector-curvature="0" />
        </g>
        <g
           id="g1176"
           transform="translate(153.4834,227.8197)">
          <path
             d="M 0,0 H -28.02 L -82.629,97.065 -41,98.607 -13.955,33.576 -15.54,32.918 -42.125,96.849 -79.755,95.455 -27.018,1.715 H -1.28 V 1.248 l 0.657,0.269 z"
             style="fill:#100f0d;fill-opacity:1;fill-rule:nonzero;stroke:none"
             id="path1178"
             inkscape:connector-curvature="0" />
        </g>
        <g
           id="g1180"
           transform="translate(139.667,261.0598)">
          <path
             d="m 0,0 12.934,-31.1 52.305,93.315 -37.642,1.394 z m 13.722,-33.199 -1.941,0.403 -13.643,32.809 0.144,0.335 28.207,65.018 41.617,-1.542 z"
             style="fill:#100f0d;fill-opacity:1;fill-rule:nonzero;stroke:none"
             id="path1182"
             inkscape:connector-curvature="0" />
        </g>
        <g
           id="g1184"
           transform="translate(144.6311,157.0722)">
          <path
             d="M 0,0 1.669,-1.037 2.954,-1.754 5.16,1.446 0.617,3.307 Z"
             style="fill:#f6e156;fill-opacity:1;fill-rule:nonzero;stroke:none"
             id="path1186"
             inkscape:connector-curvature="0" />
        </g>
        <g
           id="g1188"
           transform="translate(148.3254,156.0997)">
          <path
             d="m 0,0 c 0,0.825 -0.669,1.495 -1.495,1.495 -0.825,0 -1.494,-0.67 -1.494,-1.495 0,-0.825 0.669,-1.495 1.494,-1.495 C -0.669,-1.495 0,-0.825 0,0"
             style="fill:#ca971f;fill-opacity:1;fill-rule:nonzero;stroke:none"
             id="path1190"
             inkscape:connector-curvature="0" />
        </g>
        <g
           id="g1192"
           transform="translate(145.4436,156.6373)">
          <path
             d="M 0,0 C -0.405,-0.719 -0.15,-1.631 0.569,-2.036 1.288,-2.441 2.2,-2.186 2.605,-1.467"
             style="fill:#bf6936;fill-opacity:1;fill-rule:nonzero;stroke:none"
             id="path1194"
             inkscape:connector-curvature="0" />
        </g>
      </g>
    </g>
    <g
       id="g1196"
       transform="matrix(1.1014425,0,0,-1.1014425,-52.381522,426.03679)"
       inkscape:export-xdpi="96"
       inkscape:export-ydpi="96">
      <g
         id="g1198"
         clip-path="url(#clipPath1202)">
        <g
           id="g1204"
           transform="translate(220.167,211.866)">
          <path
             d="m 0,0 c 0,43.779 -35.49,79.269 -79.269,79.269 -43.779,0 -79.269,-35.49 -79.269,-79.269 0,-43.779 35.49,-79.269 79.269,-79.269 C -35.49,-79.269 0,-43.779 0,0 Z"
             style="fill:none;stroke:#ffffff;stroke-width:1;stroke-linecap:butt;stroke-linejoin:miter;stroke-miterlimit:10;stroke-dasharray:none;stroke-opacity:1"
             id="path1206"
             inkscape:connector-curvature="0" />
        </g>
      </g>
    </g>
  </g>
</svg>
