<?xml version="1.0" encoding="UTF-8" standalone="no"?>
<!-- Created with Inkscape (http://www.inkscape.org/) -->

<svg
   xmlns:dc="http://purl.org/dc/elements/1.1/"
   xmlns:cc="http://creativecommons.org/ns#"
   xmlns:rdf="http://www.w3.org/1999/02/22-rdf-syntax-ns#"
   xmlns:svg="http://www.w3.org/2000/svg"
   xmlns="http://www.w3.org/2000/svg"
   xmlns:sodipodi="http://sodipodi.sourceforge.net/DTD/sodipodi-0.dtd"
   xmlns:inkscape="http://www.inkscape.org/namespaces/inkscape"
   width="162"
   height="162"
   viewBox="0 0 42.862499 42.862501"
   version="1.1"
   id="svg8"
   inkscape:version="0.92.3 (2405546, 2018-03-11)"
   sodipodi:docname="2-back2.svg">
  <defs
     id="defs2" />
  <sodipodi:namedview
     id="base"
     pagecolor="#ffffff"
     bordercolor="#666666"
     borderopacity="1.0"
     inkscape:pageopacity="0.0"
     inkscape:pageshadow="2"
     inkscape:zoom="2.8"
     inkscape:cx="64.759688"
     inkscape:cy="73.254535"
     inkscape:document-units="mm"
     inkscape:current-layer="layer1"
     showgrid="false"
     units="px"
     inkscape:window-width="1366"
     inkscape:window-height="703"
     inkscape:window-x="0"
     inkscape:window-y="0"
     inkscape:window-maximized="1" />
  <metadata
     id="metadata5">
    <rdf:RDF>
      <cc:Work
         rdf:about="">
        <dc:format>image/svg+xml</dc:format>
        <dc:type
           rdf:resource="http://purl.org/dc/dcmitype/StillImage" />
        <dc:title></dc:title>
      </cc:Work>
    </rdf:RDF>
  </metadata>
  <g
     inkscape:label="Camada 1"
     inkscape:groupmode="layer"
     id="layer1"
     transform="translate(0,-254.13748)">
    <g
       id="g257"
       transform="matrix(1.2417014,0,0,-1.2417014,39.801512,277.79119)"
       inkscape:export-xdpi="96"
       inkscape:export-ydpi="96">
      <path
         d="m 0,0 c 0,-8.474 -6.987,-15.343 -15.606,-15.343 -8.618,0 -15.605,6.869 -15.605,15.343 0,8.474 6.987,15.343 15.605,15.343 C -6.987,15.343 0,8.474 0,0"
         style="fill:#6ecec6;fill-opacity:1;fill-rule:nonzero;stroke:none"
         id="path259"
         inkscape:connector-curvature="0" />
    </g>
    <g
       id="g261"
       transform="matrix(1.2417014,0,0,-1.2417014,36.058645,277.41311)"
       inkscape:export-xdpi="96"
       inkscape:export-ydpi="96">
      <path
         d="m 0,0 c 0,-6.662 -5.493,-12.063 -12.27,-12.063 -6.776,0 -12.269,5.401 -12.269,12.063 0,6.662 5.493,12.063 12.269,12.063 C -5.493,12.063 0,6.662 0,0"
         style="fill:#ef287c;fill-opacity:1;fill-rule:nonzero;stroke:none"
         id="path263"
         inkscape:connector-curvature="0" />
    </g>
    <g
       id="g265"
       transform="matrix(1.2417014,0,0,-1.2417014,31.087865,277.53108)"
       inkscape:export-xdpi="96"
       inkscape:export-ydpi="96">
      <path
         d="m 0,0 c 0,-4.527 -3.733,-8.197 -8.337,-8.197 -4.605,0 -8.337,3.67 -8.337,8.197 0,4.527 3.732,8.197 8.337,8.197 C -3.733,8.197 0,4.527 0,0"
         style="fill:#ffffff;fill-opacity:1;fill-rule:nonzero;stroke:none"
         id="path267"
         inkscape:connector-curvature="0" />
    </g>
    <g
       id="g269"
       transform="matrix(1.2417014,0,0,-1.2417014,25.508163,277.79119)"
       inkscape:export-xdpi="96"
       inkscape:export-ydpi="96">
      <path
         d="m 0,0 c 0,-2.031 -1.675,-3.677 -3.74,-3.677 -2.066,0 -3.741,1.646 -3.741,3.677 0,2.031 1.675,3.677 3.741,3.677 C -1.675,3.677 0,2.031 0,0"
         style="fill:#ef287c;fill-opacity:1;fill-rule:nonzero;stroke:none"
         id="path271"
         inkscape:connector-curvature="0" />
    </g>
    <g
       id="g273"
       transform="matrix(1.2417014,0,0,-1.2417014,21.465058,278.12459)"
       inkscape:export-xdpi="96"
       inkscape:export-ydpi="96">
      <path
         d="M 0,0 -0.317,0.252 C -0.603,0.48 -0.651,0.897 -0.426,1.185 l 11,14.062 c 0.136,0.173 0.385,0.203 0.557,0.066 l 0.729,-0.58 c 0.172,-0.137 0.201,-0.388 0.066,-0.561 L 0.925,0.11 C 0.7,-0.178 0.286,-0.227 0,0"
         style="fill:#dbdad9;fill-opacity:1;fill-rule:nonzero;stroke:none"
         id="path275"
         inkscape:connector-curvature="0" />
    </g>
    <g
       id="g277"
       transform="matrix(1.2417014,0,0,-1.2417014,22.690999,277.89042)"
       inkscape:export-xdpi="96"
       inkscape:export-ydpi="96">
      <path
         d="m 0,0 10.977,13.958 c 0.103,0.131 0.119,0.297 0.073,0.445 l -0.246,0.195 c -0.209,0.167 -0.513,0.131 -0.678,-0.08 L -0.851,0.56 C -1.033,0.327 -1.065,0.026 -0.967,-0.232 -0.637,-0.386 -0.235,-0.3 0,0"
         style="fill:#b5b4b2;fill-opacity:1;fill-rule:nonzero;stroke:none"
         id="path279"
         inkscape:connector-curvature="0" />
    </g>
    <g
       id="g281"
       transform="matrix(1.2417014,0,0,-1.2417014,37.012156,259.75051)"
       inkscape:export-xdpi="96"
       inkscape:export-ydpi="96">
      <path
         d="M 0,0 3.091,-0.204 C 3.261,-0.215 3.35,-0.414 3.245,-0.55 L -0.707,-5.707 C -0.752,-5.765 -0.823,-5.796 -0.895,-5.789 L -4.209,-5.49"
         style="fill:#ef287c;fill-opacity:1;fill-rule:nonzero;stroke:none"
         id="path283"
         inkscape:connector-curvature="0" />
    </g>
    <g
       id="g285"
       transform="matrix(1.2417014,0,0,-1.2417014,34.046595,258.33697)"
       inkscape:export-xdpi="96"
       inkscape:export-ydpi="96">
      <path
         d="m 0,0 -0.853,2.972 c -0.053,0.183 -0.288,0.219 -0.41,0.064 L -5.217,-2.019 C -5.269,-2.085 -5.286,-2.172 -5.261,-2.25 l 0.957,-3.051"
         style="fill:#ef287c;fill-opacity:1;fill-rule:nonzero;stroke:none"
         id="path287"
         inkscape:connector-curvature="0" />
    </g>
    <g
       id="g289"
       transform="matrix(1.2417014,0,0,-1.2417014,28.288441,259.98222)"
       inkscape:export-xdpi="96"
       inkscape:export-ydpi="96">
      <path
         d="M 0,0 0.417,-3.853 1.238,-2.85 0.783,1 Z"
         style="fill:#c72672;fill-opacity:1;fill-rule:nonzero;stroke:none"
         id="path291"
         inkscape:connector-curvature="0" />
    </g>
    <g
       id="g293"
       transform="matrix(1.2417014,0,0,-1.2417014,29.825673,258.0946)"
       inkscape:export-xdpi="96"
       inkscape:export-ydpi="96">
      <path
         d="M 0,0 0.353,-3.922 1.173,-2.919 0.783,1 Z"
         style="fill:#c72672;fill-opacity:1;fill-rule:nonzero;stroke:none"
         id="path295"
         inkscape:connector-curvature="0" />
    </g>
    <g
       id="g297"
       transform="matrix(1.2417014,0,0,-1.2417014,31.363148,255.98258)"
       inkscape:export-xdpi="96"
       inkscape:export-ydpi="96">
      <path
         d="M 0,0 0.461,-3.983 1.282,-2.98 0.783,1 Z"
         style="fill:#c72672;fill-opacity:1;fill-rule:nonzero;stroke:none"
         id="path299"
         inkscape:connector-curvature="0" />
    </g>
    <g
       id="g301"
       transform="matrix(1.2417014,0,0,-1.2417014,33.112724,264.85456)"
       inkscape:export-xdpi="96"
       inkscape:export-ydpi="96">
      <path
         d="M 0,0 3.943,0.309 3.124,-0.695 -0.768,-0.961 Z"
         style="fill:#c72672;fill-opacity:1;fill-rule:nonzero;stroke:none"
         id="path303"
         inkscape:connector-curvature="0" />
    </g>
    <g
       id="g305"
       transform="matrix(1.2417014,0,0,-1.2417014,34.578542,262.96467)"
       inkscape:export-xdpi="96"
       inkscape:export-ydpi="96">
      <path
         d="M 0,0 3.939,0.358 3.132,-0.656 -0.756,-0.971 Z"
         style="fill:#c72672;fill-opacity:1;fill-rule:nonzero;stroke:none"
         id="path307"
         inkscape:connector-curvature="0" />
    </g>
    <g
       id="g309"
       transform="matrix(1.2417014,0,0,-1.2417014,36.033197,261.03048)"
       inkscape:export-xdpi="96"
       inkscape:export-ydpi="96">
      <path
         d="M 0,0 3.939,0.358 3.132,-0.656 -0.756,-0.971 Z"
         style="fill:#c72672;fill-opacity:1;fill-rule:nonzero;stroke:none"
         id="path311"
         inkscape:connector-curvature="0" />
    </g>
    <g
       id="g313"
       transform="matrix(1.2417014,0,0,-1.2417014,20.418662,293.40274)"
       inkscape:export-xdpi="96"
       inkscape:export-ydpi="96">
      <path
         d="m 0,0 c -6.663,0 -12.084,5.467 -12.084,12.186 0,6.719 5.421,12.186 12.084,12.186 2.437,0 4.657,-0.665 6.599,-1.976 L 6.414,22.122 C 4.528,23.395 2.37,24.041 0,24.041 c -6.481,0 -11.753,-5.318 -11.753,-11.855 0,-6.537 5.272,-11.855 11.753,-11.855 6.481,0 11.753,5.318 11.753,11.855 0,3.41 -1.173,6.245 -3.486,8.427 l 0.227,0.24 c 2.383,-2.246 3.591,-5.162 3.591,-8.667 C 12.085,5.467 6.663,0 0,0"
         style="fill:#100f0d;fill-opacity:1;fill-rule:nonzero;stroke:none"
         id="path315"
         inkscape:connector-curvature="0" />
    </g>
    <g
       id="g317"
       transform="matrix(1.2417014,0,0,-1.2417014,20.418662,288.28061)"
       inkscape:export-xdpi="96"
       inkscape:export-ydpi="96">
      <path
         d="m 0,0 c -4.408,0 -7.994,3.616 -7.994,8.061 0,4.445 3.586,8.061 7.994,8.061 1.453,0 2.875,-0.397 4.114,-1.148 L 3.942,14.691 c -1.187,0.719 -2.55,1.1 -3.942,1.1 -4.225,0 -7.663,-3.468 -7.663,-7.73 0,-4.262 3.438,-7.73 7.663,-7.73 4.225,0 7.663,3.468 7.663,7.73 0,1.995 -0.751,3.889 -2.116,5.333 l 0.241,0.227 C 7.211,12.116 7.994,10.141 7.994,8.061 7.994,3.616 4.408,0 0,0"
         style="fill:#100f0d;fill-opacity:1;fill-rule:nonzero;stroke:none"
         id="path319"
         inkscape:connector-curvature="0" />
    </g>
    <g
       id="g321"
       transform="matrix(1.2417014,0,0,-1.2417014,20.418662,282.72636)"
       inkscape:export-xdpi="96"
       inkscape:export-ydpi="96">
      <path
         d="m 0,0 c -1.962,0 -3.559,1.609 -3.559,3.588 0,1.978 1.597,3.588 3.559,3.588 0.443,0 0.876,-0.082 1.286,-0.242 L 1.165,6.626 C 0.794,6.771 0.402,6.844 0,6.844 c -1.78,0 -3.228,-1.461 -3.228,-3.256 0,-1.796 1.448,-3.257 3.228,-3.257 1.78,0 3.228,1.461 3.228,3.257 0,0.67 -0.201,1.314 -0.579,1.861 L 2.921,5.638 C 3.338,5.035 3.559,4.326 3.559,3.588 3.559,1.609 1.962,0 0,0"
         style="fill:#100f0d;fill-opacity:1;fill-rule:nonzero;stroke:none"
         id="path323"
         inkscape:connector-curvature="0" />
    </g>
    <g
       id="g325"
       transform="matrix(1.2417014,0,0,-1.2417014,20.592997,278.57769)"
       inkscape:export-xdpi="96"
       inkscape:export-ydpi="96">
      <path
         d="m 0,0 c 0.103,-0.082 0.231,-0.118 0.362,-0.103 0.131,0.015 0.247,0.081 0.329,0.185 l 11.001,14.062 c 0.079,0.102 0.062,0.25 -0.038,0.33 l -0.73,0.58 c -0.048,0.038 -0.108,0.055 -0.168,0.048 -0.061,-0.007 -0.116,-0.038 -0.154,-0.087 L -0.399,0.953 c -0.169,-0.216 -0.133,-0.53 0.082,-0.7 z m 0.303,-0.438 c -0.184,0 -0.362,0.062 -0.509,0.179 l -0.317,0.252 C -0.879,0.276 -0.941,0.799 -0.66,1.157 l 11.001,14.062 c 0.093,0.119 0.226,0.194 0.376,0.212 0.149,0.017 0.296,-0.024 0.414,-0.118 l 0.729,-0.58 c 0.242,-0.193 0.284,-0.549 0.093,-0.793 L 0.952,-0.122 C 0.816,-0.296 0.62,-0.406 0.401,-0.432 0.368,-0.436 0.335,-0.438 0.303,-0.438"
         style="fill:#100f0d;fill-opacity:1;fill-rule:nonzero;stroke:none"
         id="path327"
         inkscape:connector-curvature="0" />
    </g>
    <g
       id="g329"
       transform="matrix(1.2417014,0,0,-1.2417014,28.436729,266.21892)"
       inkscape:export-xdpi="96"
       inkscape:export-ydpi="96">
      <path
         d="m 0,0 -1.084,3.153 c -0.046,0.133 -0.022,0.279 0.065,0.39 L 2.935,8.598 C 3.029,8.719 3.182,8.777 3.331,8.75 3.481,8.723 3.604,8.615 3.651,8.469 L 4.625,5.4 4.309,5.3 3.335,8.368 C 3.321,8.41 3.287,8.421 3.272,8.423 3.255,8.427 3.222,8.427 3.196,8.394 L -0.758,3.339 C -0.776,3.317 -0.781,3.287 -0.771,3.26 L 0.313,0.108 Z"
         style="fill:#100f0d;fill-opacity:1;fill-rule:nonzero;stroke:none"
         id="path331"
         inkscape:connector-curvature="0" />
    </g>
    <g
       id="g333"
       transform="matrix(1.2417014,0,0,-1.2417014,34.412267,268.18676)"
       inkscape:export-xdpi="96"
       inkscape:export-ydpi="96">
      <path
         d="m 0,0 c -0.011,0 -0.023,0 -0.034,0.001 l -3.314,0.3 0.03,0.329 3.313,-0.299 C 0.011,0.328 0.027,0.337 0.037,0.35 L 3.99,5.507 C 4.006,5.528 4,5.548 3.995,5.559 3.99,5.571 3.979,5.585 3.956,5.587 L 0.865,5.791 0.887,6.121 3.977,5.917 C 4.117,5.908 4.239,5.823 4.297,5.695 4.355,5.567 4.339,5.417 4.252,5.305 L 0.3,0.148 C 0.227,0.054 0.117,0 0,0"
         style="fill:#100f0d;fill-opacity:1;fill-rule:nonzero;stroke:none"
         id="path335"
         inkscape:connector-curvature="0" />
    </g>
  </g>
</svg>
