<?xml version="1.0" encoding="UTF-8" standalone="no"?>
<!-- Created with Inkscape (http://www.inkscape.org/) -->

<svg
   xmlns:dc="http://purl.org/dc/elements/1.1/"
   xmlns:cc="http://creativecommons.org/ns#"
   xmlns:rdf="http://www.w3.org/1999/02/22-rdf-syntax-ns#"
   xmlns:svg="http://www.w3.org/2000/svg"
   xmlns="http://www.w3.org/2000/svg"
   xmlns:sodipodi="http://sodipodi.sourceforge.net/DTD/sodipodi-0.dtd"
   xmlns:inkscape="http://www.inkscape.org/namespaces/inkscape"
   width="210mm"
   height="210mm"
   viewBox="0 0 210 210"
   version="1.1"
   id="svg8"
   inkscape:version="0.92.3 (2405546, 2018-03-11)"
   sodipodi:docname="2-front2.svg">
  <defs
     id="defs2" />
  <sodipodi:namedview
     id="base"
     pagecolor="#ffffff"
     bordercolor="#666666"
     borderopacity="1.0"
     inkscape:pageopacity="0.0"
     inkscape:pageshadow="2"
     inkscape:zoom="0.35"
     inkscape:cx="-208.57143"
     inkscape:cy="560"
     inkscape:document-units="mm"
     inkscape:current-layer="layer1"
     showgrid="false"
     inkscape:window-width="1366"
     inkscape:window-height="703"
     inkscape:window-x="0"
     inkscape:window-y="0"
     inkscape:window-maximized="1" />
  <metadata
     id="metadata5">
    <rdf:RDF>
      <cc:Work
         rdf:about="">
        <dc:format>image/svg+xml</dc:format>
        <dc:type
           rdf:resource="http://purl.org/dc/dcmitype/StillImage" />
        <dc:title></dc:title>
      </cc:Work>
    </rdf:RDF>
  </metadata>
  <g
     inkscape:label="Camada 1"
     inkscape:groupmode="layer"
     id="layer1"
     transform="translate(0,-87)">
    <path
       inkscape:connector-curvature="0"
       id="path339"
       style="fill:none;stroke:#ffffff;stroke-width:1.0714649;stroke-linecap:butt;stroke-linejoin:miter;stroke-miterlimit:10;stroke-dasharray:none;stroke-opacity:1"
       d="m 189.25592,193.02433 c 0,46.90767 -38.02627,84.93394 -84.93504,84.93394 -46.907636,0 -84.933941,-38.02627 -84.933941,-84.93394 0,-46.90766 38.026305,-84.93394 84.933941,-84.93394 46.90877,0 84.93504,38.02628 84.93504,84.93394 z"
       inkscape:export-filename="/home/weliton/2-front.png"
       inkscape:export-xdpi="96"
       inkscape:export-ydpi="96" />
    <path
       inkscape:connector-curvature="0"
       id="path343"
       style="fill:#ef287c;fill-opacity:1;fill-rule:nonzero;stroke:none;stroke-width:1.0714649"
       d="m 162.77884,191.99216 c 0,31.7518 -26.18123,57.4916 -58.47628,57.4916 -32.296096,0 -58.477315,-25.7398 -58.477315,-57.4916 0,-31.7518 26.181219,-57.4916 58.477315,-57.4916 32.29505,0 58.47628,25.7398 58.47628,57.4916"
       inkscape:export-filename="/home/weliton/2-front.png"
       inkscape:export-xdpi="96"
       inkscape:export-ydpi="96" />
    <path
       inkscape:connector-curvature="0"
       id="path347"
       style="fill:#ffffff;fill-opacity:1;fill-rule:nonzero;stroke:none;stroke-width:1.0714649"
       d="m 143.69982,192.44507 c 0,21.57501 -17.78953,39.06562 -39.73425,39.06562 -21.944656,0 -39.734175,-17.49061 -39.734175,-39.06562 0,-21.575 17.789519,-39.06561 39.734175,-39.06561 21.94472,0 39.73425,17.49061 39.73425,39.06561"
       inkscape:export-filename="/home/weliton/2-front.png"
       inkscape:export-xdpi="96"
       inkscape:export-ydpi="96" />
    <path
       inkscape:connector-curvature="0"
       id="path351"
       style="fill:#ef287c;fill-opacity:1;fill-rule:nonzero;stroke:none;stroke-width:1.0714649"
       d="m 122.28335,193.44326 c 0,9.67959 -7.98133,17.52596 -17.82595,17.52596 -9.845706,0 -17.825986,-7.84637 -17.825986,-17.52596 0,-9.6796 7.98028,-17.52597 17.825986,-17.52597 9.84462,0 17.82595,7.84637 17.82595,17.52597"
       inkscape:export-filename="/home/weliton/2-front.png"
       inkscape:export-xdpi="96"
       inkscape:export-ydpi="96" />
    <path
       inkscape:connector-curvature="0"
       id="path355"
       style="fill:#dbdad9;fill-opacity:1;fill-rule:nonzero;stroke:none;stroke-width:1.0714649"
       d="m 106.76511,194.72323 -1.51184,-1.20325 c -1.36076,-1.08216 -1.59326,-3.07297 -0.51967,-4.44443 l 52.42896,-67.01907 c 0.64607,-0.82503 1.8322,-0.96644 2.6508,-0.31502 l 3.47582,2.76545 c 0.81859,0.65146 0.95791,1.84831 0.31287,2.67331 l -52.42891,67.01906 c -1.07364,1.37255 -3.04726,1.60721 -4.40803,0.52395"
       inkscape:export-filename="/home/weliton/2-front.png"
       inkscape:export-xdpi="96"
       inkscape:export-ydpi="96" />
    <path
       inkscape:connector-curvature="0"
       id="path359"
       style="fill:#b5b4b2;fill-opacity:1;fill-rule:nonzero;stroke:none;stroke-width:1.0714649"
       d="m 111.47023,193.82458 52.31642,-66.5219 c 0.48966,-0.62573 0.5679,-1.41541 0.34715,-2.12363 l -1.17002,-0.93003 c -0.99755,-0.79505 -2.44509,-0.62254 -3.23155,0.38357 L 107.4158,191.1545 c -0.86788,1.10895 -1.02217,2.54473 -0.55395,3.77369 1.57186,0.73394 3.48872,0.3268 4.60838,-1.10361"
       inkscape:export-filename="/home/weliton/2-front.png"
       inkscape:export-xdpi="96"
       inkscape:export-ydpi="96" />
    <path
       inkscape:connector-curvature="0"
       id="path363"
       style="fill:#ef287c;fill-opacity:1;fill-rule:nonzero;stroke:none;stroke-width:1.0714649"
       d="m 166.43918,124.19845 14.72944,0.97076 c 0.81218,0.0547 1.23648,1.00073 0.73823,1.65003 l -18.8385,24.57727 c -0.21231,0.27639 -0.54965,0.42537 -0.89574,0.3943 l -15.79126,-1.42504"
       inkscape:export-filename="/home/weliton/2-front.png"
       inkscape:export-xdpi="96"
       inkscape:export-ydpi="96" />
    <path
       inkscape:connector-curvature="0"
       id="path367"
       style="fill:#ef287c;fill-opacity:1;fill-rule:nonzero;stroke:none;stroke-width:1.0714649"
       d="m 155.0567,118.77276 -4.06621,-14.16154 c -0.25056,-0.87326 -1.37042,-1.04791 -1.95114,-0.3054 l -18.846,24.08977 c -0.24754,0.31609 -0.32681,0.73073 -0.21199,1.09932 l 4.56014,14.54193"
       inkscape:export-filename="/home/weliton/2-front.png"
       inkscape:export-xdpi="96"
       inkscape:export-ydpi="96" />
    <path
       inkscape:connector-curvature="0"
       id="path371"
       style="fill:#c72672;fill-opacity:1;fill-rule:nonzero;stroke:none;stroke-width:1.0714649"
       d="m 132.95516,125.08745 1.98971,18.36384 3.91085,-4.78089 -2.17079,-18.35097 z"
       inkscape:export-filename="/home/weliton/2-front.png"
       inkscape:export-xdpi="96"
       inkscape:export-ydpi="96" />
    <path
       inkscape:connector-curvature="0"
       id="path375"
       style="fill:#c72672;fill-opacity:1;fill-rule:nonzero;stroke:none;stroke-width:1.0714649"
       d="m 138.85594,117.84252 1.68219,18.69064 3.91085,-4.78089 -1.86328,-18.67777 z"
       inkscape:export-filename="/home/weliton/2-front.png"
       inkscape:export-xdpi="96"
       inkscape:export-ydpi="96" />
    <path
       inkscape:connector-curvature="0"
       id="path379"
       style="fill:#c72672;fill-opacity:1;fill-rule:nonzero;stroke:none;stroke-width:1.0714649"
       d="m 144.75671,109.73583 2.19755,18.98314 3.91086,-4.78087 -2.37863,-18.97028 z"
       inkscape:export-filename="/home/weliton/2-front.png"
       inkscape:export-xdpi="96"
       inkscape:export-ydpi="96" />
    <path
       inkscape:connector-curvature="0"
       id="path383"
       style="fill:#c72672;fill-opacity:1;fill-rule:nonzero;stroke:none;stroke-width:1.0714649"
       d="m 151.47201,143.78891 18.79456,-1.47005 -3.90548,4.78408 -18.55029,1.26862 z"
       inkscape:export-filename="/home/weliton/2-front.png"
       inkscape:export-xdpi="96"
       inkscape:export-ydpi="96" />
    <path
       inkscape:connector-curvature="0"
       id="path387"
       style="fill:#c72672;fill-opacity:1;fill-rule:nonzero;stroke:none;stroke-width:1.0714649"
       d="m 156.41446,137.45141 18.76564,-1.8022 -3.82086,4.85373 -18.52455,1.59433 z"
       inkscape:export-filename="/home/weliton/2-front.png"
       inkscape:export-xdpi="96"
       inkscape:export-ydpi="96" />
    <path
       inkscape:connector-curvature="0"
       id="path391"
       style="fill:#c72672;fill-opacity:1;fill-rule:nonzero;stroke:none;stroke-width:1.0714649"
       d="m 161.26047,130.84593 18.79458,-1.47004 -3.90551,4.78408 -18.55026,1.26862 z"
       inkscape:export-filename="/home/weliton/2-front.png"
       inkscape:export-xdpi="96"
       inkscape:export-ydpi="96" />
    <path
       inkscape:connector-curvature="0"
       id="path395"
       style="fill:#100f0d;fill-opacity:1;fill-rule:nonzero;stroke:none;stroke-width:1.0714649"
       d="m 102.74884,253.36503 c -31.758206,0 -57.594436,-26.05482 -57.594436,-58.07875 0,-32.025 25.83623,-58.07876 57.594436,-58.07876 11.61468,0 22.19649,3.16834 31.45073,9.41603 l -0.88395,1.30825 c -8.98746,-6.06876 -19.2714,-9.14602 -30.56678,-9.14602 -30.887105,0 -56.015106,25.34657 -56.015106,56.5005 0,31.15391 25.128001,56.50048 56.015106,56.50048 30.88714,0 56.01621,-25.34657 56.01621,-56.50048 0,-16.25307 -5.58986,-29.76422 -16.61521,-40.16066 l 1.08219,-1.14753 c 11.35429,10.705 17.11129,24.60297 17.11129,41.30819 0,32.02393 -25.83623,58.07875 -57.59448,58.07875"
       inkscape:export-filename="/home/weliton/2-front.png"
       inkscape:export-xdpi="96"
       inkscape:export-ydpi="96" />
    <path
       inkscape:connector-curvature="0"
       id="path399"
       style="fill:#100f0d;fill-opacity:1;fill-rule:nonzero;stroke:none;stroke-width:1.0714649"
       d="m 102.74884,233.70451 c -21.007135,0 -38.099126,-17.23451 -38.099126,-38.41845 0,-21.18287 17.091991,-38.41738 38.099126,-38.41738 6.92275,0 13.70189,1.89116 19.60462,5.46876 l -0.81862,1.35005 c -5.6552,-3.42869 -12.15148,-5.24055 -18.786,-5.24055 -20.137116,0 -36.520865,16.52629 -36.520865,36.83912 0,20.31282 16.383749,36.84018 36.520865,36.84018 20.13819,0 36.52198,-16.52736 36.52198,-36.84018 0,-9.50924 -3.58085,-18.53635 -10.08358,-25.41621 l 1.14649,-1.08326 c 6.78129,7.17347 10.51535,16.58522 10.51535,26.49947 0,21.18394 -17.092,38.41845 -38.10024,38.41845"
       inkscape:export-filename="/home/weliton/2-front.png"
       inkscape:export-xdpi="96"
       inkscape:export-ydpi="96" />
    <path
       inkscape:connector-curvature="0"
       id="path403"
       style="fill:#100f0d;fill-opacity:1;fill-rule:nonzero;stroke:none;stroke-width:1.0714649"
       d="m 102.74884,212.38557 c -9.352827,0 -16.961286,-7.67063 -16.961286,-17.09951 0,-9.42781 7.608459,-17.0995 16.961286,-17.0995 2.11293,0 4.17442,0.38679 6.12773,1.15074 l -0.57431,1.47005 c -1.77007,-0.69109 -3.63873,-1.04147 -5.55342,-1.04147 -8.481715,0 -15.383017,6.96238 -15.383017,15.52018 0,8.5578 6.901302,15.52124 15.383017,15.52124 8.48173,0 15.38303,-6.96344 15.38303,-15.52124 0,-3.19403 -0.95467,-6.26163 -2.75901,-8.87279 l 1.29752,-0.89789 c 1.98865,2.87579 3.03975,6.25413 3.03975,9.77068 0,9.42888 -7.60846,17.09951 -16.96129,17.09951"
       inkscape:export-filename="/home/weliton/2-front.png"
       inkscape:export-xdpi="96"
       inkscape:export-ydpi="96" />
    <path
       inkscape:connector-curvature="0"
       id="path407"
       style="fill:#100f0d;fill-opacity:1;fill-rule:nonzero;stroke:none;stroke-width:1.0714649"
       d="m 103.41784,196.46223 c 0.49073,0.39001 1.10039,0.56465 1.724,0.49288 0.6236,-0.0738 1.18076,-0.38789 1.57076,-0.88611 l 52.42895,-67.01798 c 0.37929,-0.48431 0.29674,-1.18825 -0.18314,-1.56969 l -3.47583,-2.76546 c -0.22931,-0.18314 -0.51754,-0.26575 -0.80362,-0.23022 -0.29036,0.0343 -0.55074,0.18102 -0.73395,0.41467 l -52.42896,67.01798 c -0.8068,1.03074 -0.63109,2.52867 0.39002,3.33976 z m 1.44433,2.08721 c -0.87858,0 -1.72718,-0.29583 -2.42793,-0.85289 l -1.51078,-1.20219 c -1.697197,-1.34895 -1.988617,-3.83905 -0.65036,-5.5491 l 52.42893,-67.018 c 0.44358,-0.56681 1.08004,-0.92465 1.79151,-1.0093 0.71143,-0.0814 1.41112,0.11693 1.97255,0.56249 l 3.47583,2.76546 c 1.15506,0.91933 1.35327,2.61331 0.44252,3.778 l -52.42895,67.01797 c -0.65036,0.83147 -1.58468,1.35755 -2.62829,1.48077 -0.15642,0.0182 -0.31074,0.0273 -0.46503,0.0273"
       inkscape:export-filename="/home/weliton/2-front.png"
       inkscape:export-xdpi="96"
       inkscape:export-ydpi="96" />
    <path
       inkscape:connector-curvature="0"
       id="path411"
       style="fill:#100f0d;fill-opacity:1;fill-rule:nonzero;stroke:none;stroke-width:1.0714649"
       d="m 133.52391,149.02578 -5.16875,-15.02624 c -0.21868,-0.63751 -0.10175,-1.33288 0.31287,-1.86218 l 18.8449,-24.08977 c 0.44897,-0.57428 1.17541,-0.85179 1.88685,-0.72216 0.71681,0.12848 1.30078,0.64183 1.52256,1.33933 l 4.64373,14.62338 -1.50433,0.47784 -4.64374,-14.62225 c -0.0644,-0.20137 -0.23052,-0.25179 -0.29795,-0.26455 -0.0847,-0.0152 -0.24115,-0.0152 -0.36322,0.14154 l -18.846,24.08974 c -0.0847,0.106 -0.10722,0.24753 -0.0632,0.37606 l 5.16875,15.02624 z"
       inkscape:export-filename="/home/weliton/2-front.png"
       inkscape:export-xdpi="96"
       inkscape:export-ydpi="96" />
    <path
       inkscape:connector-curvature="0"
       id="path415"
       style="fill:#100f0d;fill-opacity:1;fill-rule:nonzero;stroke:none;stroke-width:1.0714649"
       d="m 156.45999,156.57887 c -0.0534,0 -0.10813,-0.002 -0.1628,-0.006 l -15.79232,-1.4261 0.14154,-1.57185 15.79232,1.42506 c 0.0738,0.0152 0.15003,-0.0243 0.19711,-0.089 l 18.8385,-24.57621 c 0.0771,-0.0996 0.0514,-0.19711 0.0274,-0.24753 -0.0243,-0.0568 -0.0805,-0.12756 -0.19075,-0.13394 l -14.72944,-0.97182 0.10297,-1.57505 14.73051,0.97076 c 0.66429,0.044 1.24933,0.45 1.52467,1.0586 0.27761,0.61394 0.19712,1.32541 -0.21321,1.85899 l -18.8374,24.57727 c -0.34609,0.45 -0.87111,0.70716 -1.42935,0.70716"
       inkscape:export-filename="/home/weliton/2-front.png"
       inkscape:export-xdpi="96"
       inkscape:export-ydpi="96" />
  </g>
</svg>
