<?xml version="1.0" encoding="UTF-8" standalone="no"?>
<!-- Created with Inkscape (http://www.inkscape.org/) -->

<svg
   xmlns:dc="http://purl.org/dc/elements/1.1/"
   xmlns:cc="http://creativecommons.org/ns#"
   xmlns:rdf="http://www.w3.org/1999/02/22-rdf-syntax-ns#"
   xmlns:svg="http://www.w3.org/2000/svg"
   xmlns="http://www.w3.org/2000/svg"
   xmlns:sodipodi="http://sodipodi.sourceforge.net/DTD/sodipodi-0.dtd"
   xmlns:inkscape="http://www.inkscape.org/namespaces/inkscape"
   width="162"
   height="162"
   viewBox="0 0 42.862499 42.862499"
   version="1.1"
   id="svg8"
   inkscape:version="0.92.3 (2405546, 2018-03-11)"
   sodipodi:docname="problems-back.svg">
  <defs
     id="defs2" />
  <sodipodi:namedview
     id="base"
     pagecolor="#ffffff"
     bordercolor="#666666"
     borderopacity="1.0"
     inkscape:pageopacity="0.0"
     inkscape:pageshadow="2"
     inkscape:zoom="2.8"
     inkscape:cx="32.78293"
     inkscape:cy="141.73173"
     inkscape:document-units="mm"
     inkscape:current-layer="layer1"
     showgrid="false"
     inkscape:pagecheckerboard="true"
     inkscape:window-width="2560"
     inkscape:window-height="1012"
     inkscape:window-x="0"
     inkscape:window-y="0"
     inkscape:window-maximized="1"
     units="px" />
  <metadata
     id="metadata5">
    <rdf:RDF>
      <cc:Work
         rdf:about="">
        <dc:format>image/svg+xml</dc:format>
        <dc:type
           rdf:resource="http://purl.org/dc/dcmitype/StillImage" />
        <dc:title></dc:title>
      </cc:Work>
    </rdf:RDF>
  </metadata>
  <g
     inkscape:label="Camada 1"
     inkscape:groupmode="layer"
     id="layer1"
     transform="translate(0,-254.13751)">
    <g
       id="g1470"
       transform="matrix(3.9846787,0,0,3.9846787,-407.57351,19.134851)"
       inkscape:export-xdpi="96"
       inkscape:export-ydpi="96">
      <g
         transform="matrix(0.35277777,0,0,-0.35277777,112.98389,64.362635)"
         id="g1088">
        <path
           inkscape:connector-curvature="0"
           id="path1090"
           style="fill:#ed1c24;fill-opacity:1;fill-rule:nonzero;stroke:none"
           d="m 0,0 c 0,-8.327 -6.75,-15.077 -15.077,-15.077 -8.327,0 -15.078,6.75 -15.078,15.077 0,8.327 6.751,15.077 15.078,15.077 C -6.75,15.077 0,8.327 0,0" />
      </g>
      <g
         transform="matrix(0.35277777,0,0,-0.35277777,107.15985,62.921465)"
         id="g1092">
        <path
           inkscape:connector-curvature="0"
           id="path1094"
           style="fill:#f6e156;fill-opacity:1;fill-rule:nonzero;stroke:none"
           d="m 0,0 c -0.214,0.301 -0.631,0.372 -0.932,0.159 l -2.879,-2.042 c 0.671,-0.945 0.448,-2.255 -0.498,-2.926 -0.945,-0.67 -2.255,-0.447 -2.925,0.498 l -2.879,-2.041 c -0.301,-0.214 -0.372,-0.631 -0.159,-0.932 l 2.386,-3.364 c 0.104,0.564 0.436,1.086 0.973,1.413 0.897,0.548 2.093,0.33 2.741,-0.498 0.743,-0.95 0.536,-2.317 -0.437,-3.007 -0.465,-0.329 -1.017,-0.442 -1.538,-0.36 l 2.386,-3.365 c 0.213,-0.301 0.631,-0.372 0.931,-0.159 l 2.879,2.042 c -0.67,0.945 -0.447,2.255 0.498,2.926 0.946,0.67 2.256,0.447 2.926,-0.498 l 2.879,2.041 c 0.301,0.214 0.372,0.631 0.159,0.932 l -5.587,7.877 -0.512,0.723 z" />
      </g>
      <g
         transform="matrix(0.35277777,0,0,-0.35277777,109.11385,61.058735)"
         id="g1096">
        <path
           inkscape:connector-curvature="0"
           id="path1098"
           style="fill:#245486;fill-opacity:1;fill-rule:nonzero;stroke:none"
           d="m 0,0 c 0.035,0.367 -0.234,0.694 -0.601,0.729 l -3.513,0.338 c -0.111,-1.153 -1.136,-1.999 -2.29,-1.887 -1.154,0.111 -1.999,1.136 -1.888,2.29 l -3.513,0.338 c -0.367,0.035 -0.694,-0.234 -0.729,-0.601 l -0.395,-4.106 c 0.447,0.359 1.039,0.537 1.66,0.434 1.037,-0.173 1.799,-1.12 1.748,-2.17 -0.059,-1.205 -1.11,-2.103 -2.298,-1.989 -0.566,0.055 -1.057,0.33 -1.399,0.733 l -0.395,-4.106 c -0.035,-0.367 0.234,-0.694 0.601,-0.729 l 3.513,-0.338 c 0.111,1.153 1.136,1.999 2.29,1.888 1.154,-0.111 1.999,-1.137 1.888,-2.291 l 3.513,-0.338 c 0.367,-0.035 0.694,0.234 0.729,0.601 z" />
      </g>
      <g
         transform="matrix(0.35277777,0,0,-0.35277777,107.33677,62.916385)"
         id="g1100">
        <path
           inkscape:connector-curvature="0"
           id="path1102"
           style="fill:#245486;fill-opacity:1;fill-rule:nonzero;stroke:none"
           d="m 0,0 v -0.559 l 0.482,-0.12 0.125,0.592 z" />
      </g>
      <g
         transform="matrix(0.35277777,0,0,-0.35277777,105.89828,69.097615)"
         id="g1104">
        <path
           inkscape:connector-curvature="0"
           id="path1106"
           style="fill:#110f0d;fill-opacity:1;fill-rule:nonzero;stroke:none"
           d="m 0,0 c -0.26,0 -0.517,0.122 -0.679,0.35 l -2.61,3.68 0.382,-0.06 c 0.502,-0.078 1.005,0.04 1.418,0.332 0.436,0.31 0.718,0.771 0.796,1.3 0.077,0.528 -0.062,1.052 -0.393,1.474 -0.594,0.76 -1.705,0.962 -2.528,0.46 C -4.091,7.244 -4.41,6.781 -4.511,6.232 l -0.07,-0.38 -2.609,3.679 c -0.129,0.182 -0.179,0.402 -0.142,0.621 0.038,0.219 0.158,0.41 0.339,0.538 l 2.098,1.488 0.188,-0.266 -2.097,-1.488 C -7.031,10.263 -7.085,9.947 -6.924,9.72 l 2.185,-3.082 c 0.173,0.486 0.509,0.904 0.956,1.176 0.962,0.587 2.26,0.351 2.954,-0.537 C -0.443,6.784 -0.28,6.172 -0.37,5.555 -0.461,4.937 -0.791,4.398 -1.3,4.036 -1.684,3.764 -2.135,3.621 -2.598,3.62 L -0.413,0.539 C -0.252,0.312 0.063,0.258 0.291,0.419 L 3.042,2.37 C 2.759,2.834 2.654,3.379 2.746,3.921 c 0.102,0.595 0.429,1.116 0.922,1.465 0.973,0.69 2.309,0.5 3.055,-0.407 l 3.42,2.391 c 0.109,0.077 0.182,0.194 0.205,0.327 0.023,0.133 -0.008,0.266 -0.086,0.376 l -1.707,2.435 0.267,0.188 1.707,-2.435 C 10.657,8.081 10.707,7.861 10.67,7.642 10.633,7.423 10.512,7.232 10.331,7.103 L 6.649,4.529 6.555,4.661 C 5.938,5.532 4.728,5.737 3.856,5.12 3.435,4.821 3.155,4.376 3.068,3.866 2.981,3.356 3.098,2.844 3.397,2.422 L 3.491,2.289 0.479,0.153 C 0.334,0.05 0.166,0 0,0" />
      </g>
      <g
         transform="matrix(0.35277777,0,0,-0.35277777,107.38224,65.522285)"
         id="g1108">
        <path
           inkscape:connector-curvature="0"
           id="path1110"
           style="fill:#110f0d;fill-opacity:1;fill-rule:nonzero;stroke:none"
           d="M 0,0 -0.913,0.088 -0.897,0.25 C -0.848,0.765 -1.002,1.268 -1.331,1.667 -1.659,2.066 -2.124,2.313 -2.638,2.362 -3.154,2.411 -3.656,2.258 -4.055,1.929 -4.454,1.6 -4.701,1.136 -4.751,0.621 L -4.766,0.459 -8.442,0.813 C -8.663,0.834 -8.862,0.94 -9.003,1.112 -9.145,1.283 -9.211,1.499 -9.189,1.72 l 0.432,4.49 0.25,-0.295 c 0.328,-0.387 0.786,-0.627 1.29,-0.675 0.532,-0.051 1.047,0.113 1.451,0.462 0.404,0.35 0.641,0.837 0.668,1.372 0.047,0.964 -0.661,1.842 -1.612,2.001 -0.551,0.092 -1.095,-0.05 -1.531,-0.4 l -0.302,-0.241 0.433,4.49 c 0.044,0.456 0.451,0.792 0.907,0.748 l 3.675,-0.354 -0.016,-0.163 c -0.102,-1.062 0.679,-2.01 1.742,-2.112 0.516,-0.049 1.018,0.104 1.416,0.433 0.399,0.329 0.646,0.794 0.696,1.308 l 0.015,0.159 3.907,-0.287 -0.024,-0.325 -3.594,0.264 c -0.09,-0.538 -0.367,-1.02 -0.792,-1.371 -0.467,-0.384 -1.054,-0.563 -1.656,-0.505 -0.601,0.057 -1.144,0.346 -1.528,0.812 -0.35,0.424 -0.53,0.949 -0.516,1.493 l -3.357,0.323 C -7.51,13.373 -7.759,13.17 -7.786,12.892 l -0.362,-3.76 c 0.449,0.254 0.976,0.351 1.492,0.264 C -5.545,9.211 -4.717,8.184 -4.772,7.058 -4.803,6.433 -5.08,5.864 -5.552,5.455 -6.024,5.047 -6.628,4.854 -7.248,4.915 -7.717,4.96 -8.151,5.146 -8.503,5.449 L -8.865,1.689 C -8.878,1.554 -8.838,1.423 -8.752,1.319 -8.666,1.215 -8.545,1.151 -8.41,1.138 l 3.356,-0.324 c 0.09,0.537 0.367,1.018 0.791,1.367 0.466,0.384 1.054,0.565 1.656,0.506 0.601,-0.058 1.144,-0.347 1.528,-0.813 0.35,-0.424 0.53,-0.948 0.516,-1.492 L 0.031,0.325 Z" />
      </g>
      <g
         transform="matrix(0.35277777,0,0,-0.35277777,111.96983,63.004055)"
         id="g1112">
        path
           inkscape:connector-curvature=&quot;0&quot;
           id=&quot;path1114&quot;
           style=&quot;fill:#71c83b;fill-opacity:1;fill-rule:nonzero;stroke:none&quot;
           d=&quot;m 0,0 v 3.529 c 0,0.369 -0.299,0.668 -0.668,0.668 h -3.104 c -0.447,0 -0.766,0.431 -0.639,0.859 0.137,0.465 0.214,0.908 0.214,1.24 0,1.159 -0.94,2.099 -2.099,2.099 -1.159,0 -2.099,-0.94 -2.099,-2.099 0,-0.332 0.077,-0.775 0.214,-1.24 C -8.054,4.628 -8.374,4.197 -8.82,4.197 h -3.104 c -0.369,0 -0.668,-0.299 -0.668,-0.668 V 0 c 1.159,0 2.099,-0.939 2.099,-2.099 0,-1.159 -0.94,-2.098 -2.099,-2.098 v -3.53 c 0,-0.369 0.299,-0.668 0.668,-0.668 h 4.125 c -0.4,0.411 -0.634,0.984 -0.59,1.612 0.072,1.048 0.942,1.898 1.992,1.947 1.205,0.057 2.2,-0.903 2.2,-2.096 0,-0.569 -0.228,-1.085 -0.595,-1.463 h 4.124 c 0.369,0 0.668,0.299 0.668,0.668 v 3.53 c -1.159,0 -2.098,0.939 -2.098,2.098 C -2.099,-0.94 -1.159,0 0,0&quot; /&gt;
      </g>
      <g
         transform="matrix(0.35277777,0,0,-0.35277777,110.26175,66.176475)"
         id="g1116">
        <path
           inkscape:connector-curvature="0"
           id="path1118"
           style="fill:#110f0d;fill-opacity:1;fill-rule:nonzero;stroke:none"
           d="M 0,0 H 3.778 C 4.056,0 4.283,0.226 4.283,0.505 V 3.877 C 3.111,3.961 2.184,4.941 2.184,6.133 c 0,0.604 0.235,1.172 0.662,1.599 0.389,0.389 0.894,0.619 1.436,0.657 v 3.372 c 0,0.279 -0.226,0.505 -0.505,0.505 H 0.674 c -0.265,0 -0.507,0.121 -0.665,0.333 -0.159,0.212 -0.207,0.48 -0.131,0.735 0.133,0.453 0.207,0.877 0.207,1.194 0,1.067 -0.868,1.936 -1.936,1.936 -1.067,0 -1.935,-0.869 -1.935,-1.936 0,-0.316 0.073,-0.74 0.207,-1.194 0.075,-0.255 0.027,-0.523 -0.131,-0.735 -0.158,-0.212 -0.401,-0.333 -0.665,-0.333 h -3.104 c -0.278,0 -0.505,-0.226 -0.505,-0.505 V 8.389 c 1.172,-0.084 2.099,-1.064 2.099,-2.256 0,-1.192 -0.927,-2.172 -2.099,-2.256 V 0.505 C -7.984,0.226 -7.757,0 -7.479,0 H -3.7 c -0.297,0.422 -0.443,0.938 -0.407,1.459 0.078,1.125 1.021,2.047 2.147,2.1 0.626,0.029 1.219,-0.192 1.67,-0.623 C 0.162,2.505 0.411,1.924 0.411,1.299 0.411,0.829 0.267,0.379 0,0 m 3.778,-0.326 h -4.511 l 0.269,0.277 c 0.354,0.363 0.549,0.842 0.549,1.348 0,0.535 -0.213,1.032 -0.6,1.401 C -0.901,3.069 -1.409,3.258 -1.944,3.233 -2.908,3.188 -3.715,2.399 -3.781,1.437 -3.82,0.879 -3.626,0.351 -3.237,-0.049 l 0.27,-0.277 h -4.512 c -0.458,0 -0.831,0.373 -0.831,0.831 v 3.692 h 0.163 c 1.068,0 1.936,0.869 1.936,1.936 0,1.067 -0.868,1.935 -1.936,1.935 H -8.31 v 3.693 c 0,0.458 0.373,0.831 0.831,0.831 h 3.104 c 0.16,0 0.307,0.074 0.403,0.202 0.097,0.129 0.126,0.292 0.08,0.448 -0.142,0.483 -0.221,0.939 -0.221,1.286 0,1.247 1.015,2.262 2.262,2.262 1.247,0 2.262,-1.015 2.262,-2.262 0,-0.347 -0.078,-0.804 -0.221,-1.286 -0.045,-0.156 -0.016,-0.319 0.08,-0.448 0.096,-0.128 0.243,-0.202 0.404,-0.202 h 3.103 c 0.459,0 0.832,-0.373 0.832,-0.831 V 8.068 H 4.446 C 3.928,8.068 3.442,7.867 3.077,7.502 2.711,7.136 2.51,6.65 2.51,6.133 2.51,5.066 3.378,4.197 4.446,4.197 H 4.609 V 0.505 c 0,-0.458 -0.373,-0.831 -0.831,-0.831" />
      </g>
    </g>
  </g>
</svg>
