<?xml version="1.0" encoding="UTF-8" standalone="no"?>
<!-- Created with Inkscape (http://www.inkscape.org/) -->

<svg
   xmlns:dc="http://purl.org/dc/elements/1.1/"
   xmlns:cc="http://creativecommons.org/ns#"
   xmlns:rdf="http://www.w3.org/1999/02/22-rdf-syntax-ns#"
   xmlns:svg="http://www.w3.org/2000/svg"
   xmlns="http://www.w3.org/2000/svg"
   xmlns:sodipodi="http://sodipodi.sourceforge.net/DTD/sodipodi-0.dtd"
   xmlns:inkscape="http://www.inkscape.org/namespaces/inkscape"
   width="210mm"
   height="210mm"
   viewBox="0 0 210 210"
   version="1.1"
   id="svg8"
   inkscape:version="0.92.3 (2405546, 2018-03-11)"
   sodipodi:docname="problems-front.svg">
  <defs
     id="defs2" />
  <sodipodi:namedview
     id="base"
     pagecolor="#ffffff"
     bordercolor="#666666"
     borderopacity="1.0"
     inkscape:pageopacity="0.0"
     inkscape:pageshadow="2"
     inkscape:zoom="0.35"
     inkscape:cx="-21.145128"
     inkscape:cy="174.58308"
     inkscape:document-units="mm"
     inkscape:current-layer="layer1"
     showgrid="false"
     inkscape:pagecheckerboard="true"
     inkscape:window-width="1366"
     inkscape:window-height="700"
     inkscape:window-x="0"
     inkscape:window-y="0"
     inkscape:window-maximized="1" />
  <metadata
     id="metadata5">
    <rdf:RDF>
      <cc:Work
         rdf:about="">
        <dc:format>image/svg+xml</dc:format>
        <dc:type
           rdf:resource="http://purl.org/dc/dcmitype/StillImage" />
        <dc:title></dc:title>
      </cc:Work>
    </rdf:RDF>
  </metadata>
  <g
     inkscape:label="Camada 1"
     inkscape:groupmode="layer"
     id="layer1"
     transform="translate(0,-87)">
    <g
       id="g867"
       transform="translate(-49.136905,-15.875)">
      <g
         inkscape:export-ydpi="96"
         inkscape:export-xdpi="96"
         transform="matrix(1.0966995,0,0,-1.0966995,240.77113,208.17613)"
         id="g1056">
        <path
           inkscape:connector-curvature="0"
           id="path1058"
           style="fill:none;stroke:#ffffff;stroke-width:1;stroke-linecap:butt;stroke-linejoin:miter;stroke-miterlimit:10;stroke-dasharray:none;stroke-opacity:1"
           d="m 0,0 c 0,-43.779 -35.49,-79.269 -79.27,-79.269 -43.779,0 -79.269,35.49 -79.269,79.269 0,43.779 35.49,79.27 79.269,79.27 C -35.49,79.27 0,43.779 0,0 Z" />
      </g>
      <g
         inkscape:export-ydpi="96"
         inkscape:export-xdpi="96"
         transform="matrix(1.0966995,0,0,-1.0966995,145.58,184.62098)"
         id="g1060">
        <path
           inkscape:connector-curvature="0"
           id="path1062"
           style="fill:#f6e156;fill-opacity:1;fill-rule:nonzero;stroke:none"
           d="M 0,0 C -1.122,1.583 -3.315,1.956 -4.897,0.834 L -20.033,-9.899 c 3.525,-4.971 2.352,-11.858 -2.619,-15.383 -4.971,-3.525 -11.858,-2.353 -15.383,2.618 l -15.136,-10.733 c -1.583,-1.122 -1.956,-3.315 -0.834,-4.897 l 12.544,-17.689 c 0.546,2.963 2.291,5.708 5.115,7.431 4.718,2.878 11.006,1.733 14.411,-2.619 3.909,-4.996 2.816,-12.184 -2.298,-15.811 -2.442,-1.731 -5.344,-2.323 -8.084,-1.895 l 12.544,-17.689 c 1.122,-1.582 3.315,-1.956 4.897,-0.834 l 15.135,10.733 c -3.525,4.971 -2.352,11.859 2.619,15.384 4.971,3.524 11.858,2.353 15.383,-2.618 l 15.136,10.733 c 1.582,1.122 1.956,3.315 0.834,4.897 L 4.86,-6.854 l -2.694,3.8 z" />
      </g>
      <g
         inkscape:export-ydpi="96"
         inkscape:export-xdpi="96"
         transform="matrix(1.0966995,0,0,-1.0966995,177.51765,154.17586)"
         id="g1064">
        <path
           inkscape:connector-curvature="0"
           id="path1066"
           style="fill:#245486;fill-opacity:1;fill-rule:nonzero;stroke:none"
           d="m 0,0 c 0.186,1.931 -1.229,3.648 -3.16,3.833 l -18.469,1.779 c -0.584,-6.065 -5.975,-10.51 -12.041,-9.925 -6.066,0.584 -10.51,5.975 -9.926,12.04 l -18.469,1.779 c -1.931,0.185 -3.648,-1.229 -3.834,-3.16 l -2.079,-21.585 c 2.351,1.884 5.467,2.82 8.731,2.277 5.45,-0.908 9.459,-5.887 9.188,-11.406 -0.31,-6.336 -5.837,-11.059 -12.079,-10.458 -2.979,0.287 -5.562,1.737 -7.355,3.852 l -2.079,-21.585 c -0.186,-1.931 1.229,-3.647 3.16,-3.833 l 18.47,-1.779 c 0.584,6.066 5.974,10.51 12.041,9.925 6.066,-0.584 10.509,-5.975 9.925,-12.04 l 18.47,-1.778 c 1.93,-0.186 3.647,1.228 3.833,3.159 z" />
      </g>
      <g
         inkscape:export-ydpi="96"
         inkscape:export-xdpi="96"
         transform="matrix(1.0966995,0,0,-1.0966995,148.47202,184.53828)"
         id="g1068">
        <path
           inkscape:connector-curvature="0"
           id="path1070"
           style="fill:#245486;fill-opacity:1;fill-rule:nonzero;stroke:none"
           d="M 0,0 V -2.937 L 2.533,-3.572 3.19,-0.459 Z" />
      </g>
      <g
         inkscape:export-ydpi="96"
         inkscape:export-xdpi="96"
         transform="matrix(1.0966995,0,0,-1.0966995,124.96066,285.56746)"
         id="g1072">
        <path
           inkscape:connector-curvature="0"
           id="path1074"
           style="fill:#110f0d;fill-opacity:1;fill-rule:nonzero;stroke:none"
           d="m 0,0 c -1.37,0 -2.72,0.641 -3.571,1.842 l -13.719,19.344 2.007,-0.313 c 2.637,-0.412 5.286,0.211 7.455,1.748 2.292,1.626 3.776,4.052 4.183,6.832 0.406,2.779 -0.327,5.531 -2.063,7.751 -3.125,3.994 -8.964,5.055 -13.29,2.416 -2.51,-1.532 -4.186,-3.966 -4.719,-6.856 l -0.367,-1.997 -13.718,19.346 c -0.676,0.951 -0.94,2.11 -0.744,3.261 0.196,1.151 0.828,2.156 1.78,2.831 l 11.03,7.821 0.991,-1.398 -11.029,-7.821 c -1.194,-0.848 -1.476,-2.508 -0.63,-3.703 l 11.491,-16.203 c 0.908,2.556 2.675,4.751 5.022,6.183 5.058,3.086 11.881,1.844 15.533,-2.824 2.028,-2.591 2.884,-5.807 2.41,-9.055 -0.475,-3.249 -2.211,-6.084 -4.888,-7.982 -2.018,-1.431 -4.388,-2.183 -6.825,-2.189 L -2.172,2.833 C -1.325,1.641 0.333,1.358 1.529,2.203 L 15.99,12.458 c -1.486,2.444 -2.036,5.308 -1.552,8.157 0.534,3.131 2.255,5.867 4.846,7.704 5.117,3.627 12.141,2.626 16.06,-2.144 l 17.984,12.573 c 0.574,0.407 0.959,1.018 1.078,1.718 0.119,0.699 -0.041,1.402 -0.452,1.981 l -8.975,12.801 1.403,0.985 8.973,-12.798 c 0.674,-0.948 0.937,-2.106 0.742,-3.258 -0.196,-1.15 -0.829,-2.156 -1.782,-2.831 L 34.956,23.811 34.464,24.506 c -3.245,4.577 -9.608,5.659 -14.188,2.415 -2.218,-1.573 -3.69,-3.915 -4.147,-6.594 -0.456,-2.68 0.159,-5.377 1.731,-7.594 l 0.497,-0.7 L 2.521,0.804 C 1.755,0.261 0.874,0 0,0" />
      </g>
      <g
         inkscape:export-ydpi="96"
         inkscape:export-xdpi="96"
         transform="matrix(1.0966995,0,0,-1.0966995,149.21547,227.13049)"
         id="g1076">
        <path
           inkscape:connector-curvature="0"
           id="path1078"
           style="fill:#110f0d;fill-opacity:1;fill-rule:nonzero;stroke:none"
           d="m 0,0 -4.8,0.462 0.082,0.854 c 0.26,2.705 -0.549,5.35 -2.278,7.448 -1.729,2.097 -4.171,3.396 -6.876,3.656 -2.71,0.257 -5.352,-0.548 -7.45,-2.276 -2.096,-1.729 -3.395,-4.171 -3.656,-6.877 L -25.06,2.413 -44.383,4.274 c -1.162,0.112 -2.211,0.669 -2.954,1.57 -0.742,0.902 -1.089,2.037 -0.977,3.199 l 2.274,23.607 1.313,-1.55 c 1.726,-2.036 4.134,-3.298 6.782,-3.553 2.797,-0.265 5.507,0.595 7.632,2.432 2.125,1.837 3.371,4.399 3.509,7.215 0.249,5.064 -3.473,9.685 -8.473,10.517 -2.9,0.482 -5.76,-0.263 -8.053,-2.099 l -1.585,-1.271 2.274,23.606 c 0.231,2.399 2.372,4.164 4.769,3.932 l 19.322,-1.861 -0.082,-0.853 c -0.537,-5.586 3.57,-10.567 9.155,-11.105 2.715,-0.258 5.352,0.548 7.449,2.276 2.098,1.73 3.396,4.172 3.657,6.878 l 0.08,0.834 20.543,-1.506 -0.126,-1.71 -18.899,1.385 c -0.472,-2.828 -1.931,-5.362 -4.164,-7.204 -2.452,-2.02 -5.542,-2.964 -8.705,-2.659 -3.161,0.304 -6.015,1.821 -8.036,4.271 -1.837,2.23 -2.785,4.988 -2.712,7.847 l -17.646,1.7 c -1.45,0.137 -2.758,-0.932 -2.899,-2.389 l -1.903,-19.772 c 2.358,1.338 5.129,1.845 7.843,1.392 5.843,-0.973 10.194,-6.373 9.904,-12.293 -0.161,-3.289 -1.618,-6.282 -4.1,-8.428 -2.483,-2.147 -5.654,-3.161 -8.918,-2.842 -2.463,0.236 -4.747,1.218 -6.594,2.807 L -46.607,8.879 c -0.068,-0.706 0.143,-1.396 0.594,-1.943 0.451,-0.548 1.088,-0.887 1.794,-0.955 l 17.647,-1.699 c 0.474,2.821 1.931,5.348 4.16,7.185 2.451,2.021 5.541,2.971 8.704,2.66 3.161,-0.304 6.015,-1.822 8.036,-4.272 1.837,-2.229 2.785,-4.988 2.713,-7.847 L 0.164,1.707 Z" />
      </g>
      <g
         inkscape:export-ydpi="96"
         inkscape:export-xdpi="96"
         transform="matrix(1.0966995,0,0,-1.0966995,224.19721,185.97114)"
         id="g1080">
        <path
           inkscape:connector-curvature="0"
           id="path1082"
           style="fill:#71c83b;fill-opacity:1;fill-rule:nonzero;stroke:none"
           d="m 0,0 v 18.555 c 0,1.941 -1.573,3.513 -3.513,3.513 h -16.318 c -2.348,0 -4.027,2.261 -3.362,4.515 0.72,2.443 1.125,4.776 1.125,6.519 0,6.094 -4.94,11.035 -11.034,11.035 -6.094,0 -11.034,-4.94 -11.034,-11.035 0,-1.743 0.405,-4.076 1.125,-6.519 0.665,-2.254 -1.014,-4.515 -3.362,-4.515 h -16.318 c -1.94,0 -3.513,-1.572 -3.513,-3.513 V 0 c 6.094,0 11.034,-4.939 11.034,-11.034 0,-6.094 -4.94,-11.034 -11.034,-11.034 v -18.556 c 0,-1.94 1.573,-3.512 3.513,-3.512 h 21.685 c -2.101,2.159 -3.331,5.171 -3.102,8.471 0.38,5.513 4.952,9.98 10.473,10.24 6.336,0.298 11.567,-4.75 11.567,-11.021 0,-2.993 -1.196,-5.703 -3.13,-7.69 h 21.686 c 1.94,0 3.513,1.572 3.513,3.512 v 18.556 c -6.094,0 -11.034,4.94 -11.034,11.034 C -11.034,-4.94 -6.094,0 0,0" />
      </g>
      <g
         inkscape:export-ydpi="96"
         inkscape:export-xdpi="96"
         transform="matrix(1.0966995,0,0,-1.0966995,196.27855,237.82286)"
         id="g1084">
        <path
           inkscape:connector-curvature="0"
           id="path1086"
           style="fill:#110f0d;fill-opacity:1;fill-rule:nonzero;stroke:none"
           d="m 0,0 h 19.861 c 1.464,0 2.656,1.191 2.656,2.655 v 17.729 c -6.159,0.44 -11.035,5.591 -11.035,11.86 -10e-4,3.177 1.237,6.163 3.482,8.409 2.043,2.043 4.699,3.251 7.552,3.453 v 17.728 c 0,1.465 -1.192,2.655 -2.656,2.655 H 3.542 c -1.389,0 -2.662,0.639 -3.493,1.751 -0.835,1.116 -1.087,2.525 -0.692,3.864 0.703,2.383 1.09,4.612 1.09,6.277 0,5.612 -4.565,10.177 -10.176,10.177 -5.612,0 -10.177,-4.565 -10.177,-10.177 0,-1.662 0.387,-3.891 1.09,-6.277 0.396,-1.339 0.143,-2.748 -0.691,-3.865 -0.831,-1.111 -2.105,-1.75 -3.493,-1.75 h -16.318 c -1.464,0 -2.656,-1.19 -2.656,-2.655 V 44.105 c 6.159,-0.44 11.035,-5.592 11.035,-11.861 0,-6.269 -4.876,-11.42 -11.035,-11.86 V 2.655 C -41.974,1.191 -40.782,0 -39.318,0 h 19.865 c -1.559,2.22 -2.327,4.93 -2.138,7.674 0.408,5.909 5.366,10.757 11.289,11.036 3.287,0.155 6.406,-1.008 8.781,-3.272 C 0.854,13.171 2.162,10.115 2.162,6.832 2.162,4.359 1.405,1.991 0,0 M 19.861,-1.715 H -3.855 l 1.416,1.455 c 1.861,1.913 2.886,4.432 2.886,7.092 0,2.809 -1.119,5.425 -3.153,7.364 -2.032,1.94 -4.701,2.932 -7.516,2.801 -5.066,-0.238 -9.309,-4.386 -9.657,-9.442 -0.204,-2.934 0.813,-5.709 2.861,-7.815 l 1.417,-1.455 h -23.717 c -2.41,0 -4.371,1.96 -4.371,4.37 v 19.413 h 0.858 c 5.612,0 10.176,4.565 10.176,10.176 0,5.612 -4.564,10.177 -10.176,10.177 h -0.858 v 19.413 c 0,2.41 1.961,4.371 4.371,4.371 H -23 c 0.842,0 1.615,0.386 2.119,1.061 0.508,0.68 0.661,1.537 0.421,2.353 -0.749,2.539 -1.161,4.94 -1.161,6.762 0,6.557 5.334,11.892 11.892,11.892 6.557,0 11.891,-5.335 11.891,-11.892 0,-1.825 -0.412,-4.226 -1.16,-6.762 -0.241,-0.816 -0.087,-1.673 0.42,-2.353 0.505,-0.675 1.277,-1.061 2.12,-1.061 H 19.86 c 2.41,0 4.371,-1.961 4.371,-4.371 V 42.421 h -0.858 c -2.718,0 -5.274,-1.059 -7.196,-2.98 -1.922,-1.922 -2.979,-4.478 -2.979,-7.197 0,-5.611 4.564,-10.176 10.176,-10.176 h 0.858 V 2.655 c 0,-2.41 -1.961,-4.37 -4.371,-4.37" />
      </g>
    </g>
  </g>
</svg>
