<?xml version="1.0" encoding="UTF-8" standalone="no"?>
<!-- Created with Inkscape (http://www.inkscape.org/) -->

<svg
   xmlns:dc="http://purl.org/dc/elements/1.1/"
   xmlns:cc="http://creativecommons.org/ns#"
   xmlns:rdf="http://www.w3.org/1999/02/22-rdf-syntax-ns#"
   xmlns:svg="http://www.w3.org/2000/svg"
   xmlns="http://www.w3.org/2000/svg"
   xmlns:sodipodi="http://sodipodi.sourceforge.net/DTD/sodipodi-0.dtd"
   xmlns:inkscape="http://www.inkscape.org/namespaces/inkscape"
   width="210mm"
   height="210mm"
   viewBox="0 0 210 210"
   version="1.1"
   id="svg8"
   inkscape:version="0.92.3 (2405546, 2018-03-11)"
   sodipodi:docname="law-suit-front.svg">
  <defs
     id="defs2" />
  <sodipodi:namedview
     id="base"
     pagecolor="#ffffff"
     bordercolor="#666666"
     borderopacity="1.0"
     inkscape:pageopacity="0.0"
     inkscape:pageshadow="2"
     inkscape:zoom="0.35"
     inkscape:cx="50.238401"
     inkscape:cy="599.37817"
     inkscape:document-units="mm"
     inkscape:current-layer="layer1"
     showgrid="false"
     inkscape:pagecheckerboard="true"
     inkscape:window-width="1366"
     inkscape:window-height="700"
     inkscape:window-x="0"
     inkscape:window-y="0"
     inkscape:window-maximized="1" />
  <metadata
     id="metadata5">
    <rdf:RDF>
      <cc:Work
         rdf:about="">
        <dc:format>image/svg+xml</dc:format>
        <dc:type
           rdf:resource="http://purl.org/dc/dcmitype/StillImage" />
        <dc:title></dc:title>
      </cc:Work>
    </rdf:RDF>
  </metadata>
  <g
     inkscape:label="Camada 1"
     inkscape:groupmode="layer"
     id="layer1"
     transform="translate(0,-87)">
    <g
       id="g1177"
       transform="matrix(3.1087545,0,0,3.1087545,155.41639,-146.62463)">
      <g
         transform="matrix(0.35277777,0,0,-0.35277777,12.379777,108.2935)"
         id="g273">
        <path
           inkscape:connector-curvature="0"
           id="path275"
           style="fill:none;stroke:#ffffff;stroke-width:1;stroke-linecap:butt;stroke-linejoin:miter;stroke-miterlimit:10;stroke-dasharray:none;stroke-opacity:1"
           d="m 0,0 c 0,-43.779 -35.49,-79.269 -79.27,-79.269 -43.779,0 -79.269,35.49 -79.269,79.269 0,43.779 35.49,79.27 79.269,79.27 C -35.49,79.27 0,43.779 0,0 Z" />
      </g>
      <g
         transform="matrix(0.35277777,0,0,-0.35277777,2.7414297,103.51834)"
         id="g277">
        <path
           inkscape:connector-curvature="0"
           id="path279"
           style="fill:#4db396;fill-opacity:1;fill-rule:nonzero;stroke:none"
           d="m 0,0 h -4.633 c -1.182,4.39 -2.921,8.591 -5.189,12.529 l 3.274,3.274 c 1.205,1.205 1.869,2.81 1.869,4.513 0,1.706 -0.664,3.309 -1.869,4.516 l -10.453,10.454 c -2.411,2.408 -6.615,2.412 -9.03,0 l -3.274,-3.274 c -3.94,2.266 -8.138,4.004 -12.526,5.186 v 4.633 c 0,3.52 -2.863,6.383 -6.382,6.383 h -14.786 c -3.52,0 -6.382,-2.863 -6.382,-6.383 v -4.633 c -4.388,-1.182 -8.587,-2.92 -12.529,-5.189 l -3.275,3.274 c -2.412,2.415 -6.618,2.411 -9.029,0 L -104.667,24.83 c -1.206,-1.205 -1.869,-2.81 -1.869,-4.516 0,-1.704 0.663,-3.306 1.869,-4.514 l 3.274,-3.274 C -103.66,8.591 -105.4,4.39 -106.58,0 h -4.633 c -3.519,0 -6.383,-2.863 -6.383,-6.383 v -14.783 c 0,-3.522 2.864,-6.385 6.383,-6.385 h 4.633 c 1.183,-4.387 2.92,-8.586 5.189,-12.528 l -3.274,-3.274 c -1.206,-1.206 -1.869,-2.811 -1.869,-4.514 0,-1.706 0.663,-3.309 1.869,-4.516 l 10.454,-10.453 c 2.41,-2.413 6.616,-2.416 9.029,0 l 3.274,3.274 c 0,0 23.124,-18.259 52.606,0 l 3.274,-3.274 c 2.415,-2.416 6.616,-2.411 9.029,0 l 10.454,10.453 c 1.205,1.205 1.868,2.81 1.868,4.516 0,1.703 -0.663,3.306 -1.868,4.514 l -3.274,3.274 c 2.265,3.942 4.006,8.141 5.188,12.528 h 4.633 c 3.52,0 6.383,2.863 6.383,6.383 V -6.383 C 6.382,-2.863 3.52,0 0,0" />
      </g>
      <g
         transform="matrix(0.35277777,0,0,-0.35277777,3.9599594,103.9839)"
         id="g281">
        <path
           inkscape:connector-curvature="0"
           id="path283"
           style="fill:#3b9490;fill-opacity:1;fill-rule:nonzero;stroke:none"
           d="M 0,0 H -3.975 C -4.989,3.741 -6.48,7.321 -8.426,10.676 l 2.808,2.79 c 1.035,1.027 1.604,2.394 1.604,3.846 0,1.454 -0.569,2.819 -1.604,3.848 l -8.967,8.908 c -2.068,2.052 -5.675,2.056 -7.747,0 l -2.809,-2.79 c -3.38,1.931 -6.982,3.412 -10.746,4.42 v 3.948 c 0,2.999 -2.456,5.438 -5.475,5.438 h -12.684 c -3.02,0 -5.476,-2.439 -5.476,-5.438 v -3.948 c -3.764,-1.008 -7.367,-2.489 -10.748,-4.422 l -2.809,2.79 c -2.07,2.058 -5.678,2.054 -7.747,0 l -8.967,-8.908 c -1.034,-1.027 -1.603,-2.394 -1.603,-3.848 0,-1.451 0.569,-2.817 1.603,-3.846 l 2.809,-2.79 C -88.929,7.321 -90.421,3.741 -91.434,0 h -3.975 c -3.019,0 -5.475,-2.44 -5.475,-5.439 v -12.597 c 0,-3.001 2.456,-5.441 5.475,-5.441 h 3.975 c 1.015,-3.738 2.505,-7.317 4.452,-10.676 l -2.809,-2.79 c -1.034,-1.027 -1.604,-2.394 -1.604,-3.846 0,-1.453 0.57,-2.819 1.604,-3.848 l 8.968,-8.908 c 2.068,-2.056 5.676,-2.058 7.746,0 l 2.808,2.79 c 0,0 19.838,-15.558 45.131,0 l 2.808,-2.79 c 2.072,-2.058 5.677,-2.054 7.747,0 l 8.967,8.908 c 1.034,1.027 1.604,2.395 1.604,3.848 0,1.452 -0.57,2.817 -1.604,3.846 l -2.808,2.79 c 1.944,3.359 3.437,6.938 4.451,10.676 h 3.975 c 3.019,0 5.476,2.44 5.476,5.439 V -5.439 C 5.475,-2.44 3.019,0 0,0" />
      </g>
      <g
         transform="matrix(0.35277777,0,0,-0.35277777,-9.2058128,118.54999)"
         id="g285">
        <path
           inkscape:connector-curvature="0"
           id="path287"
           style="fill:#f6e156;fill-opacity:1;fill-rule:nonzero;stroke:none"
           d="m 0,0 c -1.08,-0.62 -1.745,-1.77 -1.745,-3.016 v -3.449 -6.955 -1.042 -1.865 c 0,-7.024 -5.714,-12.738 -12.738,-12.738 -7.024,0 -12.738,5.715 -12.738,12.738 v 1.866 c 0,0 0,0 0,0 v 1.041 6.955 3.45 c 0,1.245 -0.665,2.395 -1.745,3.015 -9.03,5.188 -14.639,14.871 -14.639,25.272 0,16.058 13.064,29.123 29.123,29.123 C 1.576,54.395 14.64,41.33 14.64,25.272 14.64,14.871 9.03,5.187 0,0 m 21.594,25.272 c 0,19.893 -16.184,36.077 -36.077,36.077 -19.893,0 -36.078,-16.184 -36.078,-36.077 0,-12.199 6.229,-23.602 16.384,-30.233 v -7.013 -4.353 c 0,-0.227 0.027,-0.447 0.034,-0.672 0.359,-10.546 9.028,-19.02 19.66,-19.02 10.63,0 19.298,8.473 19.658,19.018 0.008,0.226 0.034,0.447 0.034,0.674 v 4.351 2.033 c 0,0.002 0,4.982 0,4.982 10.157,6.631 16.385,18.033 16.385,30.233" />
      </g>
      <g
         transform="matrix(0.35277777,0,0,-0.35277777,-2.3383585,109.29797)"
         id="g289">
        <path
           inkscape:connector-curvature="0"
           id="path291"
           style="fill:#f6e156;fill-opacity:1;fill-rule:nonzero;stroke:none"
           d="m 0,0 c 0,-17.265 -14.918,-31.26 -33.32,-31.26 -18.402,0 -33.32,13.995 -33.32,31.26 0,17.265 14.918,31.26 33.32,31.26 C -14.918,31.26 0,17.265 0,0" />
      </g>
      <g
         transform="matrix(0.35277777,0,0,-0.35277777,-17.469032,119.25494)"
         id="g293">
        <path
           inkscape:connector-curvature="0"
           id="path295"
           style="fill:#f6e156;fill-opacity:1;fill-rule:nonzero;stroke:none"
           d="m 0,0 c 1.358,-5.696 2.717,-11.391 4.076,-17.087 -0.763,6.702 -2.493,13.292 -5.118,19.505 -1.894,-4.189 -3.787,-8.378 -5.68,-12.567 1.302,4.181 2.603,8.362 3.905,12.543 -0.058,-6.792 -0.628,-13.58 -1.703,-20.288 0.628,5.082 1.733,10.105 3.295,14.982 -0.403,-4.385 -0.807,-8.769 -1.211,-13.154 -0.226,-2.454 -0.444,-4.985 0.296,-7.336 1.214,6.86 2.497,13.909 6.174,19.827 -0.439,-6.977 -0.878,-13.954 -1.317,-20.93 -0.631,1.368 -0.98,2.864 -1.022,4.369 -0.02,-1.267 -0.041,-2.534 -0.061,-3.801 2.305,6.858 3.673,14.031 4.053,21.256 0.079,-5.569 -0.444,-11.146 -1.558,-16.602 0.834,6.469 1.11,13.011 0.826,19.527 0.767,-3.614 1.534,-7.229 2.301,-10.844 0.64,3.116 1.28,6.231 1.919,9.346 l 1.505,-3.261 c 0.255,1.319 0.717,2.598 1.364,3.775 0.347,-2.433 0.695,-4.865 1.042,-7.298 1.418,0.855 2.517,2.225 3.043,3.795 0.426,-0.422 0.851,-0.843 1.277,-1.265 0.989,1.827 1.813,3.742 2.459,5.716 0.36,-1.004 0.721,-2.007 1.081,-3.011 0.966,1.73 1.931,3.46 2.897,5.19 -0.979,-2.353 -1.958,-4.705 -2.937,-7.058 5.955,7.575 11.45,15.511 16.445,23.751 2.458,4.056 4.816,9.214 2.396,13.293 -1.36,-2.642 -2.112,-5.595 -2.182,-8.565 1.209,4.897 -0.285,10.011 -1.768,14.833 -1.148,3.731 -2.408,7.647 -5.278,10.294 -2.025,1.869 -4.657,2.912 -7.224,3.915 -3.012,1.178 -6.043,2.361 -9.212,3.007 -11.878,2.42 -25.127,-3.946 -30.214,-14.949 -1.194,-2.582 -1.958,-5.338 -2.717,-8.08 -0.701,-2.537 -1.397,-5.278 -0.477,-7.744 0.648,-1.736 2.013,-3.086 3.105,-4.583 1.093,-1.496 1.954,-3.404 1.382,-5.167 -2.498,0.4 -4.584,2.629 -4.817,5.148 2.614,-3.267 3.832,-7.397 5.638,-11.171 1.806,-3.773 4.605,-7.506 8.673,-8.482 -0.717,1.376 -1.89,2.51 -3.29,3.179 5.159,-6.163 10.973,-11.778 17.312,-16.719 0.243,1.515 0.487,3.031 0.731,4.547 0.723,-1.803 1.201,-3.704 1.414,-5.634 0.162,2.92 0.323,5.84 0.485,8.76 1.572,-4.085 3.144,-8.17 4.716,-12.254 0.503,3.737 1.036,7.471 1.601,11.199 1.271,-2.034 2.128,-4.326 2.505,-6.695 0.097,2.091 0.414,4.171 0.944,6.196 1.353,-4.045 0.31,-8.656 -2.14,-12.147 -2.45,-3.492 -6.164,-5.947 -10.13,-7.518 2.7,2.526 5.401,5.052 8.102,7.578 0.279,0.261 0.568,0.529 0.926,0.664 1.379,0.521 2.654,-1.406 2.147,-2.791 -0.508,-1.385 -1.963,-2.149 -3.319,-2.73 -2.489,-1.065 -5.064,-1.948 -7.719,-2.483 -2.014,-0.406 -4.48,-0.445 -5.7,1.209 2.202,2.993 3.859,6.387 4.864,9.965 -0.615,-2.599 -1.229,-5.197 -1.844,-7.795 1.406,2.561 2.811,5.122 4.216,7.684 -0.224,-1.956 -0.448,-3.913 -0.671,-5.869 1.04,1.123 2.081,2.245 3.122,3.367 -0.663,-3.01 -3.086,-5.563 -6.058,-6.382 3.165,3.211 5.263,7.456 5.893,11.92 l -0.555,-5.856 c -1.079,2.895 -2.158,5.79 -3.236,8.685" />
      </g>
      <g
         transform="matrix(0.35277777,0,0,-0.35277777,-20.223909,119.35534)"
         id="g297">
        <path
           inkscape:connector-curvature="0"
           id="path299"
           style="fill:#f6e156;fill-opacity:1;fill-rule:nonzero;stroke:none"
           d="m 0,0 c 2.182,-3.639 3.255,-8.028 5.058,-11.883 1.044,-2.231 5.119,-1.22 4.794,1.298 C 9.258,-5.986 8.032,0.505 3.999,3.343 1.691,4.967 -0.505,1.913 0.479,-0.177 0.92,-1.115 1.362,-2.054 1.804,-2.992 3.213,-5.986 7.65,-3.377 6.247,-0.395 5.805,0.543 5.363,1.482 4.921,2.42 3.748,1.247 2.575,0.074 1.401,-1.099 2.569,-1.921 2.956,-4.087 3.369,-5.33 c 0.568,-1.71 1.106,-3.462 1.338,-5.255 1.598,0.433 3.196,0.866 4.794,1.299 C 7.69,-5.417 6.64,-1.068 4.443,2.597 2.742,5.434 -1.708,2.85 0,0" />
      </g>
      <g
         transform="matrix(0.35277777,0,0,-0.35277777,-7.3678406,122.13516)"
         id="g301">
        <path
           inkscape:connector-curvature="0"
           id="path303"
           style="fill:#a7a7a5;fill-opacity:1;fill-rule:nonzero;stroke:none"
           d="M 0,0 H -39.386 V -1.442 -5.41 -9.083 c 0,-0.191 0.027,-0.377 0.034,-0.567 0.359,-8.898 9.027,-16.048 19.659,-16.048 10.631,0 19.299,7.149 19.659,16.046 C -0.026,-9.461 0,-9.275 0,-9.083 v 3.671 1.716 3.694 c 0,0 0,0 0,0 z" />
      </g>
      <g
         transform="matrix(0.35277777,0,0,-0.35277777,-7.6756745,117.65255)"
         id="g305">
        <path
           inkscape:connector-curvature="0"
           id="path307"
           style="fill:#f1a644;fill-opacity:1;fill-rule:nonzero;stroke:none"
           d="m 0,0 c -0.863,-0.496 -1.395,-1.415 -1.395,-2.41 v -2.757 -5.557 -0.833 -1.49 c 0,-5.613 -4.566,-10.18 -10.179,-10.18 -5.613,0 -10.179,4.567 -10.179,10.18 v 1.491 c 0,0 0,0 0,0 v 0.832 5.557 2.757 c 0,0.995 -0.532,1.914 -1.394,2.41 -7.217,4.146 -11.699,11.884 -11.699,20.196 0,12.832 10.44,23.273 23.273,23.273 C 1.259,43.469 11.7,33.029 11.7,20.196 11.699,11.884 7.216,4.145 0,0 m 17.257,20.196 c 0,15.897 -12.934,28.831 -28.831,28.831 -15.898,0 -28.831,-12.934 -28.831,-28.831 0,-9.749 4.978,-18.861 13.093,-24.16 v -5.605 -3.478 c 0,-0.182 0.021,-0.358 0.027,-0.538 0.287,-8.427 7.214,-15.199 15.711,-15.199 8.495,0 15.422,6.771 15.71,15.198 0.006,0.18 0.027,0.357 0.027,0.539 v 3.477 1.624 3.982 c 8.116,5.299 13.094,14.41 13.094,24.16" />
      </g>
      <g
         transform="matrix(0.35277777,0,0,-0.35277777,-2.1876166,110.25893)"
         id="g309">
        <path
           inkscape:connector-curvature="0"
           id="path311"
           style="fill:#f1a644;fill-opacity:1;fill-rule:nonzero;stroke:none"
           d="m 0,0 c 0,-13.797 -11.921,-24.981 -26.627,-24.981 -14.706,0 -26.627,11.184 -26.627,24.981 0,13.797 11.921,24.981 26.627,24.981 C -11.921,24.981 0,13.797 0,0" />
      </g>
      <g
         transform="matrix(0.35277777,0,0,-0.35277777,-14.279039,118.21594)"
         id="g313">
        path
           inkscape:connector-curvature=&quot;0&quot;
           id=&quot;path315&quot;
           style=&quot;fill:#f1a644;fill-opacity:1;fill-rule:nonzero;stroke:none&quot;
           d=&quot;M 0,0 C 1.085,-4.552 2.171,-9.103 3.257,-13.655 2.647,-8.299 1.265,-3.032 -0.833,1.932 -2.346,-1.415 -3.859,-4.763 -5.372,-8.11 l 3.121,10.023 c -0.047,-5.428 -0.502,-10.852 -1.361,-16.212 0.502,4.061 1.384,8.075 2.633,11.972 -0.322,-3.504 -0.645,-7.008 -0.967,-10.512 -0.181,-1.961 -0.355,-3.984 0.236,-5.862 0.97,5.482 1.995,11.115 4.934,15.844 -0.351,-5.575 -0.702,-11.151 -1.053,-16.726 -0.504,1.093 -0.783,2.289 -0.817,3.492 -0.016,-1.013 -0.032,-2.025 -0.049,-3.038 1.842,5.481 2.936,11.213 3.24,16.987 0.063,-4.45 -0.355,-8.907 -1.245,-13.268 0.666,5.17 0.887,10.397 0.659,15.605 0.614,-2.888 1.227,-5.777 1.84,-8.666 l 1.534,7.469 c 0.4,-0.869 0.801,-1.737 1.201,-2.606 0.204,1.054 0.573,2.076 1.091,3.017 0.277,-1.944 0.555,-3.889 0.833,-5.833 1.132,0.684 2.01,1.779 2.431,3.033 0.34,-0.337 0.681,-0.674 1.021,-1.01 0.79,1.459 1.448,2.99 1.965,4.567 l 0.864,-2.406 c 0.772,1.383 1.543,2.765 2.315,4.148 -0.783,-1.881 -1.565,-3.761 -2.347,-5.641 4.758,6.054 9.149,12.396 13.141,18.981 1.965,3.241 3.849,7.363 1.915,10.623 -1.087,-2.112 -1.687,-4.471 -1.743,-6.845 0.966,3.913 -0.228,8 -1.413,11.853 -0.918,2.982 -1.924,6.112 -4.218,8.227 -1.619,1.493 -3.722,2.327 -5.773,3.129 -2.408,0.941 -4.829,1.886 -7.363,2.402 -9.491,1.934 -20.079,-3.153 -24.145,-11.946 -0.953,-2.064 -1.564,-4.266 -2.17,-6.457 -0.561,-2.027 -1.117,-4.218 -0.381,-6.189 0.517,-1.387 1.608,-2.466 2.481,-3.662 0.873,-1.195 1.562,-2.72 1.104,-4.129 -1.996,0.319 -3.663,2.101 -3.849,4.114 2.089,-2.611 3.062,-5.911 4.505,-8.927 1.444,-3.016 3.681,-5.998 6.931,-6.778 -0.573,1.099 -1.51,2.005 -2.628,2.54 4.122,-4.925 8.768,-9.412 13.834,-13.361 0.194,1.211 0.389,2.422 0.584,3.633 0.578,-1.44 0.96,-2.959 1.13,-4.502 0.129,2.334 0.259,4.667 0.388,7.001 1.256,-3.265 2.512,-6.529 3.769,-9.793 0.401,2.987 0.827,5.97 1.279,8.95 1.015,-1.626 1.7,-3.457 2.002,-5.35 0.077,1.671 0.33,3.333 0.754,4.951 1.081,-3.232 0.248,-6.917 -1.71,-9.707 -1.958,-2.79 -4.926,-4.753 -8.095,-6.008 2.158,2.019 4.316,4.037 6.474,6.056 0.223,0.209 0.454,0.422 0.74,0.53 1.103,0.417 2.121,-1.123 1.715,-2.229 -0.405,-1.107 -1.568,-1.718 -2.652,-2.182 -1.989,-0.852 -4.047,-1.557 -6.167,-1.985 -1.611,-0.324 -3.581,-0.355 -4.556,0.966 1.76,2.393 3.083,5.104 3.887,7.963 l -1.474,-6.229 c 1.123,2.047 2.247,4.094 3.37,6.141 -0.18,-1.563 -0.358,-3.127 -0.537,-4.69 0.831,0.897 1.664,1.794 2.496,2.691 -0.531,-2.406 -2.467,-4.446 -4.842,-5.1 2.529,2.566 4.206,5.958 4.709,9.525 -0.148,-1.559 -0.296,-3.119 -0.444,-4.679 -0.861,2.313 -1.723,4.627 -2.586,6.94&quot; /&gt;
      </g>
      <g
         transform="matrix(0.35277777,0,0,-0.35277777,-16.472541,116.29697)"
         id="g317">
        <path
           inkscape:connector-curvature="0"
           id="path319"
           style="fill:#f1a644;fill-opacity:1;fill-rule:nonzero;stroke:none"
           d="M 0,0 C 0.527,-2.249 1.704,-4.342 3.35,-5.963 2.503,-3.077 0.822,-0.442 -1.438,1.542 0.711,-4.765 3.309,-10.92 6.33,-16.859 6.763,-11.554 7.605,-6.282 8.846,-1.106 8.774,-5.518 8.704,-9.93 8.632,-14.342 7.381,-10.224 5.415,-6.325 2.846,-2.873 1.734,-6.5 2.147,-10.569 3.967,-13.899 c 0.998,4.399 1.579,8.892 1.732,13.4 -1.24,-3.39 -2.313,-6.841 -3.213,-10.337 -0.334,-1.296 -0.647,-2.628 -0.52,-3.961 0.347,-3.644 3.877,-6.588 3.595,-10.238 -1.192,2.204 -0.838,5.142 0.844,7 0.597,-2.833 1.596,-5.581 2.955,-8.137 0.552,3.485 0.919,6.999 1.1,10.522 1.019,-2.709 1.424,-5.646 1.178,-8.529 0.385,4.013 0.177,8.084 -0.616,12.037 -1.241,-2.267 -1.886,-4.857 -1.853,-7.441 1.242,4.183 2.483,8.366 3.725,12.549 0.323,-2.19 0.523,-4.398 0.599,-6.61 -0.062,2.902 0.114,5.81 0.525,8.683 -0.355,-2.419 -0.851,-4.818 -1.485,-7.179 0.106,2.333 0.213,4.666 0.32,7 -0.366,-2.812 -0.731,-5.623 -1.097,-8.434 -0.243,3.316 -0.685,6.617 -1.321,9.88 -0.441,-2.908 -0.395,-5.889 0.136,-8.782 l 3.416,6.828 c 0.473,-2.312 0.947,-4.624 1.42,-6.936 1.168,3.114 2.336,6.228 3.504,9.342 0.169,-3.675 0.109,-7.361 -0.18,-11.029 l 2.643,8.015 c 0.427,-1.088 0.854,-2.176 1.281,-3.264 0.7,2.323 1.4,4.646 2.099,6.969 -0.436,-1.987 -0.742,-4.003 -0.915,-6.03 1.577,3.661 5.66,5.605 7.79,8.973 1.345,2.126 1.82,4.669 2.268,7.144 -1.172,-3.587 -2.972,-6.968 -5.294,-9.942 -1.197,-1.534 -2.544,-2.979 -3.421,-4.716 -1.155,-2.285 -1.413,-4.905 -1.624,-7.457 -0.211,-2.552 -0.409,-5.167 -1.462,-7.501 -1.053,-2.334 -3.163,-4.37 -5.716,-4.573 -2.542,-0.201 -5.494,1.298 -7.428,-0.365 5.485,2.29 9.22,8.228 8.909,14.164 -1.624,-2.617 -2.838,-5.487 -3.585,-8.475 -0.202,1.863 -0.404,3.726 -0.607,5.59 -0.092,-2.239 0.222,-4.493 0.921,-6.621 2.07,3.357 3.323,7.141 4.558,10.885 0.568,-3.812 0.508,-7.716 -0.177,-11.509 -1.03,0.218 -2.127,0.106 -3.092,-0.316 0.413,0.744 1.073,1.349 1.85,1.696 0.354,-0.661 0.543,-1.409 0.548,-2.158 4.266,4.226 4.722,10.856 4.917,16.857 -0.744,-2.615 -1.487,-5.231 -2.231,-7.847 -1.589,0.651 -1.861,2.841 -1.365,4.484 0.496,1.644 1.501,3.163 1.581,4.878" />
      </g>
      <g
         transform="matrix(0.35277777,0,0,-0.35277777,-12.710519,122.06439)"
         id="g321">
        <path
           inkscape:connector-curvature="0"
           id="path323"
           style="fill:#f1a644;fill-opacity:1;fill-rule:nonzero;stroke:none"
           d="m 0,0 c 2.263,2.643 3.456,5.521 1.586,8.734 -0.963,1.656 -3.486,1.683 -4.443,0 -1.741,-3.062 -2.398,-8.615 2.123,-9.662 4.931,-1.141 6.305,5.761 6.592,9.182 0.203,2.399 -2.86,3.154 -4.391,1.819 C -1.008,7.915 -2.592,-0.766 1.394,-2.297 6.611,-4.301 8.431,5.812 8.873,8.872 9.297,11.82 5.994,13.215 4.17,10.855 2.229,8.342 -0.941,2.016 3.356,0.04 7.588,-1.907 10.648,3.674 11.936,6.717 10.368,6.922 8.801,7.127 7.233,7.332 7.728,4.533 8.47,1.879 9.501,-0.771 c 0.658,-1.69 2.873,-2.686 4.3,-1.135 2.132,2.316 2.57,5.131 2.675,8.199 0.138,4.064 -1.865,6.502 -2.87,10.223 -0.873,3.235 -5.57,1.849 -4.961,-1.367 0.438,-2.314 1.15,-4.386 2.089,-6.529 1.481,0.866 2.962,1.732 4.443,2.597 -0.697,-1.5 -0.401,-1.958 0.889,-1.372 0.464,0.113 0.913,0.267 1.347,0.461 1.143,0.459 2.123,1.148 3.118,1.859 2.672,1.908 0.106,6.372 -2.596,4.443 C 15.039,14.54 7.924,13.929 10.734,8.62 c 1.581,-2.987 5.741,-0.362 4.443,2.597 -0.783,1.786 -1.214,3.412 -1.571,5.299 L 8.645,15.149 C 9.702,11.234 13.765,5.646 10.163,1.732 11.596,1.354 13.03,0.975 14.463,0.597 13.433,3.245 12.689,5.9 12.195,8.7 11.831,10.763 8.343,11.324 7.493,9.314 7.348,8.972 5.335,4.934 5.189,5.041 L 6.463,2.819 C 6.264,4.915 7.389,6.673 8.613,8.258 L 3.911,10.24 C 3.75,9.126 1.703,2.985 2.761,2.664 3.36,2.065 3.959,1.466 4.558,0.867 4.147,2.152 4.063,5.526 5.105,6.435 3.641,7.041 2.177,7.647 0.713,8.254 0.659,6.792 0.295,5.413 -0.379,4.115 0.999,3.809 1.654,4.483 1.586,6.137 H -2.857 C -2.488,5.118 -2.749,4.285 -3.638,3.638 -5.781,1.136 -2.158,-2.52 0,0" />
      </g>
      <g
         transform="matrix(0.35277777,0,0,-0.35277777,-6.2583546,122.25084)"
         id="g325">
        <path
           inkscape:connector-curvature="0"
           id="path327"
           style="fill:#7a7b7d;fill-opacity:1;fill-rule:nonzero;stroke:none"
           d="m 0,0 h -31.242 v -1.144 -3.147 -2.914 c 0,-0.152 0.021,-0.299 0.027,-0.45 0.285,-7.058 7.161,-12.729 15.594,-12.729 8.433,0 15.309,5.671 15.594,12.728 C -0.021,-7.505 0,-7.357 0,-7.205 v 2.912 1.361 2.931 c 0,0 0,0 0,0 z" />
      </g>
      <g
         transform="matrix(0.35277777,0,0,-0.35277777,-10.615372,124.32852)"
         id="g329">
        <path
           inkscape:connector-curvature="0"
           id="path331"
           style="fill:#110f0d;fill-opacity:1;fill-rule:nonzero;stroke:none"
           d="m 0,0 h -1.715 v 11.445 c 0,1.548 0.833,2.988 2.176,3.76 8.764,5.034 14.209,14.432 14.209,24.528 0,15.585 -12.679,28.265 -28.265,28.265 -15.585,0 -28.265,-12.68 -28.265,-28.265 0,-10.094 5.444,-19.493 14.209,-24.528 1.342,-0.772 2.175,-2.212 2.175,-3.76 V 0 h -1.715 v 11.445 c 0,0.936 -0.503,1.807 -1.314,2.272 -9.296,5.341 -15.07,15.309 -15.07,26.016 0,16.531 13.449,29.98 29.98,29.98 16.531,0 29.981,-13.449 29.981,-29.98 C 16.385,29.025 10.61,19.057 1.315,13.717 0.504,13.251 0,12.381 0,11.445 Z" />
      </g>
      <g
         transform="matrix(0.35277777,0,0,-0.35277777,-15.411632,129.78282)"
         id="g333">
        <path
           inkscape:connector-curvature="0"
           id="path335"
           style="fill:#110f0d;fill-opacity:1;fill-rule:nonzero;stroke:none"
           d="m 0,0 c -7.496,0 -13.595,6.099 -13.595,13.595 v 1.866 h 1.715 v -1.866 c 0,-6.55 5.329,-11.88 11.88,-11.88 6.551,0 11.881,5.33 11.881,11.88 v 1.865 h 1.715 V 13.595 C 13.596,6.099 7.497,0 0,0" />
      </g>
      <g
         transform="matrix(0.35277777,0,0,-0.35277777,-3.5582641,126.0964)"
         id="g337">
        path
           inkscape:connector-curvature=&quot;0&quot;
           id=&quot;path339&quot;
           style=&quot;fill:#110f0d;fill-opacity:1;fill-rule:nonzero;stroke:none&quot;
           d=&quot;M 0,0 H -0.002 C -0.709,0.001 -1.375,0.276 -1.873,0.777 L -7.22,6.124 -8.189,5.521 c -1.213,-0.756 -2.442,-1.175 -3.63,-1.582 -0.723,-0.246 -1.456,-0.495 -2.199,-0.828 l -0.702,1.565 c 0.805,0.36 1.589,0.628 2.346,0.887 1.148,0.391 2.231,0.761 3.278,1.413 L -6.97,8.3 -0.659,1.989 C -0.483,1.812 -0.25,1.715 -0.001,1.715 H 0 c 0.25,0 0.486,0.097 0.662,0.274 l 10.454,10.454 c 0.177,0.176 0.274,0.409 0.274,0.659 0,0.25 -0.097,0.486 -0.274,0.662 l -6.311,6.311 1.324,2.126 c 2.734,4.394 4.717,9.182 5.892,14.231 l 0.567,2.437 h 8.929 c 0.514,0 0.932,0.419 0.932,0.933 v 14.786 c 0,0.514 -0.418,0.933 -0.932,0.933 h -8.929 l -0.567,2.438 C 10.848,63.008 8.866,67.796 6.129,72.19 l -1.324,2.125 6.311,6.31 c 0.177,0.177 0.274,0.411 0.274,0.66 0,0.251 -0.097,0.486 -0.274,0.663 L 0.662,92.401 C 0.486,92.578 0.253,92.675 0.003,92.675 H 0.002 c -0.249,0 -0.484,-0.097 -0.661,-0.274 l -6.311,-6.31 -2.126,1.324 c -4.393,2.732 -9.18,4.715 -14.23,5.892 l -2.438,0.567 v 8.928 c 0,0.514 -0.42,0.933 -0.936,0.933 h -14.783 c -0.514,0 -0.933,-0.419 -0.933,-0.933 v -8.928 l -2.438,-0.567 c -5.045,-1.173 -9.834,-3.156 -14.23,-5.892 l -2.126,-1.324 -6.311,6.31 c -0.177,0.177 -0.411,0.274 -0.659,0.274 h -10e-4 c -0.25,0 -0.485,-0.097 -0.661,-0.274 L -79.295,81.948 c -0.178,-0.177 -0.274,-0.41 -0.275,-0.659 0,-0.251 0.097,-0.486 0.275,-0.664 l 6.31,-6.31 -1.325,-2.125 c -2.733,-4.393 -4.716,-9.181 -5.892,-14.231 l -0.567,-2.438 h -8.928 c -0.514,0 -0.932,-0.419 -0.932,-0.933 V 39.802 c 0,-0.514 0.418,-0.933 0.932,-0.933 h 8.928 l 0.567,-2.437 c 1.174,-5.046 3.156,-9.835 5.892,-14.231 l 1.325,-2.126 -6.31,-6.311 c -0.178,-0.176 -0.274,-0.41 -0.275,-0.659 0,-0.25 0.097,-0.485 0.275,-0.661 L -68.843,1.989 c 0.177,-0.177 0.411,-0.274 0.66,-0.274 h 0.001 c 0.25,0 0.484,0.097 0.66,0.274 l 6.312,6.311 2.126,-1.324 c 1.293,-0.804 2.63,-1.369 4.046,-1.966 0.531,-0.225 1.066,-0.451 1.605,-0.692 l -0.701,-1.566 c -0.527,0.236 -1.052,0.458 -1.572,0.677 -1.415,0.597 -2.877,1.216 -4.285,2.092 L -60.96,6.124 -66.309,0.776 C -66.809,0.276 -67.473,0 -68.182,0 h -0.002 c -0.708,0.001 -1.373,0.276 -1.872,0.777 L -80.508,11.23 c -0.502,0.501 -0.778,1.168 -0.777,1.877 0,0.708 0.277,1.372 0.779,1.872 l 5.345,5.346 -0.604,0.97 c -2.837,4.556 -4.891,9.519 -6.107,14.748 l -0.258,1.111 h -7.567 c -1.46,0 -2.648,1.188 -2.648,2.648 v 14.786 c 0,1.461 1.188,2.648 2.648,2.648 h 7.567 l 0.258,1.112 c 1.218,5.234 3.272,10.196 6.107,14.748 l 0.604,0.97 -5.347,5.347 c -0.502,0.501 -0.778,1.169 -0.777,1.878 0,0.708 0.277,1.372 0.779,1.871 l 10.451,10.451 c 0.5,0.501 1.165,0.777 1.874,0.777 h 0.002 c 0.707,0 1.372,-0.277 1.871,-0.777 l 5.348,-5.347 0.969,0.604 c 4.557,2.837 9.519,4.892 14.749,6.107 l 1.111,0.258 v 7.567 c 0,1.46 1.187,2.648 2.648,2.648 H -26.7 c 1.462,0 2.651,-1.188 2.651,-2.648 v -7.567 l 1.111,-0.258 c 5.233,-1.22 10.195,-3.274 14.749,-6.107 l 0.969,-0.604 5.348,5.347 c 0.501,0.501 1.167,0.777 1.874,0.777 h 0.004 c 0.707,-0.001 1.372,-0.277 1.87,-0.778 L 12.329,83.16 c 0.501,-0.5 0.777,-1.167 0.776,-1.876 -0.001,-0.708 -0.276,-1.373 -0.777,-1.872 l -5.347,-5.346 0.603,-0.97 c 2.837,-4.554 4.892,-9.516 6.107,-14.748 l 0.259,-1.112 h 7.567 c 1.46,0 2.648,-1.187 2.648,-2.648 V 39.802 c 0,-1.46 -1.188,-2.648 -2.648,-2.648 H 13.95 L 13.691,36.043 C 12.474,30.811 10.418,25.849 7.584,21.295 l -0.603,-0.97 5.348,-5.348 C 12.831,14.476 13.106,13.81 13.105,13.1 13.104,12.393 12.829,11.728 12.328,11.229 L 1.875,0.776 C 1.374,0.276 0.708,0 0,0&quot; /&gt;
      </g>
      <g
         transform="matrix(0.35277777,0,0,-0.35277777,-27.610723,127.69589)"
         id="g341">
        <path
           inkscape:connector-curvature="0"
           id="path343"
           style="fill:#110f0d;fill-opacity:1;fill-rule:nonzero;stroke:none"
           d="m 0,0 h -0.001 c -1.946,0.001 -3.812,0.752 -5.121,2.062 l -10.453,10.453 c -1.367,1.37 -2.12,3.189 -2.12,5.123 0,1.933 0.753,3.751 2.12,5.12 l 2.812,2.812 c -2.034,3.638 -3.637,7.51 -4.773,11.526 h -3.981 c -3.992,0 -7.239,3.249 -7.239,7.243 v 14.783 c 0,3.992 3.247,7.24 7.239,7.24 h 3.981 c 1.132,4.014 2.735,7.885 4.771,11.524 l -2.812,2.812 c -1.367,1.37 -2.12,3.188 -2.12,5.12 0,1.936 0.753,3.755 2.12,5.123 l 10.453,10.453 c 1.31,1.309 3.175,2.06 5.12,2.061 h 0.003 c 1.946,0 3.812,-0.751 5.12,-2.061 l 2.812,-2.813 c 3.639,2.035 7.511,3.639 11.527,4.774 v 3.981 c 0,3.992 3.247,7.24 7.239,7.24 h 14.786 c 3.992,0 7.24,-3.248 7.24,-7.24 v -3.981 c 4.015,-1.135 7.886,-2.738 11.524,-4.771 l 2.813,2.813 c 2.727,2.725 7.512,2.726 10.242,0 L 83.755,90.943 c 1.368,-1.37 2.12,-3.189 2.12,-5.122 0,-1.935 -0.752,-3.753 -2.12,-5.12 l -2.812,-2.813 c 2.033,-3.633 3.637,-7.505 4.773,-11.526 h 3.981 c 3.99,0 7.24,-3.248 7.242,-7.239 V 44.336 c 0,-3.992 -3.248,-7.24 -7.24,-7.24 h -3.98 C 84.584,33.087 82.981,29.214 80.944,25.57 l 2.813,-2.812 c 1.368,-1.37 2.121,-3.189 2.121,-5.12 0,-1.936 -0.753,-3.755 -2.121,-5.123 L 73.304,2.062 c -2.73,-2.727 -7.515,-2.727 -10.242,0 L 60.239,4.884 C 58.886,4.197 57.295,3.662 55.749,3.142 54.839,2.836 53.955,2.539 53.169,2.225 l -0.637,1.591 c 0.812,0.327 1.728,0.635 2.671,0.952 1.694,0.57 3.445,1.159 4.763,1.917 l 0.57,0.328 3.738,-3.739 c 2.08,-2.08 5.734,-2.08 7.818,0 l 10.453,10.453 c 1.043,1.045 1.618,2.433 1.618,3.911 0,1.473 -0.575,2.862 -1.619,3.908 l -3.738,3.737 0.327,0.569 c 2.227,3.873 3.945,8.02 5.104,12.325 l 0.171,0.635 h 5.291 c 3.047,0 5.525,2.478 5.525,5.524 v 14.786 c -0.003,3.046 -2.481,5.525 -5.527,5.525 h -5.291 l -0.171,0.635 c -1.163,4.317 -2.88,8.464 -5.103,12.323 l -0.328,0.569 3.738,3.739 c 1.044,1.044 1.618,2.431 1.618,3.908 0,1.476 -0.574,2.864 -1.619,3.91 l -10.452,10.453 c -2.082,2.079 -5.735,2.08 -7.817,0 l -3.739,-3.739 -0.569,0.327 c -3.864,2.224 -8.01,3.94 -12.321,5.102 l -0.635,0.171 v 5.291 c 0,3.046 -2.478,5.524 -5.525,5.524 H 26.697 c -3.047,0 -5.525,-2.478 -5.525,-5.524 v -5.291 l -0.634,-0.171 C 16.227,100.712 12.08,98.995 8.214,96.77 l -0.57,-0.328 -3.738,3.74 c -0.99,0.99 -2.414,1.558 -3.907,1.558 h -0.002 c -1.494,-10e-4 -2.918,-0.569 -3.908,-1.558 L -14.365,89.729 c -1.042,-1.044 -1.617,-2.432 -1.617,-3.911 0,-1.474 0.575,-2.862 1.618,-3.908 l 3.739,-3.738 -0.329,-0.569 c -2.227,-3.866 -3.942,-8.012 -5.101,-12.321 l -0.171,-0.635 h -5.291 c -3.046,0 -5.524,-2.478 -5.524,-5.525 V 44.339 c 0,-3.048 2.478,-5.527 5.524,-5.527 h 5.291 l 0.171,-0.635 c 1.162,-4.312 2.879,-8.458 5.104,-12.324 l 0.327,-0.57 -3.738,-3.738 c -1.044,-1.044 -1.618,-2.432 -1.618,-3.907 0,-1.476 0.574,-2.865 1.619,-3.911 L -3.909,3.274 c 0.99,-0.99 2.414,-1.559 3.908,-1.559 H 0 c 1.493,0 2.917,0.569 3.908,1.559 L 7.646,7.012 8.215,6.685 C 10.062,5.624 12.464,4.667 14.583,3.822 L 15.374,3.506 14.736,1.914 13.948,2.229 C 11.984,3.011 9.785,3.889 7.938,4.878 L 5.121,2.062 C 3.812,0.752 1.945,0 0,0" />
      </g>
      <g
         transform="matrix(0.35277777,0,0,-0.35277777,-15.58474,132.23639)"
         id="g345">
        <path
           inkscape:connector-curvature="0"
           id="path347"
           style="fill:#110f0d;fill-opacity:1;fill-rule:nonzero;stroke:none"
           d="m 0,0 c -11.125,0 -20.137,8.719 -20.515,19.848 l 1.713,0.059 C -18.455,9.706 -10.196,1.715 0,1.715 c 10.195,0 18.454,7.99 18.802,18.19 l 1.714,-0.058 C 20.136,8.718 11.125,0 0,0" />
      </g>
      <g
         transform="matrix(0.35277777,0,0,-0.35277777,-8.3348751,123.45169)"
         id="g349">
        <path
           inkscape:connector-curvature="0"
           id="path351"
           style="fill:#110f0d;fill-opacity:1;fill-rule:nonzero;stroke:none"
           d="m 0,0 h -1.715 v 7.478 l 0.388,0.254 c 10.017,6.54 15.996,17.573 15.996,29.515 0,19.421 -15.798,35.22 -35.219,35.22 -19.421,0 -35.22,-15.799 -35.22,-35.22 0,-11.941 5.979,-22.974 15.996,-29.514 l 0.388,-0.254 V 0.002 h -1.715 v 6.553 c -10.269,6.886 -16.384,18.325 -16.384,30.692 0,20.366 16.569,36.935 36.935,36.935 20.366,0 36.935,-16.569 36.935,-36.935 C 16.385,24.879 10.269,13.44 0,6.554 Z" />
      </g>
      <g
         transform="matrix(0.35277777,0,0,-0.35277777,-8.3472928,125.23463)"
         id="g353">
        <path
           inkscape:connector-curvature="0"
           id="path355"
           style="fill:#110f0d;fill-opacity:1;fill-rule:nonzero;stroke:none"
           d="m 0,0 -1.713,0.057 0.017,0.313 c 0.008,0.111 0.016,0.22 0.016,0.333 V 5.054 H 0.035 V 0.703 c 0,-0.152 -0.01,-0.302 -0.02,-0.452 z" />
      </g>
      <g
         transform="matrix(0.35277777,0,0,-0.35277777,-22.822012,125.23523)"
         id="g357">
        <path
           inkscape:connector-curvature="0"
           id="path359"
           style="fill:#110f0d;fill-opacity:1;fill-rule:nonzero;stroke:none"
           d="m 0,0 -0.015,0.244 c -0.01,0.153 -0.02,0.305 -0.02,0.46 V 5.057 H 1.68 V 0.704 C 1.68,0.589 1.688,0.476 1.697,0.363 L 1.713,0.064 Z" />
      </g>
      <g
         transform="matrix(0.35277777,0,0,-0.35277777,-14.20739,114.08199)"
         id="g361">
        <path
           inkscape:connector-curvature="0"
           id="path363"
           style="fill:#e62941;fill-opacity:1;fill-rule:nonzero;stroke:none"
           d="M 0,0 H -3.199 C -4.435,0 -5.436,1.001 -5.436,2.237 V 23.62 c 0,1.235 1.001,2.237 2.237,2.237 H 0 c 1.235,0 2.236,-1.002 2.236,-2.237 V 2.237 C 2.236,1.001 1.235,0 0,0" />
      </g>
      <g
         transform="matrix(0.35277777,0,0,-0.35277777,-15.41128,105.26275)"
         id="g365">
        <path
           inkscape:connector-curvature="0"
           id="path367"
           style="fill:#110f0d;fill-opacity:1;fill-rule:nonzero;stroke:none"
           d="m 0,0 c -1.643,0 -2.978,-1.337 -2.978,-2.979 v -18.184 c 0,-1.642 1.335,-2.979 2.978,-2.979 1.642,0 2.979,1.337 2.979,2.979 V -2.979 C 2.979,-1.337 1.642,0 0,0 m 0,-25.857 c -2.588,0 -4.693,2.105 -4.693,4.694 v 18.184 c 0,2.589 2.105,4.694 4.693,4.694 2.588,0 4.694,-2.105 4.694,-4.694 v -18.184 c 0,-2.589 -2.106,-4.694 -4.694,-4.694" />
      </g>
      <g
         transform="matrix(0.35277777,0,0,-0.35277777,-13.30823,116.65254)"
         id="g369">
        <path
           inkscape:connector-curvature="0"
           id="path371"
           style="fill:#e62941;fill-opacity:1;fill-rule:nonzero;stroke:none"
           d="m 0,0 c 0,-2.291 -1.857,-4.149 -4.148,-4.149 -2.292,0 -4.149,1.858 -4.149,4.149 0,2.291 1.857,4.149 4.149,4.149 C -1.857,4.149 0,2.291 0,0" />
      </g>
      <g
         transform="matrix(0.35277777,0,0,-0.35277777,-15.41128,115.94031)"
         id="g373">
        <path
           inkscape:connector-curvature="0"
           id="path375"
           style="fill:#110f0d;fill-opacity:1;fill-rule:nonzero;stroke:none"
           d="m 0,0 c -1.815,0 -3.292,-1.476 -3.292,-3.291 0,-1.815 1.477,-3.291 3.292,-3.291 1.814,0 3.291,1.476 3.291,3.291 C 3.291,-1.476 1.814,0 0,0 m 0,-8.297 c -2.76,0 -5.006,2.246 -5.006,5.006 0,2.76 2.246,5.006 5.006,5.006 2.76,0 5.006,-2.246 5.006,-5.006 0,-2.76 -2.246,-5.006 -5.006,-5.006" />
      </g>
    </g>
  </g>
</svg>
