<?xml version="1.0" encoding="UTF-8" standalone="no"?>
<!-- Created with Inkscape (http://www.inkscape.org/) -->

<svg
   xmlns:dc="http://purl.org/dc/elements/1.1/"
   xmlns:cc="http://creativecommons.org/ns#"
   xmlns:rdf="http://www.w3.org/1999/02/22-rdf-syntax-ns#"
   xmlns:svg="http://www.w3.org/2000/svg"
   xmlns="http://www.w3.org/2000/svg"
   xmlns:sodipodi="http://sodipodi.sourceforge.net/DTD/sodipodi-0.dtd"
   xmlns:inkscape="http://www.inkscape.org/namespaces/inkscape"
   width="162"
   height="162"
   viewBox="0 0 42.862499 42.862499"
   version="1.1"
   id="svg8"
   inkscape:version="0.92.3 (2405546, 2018-03-11)"
   sodipodi:docname="law-suit-back.svg">
  <defs
     id="defs2" />
  <sodipodi:namedview
     id="base"
     pagecolor="#ffffff"
     bordercolor="#666666"
     borderopacity="1.0"
     inkscape:pageopacity="0.0"
     inkscape:pageshadow="2"
     inkscape:zoom="1.979899"
     inkscape:cx="78.526258"
     inkscape:cy="155.01368"
     inkscape:document-units="mm"
     inkscape:current-layer="layer1"
     showgrid="false"
     inkscape:pagecheckerboard="true"
     inkscape:window-width="2560"
     inkscape:window-height="1012"
     inkscape:window-x="0"
     inkscape:window-y="0"
     inkscape:window-maximized="1"
     units="px" />
  <metadata
     id="metadata5">
    <rdf:RDF>
      <cc:Work
         rdf:about="">
        <dc:format>image/svg+xml</dc:format>
        <dc:type
           rdf:resource="http://purl.org/dc/dcmitype/StillImage" />
        <dc:title></dc:title>
      </cc:Work>
    </rdf:RDF>
  </metadata>
  <g
     inkscape:label="Camada 1"
     inkscape:groupmode="layer"
     id="layer1"
     transform="translate(0,-254.13751)">
    <g
       id="g1177"
       transform="matrix(3.9370689,0,0,3.9370689,-406.13248,-93.341598)"
       inkscape:export-xdpi="96"
       inkscape:export-ydpi="96">
      <g
         transform="matrix(0.35277777,0,0,-0.35277777,113.95581,93.680456)"
         id="g377">
        <path
           inkscape:connector-curvature="0"
           id="path379"
           style="fill:#fae03c;fill-opacity:1;fill-rule:nonzero;stroke:none"
           d="m 0,0 c 0,-8.405 -6.814,-15.219 -15.219,-15.219 -8.406,0 -15.219,6.814 -15.219,15.219 0,8.405 6.813,15.219 15.219,15.219 C -6.814,15.219 0,8.405 0,0" />
      </g>
      <g
         transform="matrix(0.35277777,0,0,-0.35277777,112.10546,92.763621)"
         id="g381">
        <path
           inkscape:connector-curvature="0"
           id="path383"
           style="fill:#4db396;fill-opacity:1;fill-rule:nonzero;stroke:none"
           d="m 0,0 h -0.89 c -0.227,0.843 -0.561,1.649 -0.996,2.405 l 0.629,0.629 c 0.231,0.231 0.359,0.539 0.359,0.867 0,0.327 -0.128,0.635 -0.359,0.867 l -2.007,2.007 c -0.463,0.462 -1.27,0.463 -1.734,0 L -5.626,6.146 c -0.757,0.435 -1.563,0.769 -2.406,0.996 v 0.889 c 0,0.676 -0.549,1.226 -1.225,1.226 h -2.839 c -0.675,0 -1.225,-0.55 -1.225,-1.226 V 7.142 C -14.164,6.915 -14.97,6.581 -15.727,6.146 l -0.628,0.628 c -0.463,0.464 -1.271,0.463 -1.734,0 l -2.007,-2.007 c -0.231,-0.231 -0.359,-0.539 -0.359,-0.867 0,-0.327 0.128,-0.635 0.359,-0.866 l 0.629,-0.629 C -19.902,1.649 -20.236,0.843 -20.463,0 h -0.89 c -0.675,0 -1.225,-0.55 -1.225,-1.225 v -2.839 c 0,-0.676 0.55,-1.226 1.225,-1.226 h 0.89 c 0.227,-0.842 0.561,-1.648 0.996,-2.405 l -0.629,-0.629 c -0.231,-0.231 -0.358,-0.539 -0.358,-0.866 0,-0.328 0.127,-0.636 0.358,-0.867 l 2.008,-2.007 c 0.463,-0.464 1.27,-0.464 1.733,0 l 0.629,0.628 c 0,0 4.439,-3.505 10.1,0 l 0.628,-0.628 c 0.464,-0.464 1.271,-0.463 1.734,0 l 2.007,2.007 c 0.232,0.231 0.359,0.539 0.359,0.867 0,0.327 -0.127,0.634 -0.359,0.866 l -0.629,0.629 c 0.435,0.757 0.77,1.563 0.997,2.405 H 0 c 0.676,0 1.226,0.55 1.226,1.226 v 2.839 C 1.225,-0.55 0.675,0 0,0" />
      </g>
      <g
         transform="matrix(0.35277777,0,0,-0.35277777,112.33939,92.853015)"
         id="g385">
        <path
           inkscape:connector-curvature="0"
           id="path387"
           style="fill:#3b9490;fill-opacity:1;fill-rule:nonzero;stroke:none"
           d="m 0,0 h -0.763 c -0.195,0.718 -0.481,1.406 -0.855,2.05 l 0.539,0.535 c 0.199,0.198 0.308,0.46 0.308,0.739 0,0.279 -0.109,0.541 -0.308,0.739 L -2.8,5.773 c -0.398,0.394 -1.09,0.395 -1.488,0 L -4.827,5.237 c -0.649,0.371 -1.34,0.655 -2.063,0.849 v 0.758 c 0,0.576 -0.472,1.044 -1.051,1.044 h -2.436 c -0.58,0 -1.051,-0.468 -1.051,-1.044 V 6.086 c -0.723,-0.194 -1.414,-0.478 -2.064,-0.849 l -0.539,0.536 c -0.397,0.395 -1.09,0.394 -1.487,0 L -17.24,4.062 c -0.198,-0.197 -0.308,-0.459 -0.308,-0.739 0,-0.278 0.11,-0.54 0.308,-0.738 l 0.539,-0.536 C -17.074,1.406 -17.361,0.718 -17.555,0 h -0.763 c -0.58,0 -1.052,-0.468 -1.052,-1.044 v -2.419 c 0,-0.576 0.472,-1.044 1.052,-1.044 h 0.763 c 0.195,-0.718 0.481,-1.405 0.854,-2.05 l -0.539,-0.536 c -0.198,-0.197 -0.307,-0.46 -0.307,-0.738 0,-0.279 0.109,-0.542 0.307,-0.739 l 1.722,-1.71 c 0.397,-0.395 1.09,-0.396 1.487,0 l 0.54,0.535 c 0,0 3.808,-2.987 8.664,0 l 0.539,-0.535 c 0.398,-0.396 1.09,-0.395 1.488,0 l 1.722,1.71 c 0.198,0.197 0.307,0.46 0.307,0.739 0,0.278 -0.109,0.541 -0.307,0.738 l -0.54,0.536 c 0.374,0.645 0.66,1.332 0.855,2.05 H 0 c 0.58,0 1.051,0.468 1.051,1.044 v 2.419 C 1.051,-0.468 0.58,0 0,0" />
      </g>
      <g
         transform="matrix(0.35277777,0,0,-0.35277777,109.81152,95.649661)"
         id="g389">
        <path
           inkscape:connector-curvature="0"
           id="path391"
           style="fill:#f6e156;fill-opacity:1;fill-rule:nonzero;stroke:none"
           d="m 0,0 c -0.207,-0.119 -0.335,-0.34 -0.335,-0.579 v -0.662 -1.336 -0.199 -0.359 c 0,-1.348 -1.097,-2.445 -2.446,-2.445 -1.348,0 -2.446,1.097 -2.446,2.445 v 0.359 h 0.001 v 0.199 1.336 0.662 c 0,0.239 -0.128,0.46 -0.336,0.579 -1.733,0.996 -2.81,2.855 -2.81,4.852 0,3.083 2.508,5.592 5.591,5.592 3.084,0 5.592,-2.509 5.592,-5.592 C 2.811,2.855 1.734,0.996 0,0 m 4.146,4.852 c 0,3.82 -3.107,6.927 -6.927,6.927 -3.819,0 -6.927,-3.107 -6.927,-6.927 0,-2.342 1.196,-4.531 3.146,-5.804 v -1.347 -0.836 c 0,-0.043 0.005,-0.085 0.007,-0.129 0.069,-2.024 1.733,-3.652 3.774,-3.652 2.041,0 3.705,1.627 3.775,3.652 C 0.995,-3.221 1,-3.178 1,-3.135 v 0.836 0.39 0.957 C 2.95,0.321 4.146,2.51 4.146,4.852" />
      </g>
      <g
         transform="matrix(0.35277777,0,0,-0.35277777,111.13014,93.873284)"
         id="g393">
        <path
           inkscape:connector-curvature="0"
           id="path395"
           style="fill:#f6e156;fill-opacity:1;fill-rule:nonzero;stroke:none"
           d="m 0,0 c 0,-3.315 -2.864,-6.002 -6.397,-6.002 -3.534,0 -6.398,2.687 -6.398,6.002 0,3.315 2.864,6.002 6.398,6.002 C -2.864,6.002 0,3.315 0,0" />
      </g>
      <g
         transform="matrix(0.35277777,0,0,-0.35277777,108.22508,95.785022)"
         id="g397">
        <path
           inkscape:connector-curvature="0"
           id="path399"
           style="fill:#f6e156;fill-opacity:1;fill-rule:nonzero;stroke:none"
           d="M 0,0 C 0.261,-1.094 0.521,-2.187 0.783,-3.281 0.636,-1.994 0.304,-0.729 -0.2,0.464 -0.563,-0.34 -0.927,-1.144 -1.291,-1.948 c 0.25,0.802 0.5,1.605 0.75,2.408 -0.011,-1.304 -0.121,-2.608 -0.327,-3.895 0.12,0.975 0.333,1.94 0.633,2.876 -0.077,-0.842 -0.155,-1.684 -0.233,-2.526 -0.043,-0.471 -0.085,-0.957 0.057,-1.408 0.233,1.317 0.479,2.67 1.185,3.807 C 0.69,-2.026 0.606,-3.365 0.521,-4.705 0.4,-4.442 0.333,-4.155 0.325,-3.866 l -0.012,-0.73 c 0.443,1.317 0.706,2.694 0.779,4.081 0.015,-1.069 -0.086,-2.14 -0.299,-3.187 0.16,1.242 0.213,2.498 0.158,3.749 0.148,-0.694 0.295,-1.388 0.442,-2.082 0.123,0.598 0.246,1.196 0.369,1.794 0.096,-0.208 0.192,-0.417 0.288,-0.626 0.05,0.253 0.138,0.499 0.263,0.725 0.066,-0.467 0.133,-0.934 0.2,-1.401 0.272,0.164 0.483,0.427 0.584,0.728 0.081,-0.081 0.163,-0.161 0.245,-0.242 0.19,0.35 0.348,0.718 0.472,1.097 0.069,-0.193 0.138,-0.385 0.207,-0.578 0.186,0.332 0.372,0.664 0.557,0.996 C 4.39,0.007 4.202,-0.445 4.014,-0.897 5.157,0.558 6.212,2.081 7.171,3.663 7.643,4.442 8.096,5.432 7.631,6.216 7.37,5.708 7.226,5.141 7.212,4.571 7.444,5.511 7.158,6.493 6.873,7.419 6.652,8.135 6.411,8.887 5.859,9.395 5.471,9.754 4.965,9.954 4.473,10.147 3.894,10.373 3.312,10.6 2.704,10.724 0.423,11.189 -2.121,9.967 -3.097,7.854 -3.327,7.358 -3.473,6.829 -3.619,6.303 -3.753,5.816 -3.887,5.289 -3.71,4.816 c 0.124,-0.333 0.386,-0.592 0.596,-0.88 0.21,-0.287 0.375,-0.654 0.265,-0.992 -0.48,0.077 -0.88,0.505 -0.925,0.988 0.502,-0.627 0.736,-1.42 1.083,-2.144 0.346,-0.725 0.884,-1.441 1.665,-1.629 -0.138,0.264 -0.363,0.482 -0.632,0.611 0.991,-1.184 2.107,-2.262 3.324,-3.211 0.047,0.291 0.094,0.582 0.14,0.873 0.139,-0.346 0.231,-0.711 0.272,-1.081 0.031,0.56 0.062,1.121 0.093,1.682 0.302,-0.785 0.604,-1.569 0.906,-2.353 0.096,0.718 0.198,1.434 0.307,2.15 0.244,-0.39 0.408,-0.83 0.481,-1.285 0.018,0.401 0.079,0.801 0.181,1.189 0.26,-0.776 0.059,-1.661 -0.411,-2.332 -0.47,-0.67 -1.183,-1.142 -1.945,-1.443 0.519,0.485 1.037,0.97 1.556,1.455 0.053,0.05 0.109,0.101 0.177,0.127 0.265,0.1 0.51,-0.27 0.412,-0.536 C 3.738,-4.26 3.459,-4.407 3.199,-4.519 2.721,-4.723 2.226,-4.893 1.717,-4.995 1.33,-5.073 0.856,-5.081 0.622,-4.763 1.045,-4.189 1.363,-3.537 1.556,-2.85 1.438,-3.349 1.32,-3.848 1.202,-4.347 c 0.27,0.492 0.54,0.984 0.809,1.475 -0.043,-0.375 -0.086,-0.751 -0.129,-1.126 0.201,0.215 0.4,0.431 0.6,0.646 C 2.355,-3.93 1.89,-4.42 1.319,-4.577 1.927,-3.961 2.33,-3.146 2.45,-2.289 2.415,-2.663 2.379,-3.038 2.344,-3.413 2.137,-2.857 1.93,-2.301 1.723,-1.745" />
      </g>
      <g
         transform="matrix(0.35277777,0,0,-0.35277777,107.69609,95.804248)"
         id="g401">
        <path
           inkscape:connector-curvature="0"
           id="path403"
           style="fill:#f6e156;fill-opacity:1;fill-rule:nonzero;stroke:none"
           d="m 0,0 c 0.419,-0.699 0.625,-1.542 0.971,-2.282 0.2,-0.428 0.983,-0.234 0.921,0.25 C 1.778,-1.149 1.542,0.097 0.768,0.642 0.325,0.954 -0.097,0.367 0.092,-0.034 0.177,-0.214 0.262,-0.394 0.346,-0.575 0.617,-1.149 1.469,-0.648 1.199,-0.076 1.115,0.104 1.03,0.284 0.945,0.465 0.72,0.239 0.495,0.014 0.269,-0.211 0.493,-0.369 0.567,-0.785 0.647,-1.023 0.756,-1.352 0.859,-1.688 0.904,-2.032 1.21,-1.949 1.518,-1.866 1.824,-1.783 1.477,-1.04 1.275,-0.205 0.853,0.499 0.526,1.043 -0.328,0.547 0,0" />
      </g>
      <g
         transform="matrix(0.35277777,0,0,-0.35277777,110.16448,96.338001)"
         id="g405">
        path
           inkscape:connector-curvature=&quot;0&quot;
           id=&quot;path407&quot;
           style=&quot;fill:#a7a7a5;fill-opacity:1;fill-rule:nonzero;stroke:none&quot;
           d=&quot;m 0,0 h -7.562 v -0.277 -0.762 -0.705 c 0,-0.037 0.005,-0.072 0.006,-0.109 0.069,-1.708 1.734,-3.081 3.775,-3.081 2.041,0 3.705,1.373 3.774,3.081 C -0.005,-1.817 0,-1.781 0,-1.744 V -1.039 -0.71 0 c 0,0 0,0 0,0 z&quot; /&gt;
      </g>
      <g
         transform="matrix(0.35277777,0,0,-0.35277777,110.10542,95.477364)"
         id="g409">
        <path
           inkscape:connector-curvature="0"
           id="path411"
           style="fill:#f1a644;fill-opacity:1;fill-rule:nonzero;stroke:none"
           d="m 0,0 c -0.166,-0.095 -0.268,-0.272 -0.268,-0.463 v -0.529 -1.067 -0.16 -0.286 c 0,-1.078 -0.877,-1.954 -1.954,-1.954 -1.078,0 -1.955,0.876 -1.955,1.954 v 0.286 0.16 1.067 0.529 c 0,0.191 -0.102,0.368 -0.267,0.463 -1.386,0.796 -2.246,2.282 -2.246,3.878 0,2.463 2.004,4.468 4.468,4.468 2.464,0 4.468,-2.005 4.468,-4.468 C 2.246,2.282 1.385,0.796 0,0 m 3.313,3.878 c 0,3.052 -2.483,5.535 -5.535,5.535 -3.052,0 -5.536,-2.483 -5.536,-5.535 0,-1.872 0.956,-3.622 2.514,-4.639 v -1.076 -0.668 c 0,-0.035 0.004,-0.069 0.005,-0.103 0.055,-1.618 1.385,-2.918 3.016,-2.918 1.632,0 2.962,1.3 3.017,2.917 0.001,0.035 0.005,0.069 0.005,0.104 v 0.668 0.311 c 0,0.001 0,0.765 0,0.765 1.558,1.017 2.514,2.767 2.514,4.639" />
      </g>
      <g
         transform="matrix(0.35277777,0,0,-0.35277777,111.1591,94.057822)"
         id="g413">
        <path
           inkscape:connector-curvature="0"
           id="path415"
           style="fill:#f1a644;fill-opacity:1;fill-rule:nonzero;stroke:none"
           d="m 0,0 c 0,-2.649 -2.289,-4.796 -5.112,-4.796 -2.824,0 -5.113,2.147 -5.113,4.796 0,2.649 2.289,4.796 5.113,4.796 C -2.289,4.796 0,2.649 0,0" />
      </g>
      <g
         transform="matrix(0.35277777,0,0,-0.35277777,108.83743,95.585491)"
         id="g417">
        <path
           inkscape:connector-curvature="0"
           id="path419"
           style="fill:#f1a644;fill-opacity:1;fill-rule:nonzero;stroke:none"
           d="m 0,0 0.625,-2.622 c -0.117,1.028 -0.382,2.04 -0.785,2.993 l -0.871,-1.928 0.599,1.924 c -0.009,-1.042 -0.096,-2.083 -0.261,-3.112 0.096,0.779 0.266,1.55 0.506,2.298 l -0.187,-2.018 c -0.034,-0.377 -0.068,-0.765 0.046,-1.126 0.186,1.053 0.383,2.134 0.947,3.042 L 0.417,-3.76 C 0.32,-3.55 0.267,-3.32 0.26,-3.089 0.257,-3.284 0.254,-3.478 0.251,-3.673 c 0.353,1.053 0.563,2.153 0.622,3.262 0.012,-0.855 -0.068,-1.71 -0.239,-2.548 0.128,0.993 0.17,1.997 0.126,2.996 0.118,-0.554 0.236,-1.109 0.354,-1.663 0.098,0.478 0.196,0.956 0.294,1.434 0.077,-0.167 0.154,-0.334 0.231,-0.501 0.039,0.203 0.11,0.399 0.209,0.579 l 0.16,-1.119 c 0.218,0.131 0.386,0.341 0.467,0.582 0.065,-0.065 0.13,-0.129 0.196,-0.194 0.152,0.28 0.278,0.574 0.377,0.877 C 3.104,-0.122 3.159,-0.276 3.214,-0.43 3.362,-0.165 3.51,0.101 3.659,0.366 3.508,0.005 3.358,-0.356 3.208,-0.717 4.122,0.446 4.964,1.663 5.731,2.927 6.108,3.55 6.47,4.341 6.099,4.967 5.89,4.562 5.774,4.109 5.764,3.653 5.949,4.404 5.72,5.189 5.493,5.929 5.316,6.501 5.123,7.102 4.683,7.508 4.372,7.795 3.968,7.955 3.574,8.109 3.112,8.29 2.647,8.471 2.161,8.57 0.338,8.941 -1.694,7.965 -2.475,6.276 -2.658,5.88 -2.775,5.457 -2.892,5.037 -3,4.648 -3.106,4.227 -2.965,3.849 c 0.099,-0.267 0.309,-0.474 0.477,-0.703 0.167,-0.23 0.3,-0.523 0.212,-0.793 -0.384,0.061 -0.704,0.403 -0.74,0.789 0.402,-0.501 0.588,-1.134 0.866,-1.713 0.276,-0.579 0.706,-1.152 1.33,-1.302 -0.11,0.211 -0.29,0.385 -0.505,0.488 0.792,-0.946 1.684,-1.807 2.657,-2.565 0.037,0.232 0.074,0.465 0.112,0.697 0.111,-0.276 0.184,-0.568 0.217,-0.864 0.025,0.448 0.049,0.896 0.074,1.344 l 0.724,-1.88 c 0.077,0.573 0.159,1.146 0.246,1.718 0.194,-0.312 0.326,-0.664 0.384,-1.027 0.015,0.321 0.063,0.64 0.144,0.951 0.208,-0.621 0.048,-1.328 -0.328,-1.864 -0.376,-0.536 -0.946,-0.913 -1.554,-1.154 0.414,0.388 0.829,0.775 1.243,1.163 0.043,0.04 0.087,0.081 0.142,0.102 0.212,0.08 0.408,-0.216 0.329,-0.428 C 2.988,-3.405 2.764,-3.522 2.556,-3.611 2.174,-3.775 1.779,-3.91 1.372,-3.992 1.063,-4.054 0.685,-4.06 0.498,-3.807 c 0.337,0.46 0.591,0.98 0.746,1.529 -0.095,-0.398 -0.189,-0.797 -0.283,-1.196 0.215,0.393 0.431,0.786 0.646,1.179 -0.034,-0.3 -0.068,-0.6 -0.103,-0.9 0.161,0.172 0.32,0.344 0.48,0.516 C 1.882,-3.14 1.51,-3.532 1.054,-3.658 1.54,-3.165 1.862,-2.514 1.958,-1.829 1.93,-2.128 1.901,-2.428 1.873,-2.727 1.708,-2.283 1.542,-1.839 1.377,-1.395" />
      </g>
      <g
         transform="matrix(0.35277777,0,0,-0.35277777,108.41629,95.217085)"
         id="g421">
        <path
           inkscape:connector-curvature="0"
           id="path423"
           style="fill:#f1a644;fill-opacity:1;fill-rule:nonzero;stroke:none"
           d="m 0,0 c 0.102,-0.432 0.327,-0.834 0.644,-1.145 -0.163,0.554 -0.486,1.06 -0.92,1.441 0.413,-1.211 0.912,-2.393 1.491,-3.533 0.084,1.019 0.245,2.031 0.484,3.025 L 1.658,-2.754 C 1.417,-1.963 1.04,-1.214 0.547,-0.552 0.333,-1.248 0.413,-2.029 0.762,-2.668 0.954,-1.824 1.065,-0.961 1.095,-0.096 0.856,-0.747 0.65,-1.409 0.478,-2.08 0.414,-2.329 0.354,-2.585 0.378,-2.841 c 0.066,-0.7 0.744,-1.265 0.69,-1.966 -0.229,0.424 -0.161,0.988 0.162,1.344 0.115,-0.543 0.307,-1.071 0.567,-1.562 0.106,0.669 0.177,1.344 0.211,2.02 0.196,-0.52 0.274,-1.084 0.227,-1.637 0.074,0.77 0.034,1.552 -0.118,2.311 -0.239,-0.435 -0.363,-0.933 -0.356,-1.429 0.238,0.803 0.476,1.606 0.715,2.41 0.062,-0.421 0.1,-0.845 0.115,-1.27 -0.012,0.558 0.022,1.116 0.1,1.667 -0.067,-0.464 -0.163,-0.924 -0.285,-1.378 0.021,0.448 0.041,0.896 0.062,1.344 -0.07,-0.54 -0.14,-1.079 -0.211,-1.619 -0.047,0.637 -0.131,1.27 -0.253,1.897 -0.085,-0.558 -0.076,-1.131 0.026,-1.686 0.219,0.437 0.437,0.874 0.656,1.311 0.09,-0.444 0.182,-0.888 0.272,-1.332 l 0.673,1.794 C 3.664,-1.328 3.652,-2.036 3.597,-2.74 3.766,-2.227 3.935,-1.714 4.104,-1.201 4.186,-1.41 4.268,-1.619 4.35,-1.828 4.484,-1.382 4.619,-0.936 4.753,-0.49 4.669,-0.871 4.61,-1.258 4.577,-1.647 4.88,-0.945 5.664,-0.571 6.073,0.075 6.331,0.483 6.422,0.972 6.508,1.447 6.283,0.758 5.937,0.109 5.492,-0.462 5.262,-0.756 5.003,-1.034 4.835,-1.367 4.613,-1.806 4.564,-2.309 4.523,-2.799 4.483,-3.289 4.445,-3.791 4.243,-4.239 4.041,-4.687 3.635,-5.078 3.145,-5.117 2.657,-5.156 2.09,-4.868 1.719,-5.187 2.772,-4.748 3.489,-3.608 3.43,-2.468 3.118,-2.97 2.885,-3.521 2.741,-4.095 2.702,-3.737 2.664,-3.38 2.625,-3.022 c -0.018,-0.43 0.042,-0.862 0.177,-1.271 0.397,0.644 0.637,1.371 0.875,2.09 0.109,-0.732 0.097,-1.482 -0.034,-2.21 -0.198,0.042 -0.409,0.021 -0.594,-0.061 0.079,0.143 0.206,0.26 0.355,0.326 0.068,-0.127 0.104,-0.27 0.105,-0.414 0.82,0.811 0.907,2.084 0.945,3.236 C 4.311,-1.828 4.168,-2.33 4.025,-2.832 3.72,-2.707 3.668,-2.287 3.763,-1.971 c 0.095,0.315 0.288,0.607 0.303,0.936" />
      </g>
      <g
         transform="matrix(0.35277777,0,0,-0.35277777,109.1387,96.324384)"
         id="g425">
        <path
           inkscape:connector-curvature="0"
           id="path427"
           style="fill:#f1a644;fill-opacity:1;fill-rule:nonzero;stroke:none"
           d="M 0,0 C 0.435,0.507 0.664,1.06 0.304,1.677 0.119,1.995 -0.365,2 -0.549,1.677 -0.883,1.089 -1.009,0.023 -0.141,-0.178 0.806,-0.397 1.069,0.928 1.125,1.585 1.164,2.045 0.575,2.19 0.281,1.934 -0.194,1.52 -0.498,-0.147 0.268,-0.441 1.269,-0.826 1.619,1.116 1.703,1.703 1.785,2.269 1.15,2.537 0.801,2.084 0.428,1.602 -0.181,0.387 0.644,0.008 1.457,-0.366 2.044,0.705 2.292,1.29 1.991,1.329 1.689,1.368 1.389,1.408 1.483,0.87 1.626,0.361 1.824,-0.148 1.95,-0.473 2.375,-0.664 2.649,-0.366 3.059,0.079 3.143,0.619 3.163,1.208 3.189,1.989 2.805,2.457 2.612,3.171 2.444,3.792 1.542,3.526 1.66,2.908 1.744,2.464 1.88,2.066 2.061,1.655 2.345,1.821 2.629,1.987 2.914,2.154 2.78,1.865 2.837,1.778 3.084,1.89 3.173,1.912 3.26,1.941 3.343,1.979 3.563,2.067 3.75,2.199 3.942,2.336 4.455,2.702 3.962,3.559 3.443,3.188 2.887,2.792 1.521,2.674 2.061,1.655 2.364,1.081 3.163,1.585 2.914,2.154 2.764,2.496 2.681,2.809 2.612,3.171 2.294,3.083 1.977,2.996 1.66,2.908 1.863,2.157 2.643,1.084 1.951,0.333 2.226,0.26 2.501,0.187 2.777,0.115 2.579,0.623 2.436,1.133 2.341,1.67 2.271,2.066 1.602,2.174 1.438,1.788 1.411,1.723 1.024,0.947 0.996,0.968 1.078,0.826 1.159,0.683 1.241,0.541 1.203,0.944 1.418,1.281 1.654,1.585 1.353,1.712 1.052,1.839 0.751,1.966 0.72,1.752 0.327,0.573 0.53,0.511 0.645,0.396 0.76,0.281 0.875,0.167 0.796,0.413 0.78,1.061 0.98,1.235 0.699,1.352 0.418,1.468 0.137,1.585 0.126,1.304 0.057,1.039 -0.073,0.79 0.191,0.731 0.317,0.861 0.304,1.178 H -0.549 C -0.478,0.983 -0.528,0.823 -0.699,0.698 -1.11,0.218 -0.415,-0.484 0,0" />
      </g>
      <g
         transform="matrix(0.35277777,0,0,-0.35277777,110.37738,96.360156)"
         id="g429">
        <path
           inkscape:connector-curvature="0"
           id="path431"
           style="fill:#7a7b7d;fill-opacity:1;fill-rule:nonzero;stroke:none"
           d="m 0,0 h -5.998 v -0.22 -0.604 -0.559 c 0,-0.029 0.004,-0.058 0.005,-0.087 0.055,-1.355 1.375,-2.444 2.994,-2.444 1.619,0 2.939,1.089 2.994,2.444 C -0.004,-1.441 0,-1.413 0,-1.383 v 0.559 0.261 z" />
      </g>
      <g
         transform="matrix(0.35277777,0,0,-0.35277777,109.54094,96.759112)"
         id="g433">
        <path
           inkscape:connector-curvature="0"
           id="path435"
           style="fill:#110f0d;fill-opacity:1;fill-rule:nonzero;stroke:none"
           d="m 0,0 h -0.329 v 2.198 c 0,0.297 0.16,0.573 0.417,0.721 1.683,0.967 2.728,2.771 2.729,4.71 0,2.992 -2.435,5.426 -5.427,5.426 -2.993,0 -5.427,-2.434 -5.427,-5.426 0,-1.938 1.045,-3.743 2.728,-4.71 0.258,-0.148 0.418,-0.424 0.418,-0.721 V 0 h -0.33 v 2.198 c 0,0.179 -0.096,0.346 -0.252,0.436 -1.785,1.025 -2.893,2.939 -2.893,4.995 0,3.173 2.582,5.756 5.756,5.756 3.174,0 5.756,-2.583 5.756,-5.756 C 3.146,5.573 2.037,3.659 0.252,2.634 0.097,2.544 0,2.377 0,2.198 Z" />
      </g>
      <g
         transform="matrix(0.35277777,0,0,-0.35277777,108.62005,97.806297)"
         id="g437">
        <path
           inkscape:connector-curvature="0"
           id="path439"
           style="fill:#110f0d;fill-opacity:1;fill-rule:nonzero;stroke:none"
           d="m 0,0 c -1.439,0 -2.61,1.171 -2.61,2.61 v 0.358 h 0.329 V 2.61 c 0,-1.257 1.023,-2.281 2.281,-2.281 1.258,0 2.281,1.024 2.281,2.281 V 2.968 H 2.61 V 2.61 C 2.61,1.171 1.439,0 0,0" />
      </g>
      <g
         transform="matrix(0.35277777,0,0,-0.35277777,110.89589,97.098555)"
         id="g441">
        path
           inkscape:connector-curvature=&quot;0&quot;
           id=&quot;path443&quot;
           style=&quot;fill:#110f0d;fill-opacity:1;fill-rule:nonzero;stroke:none&quot;
           d=&quot;M 0,0 V 0 C -0.136,0 -0.264,0.053 -0.359,0.149 L -1.386,1.176 -1.572,1.06 C -1.805,0.915 -2.041,0.834 -2.269,0.756 -2.408,0.709 -2.549,0.661 -2.691,0.597 l -0.135,0.301 c 0.154,0.069 0.305,0.12 0.451,0.17 0.22,0.075 0.428,0.146 0.628,0.271 l 0.409,0.255 1.212,-1.212 C -0.093,0.348 -0.048,0.329 0,0.329 v 0 c 0.048,0 0.093,0.019 0.127,0.053 l 2.007,2.007 c 0.034,0.034 0.053,0.079 0.053,0.127 0,0.048 -0.019,0.093 -0.053,0.127 L 0.922,3.854 1.177,4.262 c 0.525,0.844 0.905,1.763 1.131,2.733 l 0.109,0.468 h 1.714 c 0.098,0 0.179,0.08 0.179,0.179 v 2.839 c 0,0.098 -0.081,0.179 -0.179,0.179 H 2.417 L 2.308,11.128 C 2.083,12.097 1.702,13.016 1.177,13.86 l -0.255,0.408 1.212,1.212 c 0.034,0.034 0.053,0.079 0.053,0.126 0,0.049 -0.019,0.094 -0.053,0.128 L 0.127,17.741 C 0.093,17.775 0.048,17.793 0,17.793 c -0.047,0 -0.093,-0.018 -0.126,-0.052 l -1.212,-1.212 -0.409,0.254 c -0.843,0.525 -1.762,0.906 -2.732,1.132 l -0.468,0.108 v 1.715 c 0,0.098 -0.08,0.179 -0.179,0.179 h -2.839 c -0.098,0 -0.179,-0.081 -0.179,-0.179 v -1.715 l -0.468,-0.108 c -0.969,-0.226 -1.888,-0.606 -2.732,-1.132 l -0.408,-0.254 -1.212,1.212 c -0.034,0.034 -0.078,0.052 -0.126,0.052 -0.049,0 -0.094,-0.018 -0.127,-0.052 l -2.008,-2.007 c -0.034,-0.034 -0.052,-0.079 -0.052,-0.127 0,-0.048 0.018,-0.093 0.052,-0.127 l 1.212,-1.212 -0.254,-0.408 c -0.525,-0.843 -0.906,-1.763 -1.131,-2.732 l -0.109,-0.468 h -1.715 c -0.098,0 -0.178,-0.081 -0.178,-0.179 V 7.642 c 0,-0.099 0.08,-0.179 0.178,-0.179 h 1.715 l 0.109,-0.468 c 0.225,-0.969 0.606,-1.888 1.131,-2.733 l 0.254,-0.408 -1.212,-1.211 c -0.034,-0.034 -0.052,-0.079 -0.052,-0.127 0,-0.048 0.018,-0.093 0.052,-0.127 l 2.007,-2.007 c 0.034,-0.034 0.079,-0.053 0.127,-0.053 0.048,0 0.093,0.019 0.127,0.053 l 1.212,1.212 0.408,-0.255 c 0.248,-0.154 0.505,-0.262 0.777,-0.377 0.102,-0.043 0.205,-0.087 0.308,-0.133 l -0.135,-0.301 c -0.101,0.046 -0.201,0.088 -0.301,0.13 -0.272,0.115 -0.553,0.234 -0.823,0.402 l -0.186,0.116 -1.027,-1.027 C -12.827,0.053 -12.955,0 -13.091,0 c -0.136,0 -0.263,0.053 -0.36,0.149 l -2.007,2.007 c -0.096,0.096 -0.148,0.224 -0.148,0.36 0,0.136 0.053,0.264 0.149,0.36 l 1.026,1.026 -0.115,0.187 c -0.545,0.874 -0.94,1.827 -1.173,2.831 l -0.05,0.214 h -1.453 c -0.28,0 -0.508,0.227 -0.508,0.508 v 2.839 c 0,0.28 0.228,0.508 0.508,0.508 h 1.453 l 0.05,0.214 c 0.234,1.004 0.628,1.957 1.173,2.831 l 0.115,0.186 -1.027,1.027 c -0.096,0.096 -0.148,0.224 -0.148,0.361 0,0.135 0.053,0.263 0.149,0.359 l 2.007,2.006 c 0.096,0.097 0.223,0.149 0.36,0.149 0.135,0 0.263,-0.053 0.359,-0.149 l 1.027,-1.026 0.186,0.116 c 0.875,0.544 1.828,0.939 2.831,1.172 l 0.214,0.05 v 1.453 c 0,0.28 0.228,0.508 0.508,0.508 h 2.839 c 0.28,0 0.509,-0.228 0.509,-0.508 v -1.453 l 0.213,-0.05 c 1.005,-0.234 1.957,-0.628 2.832,-1.172 l 0.186,-0.116 1.027,1.026 c 0.096,0.097 0.224,0.149 0.359,0.149 h 0.001 c 0.136,0 0.264,-0.053 0.359,-0.149 l 2.007,-2.007 c 0.096,-0.096 0.149,-0.224 0.149,-0.36 0,-0.136 -0.053,-0.263 -0.149,-0.359 L 1.34,14.22 1.456,14.034 c 0.545,-0.874 0.94,-1.827 1.172,-2.831 l 0.05,-0.214 h 1.453 c 0.281,0 0.508,-0.228 0.508,-0.508 V 7.642 C 4.639,7.361 4.412,7.134 4.131,7.134 H 2.678 L 2.628,6.92 C 2.395,5.916 2,4.963 1.456,4.089 L 1.34,3.902 2.367,2.875 C 2.463,2.779 2.516,2.651 2.516,2.515 2.516,2.379 2.463,2.252 2.367,2.156 L 0.36,0.149 C 0.264,0.053 0.136,0 0,0&quot; /&gt;
      </g>
      <g
         transform="matrix(0.35277777,0,0,-0.35277777,106.27789,97.405612)"
         id="g445">
        <path
           inkscape:connector-curvature="0"
           id="path447"
           style="fill:#110f0d;fill-opacity:1;fill-rule:nonzero;stroke:none"
           d="M 0,0 V 0 C -0.374,0 -0.732,0.144 -0.983,0.396 L -2.99,2.403 c -0.263,0.263 -0.407,0.612 -0.407,0.983 0,0.372 0.144,0.721 0.407,0.983 l 0.54,0.54 c -0.391,0.699 -0.699,1.442 -0.917,2.213 h -0.764 c -0.766,0 -1.39,0.624 -1.39,1.391 v 2.838 c 0,0.767 0.624,1.39 1.39,1.39 h 0.764 c 0.218,0.771 0.525,1.514 0.916,2.213 l -0.54,0.54 c -0.262,0.263 -0.407,0.612 -0.407,0.983 0,0.371 0.145,0.721 0.407,0.983 l 2.007,2.007 c 0.252,0.252 0.61,0.396 0.983,0.396 H 0 c 0.374,0 0.731,-0.144 0.983,-0.396 l 0.539,-0.54 c 0.699,0.391 1.443,0.699 2.214,0.917 v 0.764 c 0,0.767 0.623,1.39 1.389,1.39 h 2.839 c 0.767,0 1.39,-0.623 1.39,-1.39 v -0.764 c 0.771,-0.218 1.515,-0.526 2.213,-0.916 l 0.54,0.54 c 0.524,0.523 1.442,0.523 1.967,0 l 2.007,-2.007 c 0.262,-0.263 0.407,-0.613 0.407,-0.984 0,-0.371 -0.145,-0.72 -0.407,-0.983 l -0.54,-0.54 c 0.39,-0.697 0.698,-1.441 0.916,-2.213 h 0.764 c 0.766,0 1.39,-0.623 1.391,-1.39 V 8.512 c 0,-0.766 -0.624,-1.39 -1.39,-1.39 H 16.458 C 16.24,6.353 15.932,5.609 15.541,4.909 l 0.54,-0.54 c 0.263,-0.263 0.407,-0.612 0.407,-0.983 0,-0.371 -0.144,-0.72 -0.407,-0.983 L 14.074,0.396 c -0.524,-0.524 -1.443,-0.524 -1.967,0 L 11.565,0.938 C 11.306,0.806 11,0.703 10.704,0.603 10.529,0.545 10.359,0.488 10.208,0.427 l -0.122,0.306 c 0.156,0.062 0.331,0.122 0.513,0.183 0.325,0.109 0.661,0.222 0.914,0.368 l 0.11,0.062 0.717,-0.717 c 0.4,-0.4 1.101,-0.4 1.501,0 l 2.007,2.007 c 0.2,0.2 0.311,0.467 0.311,0.75 0,0.283 -0.111,0.55 -0.311,0.751 l -0.718,0.717 0.063,0.11 c 0.428,0.743 0.758,1.539 0.98,2.366 l 0.033,0.122 h 1.016 c 0.585,0 1.061,0.475 1.061,1.06 v 2.839 c -0.001,0.585 -0.477,1.061 -1.062,1.061 h -1.015 l -0.033,0.122 c -0.224,0.829 -0.553,1.625 -0.98,2.366 l -0.063,0.109 0.718,0.718 c 0.2,0.2 0.31,0.467 0.31,0.75 0,0.284 -0.11,0.55 -0.31,0.751 l -2.007,2.007 c -0.4,0.399 -1.101,0.399 -1.501,0 l -0.718,-0.718 -0.109,0.063 c -0.742,0.427 -1.538,0.756 -2.366,0.979 l -0.122,0.033 v 1.016 c 0,0.585 -0.476,1.061 -1.061,1.061 H 5.125 c -0.584,0 -1.06,-0.476 -1.06,-1.061 V 19.592 L 3.943,19.559 C 3.115,19.336 2.319,19.007 1.577,18.579 L 1.468,18.516 0.75,19.234 c -0.19,0.191 -0.463,0.3 -0.75,0.3 v 0 c -0.288,-10e-4 -0.561,-0.11 -0.751,-0.3 l -2.007,-2.006 c -0.2,-0.201 -0.31,-0.467 -0.31,-0.751 0,-0.283 0.11,-0.55 0.31,-0.751 l 0.718,-0.717 -0.063,-0.11 c -0.428,-0.742 -0.757,-1.538 -0.98,-2.365 l -0.032,-0.122 h -1.016 c -0.585,0 -1.061,-0.476 -1.061,-1.061 V 8.513 c 0,-0.585 0.476,-1.061 1.061,-1.061 h 1.016 L -3.083,7.33 C -2.859,6.502 -2.53,5.706 -2.103,4.964 L -2.04,4.854 -2.757,4.137 C -2.958,3.936 -3.068,3.67 -3.068,3.386 c 0,-0.283 0.11,-0.55 0.311,-0.751 L -0.75,0.629 c 0.189,-0.191 0.463,-0.3 0.75,-0.3 0.287,0 0.56,0.109 0.75,0.3 L 1.468,1.346 1.577,1.284 C 1.932,1.08 2.393,0.896 2.8,0.734 L 2.952,0.673 2.829,0.368 2.678,0.428 C 2.301,0.578 1.878,0.747 1.524,0.937 L 0.983,0.396 C 0.732,0.144 0.374,0 0,0" />
      </g>
      <g
         transform="matrix(0.35277777,0,0,-0.35277777,108.58682,98.277362)"
         id="g449">
        <path
           inkscape:connector-curvature="0"
           id="path451"
           style="fill:#110f0d;fill-opacity:1;fill-rule:nonzero;stroke:none"
           d="M 0,0 C -2.136,0 -3.866,1.674 -3.939,3.811 L -3.61,3.822 C -3.543,1.864 -1.958,0.329 0,0.329 c 1.958,0 3.543,1.534 3.61,3.493 L 3.939,3.81 C 3.866,1.674 2.136,0 0,0" />
      </g>
      <g
         transform="matrix(0.35277777,0,0,-0.35277777,109.97881,96.590766)"
         id="g453">
        <path
           inkscape:connector-curvature="0"
           id="path455"
           style="fill:#110f0d;fill-opacity:1;fill-rule:nonzero;stroke:none"
           d="m 0,0 h -0.33 v 1.436 l 0.075,0.049 c 1.923,1.255 3.071,3.374 3.071,5.666 0,3.729 -3.033,6.762 -6.762,6.762 -3.728,0 -6.762,-3.033 -6.762,-6.762 0,-2.292 1.148,-4.411 3.071,-5.666 L -7.562,1.436 V 0 h -0.329 v 1.259 c -1.972,1.322 -3.146,3.518 -3.146,5.892 0,3.911 3.181,7.092 7.091,7.092 3.91,0 7.092,-3.181 7.092,-7.092 C 3.146,4.777 1.972,2.581 0,1.258 Z" />
      </g>
      <g
         transform="matrix(0.35277777,0,0,-0.35277777,109.97638,96.933102)"
         id="g457">
        <path
           inkscape:connector-curvature="0"
           id="path459"
           style="fill:#110f0d;fill-opacity:1;fill-rule:nonzero;stroke:none"
           d="m 0,0 -0.329,0.011 0.003,0.06 c 0.002,0.021 0.003,0.042 0.003,0.064 V 0.97 h 0.33 V 0.135 C 0.007,0.106 0.005,0.077 0.003,0.048 Z" />
      </g>
      <g
         transform="matrix(0.35277777,0,0,-0.35277777,107.19723,96.933172)"
         id="g461">
        <path
           inkscape:connector-curvature="0"
           id="path463"
           style="fill:#110f0d;fill-opacity:1;fill-rule:nonzero;stroke:none"
           d="M 0,0 -0.003,0.047 C -0.004,0.076 -0.006,0.105 -0.006,0.135 V 0.971 H 0.323 V 0.135 C 0.323,0.113 0.324,0.091 0.326,0.07 L 0.329,0.012 Z" />
      </g>
      <g
         transform="matrix(0.35277777,0,0,-0.35277777,108.74285,94.791847)"
         id="g465">
        <path
           inkscape:connector-curvature="0"
           id="path467"
           style="fill:#e62941;fill-opacity:1;fill-rule:nonzero;stroke:none"
           d="m 0,0 v 0 c -0.407,0 -0.736,0.33 -0.736,0.737 v 3.491 c 0,0.407 0.329,0.736 0.736,0.736 0.407,0 0.737,-0.329 0.737,-0.736 V 0.737 C 0.737,0.33 0.407,0 0,0" />
      </g>
      <g
         transform="matrix(0.35277777,0,0,-0.35277777,108.62005,93.098584)"
         id="g469">
        <path
           inkscape:connector-curvature="0"
           id="path471"
           style="fill:#110f0d;fill-opacity:1;fill-rule:nonzero;stroke:none"
           d="m 0,0 c -0.315,0 -0.572,-0.257 -0.572,-0.572 v -3.491 c 0,-0.316 0.257,-0.572 0.572,-0.572 0.315,0 0.572,0.256 0.572,0.572 v 3.491 C 0.572,-0.257 0.315,0 0,0 m 0,-4.964 c -0.497,0 -0.901,0.404 -0.901,0.901 v 3.491 c 0,0.497 0.404,0.901 0.901,0.901 0.497,0 0.901,-0.404 0.901,-0.901 V -4.063 C 0.901,-4.56 0.497,-4.964 0,-4.964" />
      </g>
      <g
         transform="matrix(0.35277777,0,0,-0.35277777,109.02398,95.285347)"
         id="g473">
        <path
           inkscape:connector-curvature="0"
           id="path475"
           style="fill:#e62941;fill-opacity:1;fill-rule:nonzero;stroke:none"
           d="m 0,0 c 0,-0.44 -0.357,-0.797 -0.797,-0.797 -0.44,0 -0.796,0.357 -0.796,0.797 0,0.44 0.356,0.797 0.796,0.797 C -0.357,0.797 0,0.44 0,0" />
      </g>
      <g
         transform="matrix(0.35277777,0,0,-0.35277777,108.62005,95.148611)"
         id="g477">
        <path
           inkscape:connector-curvature="0"
           id="path479"
           style="fill:#110f0d;fill-opacity:1;fill-rule:nonzero;stroke:none"
           d="m 0,0 c -0.348,0 -0.632,-0.283 -0.632,-0.632 0,-0.348 0.284,-0.632 0.632,-0.632 0.349,0 0.632,0.284 0.632,0.632 C 0.632,-0.283 0.349,0 0,0 m 0,-1.593 c -0.53,0 -0.961,0.431 -0.961,0.961 0,0.53 0.431,0.961 0.961,0.961 0.53,0 0.961,-0.431 0.961,-0.961 0,-0.53 -0.431,-0.961 -0.961,-0.961" />
      </g>
    </g>
    <g
       inkscape:export-ydpi="96"
       inkscape:export-xdpi="96"
       transform="matrix(3.9370689,0,0,3.9370689,-406.13248,-93.341598)"
       id="g1021">
      <g
         id="g923"
         transform="matrix(0.35277777,0,0,-0.35277777,113.95581,93.680456)">
        <path
           d="m 0,0 c 0,-8.405 -6.814,-15.219 -15.219,-15.219 -8.406,0 -15.219,6.814 -15.219,15.219 0,8.405 6.813,15.219 15.219,15.219 C -6.814,15.219 0,8.405 0,0"
           style="fill:#fae03c;fill-opacity:1;fill-rule:nonzero;stroke:none"
           id="path921"
           inkscape:connector-curvature="0" />
      </g>
      <g
         id="g927"
         transform="matrix(0.35277777,0,0,-0.35277777,112.10546,92.763621)">
        <path
           d="m 0,0 h -0.89 c -0.227,0.843 -0.561,1.649 -0.996,2.405 l 0.629,0.629 c 0.231,0.231 0.359,0.539 0.359,0.867 0,0.327 -0.128,0.635 -0.359,0.867 l -2.007,2.007 c -0.463,0.462 -1.27,0.463 -1.734,0 L -5.626,6.146 c -0.757,0.435 -1.563,0.769 -2.406,0.996 v 0.889 c 0,0.676 -0.549,1.226 -1.225,1.226 h -2.839 c -0.675,0 -1.225,-0.55 -1.225,-1.226 V 7.142 C -14.164,6.915 -14.97,6.581 -15.727,6.146 l -0.628,0.628 c -0.463,0.464 -1.271,0.463 -1.734,0 l -2.007,-2.007 c -0.231,-0.231 -0.359,-0.539 -0.359,-0.867 0,-0.327 0.128,-0.635 0.359,-0.866 l 0.629,-0.629 C -19.902,1.649 -20.236,0.843 -20.463,0 h -0.89 c -0.675,0 -1.225,-0.55 -1.225,-1.225 v -2.839 c 0,-0.676 0.55,-1.226 1.225,-1.226 h 0.89 c 0.227,-0.842 0.561,-1.648 0.996,-2.405 l -0.629,-0.629 c -0.231,-0.231 -0.358,-0.539 -0.358,-0.866 0,-0.328 0.127,-0.636 0.358,-0.867 l 2.008,-2.007 c 0.463,-0.464 1.27,-0.464 1.733,0 l 0.629,0.628 c 0,0 4.439,-3.505 10.1,0 l 0.628,-0.628 c 0.464,-0.464 1.271,-0.463 1.734,0 l 2.007,2.007 c 0.232,0.231 0.359,0.539 0.359,0.867 0,0.327 -0.127,0.634 -0.359,0.866 l -0.629,0.629 c 0.435,0.757 0.77,1.563 0.997,2.405 H 0 c 0.676,0 1.226,0.55 1.226,1.226 v 2.839 C 1.225,-0.55 0.675,0 0,0"
           style="fill:#4db396;fill-opacity:1;fill-rule:nonzero;stroke:none"
           id="path925"
           inkscape:connector-curvature="0" />
      </g>
      <g
         id="g931"
         transform="matrix(0.35277777,0,0,-0.35277777,112.33939,92.853015)">
        <path
           d="m 0,0 h -0.763 c -0.195,0.718 -0.481,1.406 -0.855,2.05 l 0.539,0.535 c 0.199,0.198 0.308,0.46 0.308,0.739 0,0.279 -0.109,0.541 -0.308,0.739 L -2.8,5.773 c -0.398,0.394 -1.09,0.395 -1.488,0 L -4.827,5.237 c -0.649,0.371 -1.34,0.655 -2.063,0.849 v 0.758 c 0,0.576 -0.472,1.044 -1.051,1.044 h -2.436 c -0.58,0 -1.051,-0.468 -1.051,-1.044 V 6.086 c -0.723,-0.194 -1.414,-0.478 -2.064,-0.849 l -0.539,0.536 c -0.397,0.395 -1.09,0.394 -1.487,0 L -17.24,4.062 c -0.198,-0.197 -0.308,-0.459 -0.308,-0.739 0,-0.278 0.11,-0.54 0.308,-0.738 l 0.539,-0.536 C -17.074,1.406 -17.361,0.718 -17.555,0 h -0.763 c -0.58,0 -1.052,-0.468 -1.052,-1.044 v -2.419 c 0,-0.576 0.472,-1.044 1.052,-1.044 h 0.763 c 0.195,-0.718 0.481,-1.405 0.854,-2.05 l -0.539,-0.536 c -0.198,-0.197 -0.307,-0.46 -0.307,-0.738 0,-0.279 0.109,-0.542 0.307,-0.739 l 1.722,-1.71 c 0.397,-0.395 1.09,-0.396 1.487,0 l 0.54,0.535 c 0,0 3.808,-2.987 8.664,0 l 0.539,-0.535 c 0.398,-0.396 1.09,-0.395 1.488,0 l 1.722,1.71 c 0.198,0.197 0.307,0.46 0.307,0.739 0,0.278 -0.109,0.541 -0.307,0.738 l -0.54,0.536 c 0.374,0.645 0.66,1.332 0.855,2.05 H 0 c 0.58,0 1.051,0.468 1.051,1.044 v 2.419 C 1.051,-0.468 0.58,0 0,0"
           style="fill:#3b9490;fill-opacity:1;fill-rule:nonzero;stroke:none"
           id="path929"
           inkscape:connector-curvature="0" />
      </g>
      <g
         id="g935"
         transform="matrix(0.35277777,0,0,-0.35277777,109.81152,95.649661)">
        <path
           d="m 0,0 c -0.207,-0.119 -0.335,-0.34 -0.335,-0.579 v -0.662 -1.336 -0.199 -0.359 c 0,-1.348 -1.097,-2.445 -2.446,-2.445 -1.348,0 -2.446,1.097 -2.446,2.445 v 0.359 h 0.001 v 0.199 1.336 0.662 c 0,0.239 -0.128,0.46 -0.336,0.579 -1.733,0.996 -2.81,2.855 -2.81,4.852 0,3.083 2.508,5.592 5.591,5.592 3.084,0 5.592,-2.509 5.592,-5.592 C 2.811,2.855 1.734,0.996 0,0 m 4.146,4.852 c 0,3.82 -3.107,6.927 -6.927,6.927 -3.819,0 -6.927,-3.107 -6.927,-6.927 0,-2.342 1.196,-4.531 3.146,-5.804 v -1.347 -0.836 c 0,-0.043 0.005,-0.085 0.007,-0.129 0.069,-2.024 1.733,-3.652 3.774,-3.652 2.041,0 3.705,1.627 3.775,3.652 C 0.995,-3.221 1,-3.178 1,-3.135 v 0.836 0.39 0.957 C 2.95,0.321 4.146,2.51 4.146,4.852"
           style="fill:#f6e156;fill-opacity:1;fill-rule:nonzero;stroke:none"
           id="path933"
           inkscape:connector-curvature="0" />
      </g>
      <g
         id="g939"
         transform="matrix(0.35277777,0,0,-0.35277777,111.13014,93.873284)">
        <path
           d="m 0,0 c 0,-3.315 -2.864,-6.002 -6.397,-6.002 -3.534,0 -6.398,2.687 -6.398,6.002 0,3.315 2.864,6.002 6.398,6.002 C -2.864,6.002 0,3.315 0,0"
           style="fill:#f6e156;fill-opacity:1;fill-rule:nonzero;stroke:none"
           id="path937"
           inkscape:connector-curvature="0" />
      </g>
      <g
         id="g943"
         transform="matrix(0.35277777,0,0,-0.35277777,108.22508,95.785022)">
        <path
           d="M 0,0 C 0.261,-1.094 0.521,-2.187 0.783,-3.281 0.636,-1.994 0.304,-0.729 -0.2,0.464 -0.563,-0.34 -0.927,-1.144 -1.291,-1.948 c 0.25,0.802 0.5,1.605 0.75,2.408 -0.011,-1.304 -0.121,-2.608 -0.327,-3.895 0.12,0.975 0.333,1.94 0.633,2.876 -0.077,-0.842 -0.155,-1.684 -0.233,-2.526 -0.043,-0.471 -0.085,-0.957 0.057,-1.408 0.233,1.317 0.479,2.67 1.185,3.807 C 0.69,-2.026 0.606,-3.365 0.521,-4.705 0.4,-4.442 0.333,-4.155 0.325,-3.866 l -0.012,-0.73 c 0.443,1.317 0.706,2.694 0.779,4.081 0.015,-1.069 -0.086,-2.14 -0.299,-3.187 0.16,1.242 0.213,2.498 0.158,3.749 0.148,-0.694 0.295,-1.388 0.442,-2.082 0.123,0.598 0.246,1.196 0.369,1.794 0.096,-0.208 0.192,-0.417 0.288,-0.626 0.05,0.253 0.138,0.499 0.263,0.725 0.066,-0.467 0.133,-0.934 0.2,-1.401 0.272,0.164 0.483,0.427 0.584,0.728 0.081,-0.081 0.163,-0.161 0.245,-0.242 0.19,0.35 0.348,0.718 0.472,1.097 0.069,-0.193 0.138,-0.385 0.207,-0.578 0.186,0.332 0.372,0.664 0.557,0.996 C 4.39,0.007 4.202,-0.445 4.014,-0.897 5.157,0.558 6.212,2.081 7.171,3.663 7.643,4.442 8.096,5.432 7.631,6.216 7.37,5.708 7.226,5.141 7.212,4.571 7.444,5.511 7.158,6.493 6.873,7.419 6.652,8.135 6.411,8.887 5.859,9.395 5.471,9.754 4.965,9.954 4.473,10.147 3.894,10.373 3.312,10.6 2.704,10.724 0.423,11.189 -2.121,9.967 -3.097,7.854 -3.327,7.358 -3.473,6.829 -3.619,6.303 -3.753,5.816 -3.887,5.289 -3.71,4.816 c 0.124,-0.333 0.386,-0.592 0.596,-0.88 0.21,-0.287 0.375,-0.654 0.265,-0.992 -0.48,0.077 -0.88,0.505 -0.925,0.988 0.502,-0.627 0.736,-1.42 1.083,-2.144 0.346,-0.725 0.884,-1.441 1.665,-1.629 -0.138,0.264 -0.363,0.482 -0.632,0.611 0.991,-1.184 2.107,-2.262 3.324,-3.211 0.047,0.291 0.094,0.582 0.14,0.873 0.139,-0.346 0.231,-0.711 0.272,-1.081 0.031,0.56 0.062,1.121 0.093,1.682 0.302,-0.785 0.604,-1.569 0.906,-2.353 0.096,0.718 0.198,1.434 0.307,2.15 0.244,-0.39 0.408,-0.83 0.481,-1.285 0.018,0.401 0.079,0.801 0.181,1.189 0.26,-0.776 0.059,-1.661 -0.411,-2.332 -0.47,-0.67 -1.183,-1.142 -1.945,-1.443 0.519,0.485 1.037,0.97 1.556,1.455 0.053,0.05 0.109,0.101 0.177,0.127 0.265,0.1 0.51,-0.27 0.412,-0.536 C 3.738,-4.26 3.459,-4.407 3.199,-4.519 2.721,-4.723 2.226,-4.893 1.717,-4.995 1.33,-5.073 0.856,-5.081 0.622,-4.763 1.045,-4.189 1.363,-3.537 1.556,-2.85 1.438,-3.349 1.32,-3.848 1.202,-4.347 c 0.27,0.492 0.54,0.984 0.809,1.475 -0.043,-0.375 -0.086,-0.751 -0.129,-1.126 0.201,0.215 0.4,0.431 0.6,0.646 C 2.355,-3.93 1.89,-4.42 1.319,-4.577 1.927,-3.961 2.33,-3.146 2.45,-2.289 2.415,-2.663 2.379,-3.038 2.344,-3.413 2.137,-2.857 1.93,-2.301 1.723,-1.745"
           style="fill:#f6e156;fill-opacity:1;fill-rule:nonzero;stroke:none"
           id="path941"
           inkscape:connector-curvature="0" />
      </g>
      <g
         id="g947"
         transform="matrix(0.35277777,0,0,-0.35277777,107.69609,95.804248)">
        <path
           d="m 0,0 c 0.419,-0.699 0.625,-1.542 0.971,-2.282 0.2,-0.428 0.983,-0.234 0.921,0.25 C 1.778,-1.149 1.542,0.097 0.768,0.642 0.325,0.954 -0.097,0.367 0.092,-0.034 0.177,-0.214 0.262,-0.394 0.346,-0.575 0.617,-1.149 1.469,-0.648 1.199,-0.076 1.115,0.104 1.03,0.284 0.945,0.465 0.72,0.239 0.495,0.014 0.269,-0.211 0.493,-0.369 0.567,-0.785 0.647,-1.023 0.756,-1.352 0.859,-1.688 0.904,-2.032 1.21,-1.949 1.518,-1.866 1.824,-1.783 1.477,-1.04 1.275,-0.205 0.853,0.499 0.526,1.043 -0.328,0.547 0,0"
           style="fill:#f6e156;fill-opacity:1;fill-rule:nonzero;stroke:none"
           id="path945"
           inkscape:connector-curvature="0" />
      </g>
      <g
         id="g949"
         transform="matrix(0.35277777,0,0,-0.35277777,110.16448,96.338001)">
        path
           inkscape:connector-curvature=&quot;0&quot;
           id=&quot;path407&quot;
           style=&quot;fill:#a7a7a5;fill-opacity:1;fill-rule:nonzero;stroke:none&quot;
           d=&quot;m 0,0 h -7.562 v -0.277 -0.762 -0.705 c 0,-0.037 0.005,-0.072 0.006,-0.109 0.069,-1.708 1.734,-3.081 3.775,-3.081 2.041,0 3.705,1.373 3.774,3.081 C -0.005,-1.817 0,-1.781 0,-1.744 V -1.039 -0.71 0 c 0,0 0,0 0,0 z&quot; /&gt;
      </g>
      <g
         id="g953"
         transform="matrix(0.35277777,0,0,-0.35277777,110.10542,95.477364)">
        <path
           d="m 0,0 c -0.166,-0.095 -0.268,-0.272 -0.268,-0.463 v -0.529 -1.067 -0.16 -0.286 c 0,-1.078 -0.877,-1.954 -1.954,-1.954 -1.078,0 -1.955,0.876 -1.955,1.954 v 0.286 0.16 1.067 0.529 c 0,0.191 -0.102,0.368 -0.267,0.463 -1.386,0.796 -2.246,2.282 -2.246,3.878 0,2.463 2.004,4.468 4.468,4.468 2.464,0 4.468,-2.005 4.468,-4.468 C 2.246,2.282 1.385,0.796 0,0 m 3.313,3.878 c 0,3.052 -2.483,5.535 -5.535,5.535 -3.052,0 -5.536,-2.483 -5.536,-5.535 0,-1.872 0.956,-3.622 2.514,-4.639 v -1.076 -0.668 c 0,-0.035 0.004,-0.069 0.005,-0.103 0.055,-1.618 1.385,-2.918 3.016,-2.918 1.632,0 2.962,1.3 3.017,2.917 0.001,0.035 0.005,0.069 0.005,0.104 v 0.668 0.311 c 0,0.001 0,0.765 0,0.765 1.558,1.017 2.514,2.767 2.514,4.639"
           style="fill:#f1a644;fill-opacity:1;fill-rule:nonzero;stroke:none"
           id="path951"
           inkscape:connector-curvature="0" />
      </g>
      <g
         id="g957"
         transform="matrix(0.35277777,0,0,-0.35277777,111.1591,94.057822)">
        <path
           d="m 0,0 c 0,-2.649 -2.289,-4.796 -5.112,-4.796 -2.824,0 -5.113,2.147 -5.113,4.796 0,2.649 2.289,4.796 5.113,4.796 C -2.289,4.796 0,2.649 0,0"
           style="fill:#f1a644;fill-opacity:1;fill-rule:nonzero;stroke:none"
           id="path955"
           inkscape:connector-curvature="0" />
      </g>
      <g
         id="g961"
         transform="matrix(0.35277777,0,0,-0.35277777,108.83743,95.585491)">
        <path
           d="m 0,0 0.625,-2.622 c -0.117,1.028 -0.382,2.04 -0.785,2.993 l -0.871,-1.928 0.599,1.924 c -0.009,-1.042 -0.096,-2.083 -0.261,-3.112 0.096,0.779 0.266,1.55 0.506,2.298 l -0.187,-2.018 c -0.034,-0.377 -0.068,-0.765 0.046,-1.126 0.186,1.053 0.383,2.134 0.947,3.042 L 0.417,-3.76 C 0.32,-3.55 0.267,-3.32 0.26,-3.089 0.257,-3.284 0.254,-3.478 0.251,-3.673 c 0.353,1.053 0.563,2.153 0.622,3.262 0.012,-0.855 -0.068,-1.71 -0.239,-2.548 0.128,0.993 0.17,1.997 0.126,2.996 0.118,-0.554 0.236,-1.109 0.354,-1.663 0.098,0.478 0.196,0.956 0.294,1.434 0.077,-0.167 0.154,-0.334 0.231,-0.501 0.039,0.203 0.11,0.399 0.209,0.579 l 0.16,-1.119 c 0.218,0.131 0.386,0.341 0.467,0.582 0.065,-0.065 0.13,-0.129 0.196,-0.194 0.152,0.28 0.278,0.574 0.377,0.877 C 3.104,-0.122 3.159,-0.276 3.214,-0.43 3.362,-0.165 3.51,0.101 3.659,0.366 3.508,0.005 3.358,-0.356 3.208,-0.717 4.122,0.446 4.964,1.663 5.731,2.927 6.108,3.55 6.47,4.341 6.099,4.967 5.89,4.562 5.774,4.109 5.764,3.653 5.949,4.404 5.72,5.189 5.493,5.929 5.316,6.501 5.123,7.102 4.683,7.508 4.372,7.795 3.968,7.955 3.574,8.109 3.112,8.29 2.647,8.471 2.161,8.57 0.338,8.941 -1.694,7.965 -2.475,6.276 -2.658,5.88 -2.775,5.457 -2.892,5.037 -3,4.648 -3.106,4.227 -2.965,3.849 c 0.099,-0.267 0.309,-0.474 0.477,-0.703 0.167,-0.23 0.3,-0.523 0.212,-0.793 -0.384,0.061 -0.704,0.403 -0.74,0.789 0.402,-0.501 0.588,-1.134 0.866,-1.713 0.276,-0.579 0.706,-1.152 1.33,-1.302 -0.11,0.211 -0.29,0.385 -0.505,0.488 0.792,-0.946 1.684,-1.807 2.657,-2.565 0.037,0.232 0.074,0.465 0.112,0.697 0.111,-0.276 0.184,-0.568 0.217,-0.864 0.025,0.448 0.049,0.896 0.074,1.344 l 0.724,-1.88 c 0.077,0.573 0.159,1.146 0.246,1.718 0.194,-0.312 0.326,-0.664 0.384,-1.027 0.015,0.321 0.063,0.64 0.144,0.951 0.208,-0.621 0.048,-1.328 -0.328,-1.864 -0.376,-0.536 -0.946,-0.913 -1.554,-1.154 0.414,0.388 0.829,0.775 1.243,1.163 0.043,0.04 0.087,0.081 0.142,0.102 0.212,0.08 0.408,-0.216 0.329,-0.428 C 2.988,-3.405 2.764,-3.522 2.556,-3.611 2.174,-3.775 1.779,-3.91 1.372,-3.992 1.063,-4.054 0.685,-4.06 0.498,-3.807 c 0.337,0.46 0.591,0.98 0.746,1.529 -0.095,-0.398 -0.189,-0.797 -0.283,-1.196 0.215,0.393 0.431,0.786 0.646,1.179 -0.034,-0.3 -0.068,-0.6 -0.103,-0.9 0.161,0.172 0.32,0.344 0.48,0.516 C 1.882,-3.14 1.51,-3.532 1.054,-3.658 1.54,-3.165 1.862,-2.514 1.958,-1.829 1.93,-2.128 1.901,-2.428 1.873,-2.727 1.708,-2.283 1.542,-1.839 1.377,-1.395"
           style="fill:#f1a644;fill-opacity:1;fill-rule:nonzero;stroke:none"
           id="path959"
           inkscape:connector-curvature="0" />
      </g>
      <g
         id="g965"
         transform="matrix(0.35277777,0,0,-0.35277777,108.41629,95.217085)">
        <path
           d="m 0,0 c 0.102,-0.432 0.327,-0.834 0.644,-1.145 -0.163,0.554 -0.486,1.06 -0.92,1.441 0.413,-1.211 0.912,-2.393 1.491,-3.533 0.084,1.019 0.245,2.031 0.484,3.025 L 1.658,-2.754 C 1.417,-1.963 1.04,-1.214 0.547,-0.552 0.333,-1.248 0.413,-2.029 0.762,-2.668 0.954,-1.824 1.065,-0.961 1.095,-0.096 0.856,-0.747 0.65,-1.409 0.478,-2.08 0.414,-2.329 0.354,-2.585 0.378,-2.841 c 0.066,-0.7 0.744,-1.265 0.69,-1.966 -0.229,0.424 -0.161,0.988 0.162,1.344 0.115,-0.543 0.307,-1.071 0.567,-1.562 0.106,0.669 0.177,1.344 0.211,2.02 0.196,-0.52 0.274,-1.084 0.227,-1.637 0.074,0.77 0.034,1.552 -0.118,2.311 -0.239,-0.435 -0.363,-0.933 -0.356,-1.429 0.238,0.803 0.476,1.606 0.715,2.41 0.062,-0.421 0.1,-0.845 0.115,-1.27 -0.012,0.558 0.022,1.116 0.1,1.667 -0.067,-0.464 -0.163,-0.924 -0.285,-1.378 0.021,0.448 0.041,0.896 0.062,1.344 -0.07,-0.54 -0.14,-1.079 -0.211,-1.619 -0.047,0.637 -0.131,1.27 -0.253,1.897 -0.085,-0.558 -0.076,-1.131 0.026,-1.686 0.219,0.437 0.437,0.874 0.656,1.311 0.09,-0.444 0.182,-0.888 0.272,-1.332 l 0.673,1.794 C 3.664,-1.328 3.652,-2.036 3.597,-2.74 3.766,-2.227 3.935,-1.714 4.104,-1.201 4.186,-1.41 4.268,-1.619 4.35,-1.828 4.484,-1.382 4.619,-0.936 4.753,-0.49 4.669,-0.871 4.61,-1.258 4.577,-1.647 4.88,-0.945 5.664,-0.571 6.073,0.075 6.331,0.483 6.422,0.972 6.508,1.447 6.283,0.758 5.937,0.109 5.492,-0.462 5.262,-0.756 5.003,-1.034 4.835,-1.367 4.613,-1.806 4.564,-2.309 4.523,-2.799 4.483,-3.289 4.445,-3.791 4.243,-4.239 4.041,-4.687 3.635,-5.078 3.145,-5.117 2.657,-5.156 2.09,-4.868 1.719,-5.187 2.772,-4.748 3.489,-3.608 3.43,-2.468 3.118,-2.97 2.885,-3.521 2.741,-4.095 2.702,-3.737 2.664,-3.38 2.625,-3.022 c -0.018,-0.43 0.042,-0.862 0.177,-1.271 0.397,0.644 0.637,1.371 0.875,2.09 0.109,-0.732 0.097,-1.482 -0.034,-2.21 -0.198,0.042 -0.409,0.021 -0.594,-0.061 0.079,0.143 0.206,0.26 0.355,0.326 0.068,-0.127 0.104,-0.27 0.105,-0.414 0.82,0.811 0.907,2.084 0.945,3.236 C 4.311,-1.828 4.168,-2.33 4.025,-2.832 3.72,-2.707 3.668,-2.287 3.763,-1.971 c 0.095,0.315 0.288,0.607 0.303,0.936"
           style="fill:#f1a644;fill-opacity:1;fill-rule:nonzero;stroke:none"
           id="path963"
           inkscape:connector-curvature="0" />
      </g>
      <g
         id="g969"
         transform="matrix(0.35277777,0,0,-0.35277777,109.1387,96.324384)">
        <path
           d="M 0,0 C 0.435,0.507 0.664,1.06 0.304,1.677 0.119,1.995 -0.365,2 -0.549,1.677 -0.883,1.089 -1.009,0.023 -0.141,-0.178 0.806,-0.397 1.069,0.928 1.125,1.585 1.164,2.045 0.575,2.19 0.281,1.934 -0.194,1.52 -0.498,-0.147 0.268,-0.441 1.269,-0.826 1.619,1.116 1.703,1.703 1.785,2.269 1.15,2.537 0.801,2.084 0.428,1.602 -0.181,0.387 0.644,0.008 1.457,-0.366 2.044,0.705 2.292,1.29 1.991,1.329 1.689,1.368 1.389,1.408 1.483,0.87 1.626,0.361 1.824,-0.148 1.95,-0.473 2.375,-0.664 2.649,-0.366 3.059,0.079 3.143,0.619 3.163,1.208 3.189,1.989 2.805,2.457 2.612,3.171 2.444,3.792 1.542,3.526 1.66,2.908 1.744,2.464 1.88,2.066 2.061,1.655 2.345,1.821 2.629,1.987 2.914,2.154 2.78,1.865 2.837,1.778 3.084,1.89 3.173,1.912 3.26,1.941 3.343,1.979 3.563,2.067 3.75,2.199 3.942,2.336 4.455,2.702 3.962,3.559 3.443,3.188 2.887,2.792 1.521,2.674 2.061,1.655 2.364,1.081 3.163,1.585 2.914,2.154 2.764,2.496 2.681,2.809 2.612,3.171 2.294,3.083 1.977,2.996 1.66,2.908 1.863,2.157 2.643,1.084 1.951,0.333 2.226,0.26 2.501,0.187 2.777,0.115 2.579,0.623 2.436,1.133 2.341,1.67 2.271,2.066 1.602,2.174 1.438,1.788 1.411,1.723 1.024,0.947 0.996,0.968 1.078,0.826 1.159,0.683 1.241,0.541 1.203,0.944 1.418,1.281 1.654,1.585 1.353,1.712 1.052,1.839 0.751,1.966 0.72,1.752 0.327,0.573 0.53,0.511 0.645,0.396 0.76,0.281 0.875,0.167 0.796,0.413 0.78,1.061 0.98,1.235 0.699,1.352 0.418,1.468 0.137,1.585 0.126,1.304 0.057,1.039 -0.073,0.79 0.191,0.731 0.317,0.861 0.304,1.178 H -0.549 C -0.478,0.983 -0.528,0.823 -0.699,0.698 -1.11,0.218 -0.415,-0.484 0,0"
           style="fill:#f1a644;fill-opacity:1;fill-rule:nonzero;stroke:none"
           id="path967"
           inkscape:connector-curvature="0" />
      </g>
      <g
         id="g973"
         transform="matrix(0.35277777,0,0,-0.35277777,110.37738,96.360156)">
        <path
           d="m 0,0 h -5.998 v -0.22 -0.604 -0.559 c 0,-0.029 0.004,-0.058 0.005,-0.087 0.055,-1.355 1.375,-2.444 2.994,-2.444 1.619,0 2.939,1.089 2.994,2.444 C -0.004,-1.441 0,-1.413 0,-1.383 v 0.559 0.261 z"
           style="fill:#7a7b7d;fill-opacity:1;fill-rule:nonzero;stroke:none"
           id="path971"
           inkscape:connector-curvature="0" />
      </g>
      <g
         id="g977"
         transform="matrix(0.35277777,0,0,-0.35277777,109.54094,96.759112)">
        <path
           d="m 0,0 h -0.329 v 2.198 c 0,0.297 0.16,0.573 0.417,0.721 1.683,0.967 2.728,2.771 2.729,4.71 0,2.992 -2.435,5.426 -5.427,5.426 -2.993,0 -5.427,-2.434 -5.427,-5.426 0,-1.938 1.045,-3.743 2.728,-4.71 0.258,-0.148 0.418,-0.424 0.418,-0.721 V 0 h -0.33 v 2.198 c 0,0.179 -0.096,0.346 -0.252,0.436 -1.785,1.025 -2.893,2.939 -2.893,4.995 0,3.173 2.582,5.756 5.756,5.756 3.174,0 5.756,-2.583 5.756,-5.756 C 3.146,5.573 2.037,3.659 0.252,2.634 0.097,2.544 0,2.377 0,2.198 Z"
           style="fill:#110f0d;fill-opacity:1;fill-rule:nonzero;stroke:none"
           id="path975"
           inkscape:connector-curvature="0" />
      </g>
      <g
         id="g981"
         transform="matrix(0.35277777,0,0,-0.35277777,108.62005,97.806297)">
        <path
           d="m 0,0 c -1.439,0 -2.61,1.171 -2.61,2.61 v 0.358 h 0.329 V 2.61 c 0,-1.257 1.023,-2.281 2.281,-2.281 1.258,0 2.281,1.024 2.281,2.281 V 2.968 H 2.61 V 2.61 C 2.61,1.171 1.439,0 0,0"
           style="fill:#110f0d;fill-opacity:1;fill-rule:nonzero;stroke:none"
           id="path979"
           inkscape:connector-curvature="0" />
      </g>
      <g
         id="g983"
         transform="matrix(0.35277777,0,0,-0.35277777,110.89589,97.098555)">
        path
           inkscape:connector-curvature=&quot;0&quot;
           id=&quot;path443&quot;
           style=&quot;fill:#110f0d;fill-opacity:1;fill-rule:nonzero;stroke:none&quot;
           d=&quot;M 0,0 V 0 C -0.136,0 -0.264,0.053 -0.359,0.149 L -1.386,1.176 -1.572,1.06 C -1.805,0.915 -2.041,0.834 -2.269,0.756 -2.408,0.709 -2.549,0.661 -2.691,0.597 l -0.135,0.301 c 0.154,0.069 0.305,0.12 0.451,0.17 0.22,0.075 0.428,0.146 0.628,0.271 l 0.409,0.255 1.212,-1.212 C -0.093,0.348 -0.048,0.329 0,0.329 v 0 c 0.048,0 0.093,0.019 0.127,0.053 l 2.007,2.007 c 0.034,0.034 0.053,0.079 0.053,0.127 0,0.048 -0.019,0.093 -0.053,0.127 L 0.922,3.854 1.177,4.262 c 0.525,0.844 0.905,1.763 1.131,2.733 l 0.109,0.468 h 1.714 c 0.098,0 0.179,0.08 0.179,0.179 v 2.839 c 0,0.098 -0.081,0.179 -0.179,0.179 H 2.417 L 2.308,11.128 C 2.083,12.097 1.702,13.016 1.177,13.86 l -0.255,0.408 1.212,1.212 c 0.034,0.034 0.053,0.079 0.053,0.126 0,0.049 -0.019,0.094 -0.053,0.128 L 0.127,17.741 C 0.093,17.775 0.048,17.793 0,17.793 c -0.047,0 -0.093,-0.018 -0.126,-0.052 l -1.212,-1.212 -0.409,0.254 c -0.843,0.525 -1.762,0.906 -2.732,1.132 l -0.468,0.108 v 1.715 c 0,0.098 -0.08,0.179 -0.179,0.179 h -2.839 c -0.098,0 -0.179,-0.081 -0.179,-0.179 v -1.715 l -0.468,-0.108 c -0.969,-0.226 -1.888,-0.606 -2.732,-1.132 l -0.408,-0.254 -1.212,1.212 c -0.034,0.034 -0.078,0.052 -0.126,0.052 -0.049,0 -0.094,-0.018 -0.127,-0.052 l -2.008,-2.007 c -0.034,-0.034 -0.052,-0.079 -0.052,-0.127 0,-0.048 0.018,-0.093 0.052,-0.127 l 1.212,-1.212 -0.254,-0.408 c -0.525,-0.843 -0.906,-1.763 -1.131,-2.732 l -0.109,-0.468 h -1.715 c -0.098,0 -0.178,-0.081 -0.178,-0.179 V 7.642 c 0,-0.099 0.08,-0.179 0.178,-0.179 h 1.715 l 0.109,-0.468 c 0.225,-0.969 0.606,-1.888 1.131,-2.733 l 0.254,-0.408 -1.212,-1.211 c -0.034,-0.034 -0.052,-0.079 -0.052,-0.127 0,-0.048 0.018,-0.093 0.052,-0.127 l 2.007,-2.007 c 0.034,-0.034 0.079,-0.053 0.127,-0.053 0.048,0 0.093,0.019 0.127,0.053 l 1.212,1.212 0.408,-0.255 c 0.248,-0.154 0.505,-0.262 0.777,-0.377 0.102,-0.043 0.205,-0.087 0.308,-0.133 l -0.135,-0.301 c -0.101,0.046 -0.201,0.088 -0.301,0.13 -0.272,0.115 -0.553,0.234 -0.823,0.402 l -0.186,0.116 -1.027,-1.027 C -12.827,0.053 -12.955,0 -13.091,0 c -0.136,0 -0.263,0.053 -0.36,0.149 l -2.007,2.007 c -0.096,0.096 -0.148,0.224 -0.148,0.36 0,0.136 0.053,0.264 0.149,0.36 l 1.026,1.026 -0.115,0.187 c -0.545,0.874 -0.94,1.827 -1.173,2.831 l -0.05,0.214 h -1.453 c -0.28,0 -0.508,0.227 -0.508,0.508 v 2.839 c 0,0.28 0.228,0.508 0.508,0.508 h 1.453 l 0.05,0.214 c 0.234,1.004 0.628,1.957 1.173,2.831 l 0.115,0.186 -1.027,1.027 c -0.096,0.096 -0.148,0.224 -0.148,0.361 0,0.135 0.053,0.263 0.149,0.359 l 2.007,2.006 c 0.096,0.097 0.223,0.149 0.36,0.149 0.135,0 0.263,-0.053 0.359,-0.149 l 1.027,-1.026 0.186,0.116 c 0.875,0.544 1.828,0.939 2.831,1.172 l 0.214,0.05 v 1.453 c 0,0.28 0.228,0.508 0.508,0.508 h 2.839 c 0.28,0 0.509,-0.228 0.509,-0.508 v -1.453 l 0.213,-0.05 c 1.005,-0.234 1.957,-0.628 2.832,-1.172 l 0.186,-0.116 1.027,1.026 c 0.096,0.097 0.224,0.149 0.359,0.149 h 0.001 c 0.136,0 0.264,-0.053 0.359,-0.149 l 2.007,-2.007 c 0.096,-0.096 0.149,-0.224 0.149,-0.36 0,-0.136 -0.053,-0.263 -0.149,-0.359 L 1.34,14.22 1.456,14.034 c 0.545,-0.874 0.94,-1.827 1.172,-2.831 l 0.05,-0.214 h 1.453 c 0.281,0 0.508,-0.228 0.508,-0.508 V 7.642 C 4.639,7.361 4.412,7.134 4.131,7.134 H 2.678 L 2.628,6.92 C 2.395,5.916 2,4.963 1.456,4.089 L 1.34,3.902 2.367,2.875 C 2.463,2.779 2.516,2.651 2.516,2.515 2.516,2.379 2.463,2.252 2.367,2.156 L 0.36,0.149 C 0.264,0.053 0.136,0 0,0&quot; /&gt;
      </g>
      <g
         id="g987"
         transform="matrix(0.35277777,0,0,-0.35277777,106.27789,97.405612)">
        <path
           d="M 0,0 V 0 C -0.374,0 -0.732,0.144 -0.983,0.396 L -2.99,2.403 c -0.263,0.263 -0.407,0.612 -0.407,0.983 0,0.372 0.144,0.721 0.407,0.983 l 0.54,0.54 c -0.391,0.699 -0.699,1.442 -0.917,2.213 h -0.764 c -0.766,0 -1.39,0.624 -1.39,1.391 v 2.838 c 0,0.767 0.624,1.39 1.39,1.39 h 0.764 c 0.218,0.771 0.525,1.514 0.916,2.213 l -0.54,0.54 c -0.262,0.263 -0.407,0.612 -0.407,0.983 0,0.371 0.145,0.721 0.407,0.983 l 2.007,2.007 c 0.252,0.252 0.61,0.396 0.983,0.396 H 0 c 0.374,0 0.731,-0.144 0.983,-0.396 l 0.539,-0.54 c 0.699,0.391 1.443,0.699 2.214,0.917 v 0.764 c 0,0.767 0.623,1.39 1.389,1.39 h 2.839 c 0.767,0 1.39,-0.623 1.39,-1.39 v -0.764 c 0.771,-0.218 1.515,-0.526 2.213,-0.916 l 0.54,0.54 c 0.524,0.523 1.442,0.523 1.967,0 l 2.007,-2.007 c 0.262,-0.263 0.407,-0.613 0.407,-0.984 0,-0.371 -0.145,-0.72 -0.407,-0.983 l -0.54,-0.54 c 0.39,-0.697 0.698,-1.441 0.916,-2.213 h 0.764 c 0.766,0 1.39,-0.623 1.391,-1.39 V 8.512 c 0,-0.766 -0.624,-1.39 -1.39,-1.39 H 16.458 C 16.24,6.353 15.932,5.609 15.541,4.909 l 0.54,-0.54 c 0.263,-0.263 0.407,-0.612 0.407,-0.983 0,-0.371 -0.144,-0.72 -0.407,-0.983 L 14.074,0.396 c -0.524,-0.524 -1.443,-0.524 -1.967,0 L 11.565,0.938 C 11.306,0.806 11,0.703 10.704,0.603 10.529,0.545 10.359,0.488 10.208,0.427 l -0.122,0.306 c 0.156,0.062 0.331,0.122 0.513,0.183 0.325,0.109 0.661,0.222 0.914,0.368 l 0.11,0.062 0.717,-0.717 c 0.4,-0.4 1.101,-0.4 1.501,0 l 2.007,2.007 c 0.2,0.2 0.311,0.467 0.311,0.75 0,0.283 -0.111,0.55 -0.311,0.751 l -0.718,0.717 0.063,0.11 c 0.428,0.743 0.758,1.539 0.98,2.366 l 0.033,0.122 h 1.016 c 0.585,0 1.061,0.475 1.061,1.06 v 2.839 c -0.001,0.585 -0.477,1.061 -1.062,1.061 h -1.015 l -0.033,0.122 c -0.224,0.829 -0.553,1.625 -0.98,2.366 l -0.063,0.109 0.718,0.718 c 0.2,0.2 0.31,0.467 0.31,0.75 0,0.284 -0.11,0.55 -0.31,0.751 l -2.007,2.007 c -0.4,0.399 -1.101,0.399 -1.501,0 l -0.718,-0.718 -0.109,0.063 c -0.742,0.427 -1.538,0.756 -2.366,0.979 l -0.122,0.033 v 1.016 c 0,0.585 -0.476,1.061 -1.061,1.061 H 5.125 c -0.584,0 -1.06,-0.476 -1.06,-1.061 V 19.592 L 3.943,19.559 C 3.115,19.336 2.319,19.007 1.577,18.579 L 1.468,18.516 0.75,19.234 c -0.19,0.191 -0.463,0.3 -0.75,0.3 v 0 c -0.288,-10e-4 -0.561,-0.11 -0.751,-0.3 l -2.007,-2.006 c -0.2,-0.201 -0.31,-0.467 -0.31,-0.751 0,-0.283 0.11,-0.55 0.31,-0.751 l 0.718,-0.717 -0.063,-0.11 c -0.428,-0.742 -0.757,-1.538 -0.98,-2.365 l -0.032,-0.122 h -1.016 c -0.585,0 -1.061,-0.476 -1.061,-1.061 V 8.513 c 0,-0.585 0.476,-1.061 1.061,-1.061 h 1.016 L -3.083,7.33 C -2.859,6.502 -2.53,5.706 -2.103,4.964 L -2.04,4.854 -2.757,4.137 C -2.958,3.936 -3.068,3.67 -3.068,3.386 c 0,-0.283 0.11,-0.55 0.311,-0.751 L -0.75,0.629 c 0.189,-0.191 0.463,-0.3 0.75,-0.3 0.287,0 0.56,0.109 0.75,0.3 L 1.468,1.346 1.577,1.284 C 1.932,1.08 2.393,0.896 2.8,0.734 L 2.952,0.673 2.829,0.368 2.678,0.428 C 2.301,0.578 1.878,0.747 1.524,0.937 L 0.983,0.396 C 0.732,0.144 0.374,0 0,0"
           style="fill:#110f0d;fill-opacity:1;fill-rule:nonzero;stroke:none"
           id="path985"
           inkscape:connector-curvature="0" />
      </g>
      <g
         id="g991"
         transform="matrix(0.35277777,0,0,-0.35277777,108.58682,98.277362)">
        <path
           d="M 0,0 C -2.136,0 -3.866,1.674 -3.939,3.811 L -3.61,3.822 C -3.543,1.864 -1.958,0.329 0,0.329 c 1.958,0 3.543,1.534 3.61,3.493 L 3.939,3.81 C 3.866,1.674 2.136,0 0,0"
           style="fill:#110f0d;fill-opacity:1;fill-rule:nonzero;stroke:none"
           id="path989"
           inkscape:connector-curvature="0" />
      </g>
      <g
         id="g995"
         transform="matrix(0.35277777,0,0,-0.35277777,109.97881,96.590766)">
        <path
           d="m 0,0 h -0.33 v 1.436 l 0.075,0.049 c 1.923,1.255 3.071,3.374 3.071,5.666 0,3.729 -3.033,6.762 -6.762,6.762 -3.728,0 -6.762,-3.033 -6.762,-6.762 0,-2.292 1.148,-4.411 3.071,-5.666 L -7.562,1.436 V 0 h -0.329 v 1.259 c -1.972,1.322 -3.146,3.518 -3.146,5.892 0,3.911 3.181,7.092 7.091,7.092 3.91,0 7.092,-3.181 7.092,-7.092 C 3.146,4.777 1.972,2.581 0,1.258 Z"
           style="fill:#110f0d;fill-opacity:1;fill-rule:nonzero;stroke:none"
           id="path993"
           inkscape:connector-curvature="0" />
      </g>
      <g
         id="g999"
         transform="matrix(0.35277777,0,0,-0.35277777,109.97638,96.933102)">
        <path
           d="m 0,0 -0.329,0.011 0.003,0.06 c 0.002,0.021 0.003,0.042 0.003,0.064 V 0.97 h 0.33 V 0.135 C 0.007,0.106 0.005,0.077 0.003,0.048 Z"
           style="fill:#110f0d;fill-opacity:1;fill-rule:nonzero;stroke:none"
           id="path997"
           inkscape:connector-curvature="0" />
      </g>
      <g
         id="g1003"
         transform="matrix(0.35277777,0,0,-0.35277777,107.19723,96.933172)">
        <path
           d="M 0,0 -0.003,0.047 C -0.004,0.076 -0.006,0.105 -0.006,0.135 V 0.971 H 0.323 V 0.135 C 0.323,0.113 0.324,0.091 0.326,0.07 L 0.329,0.012 Z"
           style="fill:#110f0d;fill-opacity:1;fill-rule:nonzero;stroke:none"
           id="path1001"
           inkscape:connector-curvature="0" />
      </g>
      <g
         id="g1007"
         transform="matrix(0.35277777,0,0,-0.35277777,108.74285,94.791847)">
        <path
           d="m 0,0 v 0 c -0.407,0 -0.736,0.33 -0.736,0.737 v 3.491 c 0,0.407 0.329,0.736 0.736,0.736 0.407,0 0.737,-0.329 0.737,-0.736 V 0.737 C 0.737,0.33 0.407,0 0,0"
           style="fill:#e62941;fill-opacity:1;fill-rule:nonzero;stroke:none"
           id="path1005"
           inkscape:connector-curvature="0" />
      </g>
      <g
         id="g1011"
         transform="matrix(0.35277777,0,0,-0.35277777,108.62005,93.098584)">
        <path
           d="m 0,0 c -0.315,0 -0.572,-0.257 -0.572,-0.572 v -3.491 c 0,-0.316 0.257,-0.572 0.572,-0.572 0.315,0 0.572,0.256 0.572,0.572 v 3.491 C 0.572,-0.257 0.315,0 0,0 m 0,-4.964 c -0.497,0 -0.901,0.404 -0.901,0.901 v 3.491 c 0,0.497 0.404,0.901 0.901,0.901 0.497,0 0.901,-0.404 0.901,-0.901 V -4.063 C 0.901,-4.56 0.497,-4.964 0,-4.964"
           style="fill:#110f0d;fill-opacity:1;fill-rule:nonzero;stroke:none"
           id="path1009"
           inkscape:connector-curvature="0" />
      </g>
      <g
         id="g1015"
         transform="matrix(0.35277777,0,0,-0.35277777,109.02398,95.285347)">
        <path
           d="m 0,0 c 0,-0.44 -0.357,-0.797 -0.797,-0.797 -0.44,0 -0.796,0.357 -0.796,0.797 0,0.44 0.356,0.797 0.796,0.797 C -0.357,0.797 0,0.44 0,0"
           style="fill:#e62941;fill-opacity:1;fill-rule:nonzero;stroke:none"
           id="path1013"
           inkscape:connector-curvature="0" />
      </g>
      <g
         id="g1019"
         transform="matrix(0.35277777,0,0,-0.35277777,108.62005,95.148611)">
        <path
           d="m 0,0 c -0.348,0 -0.632,-0.283 -0.632,-0.632 0,-0.348 0.284,-0.632 0.632,-0.632 0.349,0 0.632,0.284 0.632,0.632 C 0.632,-0.283 0.349,0 0,0 m 0,-1.593 c -0.53,0 -0.961,0.431 -0.961,0.961 0,0.53 0.431,0.961 0.961,0.961 0.53,0 0.961,-0.431 0.961,-0.961 0,-0.53 -0.431,-0.961 -0.961,-0.961"
           style="fill:#110f0d;fill-opacity:1;fill-rule:nonzero;stroke:none"
           id="path1017"
           inkscape:connector-curvature="0" />
      </g>
    </g>
    <g
       id="g1123"
       transform="matrix(3.9370689,0,0,3.9370689,-406.13248,-93.341598)"
       inkscape:export-xdpi="96"
       inkscape:export-ydpi="96">
      <g
         transform="matrix(0.35277777,0,0,-0.35277777,113.95581,93.680456)"
         id="g1025">
        <path
           inkscape:connector-curvature="0"
           id="path1023"
           style="fill:#fae03c;fill-opacity:1;fill-rule:nonzero;stroke:none"
           d="m 0,0 c 0,-8.405 -6.814,-15.219 -15.219,-15.219 -8.406,0 -15.219,6.814 -15.219,15.219 0,8.405 6.813,15.219 15.219,15.219 C -6.814,15.219 0,8.405 0,0" />
      </g>
      <g
         transform="matrix(0.35277777,0,0,-0.35277777,112.10546,92.763621)"
         id="g1029">
        <path
           inkscape:connector-curvature="0"
           id="path1027"
           style="fill:#4db396;fill-opacity:1;fill-rule:nonzero;stroke:none"
           d="m 0,0 h -0.89 c -0.227,0.843 -0.561,1.649 -0.996,2.405 l 0.629,0.629 c 0.231,0.231 0.359,0.539 0.359,0.867 0,0.327 -0.128,0.635 -0.359,0.867 l -2.007,2.007 c -0.463,0.462 -1.27,0.463 -1.734,0 L -5.626,6.146 c -0.757,0.435 -1.563,0.769 -2.406,0.996 v 0.889 c 0,0.676 -0.549,1.226 -1.225,1.226 h -2.839 c -0.675,0 -1.225,-0.55 -1.225,-1.226 V 7.142 C -14.164,6.915 -14.97,6.581 -15.727,6.146 l -0.628,0.628 c -0.463,0.464 -1.271,0.463 -1.734,0 l -2.007,-2.007 c -0.231,-0.231 -0.359,-0.539 -0.359,-0.867 0,-0.327 0.128,-0.635 0.359,-0.866 l 0.629,-0.629 C -19.902,1.649 -20.236,0.843 -20.463,0 h -0.89 c -0.675,0 -1.225,-0.55 -1.225,-1.225 v -2.839 c 0,-0.676 0.55,-1.226 1.225,-1.226 h 0.89 c 0.227,-0.842 0.561,-1.648 0.996,-2.405 l -0.629,-0.629 c -0.231,-0.231 -0.358,-0.539 -0.358,-0.866 0,-0.328 0.127,-0.636 0.358,-0.867 l 2.008,-2.007 c 0.463,-0.464 1.27,-0.464 1.733,0 l 0.629,0.628 c 0,0 4.439,-3.505 10.1,0 l 0.628,-0.628 c 0.464,-0.464 1.271,-0.463 1.734,0 l 2.007,2.007 c 0.232,0.231 0.359,0.539 0.359,0.867 0,0.327 -0.127,0.634 -0.359,0.866 l -0.629,0.629 c 0.435,0.757 0.77,1.563 0.997,2.405 H 0 c 0.676,0 1.226,0.55 1.226,1.226 v 2.839 C 1.225,-0.55 0.675,0 0,0" />
      </g>
      <g
         transform="matrix(0.35277777,0,0,-0.35277777,112.33939,92.853015)"
         id="g1033">
        <path
           inkscape:connector-curvature="0"
           id="path1031"
           style="fill:#3b9490;fill-opacity:1;fill-rule:nonzero;stroke:none"
           d="m 0,0 h -0.763 c -0.195,0.718 -0.481,1.406 -0.855,2.05 l 0.539,0.535 c 0.199,0.198 0.308,0.46 0.308,0.739 0,0.279 -0.109,0.541 -0.308,0.739 L -2.8,5.773 c -0.398,0.394 -1.09,0.395 -1.488,0 L -4.827,5.237 c -0.649,0.371 -1.34,0.655 -2.063,0.849 v 0.758 c 0,0.576 -0.472,1.044 -1.051,1.044 h -2.436 c -0.58,0 -1.051,-0.468 -1.051,-1.044 V 6.086 c -0.723,-0.194 -1.414,-0.478 -2.064,-0.849 l -0.539,0.536 c -0.397,0.395 -1.09,0.394 -1.487,0 L -17.24,4.062 c -0.198,-0.197 -0.308,-0.459 -0.308,-0.739 0,-0.278 0.11,-0.54 0.308,-0.738 l 0.539,-0.536 C -17.074,1.406 -17.361,0.718 -17.555,0 h -0.763 c -0.58,0 -1.052,-0.468 -1.052,-1.044 v -2.419 c 0,-0.576 0.472,-1.044 1.052,-1.044 h 0.763 c 0.195,-0.718 0.481,-1.405 0.854,-2.05 l -0.539,-0.536 c -0.198,-0.197 -0.307,-0.46 -0.307,-0.738 0,-0.279 0.109,-0.542 0.307,-0.739 l 1.722,-1.71 c 0.397,-0.395 1.09,-0.396 1.487,0 l 0.54,0.535 c 0,0 3.808,-2.987 8.664,0 l 0.539,-0.535 c 0.398,-0.396 1.09,-0.395 1.488,0 l 1.722,1.71 c 0.198,0.197 0.307,0.46 0.307,0.739 0,0.278 -0.109,0.541 -0.307,0.738 l -0.54,0.536 c 0.374,0.645 0.66,1.332 0.855,2.05 H 0 c 0.58,0 1.051,0.468 1.051,1.044 v 2.419 C 1.051,-0.468 0.58,0 0,0" />
      </g>
      <g
         transform="matrix(0.35277777,0,0,-0.35277777,109.81152,95.649661)"
         id="g1037">
        <path
           inkscape:connector-curvature="0"
           id="path1035"
           style="fill:#f6e156;fill-opacity:1;fill-rule:nonzero;stroke:none"
           d="m 0,0 c -0.207,-0.119 -0.335,-0.34 -0.335,-0.579 v -0.662 -1.336 -0.199 -0.359 c 0,-1.348 -1.097,-2.445 -2.446,-2.445 -1.348,0 -2.446,1.097 -2.446,2.445 v 0.359 h 0.001 v 0.199 1.336 0.662 c 0,0.239 -0.128,0.46 -0.336,0.579 -1.733,0.996 -2.81,2.855 -2.81,4.852 0,3.083 2.508,5.592 5.591,5.592 3.084,0 5.592,-2.509 5.592,-5.592 C 2.811,2.855 1.734,0.996 0,0 m 4.146,4.852 c 0,3.82 -3.107,6.927 -6.927,6.927 -3.819,0 -6.927,-3.107 -6.927,-6.927 0,-2.342 1.196,-4.531 3.146,-5.804 v -1.347 -0.836 c 0,-0.043 0.005,-0.085 0.007,-0.129 0.069,-2.024 1.733,-3.652 3.774,-3.652 2.041,0 3.705,1.627 3.775,3.652 C 0.995,-3.221 1,-3.178 1,-3.135 v 0.836 0.39 0.957 C 2.95,0.321 4.146,2.51 4.146,4.852" />
      </g>
      <g
         transform="matrix(0.35277777,0,0,-0.35277777,111.13014,93.873284)"
         id="g1041">
        <path
           inkscape:connector-curvature="0"
           id="path1039"
           style="fill:#f6e156;fill-opacity:1;fill-rule:nonzero;stroke:none"
           d="m 0,0 c 0,-3.315 -2.864,-6.002 -6.397,-6.002 -3.534,0 -6.398,2.687 -6.398,6.002 0,3.315 2.864,6.002 6.398,6.002 C -2.864,6.002 0,3.315 0,0" />
      </g>
      <g
         transform="matrix(0.35277777,0,0,-0.35277777,108.22508,95.785022)"
         id="g1045">
        <path
           inkscape:connector-curvature="0"
           id="path1043"
           style="fill:#f6e156;fill-opacity:1;fill-rule:nonzero;stroke:none"
           d="M 0,0 C 0.261,-1.094 0.521,-2.187 0.783,-3.281 0.636,-1.994 0.304,-0.729 -0.2,0.464 -0.563,-0.34 -0.927,-1.144 -1.291,-1.948 c 0.25,0.802 0.5,1.605 0.75,2.408 -0.011,-1.304 -0.121,-2.608 -0.327,-3.895 0.12,0.975 0.333,1.94 0.633,2.876 -0.077,-0.842 -0.155,-1.684 -0.233,-2.526 -0.043,-0.471 -0.085,-0.957 0.057,-1.408 0.233,1.317 0.479,2.67 1.185,3.807 C 0.69,-2.026 0.606,-3.365 0.521,-4.705 0.4,-4.442 0.333,-4.155 0.325,-3.866 l -0.012,-0.73 c 0.443,1.317 0.706,2.694 0.779,4.081 0.015,-1.069 -0.086,-2.14 -0.299,-3.187 0.16,1.242 0.213,2.498 0.158,3.749 0.148,-0.694 0.295,-1.388 0.442,-2.082 0.123,0.598 0.246,1.196 0.369,1.794 0.096,-0.208 0.192,-0.417 0.288,-0.626 0.05,0.253 0.138,0.499 0.263,0.725 0.066,-0.467 0.133,-0.934 0.2,-1.401 0.272,0.164 0.483,0.427 0.584,0.728 0.081,-0.081 0.163,-0.161 0.245,-0.242 0.19,0.35 0.348,0.718 0.472,1.097 0.069,-0.193 0.138,-0.385 0.207,-0.578 0.186,0.332 0.372,0.664 0.557,0.996 C 4.39,0.007 4.202,-0.445 4.014,-0.897 5.157,0.558 6.212,2.081 7.171,3.663 7.643,4.442 8.096,5.432 7.631,6.216 7.37,5.708 7.226,5.141 7.212,4.571 7.444,5.511 7.158,6.493 6.873,7.419 6.652,8.135 6.411,8.887 5.859,9.395 5.471,9.754 4.965,9.954 4.473,10.147 3.894,10.373 3.312,10.6 2.704,10.724 0.423,11.189 -2.121,9.967 -3.097,7.854 -3.327,7.358 -3.473,6.829 -3.619,6.303 -3.753,5.816 -3.887,5.289 -3.71,4.816 c 0.124,-0.333 0.386,-0.592 0.596,-0.88 0.21,-0.287 0.375,-0.654 0.265,-0.992 -0.48,0.077 -0.88,0.505 -0.925,0.988 0.502,-0.627 0.736,-1.42 1.083,-2.144 0.346,-0.725 0.884,-1.441 1.665,-1.629 -0.138,0.264 -0.363,0.482 -0.632,0.611 0.991,-1.184 2.107,-2.262 3.324,-3.211 0.047,0.291 0.094,0.582 0.14,0.873 0.139,-0.346 0.231,-0.711 0.272,-1.081 0.031,0.56 0.062,1.121 0.093,1.682 0.302,-0.785 0.604,-1.569 0.906,-2.353 0.096,0.718 0.198,1.434 0.307,2.15 0.244,-0.39 0.408,-0.83 0.481,-1.285 0.018,0.401 0.079,0.801 0.181,1.189 0.26,-0.776 0.059,-1.661 -0.411,-2.332 -0.47,-0.67 -1.183,-1.142 -1.945,-1.443 0.519,0.485 1.037,0.97 1.556,1.455 0.053,0.05 0.109,0.101 0.177,0.127 0.265,0.1 0.51,-0.27 0.412,-0.536 C 3.738,-4.26 3.459,-4.407 3.199,-4.519 2.721,-4.723 2.226,-4.893 1.717,-4.995 1.33,-5.073 0.856,-5.081 0.622,-4.763 1.045,-4.189 1.363,-3.537 1.556,-2.85 1.438,-3.349 1.32,-3.848 1.202,-4.347 c 0.27,0.492 0.54,0.984 0.809,1.475 -0.043,-0.375 -0.086,-0.751 -0.129,-1.126 0.201,0.215 0.4,0.431 0.6,0.646 C 2.355,-3.93 1.89,-4.42 1.319,-4.577 1.927,-3.961 2.33,-3.146 2.45,-2.289 2.415,-2.663 2.379,-3.038 2.344,-3.413 2.137,-2.857 1.93,-2.301 1.723,-1.745" />
      </g>
      <g
         transform="matrix(0.35277777,0,0,-0.35277777,107.69609,95.804248)"
         id="g1049">
        <path
           inkscape:connector-curvature="0"
           id="path1047"
           style="fill:#f6e156;fill-opacity:1;fill-rule:nonzero;stroke:none"
           d="m 0,0 c 0.419,-0.699 0.625,-1.542 0.971,-2.282 0.2,-0.428 0.983,-0.234 0.921,0.25 C 1.778,-1.149 1.542,0.097 0.768,0.642 0.325,0.954 -0.097,0.367 0.092,-0.034 0.177,-0.214 0.262,-0.394 0.346,-0.575 0.617,-1.149 1.469,-0.648 1.199,-0.076 1.115,0.104 1.03,0.284 0.945,0.465 0.72,0.239 0.495,0.014 0.269,-0.211 0.493,-0.369 0.567,-0.785 0.647,-1.023 0.756,-1.352 0.859,-1.688 0.904,-2.032 1.21,-1.949 1.518,-1.866 1.824,-1.783 1.477,-1.04 1.275,-0.205 0.853,0.499 0.526,1.043 -0.328,0.547 0,0" />
      </g>
      <g
         transform="matrix(0.35277777,0,0,-0.35277777,110.16448,96.338001)"
         id="g1051">
        path
           inkscape:connector-curvature=&quot;0&quot;
           id=&quot;path407&quot;
           style=&quot;fill:#a7a7a5;fill-opacity:1;fill-rule:nonzero;stroke:none&quot;
           d=&quot;m 0,0 h -7.562 v -0.277 -0.762 -0.705 c 0,-0.037 0.005,-0.072 0.006,-0.109 0.069,-1.708 1.734,-3.081 3.775,-3.081 2.041,0 3.705,1.373 3.774,3.081 C -0.005,-1.817 0,-1.781 0,-1.744 V -1.039 -0.71 0 c 0,0 0,0 0,0 z&quot; /&gt;
      </g>
      <g
         transform="matrix(0.35277777,0,0,-0.35277777,110.10542,95.477364)"
         id="g1055">
        <path
           inkscape:connector-curvature="0"
           id="path1053"
           style="fill:#f1a644;fill-opacity:1;fill-rule:nonzero;stroke:none"
           d="m 0,0 c -0.166,-0.095 -0.268,-0.272 -0.268,-0.463 v -0.529 -1.067 -0.16 -0.286 c 0,-1.078 -0.877,-1.954 -1.954,-1.954 -1.078,0 -1.955,0.876 -1.955,1.954 v 0.286 0.16 1.067 0.529 c 0,0.191 -0.102,0.368 -0.267,0.463 -1.386,0.796 -2.246,2.282 -2.246,3.878 0,2.463 2.004,4.468 4.468,4.468 2.464,0 4.468,-2.005 4.468,-4.468 C 2.246,2.282 1.385,0.796 0,0 m 3.313,3.878 c 0,3.052 -2.483,5.535 -5.535,5.535 -3.052,0 -5.536,-2.483 -5.536,-5.535 0,-1.872 0.956,-3.622 2.514,-4.639 v -1.076 -0.668 c 0,-0.035 0.004,-0.069 0.005,-0.103 0.055,-1.618 1.385,-2.918 3.016,-2.918 1.632,0 2.962,1.3 3.017,2.917 0.001,0.035 0.005,0.069 0.005,0.104 v 0.668 0.311 c 0,0.001 0,0.765 0,0.765 1.558,1.017 2.514,2.767 2.514,4.639" />
      </g>
      <g
         transform="matrix(0.35277777,0,0,-0.35277777,111.1591,94.057822)"
         id="g1059">
        <path
           inkscape:connector-curvature="0"
           id="path1057"
           style="fill:#f1a644;fill-opacity:1;fill-rule:nonzero;stroke:none"
           d="m 0,0 c 0,-2.649 -2.289,-4.796 -5.112,-4.796 -2.824,0 -5.113,2.147 -5.113,4.796 0,2.649 2.289,4.796 5.113,4.796 C -2.289,4.796 0,2.649 0,0" />
      </g>
      <g
         transform="matrix(0.35277777,0,0,-0.35277777,108.83743,95.585491)"
         id="g1063">
        <path
           inkscape:connector-curvature="0"
           id="path1061"
           style="fill:#f1a644;fill-opacity:1;fill-rule:nonzero;stroke:none"
           d="m 0,0 0.625,-2.622 c -0.117,1.028 -0.382,2.04 -0.785,2.993 l -0.871,-1.928 0.599,1.924 c -0.009,-1.042 -0.096,-2.083 -0.261,-3.112 0.096,0.779 0.266,1.55 0.506,2.298 l -0.187,-2.018 c -0.034,-0.377 -0.068,-0.765 0.046,-1.126 0.186,1.053 0.383,2.134 0.947,3.042 L 0.417,-3.76 C 0.32,-3.55 0.267,-3.32 0.26,-3.089 0.257,-3.284 0.254,-3.478 0.251,-3.673 c 0.353,1.053 0.563,2.153 0.622,3.262 0.012,-0.855 -0.068,-1.71 -0.239,-2.548 0.128,0.993 0.17,1.997 0.126,2.996 0.118,-0.554 0.236,-1.109 0.354,-1.663 0.098,0.478 0.196,0.956 0.294,1.434 0.077,-0.167 0.154,-0.334 0.231,-0.501 0.039,0.203 0.11,0.399 0.209,0.579 l 0.16,-1.119 c 0.218,0.131 0.386,0.341 0.467,0.582 0.065,-0.065 0.13,-0.129 0.196,-0.194 0.152,0.28 0.278,0.574 0.377,0.877 C 3.104,-0.122 3.159,-0.276 3.214,-0.43 3.362,-0.165 3.51,0.101 3.659,0.366 3.508,0.005 3.358,-0.356 3.208,-0.717 4.122,0.446 4.964,1.663 5.731,2.927 6.108,3.55 6.47,4.341 6.099,4.967 5.89,4.562 5.774,4.109 5.764,3.653 5.949,4.404 5.72,5.189 5.493,5.929 5.316,6.501 5.123,7.102 4.683,7.508 4.372,7.795 3.968,7.955 3.574,8.109 3.112,8.29 2.647,8.471 2.161,8.57 0.338,8.941 -1.694,7.965 -2.475,6.276 -2.658,5.88 -2.775,5.457 -2.892,5.037 -3,4.648 -3.106,4.227 -2.965,3.849 c 0.099,-0.267 0.309,-0.474 0.477,-0.703 0.167,-0.23 0.3,-0.523 0.212,-0.793 -0.384,0.061 -0.704,0.403 -0.74,0.789 0.402,-0.501 0.588,-1.134 0.866,-1.713 0.276,-0.579 0.706,-1.152 1.33,-1.302 -0.11,0.211 -0.29,0.385 -0.505,0.488 0.792,-0.946 1.684,-1.807 2.657,-2.565 0.037,0.232 0.074,0.465 0.112,0.697 0.111,-0.276 0.184,-0.568 0.217,-0.864 0.025,0.448 0.049,0.896 0.074,1.344 l 0.724,-1.88 c 0.077,0.573 0.159,1.146 0.246,1.718 0.194,-0.312 0.326,-0.664 0.384,-1.027 0.015,0.321 0.063,0.64 0.144,0.951 0.208,-0.621 0.048,-1.328 -0.328,-1.864 -0.376,-0.536 -0.946,-0.913 -1.554,-1.154 0.414,0.388 0.829,0.775 1.243,1.163 0.043,0.04 0.087,0.081 0.142,0.102 0.212,0.08 0.408,-0.216 0.329,-0.428 C 2.988,-3.405 2.764,-3.522 2.556,-3.611 2.174,-3.775 1.779,-3.91 1.372,-3.992 1.063,-4.054 0.685,-4.06 0.498,-3.807 c 0.337,0.46 0.591,0.98 0.746,1.529 -0.095,-0.398 -0.189,-0.797 -0.283,-1.196 0.215,0.393 0.431,0.786 0.646,1.179 -0.034,-0.3 -0.068,-0.6 -0.103,-0.9 0.161,0.172 0.32,0.344 0.48,0.516 C 1.882,-3.14 1.51,-3.532 1.054,-3.658 1.54,-3.165 1.862,-2.514 1.958,-1.829 1.93,-2.128 1.901,-2.428 1.873,-2.727 1.708,-2.283 1.542,-1.839 1.377,-1.395" />
      </g>
      <g
         transform="matrix(0.35277777,0,0,-0.35277777,108.41629,95.217085)"
         id="g1067">
        <path
           inkscape:connector-curvature="0"
           id="path1065"
           style="fill:#f1a644;fill-opacity:1;fill-rule:nonzero;stroke:none"
           d="m 0,0 c 0.102,-0.432 0.327,-0.834 0.644,-1.145 -0.163,0.554 -0.486,1.06 -0.92,1.441 0.413,-1.211 0.912,-2.393 1.491,-3.533 0.084,1.019 0.245,2.031 0.484,3.025 L 1.658,-2.754 C 1.417,-1.963 1.04,-1.214 0.547,-0.552 0.333,-1.248 0.413,-2.029 0.762,-2.668 0.954,-1.824 1.065,-0.961 1.095,-0.096 0.856,-0.747 0.65,-1.409 0.478,-2.08 0.414,-2.329 0.354,-2.585 0.378,-2.841 c 0.066,-0.7 0.744,-1.265 0.69,-1.966 -0.229,0.424 -0.161,0.988 0.162,1.344 0.115,-0.543 0.307,-1.071 0.567,-1.562 0.106,0.669 0.177,1.344 0.211,2.02 0.196,-0.52 0.274,-1.084 0.227,-1.637 0.074,0.77 0.034,1.552 -0.118,2.311 -0.239,-0.435 -0.363,-0.933 -0.356,-1.429 0.238,0.803 0.476,1.606 0.715,2.41 0.062,-0.421 0.1,-0.845 0.115,-1.27 -0.012,0.558 0.022,1.116 0.1,1.667 -0.067,-0.464 -0.163,-0.924 -0.285,-1.378 0.021,0.448 0.041,0.896 0.062,1.344 -0.07,-0.54 -0.14,-1.079 -0.211,-1.619 -0.047,0.637 -0.131,1.27 -0.253,1.897 -0.085,-0.558 -0.076,-1.131 0.026,-1.686 0.219,0.437 0.437,0.874 0.656,1.311 0.09,-0.444 0.182,-0.888 0.272,-1.332 l 0.673,1.794 C 3.664,-1.328 3.652,-2.036 3.597,-2.74 3.766,-2.227 3.935,-1.714 4.104,-1.201 4.186,-1.41 4.268,-1.619 4.35,-1.828 4.484,-1.382 4.619,-0.936 4.753,-0.49 4.669,-0.871 4.61,-1.258 4.577,-1.647 4.88,-0.945 5.664,-0.571 6.073,0.075 6.331,0.483 6.422,0.972 6.508,1.447 6.283,0.758 5.937,0.109 5.492,-0.462 5.262,-0.756 5.003,-1.034 4.835,-1.367 4.613,-1.806 4.564,-2.309 4.523,-2.799 4.483,-3.289 4.445,-3.791 4.243,-4.239 4.041,-4.687 3.635,-5.078 3.145,-5.117 2.657,-5.156 2.09,-4.868 1.719,-5.187 2.772,-4.748 3.489,-3.608 3.43,-2.468 3.118,-2.97 2.885,-3.521 2.741,-4.095 2.702,-3.737 2.664,-3.38 2.625,-3.022 c -0.018,-0.43 0.042,-0.862 0.177,-1.271 0.397,0.644 0.637,1.371 0.875,2.09 0.109,-0.732 0.097,-1.482 -0.034,-2.21 -0.198,0.042 -0.409,0.021 -0.594,-0.061 0.079,0.143 0.206,0.26 0.355,0.326 0.068,-0.127 0.104,-0.27 0.105,-0.414 0.82,0.811 0.907,2.084 0.945,3.236 C 4.311,-1.828 4.168,-2.33 4.025,-2.832 3.72,-2.707 3.668,-2.287 3.763,-1.971 c 0.095,0.315 0.288,0.607 0.303,0.936" />
      </g>
      <g
         transform="matrix(0.35277777,0,0,-0.35277777,109.1387,96.324384)"
         id="g1071">
        <path
           inkscape:connector-curvature="0"
           id="path1069"
           style="fill:#f1a644;fill-opacity:1;fill-rule:nonzero;stroke:none"
           d="M 0,0 C 0.435,0.507 0.664,1.06 0.304,1.677 0.119,1.995 -0.365,2 -0.549,1.677 -0.883,1.089 -1.009,0.023 -0.141,-0.178 0.806,-0.397 1.069,0.928 1.125,1.585 1.164,2.045 0.575,2.19 0.281,1.934 -0.194,1.52 -0.498,-0.147 0.268,-0.441 1.269,-0.826 1.619,1.116 1.703,1.703 1.785,2.269 1.15,2.537 0.801,2.084 0.428,1.602 -0.181,0.387 0.644,0.008 1.457,-0.366 2.044,0.705 2.292,1.29 1.991,1.329 1.689,1.368 1.389,1.408 1.483,0.87 1.626,0.361 1.824,-0.148 1.95,-0.473 2.375,-0.664 2.649,-0.366 3.059,0.079 3.143,0.619 3.163,1.208 3.189,1.989 2.805,2.457 2.612,3.171 2.444,3.792 1.542,3.526 1.66,2.908 1.744,2.464 1.88,2.066 2.061,1.655 2.345,1.821 2.629,1.987 2.914,2.154 2.78,1.865 2.837,1.778 3.084,1.89 3.173,1.912 3.26,1.941 3.343,1.979 3.563,2.067 3.75,2.199 3.942,2.336 4.455,2.702 3.962,3.559 3.443,3.188 2.887,2.792 1.521,2.674 2.061,1.655 2.364,1.081 3.163,1.585 2.914,2.154 2.764,2.496 2.681,2.809 2.612,3.171 2.294,3.083 1.977,2.996 1.66,2.908 1.863,2.157 2.643,1.084 1.951,0.333 2.226,0.26 2.501,0.187 2.777,0.115 2.579,0.623 2.436,1.133 2.341,1.67 2.271,2.066 1.602,2.174 1.438,1.788 1.411,1.723 1.024,0.947 0.996,0.968 1.078,0.826 1.159,0.683 1.241,0.541 1.203,0.944 1.418,1.281 1.654,1.585 1.353,1.712 1.052,1.839 0.751,1.966 0.72,1.752 0.327,0.573 0.53,0.511 0.645,0.396 0.76,0.281 0.875,0.167 0.796,0.413 0.78,1.061 0.98,1.235 0.699,1.352 0.418,1.468 0.137,1.585 0.126,1.304 0.057,1.039 -0.073,0.79 0.191,0.731 0.317,0.861 0.304,1.178 H -0.549 C -0.478,0.983 -0.528,0.823 -0.699,0.698 -1.11,0.218 -0.415,-0.484 0,0" />
      </g>
      <g
         transform="matrix(0.35277777,0,0,-0.35277777,110.37738,96.360156)"
         id="g1075">
        <path
           inkscape:connector-curvature="0"
           id="path1073"
           style="fill:#7a7b7d;fill-opacity:1;fill-rule:nonzero;stroke:none"
           d="m 0,0 h -5.998 v -0.22 -0.604 -0.559 c 0,-0.029 0.004,-0.058 0.005,-0.087 0.055,-1.355 1.375,-2.444 2.994,-2.444 1.619,0 2.939,1.089 2.994,2.444 C -0.004,-1.441 0,-1.413 0,-1.383 v 0.559 0.261 z" />
      </g>
      <g
         transform="matrix(0.35277777,0,0,-0.35277777,109.54094,96.759112)"
         id="g1079">
        <path
           inkscape:connector-curvature="0"
           id="path1077"
           style="fill:#110f0d;fill-opacity:1;fill-rule:nonzero;stroke:none"
           d="m 0,0 h -0.329 v 2.198 c 0,0.297 0.16,0.573 0.417,0.721 1.683,0.967 2.728,2.771 2.729,4.71 0,2.992 -2.435,5.426 -5.427,5.426 -2.993,0 -5.427,-2.434 -5.427,-5.426 0,-1.938 1.045,-3.743 2.728,-4.71 0.258,-0.148 0.418,-0.424 0.418,-0.721 V 0 h -0.33 v 2.198 c 0,0.179 -0.096,0.346 -0.252,0.436 -1.785,1.025 -2.893,2.939 -2.893,4.995 0,3.173 2.582,5.756 5.756,5.756 3.174,0 5.756,-2.583 5.756,-5.756 C 3.146,5.573 2.037,3.659 0.252,2.634 0.097,2.544 0,2.377 0,2.198 Z" />
      </g>
      <g
         transform="matrix(0.35277777,0,0,-0.35277777,108.62005,97.806297)"
         id="g1083">
        <path
           inkscape:connector-curvature="0"
           id="path1081"
           style="fill:#110f0d;fill-opacity:1;fill-rule:nonzero;stroke:none"
           d="m 0,0 c -1.439,0 -2.61,1.171 -2.61,2.61 v 0.358 h 0.329 V 2.61 c 0,-1.257 1.023,-2.281 2.281,-2.281 1.258,0 2.281,1.024 2.281,2.281 V 2.968 H 2.61 V 2.61 C 2.61,1.171 1.439,0 0,0" />
      </g>
      <g
         transform="matrix(0.35277777,0,0,-0.35277777,110.89589,97.098555)"
         id="g1085">
        path
           inkscape:connector-curvature=&quot;0&quot;
           id=&quot;path443&quot;
           style=&quot;fill:#110f0d;fill-opacity:1;fill-rule:nonzero;stroke:none&quot;
           d=&quot;M 0,0 V 0 C -0.136,0 -0.264,0.053 -0.359,0.149 L -1.386,1.176 -1.572,1.06 C -1.805,0.915 -2.041,0.834 -2.269,0.756 -2.408,0.709 -2.549,0.661 -2.691,0.597 l -0.135,0.301 c 0.154,0.069 0.305,0.12 0.451,0.17 0.22,0.075 0.428,0.146 0.628,0.271 l 0.409,0.255 1.212,-1.212 C -0.093,0.348 -0.048,0.329 0,0.329 v 0 c 0.048,0 0.093,0.019 0.127,0.053 l 2.007,2.007 c 0.034,0.034 0.053,0.079 0.053,0.127 0,0.048 -0.019,0.093 -0.053,0.127 L 0.922,3.854 1.177,4.262 c 0.525,0.844 0.905,1.763 1.131,2.733 l 0.109,0.468 h 1.714 c 0.098,0 0.179,0.08 0.179,0.179 v 2.839 c 0,0.098 -0.081,0.179 -0.179,0.179 H 2.417 L 2.308,11.128 C 2.083,12.097 1.702,13.016 1.177,13.86 l -0.255,0.408 1.212,1.212 c 0.034,0.034 0.053,0.079 0.053,0.126 0,0.049 -0.019,0.094 -0.053,0.128 L 0.127,17.741 C 0.093,17.775 0.048,17.793 0,17.793 c -0.047,0 -0.093,-0.018 -0.126,-0.052 l -1.212,-1.212 -0.409,0.254 c -0.843,0.525 -1.762,0.906 -2.732,1.132 l -0.468,0.108 v 1.715 c 0,0.098 -0.08,0.179 -0.179,0.179 h -2.839 c -0.098,0 -0.179,-0.081 -0.179,-0.179 v -1.715 l -0.468,-0.108 c -0.969,-0.226 -1.888,-0.606 -2.732,-1.132 l -0.408,-0.254 -1.212,1.212 c -0.034,0.034 -0.078,0.052 -0.126,0.052 -0.049,0 -0.094,-0.018 -0.127,-0.052 l -2.008,-2.007 c -0.034,-0.034 -0.052,-0.079 -0.052,-0.127 0,-0.048 0.018,-0.093 0.052,-0.127 l 1.212,-1.212 -0.254,-0.408 c -0.525,-0.843 -0.906,-1.763 -1.131,-2.732 l -0.109,-0.468 h -1.715 c -0.098,0 -0.178,-0.081 -0.178,-0.179 V 7.642 c 0,-0.099 0.08,-0.179 0.178,-0.179 h 1.715 l 0.109,-0.468 c 0.225,-0.969 0.606,-1.888 1.131,-2.733 l 0.254,-0.408 -1.212,-1.211 c -0.034,-0.034 -0.052,-0.079 -0.052,-0.127 0,-0.048 0.018,-0.093 0.052,-0.127 l 2.007,-2.007 c 0.034,-0.034 0.079,-0.053 0.127,-0.053 0.048,0 0.093,0.019 0.127,0.053 l 1.212,1.212 0.408,-0.255 c 0.248,-0.154 0.505,-0.262 0.777,-0.377 0.102,-0.043 0.205,-0.087 0.308,-0.133 l -0.135,-0.301 c -0.101,0.046 -0.201,0.088 -0.301,0.13 -0.272,0.115 -0.553,0.234 -0.823,0.402 l -0.186,0.116 -1.027,-1.027 C -12.827,0.053 -12.955,0 -13.091,0 c -0.136,0 -0.263,0.053 -0.36,0.149 l -2.007,2.007 c -0.096,0.096 -0.148,0.224 -0.148,0.36 0,0.136 0.053,0.264 0.149,0.36 l 1.026,1.026 -0.115,0.187 c -0.545,0.874 -0.94,1.827 -1.173,2.831 l -0.05,0.214 h -1.453 c -0.28,0 -0.508,0.227 -0.508,0.508 v 2.839 c 0,0.28 0.228,0.508 0.508,0.508 h 1.453 l 0.05,0.214 c 0.234,1.004 0.628,1.957 1.173,2.831 l 0.115,0.186 -1.027,1.027 c -0.096,0.096 -0.148,0.224 -0.148,0.361 0,0.135 0.053,0.263 0.149,0.359 l 2.007,2.006 c 0.096,0.097 0.223,0.149 0.36,0.149 0.135,0 0.263,-0.053 0.359,-0.149 l 1.027,-1.026 0.186,0.116 c 0.875,0.544 1.828,0.939 2.831,1.172 l 0.214,0.05 v 1.453 c 0,0.28 0.228,0.508 0.508,0.508 h 2.839 c 0.28,0 0.509,-0.228 0.509,-0.508 v -1.453 l 0.213,-0.05 c 1.005,-0.234 1.957,-0.628 2.832,-1.172 l 0.186,-0.116 1.027,1.026 c 0.096,0.097 0.224,0.149 0.359,0.149 h 0.001 c 0.136,0 0.264,-0.053 0.359,-0.149 l 2.007,-2.007 c 0.096,-0.096 0.149,-0.224 0.149,-0.36 0,-0.136 -0.053,-0.263 -0.149,-0.359 L 1.34,14.22 1.456,14.034 c 0.545,-0.874 0.94,-1.827 1.172,-2.831 l 0.05,-0.214 h 1.453 c 0.281,0 0.508,-0.228 0.508,-0.508 V 7.642 C 4.639,7.361 4.412,7.134 4.131,7.134 H 2.678 L 2.628,6.92 C 2.395,5.916 2,4.963 1.456,4.089 L 1.34,3.902 2.367,2.875 C 2.463,2.779 2.516,2.651 2.516,2.515 2.516,2.379 2.463,2.252 2.367,2.156 L 0.36,0.149 C 0.264,0.053 0.136,0 0,0&quot; /&gt;
      </g>
      <g
         transform="matrix(0.35277777,0,0,-0.35277777,106.27789,97.405612)"
         id="g1089">
        <path
           inkscape:connector-curvature="0"
           id="path1087"
           style="fill:#110f0d;fill-opacity:1;fill-rule:nonzero;stroke:none"
           d="M 0,0 V 0 C -0.374,0 -0.732,0.144 -0.983,0.396 L -2.99,2.403 c -0.263,0.263 -0.407,0.612 -0.407,0.983 0,0.372 0.144,0.721 0.407,0.983 l 0.54,0.54 c -0.391,0.699 -0.699,1.442 -0.917,2.213 h -0.764 c -0.766,0 -1.39,0.624 -1.39,1.391 v 2.838 c 0,0.767 0.624,1.39 1.39,1.39 h 0.764 c 0.218,0.771 0.525,1.514 0.916,2.213 l -0.54,0.54 c -0.262,0.263 -0.407,0.612 -0.407,0.983 0,0.371 0.145,0.721 0.407,0.983 l 2.007,2.007 c 0.252,0.252 0.61,0.396 0.983,0.396 H 0 c 0.374,0 0.731,-0.144 0.983,-0.396 l 0.539,-0.54 c 0.699,0.391 1.443,0.699 2.214,0.917 v 0.764 c 0,0.767 0.623,1.39 1.389,1.39 h 2.839 c 0.767,0 1.39,-0.623 1.39,-1.39 v -0.764 c 0.771,-0.218 1.515,-0.526 2.213,-0.916 l 0.54,0.54 c 0.524,0.523 1.442,0.523 1.967,0 l 2.007,-2.007 c 0.262,-0.263 0.407,-0.613 0.407,-0.984 0,-0.371 -0.145,-0.72 -0.407,-0.983 l -0.54,-0.54 c 0.39,-0.697 0.698,-1.441 0.916,-2.213 h 0.764 c 0.766,0 1.39,-0.623 1.391,-1.39 V 8.512 c 0,-0.766 -0.624,-1.39 -1.39,-1.39 H 16.458 C 16.24,6.353 15.932,5.609 15.541,4.909 l 0.54,-0.54 c 0.263,-0.263 0.407,-0.612 0.407,-0.983 0,-0.371 -0.144,-0.72 -0.407,-0.983 L 14.074,0.396 c -0.524,-0.524 -1.443,-0.524 -1.967,0 L 11.565,0.938 C 11.306,0.806 11,0.703 10.704,0.603 10.529,0.545 10.359,0.488 10.208,0.427 l -0.122,0.306 c 0.156,0.062 0.331,0.122 0.513,0.183 0.325,0.109 0.661,0.222 0.914,0.368 l 0.11,0.062 0.717,-0.717 c 0.4,-0.4 1.101,-0.4 1.501,0 l 2.007,2.007 c 0.2,0.2 0.311,0.467 0.311,0.75 0,0.283 -0.111,0.55 -0.311,0.751 l -0.718,0.717 0.063,0.11 c 0.428,0.743 0.758,1.539 0.98,2.366 l 0.033,0.122 h 1.016 c 0.585,0 1.061,0.475 1.061,1.06 v 2.839 c -0.001,0.585 -0.477,1.061 -1.062,1.061 h -1.015 l -0.033,0.122 c -0.224,0.829 -0.553,1.625 -0.98,2.366 l -0.063,0.109 0.718,0.718 c 0.2,0.2 0.31,0.467 0.31,0.75 0,0.284 -0.11,0.55 -0.31,0.751 l -2.007,2.007 c -0.4,0.399 -1.101,0.399 -1.501,0 l -0.718,-0.718 -0.109,0.063 c -0.742,0.427 -1.538,0.756 -2.366,0.979 l -0.122,0.033 v 1.016 c 0,0.585 -0.476,1.061 -1.061,1.061 H 5.125 c -0.584,0 -1.06,-0.476 -1.06,-1.061 V 19.592 L 3.943,19.559 C 3.115,19.336 2.319,19.007 1.577,18.579 L 1.468,18.516 0.75,19.234 c -0.19,0.191 -0.463,0.3 -0.75,0.3 v 0 c -0.288,-10e-4 -0.561,-0.11 -0.751,-0.3 l -2.007,-2.006 c -0.2,-0.201 -0.31,-0.467 -0.31,-0.751 0,-0.283 0.11,-0.55 0.31,-0.751 l 0.718,-0.717 -0.063,-0.11 c -0.428,-0.742 -0.757,-1.538 -0.98,-2.365 l -0.032,-0.122 h -1.016 c -0.585,0 -1.061,-0.476 -1.061,-1.061 V 8.513 c 0,-0.585 0.476,-1.061 1.061,-1.061 h 1.016 L -3.083,7.33 C -2.859,6.502 -2.53,5.706 -2.103,4.964 L -2.04,4.854 -2.757,4.137 C -2.958,3.936 -3.068,3.67 -3.068,3.386 c 0,-0.283 0.11,-0.55 0.311,-0.751 L -0.75,0.629 c 0.189,-0.191 0.463,-0.3 0.75,-0.3 0.287,0 0.56,0.109 0.75,0.3 L 1.468,1.346 1.577,1.284 C 1.932,1.08 2.393,0.896 2.8,0.734 L 2.952,0.673 2.829,0.368 2.678,0.428 C 2.301,0.578 1.878,0.747 1.524,0.937 L 0.983,0.396 C 0.732,0.144 0.374,0 0,0" />
      </g>
      <g
         transform="matrix(0.35277777,0,0,-0.35277777,108.58682,98.277362)"
         id="g1093">
        <path
           inkscape:connector-curvature="0"
           id="path1091"
           style="fill:#110f0d;fill-opacity:1;fill-rule:nonzero;stroke:none"
           d="M 0,0 C -2.136,0 -3.866,1.674 -3.939,3.811 L -3.61,3.822 C -3.543,1.864 -1.958,0.329 0,0.329 c 1.958,0 3.543,1.534 3.61,3.493 L 3.939,3.81 C 3.866,1.674 2.136,0 0,0" />
      </g>
      <g
         transform="matrix(0.35277777,0,0,-0.35277777,109.97881,96.590766)"
         id="g1097">
        <path
           inkscape:connector-curvature="0"
           id="path1095"
           style="fill:#110f0d;fill-opacity:1;fill-rule:nonzero;stroke:none"
           d="m 0,0 h -0.33 v 1.436 l 0.075,0.049 c 1.923,1.255 3.071,3.374 3.071,5.666 0,3.729 -3.033,6.762 -6.762,6.762 -3.728,0 -6.762,-3.033 -6.762,-6.762 0,-2.292 1.148,-4.411 3.071,-5.666 L -7.562,1.436 V 0 h -0.329 v 1.259 c -1.972,1.322 -3.146,3.518 -3.146,5.892 0,3.911 3.181,7.092 7.091,7.092 3.91,0 7.092,-3.181 7.092,-7.092 C 3.146,4.777 1.972,2.581 0,1.258 Z" />
      </g>
      <g
         transform="matrix(0.35277777,0,0,-0.35277777,109.97638,96.933102)"
         id="g1101">
        <path
           inkscape:connector-curvature="0"
           id="path1099"
           style="fill:#110f0d;fill-opacity:1;fill-rule:nonzero;stroke:none"
           d="m 0,0 -0.329,0.011 0.003,0.06 c 0.002,0.021 0.003,0.042 0.003,0.064 V 0.97 h 0.33 V 0.135 C 0.007,0.106 0.005,0.077 0.003,0.048 Z" />
      </g>
      <g
         transform="matrix(0.35277777,0,0,-0.35277777,107.19723,96.933172)"
         id="g1105">
        <path
           inkscape:connector-curvature="0"
           id="path1103"
           style="fill:#110f0d;fill-opacity:1;fill-rule:nonzero;stroke:none"
           d="M 0,0 -0.003,0.047 C -0.004,0.076 -0.006,0.105 -0.006,0.135 V 0.971 H 0.323 V 0.135 C 0.323,0.113 0.324,0.091 0.326,0.07 L 0.329,0.012 Z" />
      </g>
      <g
         transform="matrix(0.35277777,0,0,-0.35277777,108.74285,94.791847)"
         id="g1109">
        <path
           inkscape:connector-curvature="0"
           id="path1107"
           style="fill:#e62941;fill-opacity:1;fill-rule:nonzero;stroke:none"
           d="m 0,0 v 0 c -0.407,0 -0.736,0.33 -0.736,0.737 v 3.491 c 0,0.407 0.329,0.736 0.736,0.736 0.407,0 0.737,-0.329 0.737,-0.736 V 0.737 C 0.737,0.33 0.407,0 0,0" />
      </g>
      <g
         transform="matrix(0.35277777,0,0,-0.35277777,108.62005,93.098584)"
         id="g1113">
        <path
           inkscape:connector-curvature="0"
           id="path1111"
           style="fill:#110f0d;fill-opacity:1;fill-rule:nonzero;stroke:none"
           d="m 0,0 c -0.315,0 -0.572,-0.257 -0.572,-0.572 v -3.491 c 0,-0.316 0.257,-0.572 0.572,-0.572 0.315,0 0.572,0.256 0.572,0.572 v 3.491 C 0.572,-0.257 0.315,0 0,0 m 0,-4.964 c -0.497,0 -0.901,0.404 -0.901,0.901 v 3.491 c 0,0.497 0.404,0.901 0.901,0.901 0.497,0 0.901,-0.404 0.901,-0.901 V -4.063 C 0.901,-4.56 0.497,-4.964 0,-4.964" />
      </g>
      <g
         transform="matrix(0.35277777,0,0,-0.35277777,109.02398,95.285347)"
         id="g1117">
        <path
           inkscape:connector-curvature="0"
           id="path1115"
           style="fill:#e62941;fill-opacity:1;fill-rule:nonzero;stroke:none"
           d="m 0,0 c 0,-0.44 -0.357,-0.797 -0.797,-0.797 -0.44,0 -0.796,0.357 -0.796,0.797 0,0.44 0.356,0.797 0.796,0.797 C -0.357,0.797 0,0.44 0,0" />
      </g>
      <g
         transform="matrix(0.35277777,0,0,-0.35277777,108.62005,95.148611)"
         id="g1121">
        <path
           inkscape:connector-curvature="0"
           id="path1119"
           style="fill:#110f0d;fill-opacity:1;fill-rule:nonzero;stroke:none"
           d="m 0,0 c -0.348,0 -0.632,-0.283 -0.632,-0.632 0,-0.348 0.284,-0.632 0.632,-0.632 0.349,0 0.632,0.284 0.632,0.632 C 0.632,-0.283 0.349,0 0,0 m 0,-1.593 c -0.53,0 -0.961,0.431 -0.961,0.961 0,0.53 0.431,0.961 0.961,0.961 0.53,0 0.961,-0.431 0.961,-0.961 0,-0.53 -0.431,-0.961 -0.961,-0.961" />
      </g>
    </g>
  </g>
</svg>
