<?xml version="1.0" encoding="UTF-8" standalone="no"?>
<!-- Created with Inkscape (http://www.inkscape.org/) -->

<svg
   xmlns:dc="http://purl.org/dc/elements/1.1/"
   xmlns:cc="http://creativecommons.org/ns#"
   xmlns:rdf="http://www.w3.org/1999/02/22-rdf-syntax-ns#"
   xmlns:svg="http://www.w3.org/2000/svg"
   xmlns="http://www.w3.org/2000/svg"
   xmlns:sodipodi="http://sodipodi.sourceforge.net/DTD/sodipodi-0.dtd"
   xmlns:inkscape="http://www.inkscape.org/namespaces/inkscape"
   width="162"
   height="162"
   viewBox="0 0 42.862499 42.862499"
   version="1.1"
   id="svg8"
   inkscape:version="0.92.3 (2405546, 2018-03-11)"
   sodipodi:docname="scratchs-back.svg">
  <defs
     id="defs2" />
  <sodipodi:namedview
     id="base"
     pagecolor="#ffffff"
     bordercolor="#666666"
     borderopacity="1.0"
     inkscape:pageopacity="0.0"
     inkscape:pageshadow="2"
     inkscape:zoom="2.8"
     inkscape:cx="89.885228"
     inkscape:cy="121.87822"
     inkscape:document-units="mm"
     inkscape:current-layer="layer1"
     showgrid="false"
     inkscape:pagecheckerboard="true"
     inkscape:window-width="2560"
     inkscape:window-height="1012"
     inkscape:window-x="0"
     inkscape:window-y="0"
     inkscape:window-maximized="1"
     units="px" />
  <metadata
     id="metadata5">
    <rdf:RDF>
      <cc:Work
         rdf:about="">
        <dc:format>image/svg+xml</dc:format>
        <dc:type
           rdf:resource="http://purl.org/dc/dcmitype/StillImage" />
        <dc:title></dc:title>
      </cc:Work>
    </rdf:RDF>
  </metadata>
  <g
     inkscape:label="Camada 1"
     inkscape:groupmode="layer"
     id="layer1"
     transform="translate(0,-254.13751)">
    <g
       id="g787"
       transform="matrix(3.9455806,0,0,3.9455806,-523.14969,-339.49622)"
       inkscape:export-xdpi="96"
       inkscape:export-ydpi="96"><path
   d="m 143.40961,155.88569 c 0,-2.95875 -2.39853,-5.35728 -5.35728,-5.35728 -2.95875,0 -5.35728,2.39853 -5.35728,5.35728 0,2.95875 2.39853,5.35728 5.35728,5.35728 2.95875,0 5.35728,-2.39853 5.35728,-5.35728"
   style="fill:#642b95;fill-opacity:1;fill-rule:nonzero;stroke:none;stroke-width:0.35277778"
   id="path305"
   inkscape:connector-curvature="0" />
<path
   d="m 138.36154,151.97794 c 0.1778,-0.25188 0.53058,-0.25188 0.70838,0 l 1.77518,2.51354 1.58785,2.24896 c 0.22225,0.31468 0.0134,0.76659 -0.35419,0.76659 h -3.36303 -3.36268 c -0.36759,0 -0.57679,-0.45191 -0.35454,-0.76659 l 1.5882,-2.24896 z"
   style="fill:#f6e156;fill-opacity:1;fill-rule:nonzero;stroke:none;stroke-width:0.35277778"
   id="path309"
   inkscape:connector-curvature="0" />



      path
         d=&quot;m 142.42261,156.74051 -1.58785,-2.24896 -1.77483,-2.51354 c -0.17251,-0.24483 -0.53587,-0.24483 -0.70873,0 l -0.0205,0.0289 1.51448,2.14453 1.58785,2.24896 c 0.22225,0.31468 0.0134,0.76659 -0.35419,0.76659 h -3.36268 -2.36996 c -0.22013,0 -0.23001,0.3369 -0.01,0.34008 0.002,0 0.004,0 0.006,0 h 3.36303 3.36268 c 0.3676,0 0.57644,-0.45191 0.35419,-0.76659&quot;
         style=&quot;fill:#f1a644;fill-opacity:1;fill-rule:nonzero;stroke:none;stroke-width:0.35277778&quot;
         id=&quot;path313&quot;
         inkscape:connector-curvature=&quot;0&quot; /&gt;
      <path
   d="m 139.00987,154.79465 c -0.0166,-0.0215 -0.0434,-0.0328 -0.0702,-0.0286 l -0.26705,0.0406 0.007,-0.77787 c 0,-0.0339 -0.0229,-0.0639 -0.0557,-0.0723 -0.0328,-0.009 -0.0674,0.006 -0.084,0.0356 l -0.77787,1.4037 c -0.0138,0.0251 -0.0123,0.0554 0.004,0.0787 0.0162,0.0233 0.0441,0.0353 0.0723,0.0311 l 0.42051,-0.0639 -0.12877,1.05552 c -0.005,0.0367 0.0187,0.0709 0.054,0.0808 0.0102,0.003 0.0208,0.004 0.031,0.002 0.024,-0.004 0.0462,-0.0194 0.0564,-0.043 l 0.74719,-1.66653 c 0.0116,-0.025 0.008,-0.054 -0.008,-0.0755"
   style="fill:#f1a644;fill-opacity:1;fill-rule:nonzero;stroke:none;stroke-width:0.35277778"
   id="path317"
   inkscape:connector-curvature="0" />
<path
   d="m 139.00987,154.79462 c -0.0166,-0.0215 -0.0434,-0.0325 -0.0702,-0.0286 l -0.26705,0.0406 0.007,-0.77787 c 0,-0.0339 -0.0229,-0.0639 -0.0557,-0.0723 -0.0328,-0.009 -0.0674,0.006 -0.084,0.036 l -0.17709,0.31927 -0.006,0.7306 0.2667,-0.0406 c 0.0268,-0.004 0.0543,0.007 0.0705,0.0286 0.0162,0.0215 0.0198,0.0508 0.009,0.0755 l -0.55351,1.23472 -0.0194,0.15664 c -0.005,0.0367 0.0187,0.0709 0.054,0.0808 0.0102,0.003 0.0208,0.004 0.031,0.002 0.024,-0.004 0.0462,-0.0194 0.0564,-0.043 l 0.74718,-1.66653 c 0.0116,-0.0247 0.008,-0.0536 -0.009,-0.0755"
   style="fill:#d2713d;fill-opacity:1;fill-rule:nonzero;stroke:none;stroke-width:0.35277778"
   id="path321"
   inkscape:connector-curvature="0" />
<path
   d="m 137.95637,161.24311 h 0.1905 l 0.16228,-0.006 0.16228,0.006 v -3.44805 h -0.51506"
   style="fill:#dbdad9;fill-opacity:1;fill-rule:nonzero;stroke:none;stroke-width:0.35277778"
   id="path325"
   inkscape:connector-curvature="0" />
<path
   d="m 138.17788,155.57715 -0.1397,1.14512 0.75812,-1.66335 -7e-4,-0.006 c -0.001,-0.001 -0.004,-0.002 -0.006,-0.002 l -0.34643,0.0526 0.007,-0.85831 -0.78881,1.40088 z m -0.13405,1.28905 c -0.0127,0 -0.0258,-0.002 -0.0381,-0.005 -0.0677,-0.0187 -0.11254,-0.0854 -0.10372,-0.15522 l 0.11783,-0.96556 -0.33161,0.0501 c -0.0533,0.008 -0.10795,-0.0152 -0.13864,-0.06 -0.031,-0.0441 -0.0339,-0.10337 -0.008,-0.15064 l 0.77822,-1.4037 c 0.0318,-0.0575 0.0984,-0.0861 0.16158,-0.0691 0.0635,0.0166 0.10724,0.0741 0.10653,0.1397 l -0.006,0.69674 0.18768,-0.0282 c 0.0515,-0.008 0.10337,0.0131 0.13512,0.055 0.0314,0.0416 0.0381,0.097 0.0166,0.14499 l -0.74719,1.66652 c -0.0198,0.0448 -0.061,0.0759 -0.10901,0.0829 -0.007,0.001 -0.0141,0.002 -0.0215,0.002"
   style="fill:#110f0d;fill-opacity:1;fill-rule:nonzero;stroke:none;stroke-width:0.35277778"
   id="path329"
   inkscape:connector-curvature="0" />
<path
   d="m 137.92226,152.25363 -3.36303,4.7625 c -0.096,0.13547 -0.10724,0.31221 -0.03,0.46143 0.0691,0.13371 0.19544,0.21379 0.3369,0.21379 h 6.72571 c 0.14182,0 0.26741,-0.0801 0.33655,-0.21379 0.0773,-0.14887 0.066,-0.32596 -0.0296,-0.46143 l -3.36303,-4.7625 c -0.0737,-0.10442 -0.18556,-0.16439 -0.30692,-0.16439 -0.121,0 -0.23283,0.06 -0.30656,0.16439 m 3.66959,5.55378 h -6.7257 c -0.18556,0 -0.35031,-0.10336 -0.43992,-0.27622 -0.0974,-0.18804 -0.0829,-0.41099 0.0381,-0.58209 l 3.36268,-4.7625 c 0.0963,-0.13582 0.24236,-0.21343 0.40181,-0.21343 0.15946,0 0.30586,0.0776 0.40182,0.21343 l 3.36303,4.7625 c 0.12065,0.1711 0.13547,0.39405 0.0377,0.58209 -0.0892,0.17286 -0.25365,0.27622 -0.43956,0.27622"
   style="fill:#100f0d;fill-opacity:1;fill-rule:nonzero;stroke:none;stroke-width:0.35277778"
   id="path333"
   inkscape:connector-curvature="0" />
<path
   inkscape:connector-curvature="0"
   id="path335"
   style="fill:#110f0d;fill-opacity:1;fill-rule:nonzero;stroke:none;stroke-width:0.35277778"
   d="M 138.60541,161.22047 H 138.489 v -3.47134 h 0.11641 z" />
<path
   inkscape:connector-curvature="0"
   id="path337"
   style="fill:#110f0d;fill-opacity:1;fill-rule:nonzero;stroke:none;stroke-width:0.35277778"
   d="m 137.96865,161.24128 h -0.11606 v -3.49179 h 0.11606 z" />
<path
   inkscape:connector-curvature="0"
   id="path339"
   style="fill:#b5b4b2;fill-opacity:1;fill-rule:nonzero;stroke:none;stroke-width:0.35277778"
   d="M 138.51793,161.24304 H 138.229 v -3.4357 h 0.28893 z" />
</g>
  </g>
</svg>
