<svg width="512" height="512" xmlns="http://www.w3.org/2000/svg">
 <title>ionicons-v5-i</title>

 <g>
  <title>background</title>
  <rect fill="none" id="canvas_background" height="402" width="582" y="-1" x="-1"/>
 </g>
 <g>
  <title>Layer 1</title>
  <path fill="#51c5e6" id="svg_1" d="m261.56,101.28a8,8 0 0 0 -11.06,0l-184.1,175.87a8,8 0 0 0 -2.47,5.79l-0.03,165.06a32,32 0 0 0 32,32l96.1,0a16,16 0 0 0 16,-16l0,-136a8,8 0 0 1 8,-8l80,0a8,8 0 0 1 8,8l0,136a16,16 0 0 0 16,16l96.06,0a32,32 0 0 0 32,-32l0,-165.06a8,8 0 0 0 -2.47,-5.79l-184.03,-175.87z"/>
  <path fill="#51c5e6" id="svg_2" d="m490.91,244.15l-74.8,-71.56l0,-108.59a16,16 0 0 0 -16,-16l-48,0a16,16 0 0 0 -16,16l0,32l-57.92,-55.38c-5.42,-5.48 -13.48,-8.62 -22.19,-8.62l0,0c-8.68,0 -16.72,3.14 -22.14,8.63l-212.7,203.5c-6.22,6 -7,15.87 -1.34,22.37a16,16 0 0 0 23.18,1.06l207.5,-198.28a8,8 0 0 1 11.06,0l207.52,198.28a16,16 0 0 0 22.59,-0.44c6.14,-6.36 5.63,-16.86 -0.76,-22.97z"/>
 </g>
</svg>