<svg xmlns="http://www.w3.org/2000/svg" viewBox="0 0 74 51" width="74" height="51">
	<style>
		tspan { white-space:pre }
		.shp0 { fill: #ffffff } 
		.shp1 { fill: #2b2e34 } 
	</style>
	<path id="Path 5" class="shp0" d="M26.14 14.95C26.14 13.21 24.61 11.81 22.73 11.83L20.22 11.84L20.27 21.04L22.78 21.03C24.66 21.02 26.17 19.61 26.16 17.87L26.14 14.95ZM27.4 17.86C27.41 20.23 25.35 22.16 22.79 22.18L20.27 22.19L20.31 28.99C20.31 29.36 20.07 29.59 19.72 29.59C19.32 29.59 19.08 29.37 19.07 29L18.98 11.62C18.98 11.07 19.37 10.7 19.97 10.69L22.69 10.68C25.24 10.67 27.33 12.58 27.34 14.94L27.4 17.86ZM22 13.6L22.03 19.26L22.77 19.26C23.67 19.25 24.39 18.64 24.39 17.88L24.37 14.96C24.37 14.5 24.1 14.18 23.94 14.04C23.63 13.75 23.21 13.6 22.75 13.6L22.74 13.6L22 13.6ZM19.71 31.36C18.34 31.36 17.31 30.35 17.3 29.01L17.21 11.63C17.2 10.1 18.38 8.93 19.96 8.92L22.68 8.91C22.69 8.91 22.7 8.91 22.71 8.91C26.22 8.91 29.09 11.6 29.11 14.92L29.17 17.85C29.19 21.2 26.33 23.93 22.8 23.95L22.06 23.95L22.08 28.98C22.09 30.33 21.08 31.35 19.73 31.36L19.71 31.36ZM41.96 23.48C41.95 21.74 40.44 20.34 38.59 20.35L35.79 20.37L35.83 28.43L38.64 28.41C40.49 28.4 41.98 26.99 41.97 25.25L41.96 23.48ZM35.74 11.79L35.78 19.19L38.27 19.17C40.12 19.16 41.61 17.75 41.6 16.01L41.6 14.9C41.59 13.17 40.08 11.77 38.23 11.78L35.74 11.79ZM43.19 25.21C43.2 27.58 41.16 29.51 38.64 29.52L35.6 29.54C35.01 29.54 34.62 29.18 34.61 28.62L34.52 11.61C34.52 11.06 34.91 10.69 35.5 10.68L38.18 10.67C40.71 10.66 42.77 12.57 42.78 14.93L42.79 16.04C42.79 17.19 42.33 18.26 41.46 19.08L40.87 19.64L41.55 20.15C42.58 20.96 43.18 22.14 43.18 23.4L43.19 25.21ZM37.53 13.55L37.55 17.4L38.26 17.4C39.13 17.4 39.84 16.78 39.83 16.02L39.83 14.91C39.82 14.16 39.11 13.55 38.25 13.55L38.24 13.55L37.53 13.55ZM37.57 22.13L37.6 26.65L38.62 26.64C39.5 26.64 40.2 26.02 40.2 25.26L40.19 23.49C40.19 23.14 40.03 22.81 39.76 22.56C39.46 22.28 39.05 22.13 38.61 22.13L38.6 22.13L37.57 22.13ZM35.6 31.31C34.86 31.31 34.19 31.06 33.68 30.59C33.14 30.09 32.84 29.39 32.84 28.63L32.75 11.62C32.74 10.09 33.92 8.92 35.49 8.91L38.17 8.9C38.19 8.9 38.2 8.9 38.21 8.9C39.87 8.9 41.44 9.5 42.63 10.61C43.86 11.75 44.54 13.28 44.55 14.92L44.56 16.03C44.57 17.29 44.17 18.49 43.44 19.51C44.4 20.58 44.95 21.95 44.95 23.39L44.96 25.2C44.97 26.84 44.31 28.38 43.09 29.53C41.9 30.66 40.32 31.29 38.65 31.3L35.61 31.31L35.6 31.31ZM50.6 10.56C50.96 10.56 51.2 10.78 51.2 11.12L51.29 28.31L55.91 28.28C56.26 28.28 56.5 28.5 56.5 28.83C56.5 29.2 56.27 29.43 55.91 29.43L51.06 29.46C50.47 29.46 50.07 29.09 50.07 28.54L49.98 11.12C49.97 10.79 50.21 10.57 50.6 10.56ZM51.06 31.23C49.49 31.23 48.31 30.08 48.3 28.55L48.2 11.13C48.2 10.46 48.47 9.85 48.95 9.41C49.39 9.01 49.97 8.8 50.6 8.79L50.61 8.79C51.93 8.79 52.96 9.81 52.97 11.11L53.06 26.53L55.9 26.51L55.91 26.51C56.53 26.51 57.11 26.73 57.54 27.13C58.01 27.57 58.27 28.17 58.27 28.82C58.28 30.17 57.27 31.19 55.92 31.2L51.07 31.23L51.06 31.23Z" />
	<path id="Path 6" class="shp1" d="M21.16 19.98L21.16 20.22C21.19 20.41 21.25 20.47 21.43 20.47C21.62 20.5 21.77 20.5 21.96 20.53C22.42 20.62 22.82 20.5 23.22 20.22C23.43 20.07 23.68 19.85 23.89 19.64C24.01 19.52 24.14 19.39 24.2 19.21C24.32 18.93 24.44 18.63 24.51 18.35C24.6 17.89 24.66 17.4 24.72 16.94C24.78 16.41 24.72 15.89 24.69 15.37C24.69 14.91 24.51 14.51 24.17 14.2C23.58 13.71 22.91 13.53 22.17 13.53C21.93 13.53 21.74 13.65 21.62 13.86C21.5 14.11 21.4 14.39 21.4 14.63C21.31 15.92 21.22 17.18 21.16 18.32C21.16 18.96 21.13 19.45 21.16 19.98ZM20.7 16.44C20.73 15.8 20.79 15.15 20.88 14.51C20.91 14.23 20.97 13.99 21.07 13.74C21.22 13.22 21.65 13.04 22.14 13.01C22.29 12.97 22.48 12.97 22.63 13.01C23.43 13.07 24.17 13.31 24.81 13.8C25.27 14.17 25.49 14.66 25.55 15.25C25.61 15.86 25.58 16.44 25.52 17.06C25.49 17.52 25.37 17.95 25.3 18.41C25.24 18.75 25.12 19.02 24.97 19.33C24.84 19.58 24.66 19.82 24.41 20.01C24.05 20.38 23.58 20.65 23.12 20.9C22.54 21.21 21.96 21.3 21.31 21.17C21.22 21.14 21.16 21.11 21.1 21.08C20.79 20.81 20.58 20.5 20.58 20.07L20.58 18.93C20.61 18.1 20.64 17.27 20.7 16.44ZM16.77 27.59C16.8 28.18 16.83 28.76 16.89 29.34C16.89 29.53 16.95 29.74 17.04 29.93C17.14 30.11 17.29 30.3 17.41 30.48C17.5 30.63 17.63 30.73 17.78 30.76C18.03 30.76 18.27 30.79 18.52 30.79C18.89 30.79 19.22 30.66 19.5 30.45C19.72 30.27 19.9 30.05 20.05 29.8C20.36 29.28 20.48 28.7 20.58 28.08C20.64 27.32 20.73 26.55 20.91 25.78C21.07 25.14 21.43 24.71 22.08 24.52C22.23 24.49 22.36 24.46 22.48 24.46C23.34 24.37 24.2 24.21 25.03 23.94C25.73 23.72 26.38 23.39 26.93 22.93C27.64 22.28 28.19 21.48 28.56 20.59C28.96 19.64 29.14 18.63 29.14 17.61C29.14 16.54 29.05 15.52 28.93 14.45C28.81 13.77 28.65 13.07 28.41 12.42C28.25 12.08 28.04 11.78 27.76 11.53C27.39 11.25 27.09 10.92 26.69 10.64C26.53 10.55 26.38 10.42 26.2 10.39C26.01 10.33 25.83 10.3 25.64 10.27C25 10.12 24.32 10.15 23.68 10.09C22.66 10.03 21.62 10 20.61 9.93C19.84 9.9 19.07 9.93 18.3 10.03C18.12 10.06 17.96 10.12 17.81 10.24C17.38 10.61 17.1 11.07 17.01 11.65C17.01 11.72 17.01 11.81 16.98 11.9C16.92 12.51 16.8 13.13 16.77 13.74C16.74 14.82 16.74 15.86 16.74 16.94C16.77 19.06 16.71 21.17 16.83 23.29C16.86 23.66 16.86 24.06 16.86 24.46C16.83 24.83 16.83 25.23 16.83 25.6C16.8 26.27 16.77 26.92 16.77 27.59ZM21.87 9.2C22.72 9.23 23.62 9.2 24.48 9.2C25 9.23 25.52 9.26 26.04 9.38C26.72 9.53 27.36 9.81 27.82 10.36C28.1 10.76 28.44 11.13 28.74 11.5C28.87 11.68 28.96 11.9 29.02 12.08C29.39 12.88 29.54 13.74 29.7 14.6C29.85 15.68 29.91 16.78 29.79 17.89C29.67 18.9 29.45 19.92 29.05 20.9C28.9 21.27 28.68 21.6 28.47 21.94C28.31 22.19 28.13 22.4 27.98 22.65C27.67 23.11 27.27 23.45 26.84 23.72C25.86 24.34 24.81 24.77 23.68 24.98C23.22 25.04 22.79 25.2 22.36 25.35C21.93 25.5 21.65 25.81 21.5 26.24C21.31 26.76 21.22 27.29 21.16 27.81C21.1 28.3 21.04 28.76 21 29.22C20.94 29.84 20.73 30.36 20.27 30.76C20.02 30.97 19.72 31.16 19.38 31.22C19.1 31.28 18.79 31.28 18.46 31.31C18 31.37 17.57 31.28 17.14 31.16C16.77 31.03 16.43 30.63 16.4 30.27C16.4 30.17 16.4 30.08 16.37 29.99C16.24 29.62 16.24 29.25 16.24 28.85C16.24 27.93 16.21 27.04 16.18 26.12C16.18 25.81 16.21 25.54 16.21 25.23C16.28 24.15 16.28 23.08 16.21 21.97C16.18 20.5 16.12 18.99 16.06 17.52C16.03 16.14 16.03 14.79 16 13.4C16 12.3 16.28 11.29 16.83 10.33C17.1 9.84 17.5 9.5 18.03 9.29C18.21 9.23 18.43 9.2 18.61 9.17L19.9 9.17L19.9 9.14C20.58 9.17 21.22 9.2 21.87 9.2ZM40.08 22.43C40.05 22.37 39.99 22.34 39.92 22.31C39.59 22 39.19 21.82 38.76 21.73C38.33 21.67 37.93 21.67 37.53 21.82C37.19 21.94 37.1 22.13 37.1 22.46C37.16 23.54 37.19 24.61 37.22 25.69C37.22 25.87 37.31 26.06 37.44 26.24C37.53 26.33 37.62 26.43 37.77 26.43C37.93 26.43 38.08 26.46 38.2 26.46C38.39 26.49 38.6 26.49 38.79 26.49C39.25 26.46 39.68 26.3 40.08 26.09C40.23 26.03 40.35 25.93 40.42 25.75C40.6 25.35 40.75 24.92 40.72 24.43C40.78 23.69 40.48 23.05 40.08 22.43ZM36.91 16.23C36.91 16.78 37.25 17.03 37.74 17.09C38.11 17.12 38.51 17.12 38.88 17.06C39.25 17.03 39.56 16.84 39.77 16.54C40.05 16.08 40.08 15.58 40.02 15.09C40.02 14.88 39.99 14.69 39.83 14.51C39.62 14.23 39.31 14.02 38.97 13.9C38.42 13.65 37.8 13.65 37.22 13.65C36.98 13.65 36.94 13.68 36.94 13.93C36.94 14.33 36.91 14.72 36.91 15.12L36.91 16.23ZM36.58 21.73C36.58 21.57 36.64 21.45 36.79 21.39C37.07 21.27 37.34 21.14 37.65 21.11C38.11 21.02 38.57 20.99 39.06 21.11C39.59 21.24 40.02 21.54 40.35 21.94C40.45 22 40.51 22.1 40.6 22.19C40.88 22.46 41.03 22.77 41.15 23.14C41.46 23.97 41.49 24.8 41.28 25.63C41.15 26.15 40.85 26.52 40.45 26.79C39.99 27.04 39.49 27.22 38.97 27.29C38.45 27.32 37.93 27.29 37.5 26.95C37.47 26.92 37.44 26.92 37.37 26.92C36.94 26.83 36.79 26.49 36.73 26.12C36.67 25.75 36.61 25.41 36.58 25.07C36.55 24.58 36.51 24.09 36.51 23.85C36.55 22.99 36.55 22.37 36.58 21.73ZM36.39 13.8C36.39 13.22 36.55 13.07 37.13 12.97C37.53 12.94 37.93 12.88 38.33 12.94C38.82 13.04 39.31 13.19 39.74 13.43C40.35 13.8 40.66 14.39 40.75 15.09C40.78 15.31 40.78 15.55 40.78 15.8C40.85 16.72 40.23 17.43 39.31 17.55C38.88 17.64 38.42 17.73 37.96 17.7C37.53 17.67 37.16 17.52 36.79 17.3C36.48 17.09 36.39 16.75 36.39 16.38C36.36 15.92 36.36 15.49 36.36 15.03C36.36 14.63 36.39 14.2 36.39 13.8ZM32.49 26.61C32.49 27.32 32.52 28.02 32.65 28.73C32.68 28.98 32.77 29.25 32.86 29.53C32.98 29.83 33.23 30.02 33.57 30.11C33.94 30.17 34.3 30.27 34.67 30.3C35.75 30.42 36.79 30.42 37.87 30.42C38.14 30.39 38.42 30.36 38.73 30.36C39.71 30.39 40.66 30.2 41.58 29.9C41.77 29.83 41.92 29.77 42.07 29.65C42.63 29.28 43.09 28.79 43.46 28.24C43.95 27.44 44.19 26.58 44.29 25.66C44.44 24.52 44.32 23.42 44.07 22.31C43.89 21.48 43.61 20.68 42.99 20.04C42.78 19.79 42.78 19.55 42.99 19.27C43.24 18.93 43.52 18.59 43.64 18.16C43.79 17.67 43.92 17.21 43.98 16.72C44.13 15.92 44.13 15.09 44.1 14.29C44.01 13.13 43.79 12.02 43.21 11.01C42.9 10.49 42.53 9.99 41.98 9.69C41.37 9.32 40.72 9.07 40.05 9.01C39 8.89 37.93 8.8 36.88 8.89C36.64 8.92 36.39 8.95 36.15 9.01C35.99 9.07 35.84 9.1 35.66 9.1C35.5 9.07 35.35 9.07 35.19 9.07C34.55 9.1 33.97 9.26 33.35 9.41C33.23 9.44 33.11 9.53 33.04 9.63C32.89 9.81 32.74 10.03 32.65 10.24C32.55 10.49 32.49 10.79 32.43 11.07C32.25 12.11 32.15 13.19 32.18 14.26C32.18 15.25 32.25 16.23 32.31 17.21C32.34 17.95 32.4 18.72 32.43 19.48C32.43 20.81 32.46 22.13 32.46 23.45C32.46 24.49 32.46 25.57 32.49 26.61ZM31.66 17.06C31.63 15.4 31.66 13.74 31.63 12.08C31.6 11.5 31.72 10.95 31.82 10.39C31.85 10.21 31.94 10.06 31.97 9.87C32.18 9.17 32.74 8.86 33.41 8.71C34.21 8.55 35.04 8.46 35.84 8.4C36.33 8.37 36.79 8.37 37.25 8.34C37.71 8.34 38.14 8.31 38.6 8.27C39.49 8.24 40.35 8.4 41.21 8.67C41.74 8.86 42.26 9.07 42.69 9.44C43.09 9.75 43.39 10.12 43.64 10.55C44.13 11.44 44.47 12.39 44.65 13.4C44.81 14.23 44.84 15.03 44.78 15.86C44.75 16.69 44.56 17.46 44.22 18.19C44.01 18.63 43.79 19.09 43.55 19.52C43.49 19.64 43.49 19.7 43.58 19.79C44.22 20.31 44.47 21.05 44.68 21.82C45.02 23.17 45.11 24.55 44.84 25.93C44.62 27.13 44.19 28.27 43.43 29.22C42.81 29.96 42.07 30.48 41.12 30.73C40.17 30.94 39.19 31.09 38.2 31.19C37.31 31.25 36.42 31.25 35.5 31.19C35.19 31.16 34.86 31.16 34.52 31.16C34.18 31.12 33.84 31.09 33.54 31.06C32.89 31.03 32.46 30.66 32.15 30.14C31.94 29.74 31.85 29.31 31.79 28.85C31.54 27.47 31.6 26.06 31.63 24.68C31.63 23.88 31.66 23.05 31.69 22.25L31.66 22.25C31.66 20.53 31.72 18.78 31.66 17.06ZM55.83 30.6C56.41 30.51 56.81 30.23 57 29.65C57.24 29.04 57.24 28.39 57.15 27.75C57.12 27.56 57.03 27.44 56.85 27.38C56.38 27.16 55.86 27.04 55.34 27.04C54.66 27.01 53.99 27.01 53.31 27.01C52.79 27.01 52.33 26.86 51.9 26.58C51.78 26.52 51.72 26.43 51.69 26.3C51.65 26.03 51.59 25.78 51.59 25.53L51.59 22.65C51.59 20.9 51.53 19.18 51.41 17.46C51.38 16.69 51.32 15.92 51.29 15.15C51.26 14.54 51.22 13.93 51.16 13.31C51.13 12.73 51.07 12.11 51.04 11.53C51.01 11.19 50.95 10.82 50.92 10.49C50.89 9.29 49.54 9.32 48.68 9.2C48.61 9.17 48.55 9.2 48.49 9.2C48.43 9.2 48.37 9.23 48.34 9.32C48.28 9.72 48.18 10.12 48.09 10.52C48.03 10.89 48 11.25 47.97 11.65C47.88 12.61 47.78 13.59 47.78 14.57C47.82 15.15 47.85 15.74 47.85 16.32C47.82 18.16 47.75 20.01 47.75 21.85C47.72 23.81 47.75 25.75 47.88 27.72C47.94 28.54 48.15 29.34 48.64 30.05C48.74 30.2 48.89 30.36 49.04 30.45C49.47 30.66 49.93 30.79 50.4 30.82L52.98 30.82C53.77 30.73 54.79 30.79 55.83 30.6ZM47.29 16.75C47.29 15.15 47.26 13.53 47.23 11.93C47.23 11.38 47.23 10.85 47.26 10.33C47.26 10.03 47.32 9.75 47.39 9.47C47.48 9.13 47.72 8.89 48.03 8.8C48.8 8.49 49.57 8.52 50.3 8.8C51.01 9.07 51.5 9.66 51.62 10.46C51.69 10.76 51.69 11.1 51.72 11.44C51.75 11.93 51.78 12.45 51.78 12.97C51.75 13.83 51.87 14.69 51.96 15.58C52.02 16.41 52.08 17.24 52.12 18.1C52.21 20.13 52.21 22.19 52.24 24.21C52.24 24.8 52.3 25.38 52.36 26C52.36 26.09 52.42 26.18 52.51 26.21C52.64 26.24 52.76 26.3 52.91 26.33C53.47 26.46 54.02 26.52 54.57 26.49C55.16 26.46 55.71 26.43 56.29 26.36C56.6 26.33 56.91 26.39 57.21 26.52C57.46 26.64 57.61 26.82 57.71 27.07C57.77 27.41 57.8 27.72 57.77 28.05C57.74 28.58 57.71 29.1 57.64 29.59C57.61 29.96 57.52 30.3 57.28 30.54C57.09 30.73 56.85 30.88 56.63 31C56.23 31.25 55.77 31.31 55.31 31.31C53.62 31.31 51.93 31.34 50.24 31.31C49.6 31.28 48.92 31.16 48.28 31.06C48.06 31.03 47.94 30.85 47.85 30.66C47.63 30.23 47.51 29.77 47.45 29.28C47.36 28.51 47.32 27.72 47.29 26.92C47.29 25.5 47.23 24.06 47.2 22.62C47.2 21.48 47.23 20.38 47.26 19.24C47.29 18.41 47.29 17.58 47.29 16.75Z" />
	<path id="Path 7" class="shp0" d="M4.2 22.05C4.19 19.1 4.71 16.14 5.74 13.32C6.78 10.51 8.38 7.82 10.55 5.63C12.71 3.43 15.44 1.77 18.36 0.89C19.82 0.45 21.32 0.19 22.81 0.11C23.56 0.08 24.31 0.07 25.05 0.13C25.79 0.18 26.52 0.29 27.25 0.43C26.89 0.52 26.52 0.56 26.17 0.65C25.81 0.72 25.46 0.78 25.1 0.87C24.4 1.03 23.71 1.21 23.03 1.4C21.67 1.8 20.35 2.28 19.1 2.85C16.59 4 14.35 5.58 12.44 7.5C10.53 9.43 8.97 11.7 7.65 14.17C6.98 15.4 6.4 16.69 5.83 18.01C5.25 19.32 4.76 20.68 4.2 22.05ZM0.98 19.95C1.13 19.92 1.26 19.92 1.4 19.9L1.79 19.89C2.05 19.88 2.29 19.9 2.52 19.92C2.99 19.98 3.41 20.08 3.81 20.21C4.22 20.34 4.58 20.52 4.94 20.71C5.11 20.81 5.28 20.91 5.44 21.03C5.6 21.15 5.77 21.25 5.92 21.39L3.17 21.5C3.45 21.24 3.75 21 4.08 20.8C4.4 20.58 4.76 20.41 5.13 20.25C5.51 20.1 5.91 19.98 6.36 19.89C6.58 19.85 6.81 19.82 7.06 19.81L7.43 19.79C7.57 19.79 7.69 19.79 7.84 19.8L8 19.97L7.21 20.8L6.4 21.6C5.87 22.14 5.31 22.66 4.77 23.19L4.62 23.33L4.46 23.2L3.54 22.45C3.24 22.2 2.92 21.95 2.62 21.69L1.72 20.92L0.83 20.13L0.98 19.95ZM70.13 28.35C70.14 31.29 69.62 34.25 68.59 37.07C67.54 39.89 65.95 42.57 63.77 44.77C61.61 46.96 58.89 48.63 55.97 49.5C54.51 49.94 53.01 50.2 51.51 50.28C50.76 50.31 50.02 50.32 49.28 50.26C48.54 50.21 47.8 50.11 47.08 49.96C47.44 49.88 47.8 49.83 48.16 49.75C48.52 49.68 48.87 49.61 49.22 49.52C49.93 49.36 50.62 49.18 51.3 48.99C52.66 48.59 53.98 48.12 55.23 47.54C57.74 46.39 59.97 44.82 61.88 42.89C63.79 40.97 65.36 38.69 66.68 36.22C67.34 34.99 67.93 33.7 68.5 32.39C69.07 31.07 69.57 29.71 70.13 28.35ZM73.35 30.44C73.2 30.47 73.07 30.48 72.93 30.49L72.54 30.51C72.28 30.51 72.04 30.49 71.8 30.47C71.34 30.42 70.91 30.31 70.51 30.18C70.11 30.06 69.74 29.87 69.39 29.69C69.22 29.58 69.04 29.48 68.88 29.37C68.72 29.25 68.56 29.14 68.41 29.01L71.16 28.9C70.87 29.15 70.58 29.39 70.25 29.59C69.93 29.81 69.57 29.98 69.2 30.14C68.82 30.29 68.41 30.42 67.97 30.5C67.74 30.54 67.52 30.58 67.27 30.59L66.89 30.6C66.76 30.6 66.63 30.6 66.49 30.59L66.33 30.42L67.12 29.6L67.92 28.79C68.46 28.25 69.02 27.73 69.56 27.21L69.71 27.06L69.87 27.19L70.79 27.94C71.09 28.2 71.4 28.44 71.7 28.7L72.61 29.47L73.5 30.26L73.35 30.44ZM20.13 35.03C20.13 34.17 19.37 33.48 18.44 33.48L17.19 33.48L17.19 38.03L18.44 38.03C19.37 38.03 20.13 37.33 20.13 36.47L20.13 35.03ZM20.75 36.47C20.75 37.64 19.71 38.59 18.44 38.59L17.19 38.59L17.19 41.96C17.19 42.14 17.07 42.25 16.89 42.25C16.69 42.25 16.57 42.14 16.57 41.96L16.57 33.37C16.57 33.09 16.77 32.91 17.07 32.91L18.42 32.91C19.69 32.91 20.73 33.86 20.73 35.03L20.75 36.47ZM17.26 37.95L18.44 37.95C19.33 37.95 20.06 37.29 20.06 36.48L20.06 35.03C20.06 34.22 19.33 33.55 18.44 33.55L17.26 33.55L17.26 37.95ZM18.44 38.1L17.12 38.1L17.12 33.4L18.44 33.4C19.41 33.4 20.2 34.13 20.2 35.03L20.2 36.48C20.2 37.37 19.41 38.1 18.44 38.1ZM17.07 32.99C16.81 32.99 16.65 33.14 16.65 33.37L16.65 41.96C16.65 42.15 16.8 42.17 16.89 42.17C17.04 42.17 17.12 42.1 17.12 41.96L17.12 38.52L18.44 38.52C19.67 38.52 20.67 37.6 20.67 36.48L20.65 35.03C20.65 33.9 19.65 32.99 18.42 32.99L17.07 32.99ZM16.89 42.32C16.65 42.32 16.5 42.18 16.5 41.96L16.5 33.37C16.5 33.05 16.73 32.84 17.07 32.84L18.42 32.84C19.73 32.84 20.8 33.82 20.8 35.03L20.82 36.48C20.82 37.68 19.75 38.67 18.44 38.67L17.26 38.67L17.26 41.96C17.26 42.18 17.11 42.32 16.89 42.32ZM22.79 32.93C22.97 32.93 23.09 33.04 23.09 33.2L23.09 41.7L25.41 41.7C25.59 41.7 25.71 41.81 25.71 41.97C25.71 42.16 25.59 42.27 25.41 42.27L22.97 42.27C22.67 42.27 22.47 42.08 22.47 41.81L22.47 33.2C22.47 33.04 22.59 32.93 22.79 32.93ZM22.79 33C22.64 33 22.55 33.08 22.55 33.2L22.55 41.81C22.55 42.04 22.71 42.19 22.97 42.19L25.41 42.19C25.56 42.19 25.64 42.11 25.64 41.97C25.64 41.85 25.55 41.77 25.41 41.77L23.02 41.77L23.02 33.2C23.02 33.08 22.93 33 22.79 33ZM25.41 42.34L22.97 42.34C22.63 42.34 22.4 42.13 22.4 41.81L22.4 33.2C22.4 33 22.56 32.86 22.79 32.86C23.01 32.86 23.16 33 23.16 33.2L23.16 41.63L25.41 41.63C25.63 41.63 25.79 41.77 25.79 41.97C25.79 42.19 25.64 42.34 25.41 42.34ZM30.1 34.45L28.89 39.2L31.31 39.2L30.1 34.45ZM31.45 39.76L28.75 39.76L28.19 41.98C28.15 42.16 28 42.27 27.8 42.27C27.6 42.27 27.52 42.16 27.56 41.98L29.8 33.13C29.84 33 29.96 32.91 30.1 32.91C30.24 32.91 30.36 33 30.4 33.13L32.64 41.98C32.7 42.16 32.6 42.27 32.41 42.27C32.21 42.27 32.07 42.16 32.01 41.98L31.45 39.76ZM28.98 39.12L31.22 39.12L30.1 34.75L28.98 39.12ZM31.41 39.27L28.79 39.27L30.1 34.15L31.41 39.27ZM28.69 39.69L31.51 39.69L32.08 41.96C32.13 42.11 32.24 42.19 32.41 42.19C32.48 42.19 32.54 42.17 32.57 42.14C32.6 42.1 32.59 42.04 32.57 42L30.33 33.15C30.3 33.05 30.21 32.99 30.1 32.99C30 32.99 29.9 33.05 29.87 33.15L27.63 41.99C27.62 42.04 27.61 42.1 27.65 42.14C27.68 42.18 27.75 42.19 27.8 42.19C27.97 42.19 28.09 42.1 28.12 41.96L28.69 39.69ZM32.41 42.34C32.18 42.34 32.01 42.22 31.94 42L31.39 39.84L28.81 39.84L28.27 41.99C28.22 42.2 28.04 42.34 27.8 42.34C27.68 42.34 27.59 42.31 27.53 42.24C27.49 42.19 27.45 42.1 27.49 41.96L29.73 33.11C29.78 32.95 29.93 32.84 30.1 32.84C30.27 32.84 30.42 32.95 30.47 33.11L32.72 41.96C32.76 42.09 32.72 42.17 32.69 42.22C32.65 42.28 32.57 42.34 32.41 42.34ZM38.62 42.27C38.46 42.27 38.33 42.18 38.27 42.05L35.07 34.69L35.07 41.98C35.07 42.16 34.95 42.27 34.77 42.27C34.57 42.27 34.45 42.16 34.45 41.98L34.45 33.15C34.45 33 34.55 32.91 34.71 32.91C34.87 32.91 35.01 33 35.07 33.13L38.27 40.5L38.27 33.19C38.27 33.02 38.39 32.91 38.58 32.91C38.76 32.91 38.88 33.02 38.88 33.19L38.88 42.03C38.88 42.18 38.78 42.27 38.62 42.27ZM34.99 34.33L38.33 42.02C38.38 42.12 38.5 42.19 38.62 42.19C38.69 42.19 38.81 42.17 38.81 42.03L38.81 33.19C38.81 33.06 38.72 32.99 38.58 32.99C38.43 32.99 38.34 33.06 38.34 33.19L38.34 40.85L35 33.16C34.95 33.06 34.83 32.99 34.71 32.99C34.64 32.99 34.53 33.01 34.53 33.15L34.53 41.97C34.53 42.16 34.68 42.19 34.77 42.19C34.91 42.19 34.99 42.11 34.99 41.97L34.99 34.33ZM38.62 42.34C38.44 42.34 38.27 42.24 38.2 42.08L35.14 35.04L35.14 41.97C35.14 42.19 34.99 42.34 34.77 42.34C34.53 42.34 34.38 42.2 34.38 41.97L34.38 33.15C34.38 32.96 34.51 32.84 34.71 32.84C34.89 32.84 35.06 32.94 35.13 33.1L38.19 40.14L38.19 33.19C38.19 32.98 38.35 32.84 38.58 32.84C38.8 32.84 38.96 32.98 38.96 33.19L38.96 42.03C38.96 42.22 38.82 42.34 38.62 42.34ZM45.6 42.27C45.44 42.27 45.3 42.18 45.24 42.05L42.04 34.69L42.04 41.98C42.04 42.16 41.92 42.27 41.74 42.27C41.54 42.27 41.42 42.16 41.42 41.98L41.42 33.15C41.42 33 41.52 32.91 41.68 32.91C41.84 32.91 41.98 33 42.04 33.13L45.24 40.5L45.24 33.19C45.24 33.02 45.36 32.91 45.56 32.91C45.74 32.91 45.85 33.02 45.85 33.19L45.85 42.03C45.85 42.18 45.76 42.27 45.6 42.27ZM41.97 34.33L45.31 42.02C45.35 42.12 45.47 42.19 45.6 42.19C45.67 42.19 45.78 42.17 45.78 42.03L45.78 33.19C45.78 33.06 45.69 32.99 45.56 32.99C45.4 32.99 45.31 33.06 45.31 33.19L45.31 40.85L41.97 33.16C41.92 33.06 41.81 32.99 41.68 32.99C41.61 32.99 41.5 33.01 41.5 33.15L41.5 41.97C41.5 42.16 41.65 42.19 41.74 42.19C41.88 42.19 41.97 42.11 41.97 41.97L41.97 34.33ZM45.6 42.34C45.41 42.34 45.25 42.24 45.17 42.08L42.11 35.04L42.11 41.97C42.11 42.19 41.96 42.34 41.74 42.34C41.5 42.34 41.35 42.2 41.35 41.97L41.35 33.15C41.35 32.96 41.48 32.84 41.68 32.84C41.87 32.84 42.03 32.94 42.11 33.1L45.16 40.14L45.16 33.19C45.16 32.98 45.32 32.84 45.56 32.84C45.78 32.84 45.93 32.98 45.93 33.19L45.93 42.03C45.93 42.22 45.79 42.34 45.6 42.34ZM50.9 33.5L49.01 33.5L49.01 37.13L50.17 37.13C50.34 37.13 50.46 37.24 50.46 37.41C50.46 37.59 50.34 37.7 50.17 37.7L49.01 37.7L49.01 41.68L50.9 41.68C51.1 41.68 51.22 41.79 51.22 41.98C51.22 42.16 51.1 42.27 50.9 42.27L48.91 42.27C48.62 42.27 48.42 42.08 48.42 41.81L48.42 33.37C48.42 33.1 48.62 32.91 48.91 32.91L50.9 32.91C51.1 32.91 51.22 33.02 51.22 33.21C51.22 33.39 51.1 33.5 50.9 33.5ZM48.91 32.99C48.66 32.99 48.49 33.14 48.49 33.37L48.49 41.81C48.49 42.04 48.66 42.19 48.91 42.19L50.9 42.19C50.99 42.19 51.14 42.17 51.14 41.98C51.14 41.78 50.99 41.76 50.9 41.76L48.94 41.76L48.94 37.63L50.17 37.63C50.31 37.63 50.39 37.55 50.39 37.41C50.39 37.28 50.3 37.21 50.17 37.21L48.94 37.21L48.94 33.42L50.9 33.42C50.99 33.42 51.14 33.4 51.14 33.21C51.14 33.01 50.99 32.99 50.9 32.99L48.91 32.99ZM50.9 42.34L48.91 42.34C48.57 42.34 48.34 42.13 48.34 41.81L48.34 33.37C48.34 33.05 48.57 32.84 48.91 32.84L50.9 32.84C51.14 32.84 51.29 32.98 51.29 33.21C51.29 33.43 51.14 33.57 50.9 33.57L49.09 33.57L49.09 37.06L50.17 37.06C50.38 37.06 50.54 37.2 50.54 37.41C50.54 37.63 50.39 37.77 50.17 37.77L49.09 37.77L49.09 41.61L50.9 41.61C51.14 41.61 51.29 41.75 51.29 41.98C51.29 42.2 51.14 42.34 50.9 42.34ZM54.38 38.03L55.63 38.05C56.56 38.05 57.32 37.35 57.32 36.49L57.32 35.03C57.32 34.17 56.56 33.48 55.63 33.48L54.38 33.48L54.38 38.03ZM57.3 41.99L55.83 38.59L54.38 38.59L54.38 41.96C54.38 42.14 54.26 42.25 54.08 42.25C53.88 42.25 53.76 42.14 53.76 41.96L53.76 33.37C53.76 33.1 53.96 32.91 54.26 32.91L55.61 32.91C56.88 32.91 57.91 33.86 57.91 35.03L57.91 36.49C57.91 37.32 57.46 38.03 56.66 38.39L56.44 38.5L57.95 41.99C58.03 42.16 57.93 42.27 57.75 42.27C57.56 42.27 57.38 42.16 57.3 41.99ZM54.45 37.96L55.63 37.97C56.52 37.97 57.24 37.31 57.24 36.49L57.24 35.03C57.24 34.22 56.52 33.55 55.63 33.55L54.45 33.55L54.45 37.96ZM55.63 38.12L54.3 38.1L54.3 33.4L55.63 33.4C56.6 33.4 57.39 34.13 57.39 35.03L57.39 36.49C57.39 37.39 56.6 38.12 55.63 38.12ZM57.36 41.96C57.43 42.1 57.59 42.19 57.75 42.19C57.82 42.19 57.88 42.17 57.9 42.14C57.92 42.11 57.9 42.06 57.89 42.03L56.35 38.47L56.63 38.33C57.39 37.98 57.84 37.29 57.84 36.49L57.84 35.03C57.84 33.9 56.84 32.99 55.61 32.99L54.26 32.99C54 32.99 53.83 33.14 53.83 33.37L53.83 41.96C53.83 42.15 53.99 42.17 54.08 42.17C54.22 42.17 54.3 42.1 54.3 41.96L54.3 38.52L55.88 38.52L57.36 41.96ZM57.75 42.34C57.53 42.34 57.32 42.22 57.23 42.03L57.23 42.02L55.78 38.67L54.45 38.67L54.45 41.96C54.45 42.18 54.3 42.32 54.08 42.32C53.84 42.32 53.69 42.18 53.69 41.96L53.69 33.37C53.69 33.05 53.92 32.84 54.26 32.84L55.61 32.84C56.92 32.84 57.99 33.82 57.99 35.03L57.99 36.49C57.99 37.35 57.5 38.09 56.69 38.46L56.54 38.54L58.02 41.96C58.07 42.06 58.07 42.15 58.02 42.22C57.97 42.3 57.88 42.34 57.75 42.34Z" />
</svg>